;TYPE=PLATED
;Layer: PTH_Through
;EasyEDA Pro v3.2.149, 2026-10-06 17:45:09
;Gerber Generator version 0.3
M48
METRIC,LZ,0000.00000
;Hole size 1 = 0.30500 METRIC
T01C0.30500
;Hole size 2 = 0.60000 METRIC
T02C0.60000
;Hole size 3 = 1.02001 METRIC
T03C1.02001
;Hole size 4 = 1.10002 METRIC
T04C1.10002
;Hole size 5 = 1.20000 METRIC
T05C1.20000
%
G05
G90
T01
X63.38392Y18.669
X61.6712Y18.67395
X60.83402Y17.653
X59.14441Y17.74448
X59.98159Y18.66383
X57.41721Y17.76988
X58.25439Y18.63843
X55.71541Y17.61748
X56.55259Y18.63843
X56.55259Y7.78252
X55.71541Y7.14257
X58.27979Y7.78252
X57.44261Y6.76157
X59.98159Y7.78252
X59.14441Y6.76157
X61.65799Y7.80792
X60.82081Y6.78697
X63.38519Y7.83332
X62.54801Y6.81237
X54.864Y7.78005
X54.864Y18.63595
X64.2366Y6.76405
X65.0748Y6.76405
X62.5348Y17.64535
X66.76895Y6.731
X66.76895Y7.62
X66.74355Y8.4582
X66.76895Y9.271
X66.76895Y10.16
X66.76895Y11.0236
X66.76895Y11.8364
X66.78165Y12.6873
X66.78165Y13.5763
X66.75625Y14.4145
X66.78165Y15.2273
X66.78165Y16.1163
X66.78165Y16.9799
X66.78165Y17.7927
X66.76895Y18.669
X58.166Y14.351
X58.11479Y12.7508
X58.06399Y11.049
X60.833Y9.80399
X63.60201Y11.049
X63.60201Y12.7
X63.60201Y14.351
X60.833Y15.46901
X60.0202Y13.5128
X61.6712Y13.5382
X61.6712Y11.9126
X60.0202Y11.8872
X65.9384Y18.71215
X65.49139Y20.828
X64.516Y22.479
X63.73896Y22.49404
X62.69137Y22.5091
X67.691Y4.699
X52.324Y5.588
X43.561Y5.334
X41.275Y3.302
X39.50144Y9.90156
X50.546Y7.59993
X49.403Y7.925
X50.673Y9.576
X51.816Y10.237
X48.43486Y9.627
X46.93676Y10.211
X52.197Y19.05
X47.244Y19.126
X43.0671Y20.0801
X49.50935Y18.52135
X47.498Y17.728
X49.53Y16.94993
X47.498Y16.10004
X45.92701Y15.547
X44.98393Y15.51993
X41.275Y15.875
X40.005Y20.193
X33.147Y19.939
X24.3155Y20.168
X20.701Y21.717
X19.558Y22.225
X21.844Y18.288
X37.973Y15.621
X39.167Y15.443
X23.749Y14.986
X23.749Y13.97
X19.64732Y14.85146
X19.685Y13.97
X19.583Y15.65642
X19.685Y13.081
X16.129Y14.478
X12.192Y17.653
X12.065Y21.971
X17.907Y22.352
X17.399Y20.193
X18.67572Y20.193
X18.67572Y18.86878
X17.399Y18.923
X18.03497Y19.55908
X43.434Y15.494
X24.54985Y21.247
X38.354Y12.7
X30.48Y9.652
X24.638Y8.763
X25.908Y8.763
X27.178Y8.763
X28.321Y8.763
X29.464Y8.763
X24.638Y10.922
X25.908Y10.922
X27.178Y10.922
X28.321Y10.922
X29.464Y10.922
X25.908Y13.208
X27.178Y13.208
X28.321Y13.208
X29.464Y13.208
X14.986Y7.366
X14.859Y3.937
X14.097Y7.366
X13.208Y7.366
X14.05721Y3.937
X13.20442Y3.937
X11.43Y4.318
X10.0172Y22.27682
X11.43Y17.653
X12.446Y15.2654
X7.5565Y9.3345
X7.366Y2.286
X7.60844Y23.37956
X52.02183Y13.335
X52.02183Y11.176
X18.9228Y5.715
X19.7868Y5.715
X25.908Y6.858
X27.178Y6.858
X28.321Y6.858
X29.464Y6.858
X24.511Y6.858
X30.734Y6.858
X31.88889Y6.858
X47.1424Y12.7258
X47.1424Y11.837
X10.7446Y6.1978
X10.7446Y5.3338
X11.938Y10.287
X11.176Y8.68782
X9.54976Y19.82878
X8.03974Y19.85872
X12.065Y18.796
X12.07249Y19.812
X9.525Y18.72501
X8.382Y21.844
X14.224Y10.541
X15.875Y13.208
X16.383Y17.95168
X8.255Y10.287
X9.271Y6.95439
X8.763Y3.81
X9.017Y14.605
X7.239Y16.129
T02
X2.31584Y15.49004G85X1.11585Y15.49004
X2.31579Y24.1301G85X1.1158Y24.1301
X6.11541Y15.48989G85X5.31541Y15.48989
X6.11501Y24.12995G85X5.31504Y24.12995
X2.31559Y1.2701G85X1.11559Y1.2701
X2.31554Y9.91017G85X1.11554Y9.91017
X6.11515Y1.26995G85X5.31515Y1.26995
X6.11476Y9.91001G85X5.31478Y9.91001
T03
X6.9596Y12.7508
X9.4996Y12.7508
X12.0396Y12.7508
T04
X67.31Y24.13
X64.77Y24.13
X62.23Y24.13
X59.69Y24.13
X57.15Y24.13
X54.61Y24.13
X52.07Y24.13
X49.53Y24.13
X46.99Y24.13
X44.45Y24.13
X41.91Y24.13
X39.37Y24.13
X36.83Y24.13
X34.29Y24.13
X31.75Y24.13
X29.21Y24.13
X26.67Y24.13
X24.13Y24.13
X21.59Y24.13
X19.05Y24.13
X16.51Y24.13
X13.97Y24.13
X11.43Y24.13
X8.89Y24.13
X67.31Y1.27
X64.77Y1.27
X62.23Y1.27
X59.69Y1.27
X57.15Y1.27
X54.61Y1.27
X52.07Y1.27
X49.53Y1.27
X46.99Y1.27
X44.45Y1.27
X41.91Y1.27
X39.37Y1.27
X36.83Y1.27
X34.29Y1.27
X31.75Y1.27
X29.21Y1.27
X26.67Y1.27
X24.13Y1.27
X21.59Y1.27
X19.05Y1.27
X16.51Y1.27
X13.97Y1.27
X11.43Y1.27
X8.89Y1.27
T05
X33.65452Y12.70035
X36.19452Y12.70035
M30