G04 Layer: TopSolderMaskLayer*
G04 EasyEDA Pro v3.2.149, 2026-10-06 17:45:09*
G04 Gerber Generator version 0.3*
G04 Scale: 100 percent, Rotated: No, Reflected: No*
G04 Dimensions in millimeters*
G04 Leading zeros omitted, absolute positions, 4 integers and 5 decimals*
G04 Generated by one-click*
G04 Object Configs: Pad,Via,Track,Text,Image,Dimension,BoardOutline,BoardCutout,CopperFilled,SolidRegion,FPCStiffener,Line,PlaneZone,ComponentProperty,ComponentSilkscreen,TearDrop*
G04 Layer Configs: 1,15,16,2,3,4,5,6,7,8,9,10,11,13,14,56*
G04 Copper Areas: 0*
%FSLAX45Y45*%
%MOMM*%
%AMRoundRect*1,1,$1,$2,$3*1,1,$1,$4,$5*1,1,$1,0-$2,0-$3*1,1,$1,0-$4,0-$5*20,1,$1,$2,$3,$4,$5,0*20,1,$1,$4,$5,0-$2,0-$3,0*20,1,$1,0-$2,0-$3,0-$4,0-$5,0*20,1,$1,0-$4,0-$5,$2,$3,0*4,1,4,$2,$3,$4,$5,0-$2,0-$3,0-$4,0-$5,$2,$3,0*%
%ADD10RoundRect,0.1016X-0.25X0.27X0.25X0.27*%
%ADD11RoundRect,0.1016X-0.27X-0.25X-0.27X0.25*%
%ADD12RoundRect,0.10003X-0.3X-0.15X-0.3X0.15*%
%ADD13RoundRect,0.1016X-0.3X-0.15X-0.3X0.15*%
%ADD14RoundRect,0.1016X-1.0X1.0X1.0X1.0*%
%ADD15C,2.1016*%
%ADD16RoundRect,0.1016X-0.85X0.85X0.85X0.85*%
%ADD17C,1.8016*%
%ADD18RoundRect,0.1025X-0.27X-0.31824X-0.27X0.31824*%
%ADD19RoundRect,0.1016X-0.27X-0.31824X-0.27X0.31824*%
%ADD20RoundRect,0.1016X-0.5X0.32501X0.5X0.32501*%
%ADD21RoundRect,0.1016X-0.27X-0.28283X-0.27X0.28283*%
%ADD22RoundRect,0.1016X-0.28283X0.27X0.28283X0.27*%
%ADD23RoundRect,0.1016X-0.95X0.65X0.95X0.65*%
%ADD24RoundRect,0.10003X-0.2X0.4X0.2X0.4*%
%ADD25RoundRect,0.10003X-0.4X-0.2X-0.4X0.2*%
%ADD26RoundRect,0.10003X-0.4X0.4X0.4X0.4*%
%ADD27RoundRect,0.10003X-0.6X0.6X0.6X0.6*%
%ADD28RoundRect,0.1016X-0.15X0.5X0.15X0.5*%
%ADD29RoundRect,0.1016X-0.5X-0.15X-0.5X0.15*%
%ADD30RoundRect,0.1016X-1.075X-1.075X-1.075X1.075*%
%ADD31RoundRect,0.1016X-1.2325X0.52501X1.2325X0.52501*%
%ADD32RoundRect,0.1016X-1.2325X1.77X1.2325X1.77*%
%ADD33RoundRect,0.10003X-0.57501X-0.3X-0.57501X0.3*%
%ADD34RoundRect,0.10003X-0.57501X-0.15X-0.57501X0.15*%
%ADD35O,2.30002X1.10002*%
%ADD36O,1.90002X1.10002*%
%ADD37RoundRect,0.1016X-0.8X0.8X0.8X0.8*%
%ADD38C,1.7016*%
G75*


G04 Pad Start*
G54D10*
G01X1388212Y1778000D03*
G01X1304188Y1778000D03*
G54D11*
G01X1612900Y1616812D03*
G01X1612900Y1532788D03*
G54D10*
G01X2193188Y2082800D03*
G01X2277212Y2082800D03*
G01X1078128Y1526540D03*
G01X1162152Y1526540D03*
G01X1786788Y1473200D03*
G01X1870812Y1473200D03*
G01X1786788Y1574800D03*
G01X1870812Y1574800D03*
G01X1050188Y1003300D03*
G01X1134212Y1003300D03*
G54D11*
G01X1422400Y956412D03*
G01X1422400Y872388D03*
G01X1422400Y575412D03*
G01X1422400Y491388D03*
G01X1320800Y575412D03*
G01X1320800Y491388D03*
G54D10*
G01X6257188Y2159000D03*
G01X6341212Y2159000D03*
G01X6434988Y2159000D03*
G01X6519012Y2159000D03*
G54D11*
G01X4229100Y402488D03*
G01X4229100Y486512D03*
G01X4229100Y1705712D03*
G01X4229100Y1621688D03*
G54D12*
G01X901700Y1519441D03*
G54D13*
G01X901700Y1584439D03*
G54D12*
G01X876300Y2102599D03*
G54D13*
G01X876300Y2037601D03*
G54D12*
G01X876300Y1872501D03*
G54D13*
G01X876300Y1937499D03*
G54D12*
G01X863600Y972299D03*
G54D13*
G01X863600Y907301D03*
G54D12*
G01X863600Y695439D03*
G54D13*
G01X863600Y630441D03*
G54D12*
G01X863600Y457721D03*
G54D13*
G01X863600Y522719D03*
G54D14*
G01X3365452Y1270035D03*
G54D15*
G01X3619452Y1270035D03*
G54D16*
G01X695960Y1275080D03*
G54D17*
G01X949960Y1275080D03*
G01X1203960Y1275080D03*
G54D11*
G01X4445000Y588594D03*
G01X4445000Y503606D03*
G54D19*
G01X4457700Y2070125D03*
G01X4457700Y1968475D03*
G54D20*
G01X2732100Y1733296D03*
G01X2732100Y1543304D03*
G01X2932100Y1638300D03*
G01X2732100Y2152396D03*
G01X2732100Y1962404D03*
G01X2932100Y2057400D03*
G54D21*
G01X1054100Y1683918D03*
G01X1054100Y1770482D03*
G01X1098138Y2141118D03*
G01X1098138Y2227682D03*
G54D22*
G01X1389482Y1879600D03*
G01X1302918Y1879600D03*
G01X1389482Y1981200D03*
G01X1302918Y1981200D03*
G54D21*
G01X1511300Y1618082D03*
G01X1511300Y1531518D03*
G54D22*
G01X2191918Y2184400D03*
G01X2278482Y2184400D03*
G01X1785518Y1320800D03*
G01X1872082Y1320800D03*
G01X1786268Y1320800D03*
G01X1699705Y1320800D03*
G01X2278482Y1422400D03*
G01X2191918Y1422400D03*
G01X2191918Y1524000D03*
G01X2278482Y1524000D03*
G01X2278482Y1625600D03*
G01X2191918Y1625600D03*
G54D21*
G01X4597400Y589382D03*
G01X4597400Y502818D03*
G01X4584700Y1963318D03*
G01X4584700Y2049882D03*
G01X1051560Y327558D03*
G01X1051560Y414122D03*
G01X1054100Y782218D03*
G01X1054100Y868782D03*
G01X2552700Y1656182D03*
G01X2552700Y1569618D03*
G01X2552700Y2064918D03*
G01X2552700Y2151482D03*
G54D22*
G01X5354218Y368300D03*
G01X5440782Y368300D03*
G01X5125618Y368300D03*
G01X5212182Y368300D03*
G01X5123282Y2108200D03*
G01X5036718Y2108200D03*
G01X5123282Y2006600D03*
G01X5036718Y2006600D03*
G01X5036922Y1117600D03*
G01X4950358Y1117600D03*
G01X5036922Y1333500D03*
G01X4950358Y1333500D03*
G01X5036718Y1117600D03*
G01X5123282Y1117600D03*
G01X5036718Y1333500D03*
G01X5123282Y1333500D03*
G54D21*
G01X4229100Y655218D03*
G01X4229100Y741782D03*
G54D23*
G01X3975989Y410007D03*
G01X3136011Y410007D03*
G01X3975989Y859993D03*
G01X3136011Y859993D03*
G01X3975900Y1679917D03*
G01X3135922Y1679917D03*
G01X3975900Y2129903D03*
G01X3135922Y2129903D03*
G54D24*
G01X6678397Y1967509D03*
G01X6593408Y1967509D03*
G01X6508394Y1967509D03*
G01X6423406Y1967509D03*
G01X6338392Y1967509D03*
G01X6253404Y1967509D03*
G01X6168390Y1967509D03*
G01X6083402Y1967509D03*
G01X5998413Y1967509D03*
G01X5913399Y1967509D03*
G01X5828411Y1967509D03*
G01X5743397Y1967509D03*
G01X5658409Y1967509D03*
G01X5573395Y1967509D03*
G01X5488407Y1967509D03*
G54D25*
G01X5380888Y1864995D03*
G01X5380888Y1780007D03*
G01X5380888Y1694993D03*
G01X5380888Y1610004D03*
G01X5380888Y1524991D03*
G01X5380888Y1440002D03*
G01X5380888Y1354988D03*
G01X5380888Y1270000D03*
G01X5380888Y1185012D03*
G01X5380888Y1099998D03*
G01X5380888Y1015009D03*
G01X5380888Y929996D03*
G01X5380888Y845007D03*
G01X5380888Y759993D03*
G01X5380888Y675005D03*
G54D24*
G01X5488407Y572491D03*
G01X5573395Y572491D03*
G01X5658409Y572491D03*
G01X5743397Y572491D03*
G01X5828411Y572491D03*
G01X5913399Y572491D03*
G01X5998413Y572491D03*
G01X6083402Y572491D03*
G01X6168390Y572491D03*
G01X6253404Y572491D03*
G01X6338392Y572491D03*
G01X6423406Y572491D03*
G01X6508394Y572491D03*
G01X6593408Y572491D03*
G01X6678397Y572491D03*
G54D25*
G01X6785889Y675005D03*
G01X6785889Y759993D03*
G01X6785889Y845007D03*
G01X6785889Y929996D03*
G01X6785889Y1015009D03*
G01X6785889Y1099998D03*
G01X6785889Y1185012D03*
G01X6785889Y1270000D03*
G01X6785889Y1354988D03*
G01X6785889Y1440002D03*
G01X6785889Y1524991D03*
G01X6785889Y1610004D03*
G01X6785889Y1694993D03*
G01X6785889Y1780007D03*
G01X6785889Y1864995D03*
G54D26*
G01X6783400Y1969999D03*
G01X6783400Y570001D03*
G01X5383403Y1969999D03*
G01X5383403Y570001D03*
G54D27*
G01X6248400Y1434998D03*
G01X6248400Y1270000D03*
G01X6248400Y1105002D03*
G01X6083402Y1434998D03*
G01X6083402Y1270000D03*
G01X6083402Y1105002D03*
G01X5918403Y1434998D03*
G01X5918403Y1270000D03*
G01X5918403Y1105002D03*
G54D28*
G01X1903496Y2140896D03*
G01X1853484Y2140896D03*
G01X1803497Y2140896D03*
G01X1753484Y2140896D03*
G01X1703497Y2140896D03*
G54D29*
G01X1618508Y2055908D03*
G01X1618508Y2005895D03*
G01X1618508Y1955908D03*
G01X1618508Y1905896D03*
G01X1618508Y1855908D03*
G54D28*
G01X1703497Y1770920D03*
G01X1753484Y1770920D03*
G01X1803497Y1770920D03*
G01X1853484Y1770920D03*
G01X1903496Y1770920D03*
G54D29*
G01X1988485Y1855908D03*
G01X1988485Y1905896D03*
G01X1988485Y1955908D03*
G01X1988485Y2005895D03*
G01X1988485Y2055908D03*
G54D30*
G01X1803497Y1955908D03*
G54D31*
G01X1695450Y966597D03*
G01X1695450Y736600D03*
G01X1695450Y506603D03*
G54D32*
G01X2266950Y736600D03*
G54D33*
G01X629031Y2301011D03*
G01X629031Y2221001D03*
G01X629031Y1661008D03*
G01X629031Y1740992D03*
G54D34*
G01X629031Y1805991D03*
G01X629031Y2156003D03*
G01X629031Y1905991D03*
G01X629031Y1956003D03*
G01X629031Y2005990D03*
G01X629031Y2056003D03*
G01X629031Y2105990D03*
G01X629031Y1856003D03*
G54D35*
G01X171552Y1548994D03*
G01X171552Y2413000D03*
G54D36*
G01X571525Y1548994D03*
G01X571500Y2413000D03*
G54D33*
G01X629006Y879018D03*
G01X629006Y799008D03*
G01X629006Y239014D03*
G01X629006Y318999D03*
G54D34*
G01X629006Y383997D03*
G01X629006Y734009D03*
G01X629006Y483997D03*
G01X629006Y534010D03*
G01X629006Y583997D03*
G01X629006Y634009D03*
G01X629006Y683997D03*
G01X629006Y434010D03*
G54D35*
G01X171526Y127000D03*
G01X171526Y991006D03*
G54D36*
G01X571500Y127000D03*
G01X571475Y991006D03*
G54D10*
G01X6734912Y368300D03*
G01X6650888Y368300D03*
G01X6625488Y2159000D03*
G01X6709512Y2159000D03*
G01X1388212Y2197100D03*
G01X1304188Y2197100D03*
G54D37*
G01X6731000Y2413000D03*
G54D38*
G01X6477000Y2413000D03*
G01X6223000Y2413000D03*
G01X5969000Y2413000D03*
G01X5715000Y2413000D03*
G01X5461000Y2413000D03*
G01X5207000Y2413000D03*
G01X4953000Y2413000D03*
G01X4699000Y2413000D03*
G01X4445000Y2413000D03*
G01X4191000Y2413000D03*
G01X3937000Y2413000D03*
G01X3683000Y2413000D03*
G01X3429000Y2413000D03*
G01X3175000Y2413000D03*
G01X2921000Y2413000D03*
G01X2667000Y2413000D03*
G01X2413000Y2413000D03*
G01X2159000Y2413000D03*
G01X1905000Y2413000D03*
G01X1651000Y2413000D03*
G01X1397000Y2413000D03*
G01X1143000Y2413000D03*
G01X889000Y2413000D03*
G54D37*
G01X6731000Y127000D03*
G54D38*
G01X6477000Y127000D03*
G01X6223000Y127000D03*
G01X5969000Y127000D03*
G01X5715000Y127000D03*
G01X5461000Y127000D03*
G01X5207000Y127000D03*
G01X4953000Y127000D03*
G01X4699000Y127000D03*
G01X4445000Y127000D03*
G01X4191000Y127000D03*
G01X3937000Y127000D03*
G01X3683000Y127000D03*
G01X3429000Y127000D03*
G01X3175000Y127000D03*
G01X2921000Y127000D03*
G01X2667000Y127000D03*
G01X2413000Y127000D03*
G01X2159000Y127000D03*
G01X1905000Y127000D03*
G01X1651000Y127000D03*
G01X1397000Y127000D03*
G01X1143000Y127000D03*
G01X889000Y127000D03*
G04 Pad End*

M02*

