G04 Layer: TopSilkscreenLayer*
G04 EasyEDA Pro v3.2.149, 2026-10-06 17:45:09*
G04 Gerber Generator version 0.3*
G04 Scale: 100 percent, Rotated: No, Reflected: No*
G04 Dimensions in millimeters*
G04 Leading zeros omitted, absolute positions, 4 integers and 5 decimals*
G04 Generated by one-click*
G04 Object Configs: Pad,Via,Track,Text,Image,Dimension,BoardOutline,BoardCutout,CopperFilled,SolidRegion,FPCStiffener,Line,PlaneZone,ComponentProperty,ComponentSilkscreen,TearDrop*
G04 Layer Configs: 1,15,16,2,3,4,5,6,7,8,9,10,11,13,14,56*
G04 Copper Areas: 0*
%FSLAX45Y45*%
%MOMM*%
%ADD10C,0.1524*%
%ADD11C,0.1016*%
%ADD12C,0.1*%
%ADD13C,0.2032*%
%ADD14C,0.203*%
%ADD15C,0.254*%
%ADD16C,0.2*%
%ADD17C,0.3*%
%ADD18C,0.08001*%
%ADD19C,0.0873*%
%ADD20C,0.0762*%
G75*


G04 Image Start*
G36*
G01X4537831Y1385561D02*
G01X4533191Y1381052D01*
G01X4531703Y1379761D01*
G01X4530215Y1378469D01*
G01X4528592Y1376408D01*
G01X4526968Y1374346D01*
G01X4519319Y1366798D01*
G01X4511669Y1359250D01*
G01X4510215Y1357783D01*
G01X4508762Y1356315D01*
G01X4505309Y1353170D01*
G01X4501857Y1350025D01*
G01X4500968Y1348999D01*
G01X4500079Y1347973D01*
G01X4486213Y1333987D01*
G01X4472347Y1320001D01*
G01X4456389Y1303982D01*
G01X4440431Y1287964D01*
G01X4433004Y1280480D01*
G01X4425577Y1272997D01*
G01X4418540Y1265885D01*
G01X4411504Y1258774D01*
G01X4407296Y1254709D01*
G01X4403088Y1250644D01*
G01X4401708Y1249311D01*
G01X4400329Y1247978D01*
G01X4398773Y1246316D01*
G01X4397218Y1244655D01*
G01X4396343Y1242652D01*
G01X4395469Y1240649D01*
G01X4395636Y1196151D01*
G01X4395802Y1151653D01*
G01X4396621Y1150233D01*
G01X4397439Y1148814D01*
G01X4397849Y1148697D01*
G01X4398259Y1148580D01*
G01X4399915Y1150801D01*
G01X4401570Y1153021D01*
G01X4403640Y1154806D01*
G01X4405709Y1156590D01*
G01X4415546Y1166419D01*
G01X4425382Y1176247D01*
G01X4427721Y1177907D01*
G01X4430060Y1179567D01*
G01X4430942Y1179567D01*
G01X4431824Y1179567D01*
G01X4434388Y1177366D01*
G01X4436952Y1175164D01*
G01X4438005Y1173592D01*
G01X4439058Y1172019D01*
G01X4439461Y1172019D01*
G01X4439863Y1172019D01*
G01X4444723Y1167014D01*
G01X4449583Y1162008D01*
G01X4450876Y1160619D01*
G01X4452170Y1159230D01*
G01X4453360Y1158052D01*
G01X4454550Y1156874D01*
G01X4455476Y1155955D01*
G01X4456403Y1155036D01*
G01X4459925Y1151472D01*
G01X4463446Y1147908D01*
G01X4463965Y1147404D01*
G01X4464483Y1146901D01*
G01X4466892Y1144679D01*
G01X4469300Y1142457D01*
G01X4479592Y1132183D01*
G01X4489884Y1121909D01*
G01X4491049Y1120770D01*
G01X4492214Y1119631D01*
G01X4493140Y1118673D01*
G01X4494065Y1117716D01*
G01X4500453Y1111426D01*
G01X4506840Y1105136D01*
G01X4514428Y1097588D01*
G01X4522015Y1090040D01*
G01X4524237Y1087469D01*
G01X4526459Y1084898D01*
G01X4527549Y1085190D01*
G01X4528638Y1085482D01*
G01X4529167Y1086585D01*
G01X4529696Y1087687D01*
G01X4529663Y1128910D01*
G01X4529631Y1170132D01*
G01X4529301Y1171872D01*
G01X4528971Y1173611D01*
G01X4528184Y1174610D01*
G01X4527396Y1175608D01*
G01X4520821Y1182096D01*
G01X4514246Y1188583D01*
G01X4495008Y1208025D01*
G01X4475771Y1227467D01*
G01X4475961Y1229795D01*
G01X4476152Y1232122D01*
G01X4477768Y1233535D01*
G01X4479384Y1234948D01*
G01X4480625Y1236154D01*
G01X4481867Y1237361D01*
G01X4484557Y1240165D01*
G01X4487248Y1242969D01*
G01X4488379Y1243564D01*
G01X4489510Y1244158D01*
G01X4490164Y1245439D01*
G01X4490817Y1246719D01*
G01X4492156Y1247519D01*
G01X4493494Y1248319D01*
G01X4494433Y1249606D01*
G01X4495372Y1250893D01*
G01X4496742Y1251555D01*
G01X4498112Y1252217D01*
G01X4498785Y1253646D01*
G01X4499458Y1255075D01*
G01X4500906Y1255941D01*
G01X4502355Y1256807D01*
G01X4502355Y1257362D01*
G01X4502355Y1257918D01*
G01X4503427Y1259208D01*
G01X4504498Y1260498D01*
G01X4505073Y1260498D01*
G01X4505647Y1260498D01*
G01X4506345Y1261651D01*
G01X4507044Y1262804D01*
G01X4508852Y1264691D01*
G01X4510660Y1266578D01*
G01X4513854Y1269824D01*
G01X4517049Y1273070D01*
G01X4518188Y1274227D01*
G01X4519328Y1275384D01*
G01X4520162Y1276223D01*
G01X4520996Y1277061D01*
G01X4522965Y1278995D01*
G01X4524934Y1280929D01*
G01X4525859Y1281226D01*
G01X4526784Y1281524D01*
G01X4527412Y1282754D01*
G01X4528040Y1283985D01*
G01X4529669Y1285026D01*
G01X4531297Y1286068D01*
G01X4531858Y1287153D01*
G01X4532419Y1288238D01*
G01X4534046Y1289162D01*
G01X4535674Y1290085D01*
G01X4536303Y1291430D01*
G01X4536931Y1292775D01*
G01X4538269Y1294143D01*
G01X4539607Y1295512D01*
G01X4543849Y1300025D01*
G01X4548091Y1304539D01*
G01X4549028Y1305477D01*
G01X4549964Y1306415D01*
G01X4552389Y1308721D01*
G01X4554813Y1311027D01*
G01X4555330Y1311501D01*
G01X4555847Y1311976D01*
G01X4557116Y1313329D01*
G01X4558386Y1314683D01*
G01X4560409Y1314486D01*
G01X4562432Y1314289D01*
G01X4563540Y1313467D01*
G01X4564647Y1312645D01*
G01X4565564Y1310788D01*
G01X4566480Y1308931D01*
G01X4566690Y1307857D01*
G01X4566900Y1306784D01*
G01X4567929Y1305341D01*
G01X4568958Y1303899D01*
G01X4569631Y1302698D01*
G01X4570304Y1301497D01*
G01X4570909Y1299134D01*
G01X4571515Y1296770D01*
G01X4572546Y1295257D01*
G01X4573577Y1293745D01*
G01X4574606Y1290350D01*
G01X4575634Y1286956D01*
G01X4576170Y1286412D01*
G01X4576705Y1285867D01*
G01X4577371Y1284819D01*
G01X4578038Y1283771D01*
G01X4578710Y1280416D01*
G01X4579382Y1277061D01*
G01X4580163Y1275594D01*
G01X4580944Y1274126D01*
G01X4581604Y1272745D01*
G01X4582264Y1271364D01*
G01X4583051Y1267503D01*
G01X4583838Y1263643D01*
G01X4584877Y1261337D01*
G01X4585916Y1259030D01*
G01X4586575Y1253998D01*
G01X4587235Y1248966D01*
G01X4587682Y1246671D01*
G01X4588129Y1244376D01*
G01X4589340Y1240654D01*
G01X4590551Y1236933D01*
G01X4591148Y1227015D01*
G01X4591744Y1217097D01*
G01X4591739Y1206614D01*
G01X4591734Y1196131D01*
G01X4591149Y1188792D01*
G01X4590564Y1181454D01*
G01X4589927Y1176935D01*
G01X4589291Y1172416D01*
G01X4588926Y1171693D01*
G01X4588560Y1170971D01*
G01X4587886Y1168036D01*
G01X4587211Y1165100D01*
G01X4586400Y1159336D01*
G01X4585589Y1153571D01*
G01X4584712Y1151578D01*
G01X4583835Y1149585D01*
G01X4582635Y1144524D01*
G01X4581435Y1139462D01*
G01X4580430Y1137605D01*
G01X4579426Y1135747D01*
G01X4578522Y1131764D01*
G01X4577618Y1127780D01*
G01X4576416Y1125936D01*
G01X4575214Y1124091D01*
G01X4574132Y1120498D01*
G01X4573050Y1116905D01*
G01X4572276Y1115907D01*
G01X4571501Y1114910D01*
G01X4570435Y1111444D01*
G01X4569369Y1107979D01*
G01X4568502Y1107036D01*
G01X4567635Y1106093D01*
G01X4566649Y1102950D01*
G01X4565664Y1099807D01*
G01X4563879Y1096810D01*
G01X4562094Y1093814D01*
G01X4561610Y1092384D01*
G01X4561125Y1090954D01*
G01X4560150Y1089658D01*
G01X4559175Y1088363D01*
G01X4557909Y1085822D01*
G01X4556644Y1083281D01*
G01X4555955Y1082702D01*
G01X4555267Y1082123D01*
G01X4554002Y1079582D01*
G01X4552736Y1077041D01*
G01X4551091Y1075154D01*
G01X4549446Y1073267D01*
G01X4549167Y1072516D01*
G01X4548888Y1071765D01*
G01X4547455Y1069815D01*
G01X4546022Y1067864D01*
G01X4544115Y1065949D01*
G01X4542208Y1064035D01*
G01X4541348Y1062361D01*
G01X4540487Y1060687D01*
G01X4538391Y1058630D01*
G01X4536295Y1056573D01*
G01X4536295Y1056210D01*
G01X4536295Y1055846D01*
G01X4534695Y1054073D01*
G01X4533094Y1052301D01*
G01X4532421Y1050963D01*
G01X4531747Y1049626D01*
G01X4530987Y1049076D01*
G01X4530227Y1048527D01*
G01X4529441Y1047269D01*
G01X4528655Y1046011D01*
G01X4525128Y1042253D01*
G01X4521601Y1038496D01*
G01X4518290Y1035189D01*
G01X4514979Y1031883D01*
G01X4513031Y1030036D01*
G01X4511082Y1028189D01*
G01X4510655Y1028189D01*
G01X4510228Y1028189D01*
G01X4507963Y1026197D01*
G01X4505699Y1024205D01*
G01X4503323Y1022318D01*
G01X4500948Y1020431D01*
G01X4499065Y1018525D01*
G01X4497181Y1016618D01*
G01X4495526Y1015619D01*
G01X4493870Y1014620D01*
G01X4492158Y1013054D01*
G01X4490447Y1011487D01*
G01X4489217Y1010843D01*
G01X4487988Y1010199D01*
G01X4485342Y1008435D01*
G01X4482695Y1006670D01*
G01X4481067Y1005374D01*
G01X4479438Y1004078D01*
G01X4476307Y1002299D01*
G01X4473175Y1000520D01*
G01X4470899Y999452D01*
G01X4468622Y998384D01*
G01X4467380Y997696D01*
G01X4466139Y997007D01*
G01X4463035Y995355D01*
G01X4459930Y993703D01*
G01X4458482Y992730D01*
G01X4457033Y991756D01*
G01X4454078Y990933D01*
G01X4451123Y990109D01*
G01X4450146Y989598D01*
G01X4449169Y989087D01*
G01X4448333Y988318D01*
G01X4447497Y987549D01*
G01X4444708Y986486D01*
G01X4441920Y985422D01*
G01X4439957Y984391D01*
G01X4437994Y983361D01*
G01X4434682Y982452D01*
G01X4431371Y981543D01*
G01X4429401Y980535D01*
G01X4427430Y979528D01*
G01X4422030Y978071D01*
G01X4416629Y976615D01*
G01X4415911Y976225D01*
G01X4415193Y975836D01*
G01X4410451Y974770D01*
G01X4405709Y973704D01*
G01X4402888Y973258D01*
G01X4400067Y972813D01*
G01X4397507Y972221D01*
G01X4394948Y971630D01*
G01X4390809Y971167D01*
G01X4386670Y970704D01*
G01X4379013Y969884D01*
G01X4371356Y969064D01*
G01X4361586Y969064D01*
G01X4351817Y969064D01*
G01X4343375Y969483D01*
G01X4334932Y969902D01*
G01X4328931Y970558D01*
G01X4322929Y971213D01*
G01X4312865Y972647D01*
G01X4302802Y974081D01*
G01X4299414Y974753D01*
G01X4296026Y975425D01*
G01X4292954Y976475D01*
G01X4289881Y977524D01*
G01X4284408Y978714D01*
G01X4278934Y979905D01*
G01X4277297Y980751D01*
G01X4275660Y981598D01*
G01X4271356Y982697D01*
G01X4267053Y983796D01*
G01X4265626Y984641D01*
G01X4264200Y985486D01*
G01X4260953Y986687D01*
G01X4257707Y987887D01*
G01X4256523Y988897D01*
G01X4255338Y989906D01*
G01X4251697Y990808D01*
G01X4248055Y991710D01*
G01X4246521Y992786D01*
G01X4244988Y993863D01*
G01X4241786Y995122D01*
G01X4238585Y996382D01*
G01X4237504Y997171D01*
G01X4236424Y997960D01*
G01X4233941Y998864D01*
G01X4231457Y999768D01*
G01X4229938Y1000972D01*
G01X4228419Y1002177D01*
G01X4226213Y1003055D01*
G01X4224007Y1003934D01*
G01X4222763Y1004892D01*
G01X4221520Y1005851D01*
G01X4218604Y1007338D01*
G01X4215688Y1008826D01*
G01X4214287Y1010152D01*
G01X4212886Y1011478D01*
G01X4211382Y1012255D01*
G01X4209879Y1013032D01*
G01X4209314Y1013722D01*
G01X4208748Y1014412D01*
G01X4207272Y1015176D01*
G01X4205796Y1015940D01*
G01X4204140Y1017523D01*
G01X4202484Y1019107D01*
G01X4200415Y1020457D01*
G01X4198345Y1021807D01*
G01X4197373Y1022868D01*
G01X4196401Y1023928D01*
G01X4195244Y1024414D01*
G01X4194086Y1024900D01*
G01X4192809Y1026509D01*
G01X4191533Y1028119D01*
G01X4190278Y1028398D01*
G01X4189023Y1028677D01*
G01X4187944Y1030110D01*
G01X4186865Y1031544D01*
G01X4186313Y1031544D01*
G01X4185761Y1031544D01*
G01X4183691Y1033640D01*
G01X4181622Y1035737D01*
G01X4181261Y1035737D01*
G01X4180900Y1035737D01*
G01X4177445Y1039090D01*
G01X4173991Y1042443D01*
G01X4173913Y1042340D01*
G01X4173835Y1042237D01*
G01X4173602Y1040700D01*
G01X4173368Y1039163D01*
G01X4174093Y1038499D01*
G01X4174818Y1037834D01*
G01X4175924Y1037834D01*
G01X4177030Y1037834D01*
G01X4177030Y1036758D01*
G01X4177030Y1035682D01*
G01X4177470Y1034848D01*
G01X4177910Y1034015D01*
G01X4179119Y1033270D01*
G01X4180328Y1032525D01*
G01X4181266Y1031122D01*
G01X4182203Y1029720D01*
G01X4183445Y1029029D01*
G01X4184687Y1028339D01*
G01X4185212Y1027246D01*
G01X4185738Y1026153D01*
G01X4187075Y1025047D01*
G01X4188412Y1023941D01*
G01X4192344Y1020261D01*
G01X4196276Y1016582D01*
G01X4199380Y1013871D01*
G01X4202484Y1011160D01*
G01X4205928Y1008457D01*
G01X4209371Y1005755D01*
G01X4210895Y1004594D01*
G01X4212418Y1003432D01*
G01X4214074Y1001961D01*
G01X4215729Y1000489D01*
G01X4220489Y997297D01*
G01X4225249Y994106D01*
G01X4226322Y993101D01*
G01X4227396Y992095D01*
G01X4228855Y991687D01*
G01X4230313Y991279D01*
G01X4231713Y990234D01*
G01X4233113Y989189D01*
G01X4236542Y987510D01*
G01X4239971Y985831D01*
G01X4240200Y985226D01*
G01X4240428Y984622D01*
G01X4242565Y983914D01*
G01X4244702Y983207D01*
G01X4245944Y982576D01*
G01X4247186Y981945D01*
G01X4248264Y981034D01*
G01X4249342Y980123D01*
G01X4252556Y978935D01*
G01X4255770Y977748D01*
G01X4258055Y976353D01*
G01X4260341Y974959D01*
G01X4262493Y974325D01*
G01X4264646Y973691D01*
G01X4265677Y972870D01*
G01X4266708Y972048D01*
G01X4268329Y971449D01*
G01X4269950Y970850D01*
G01X4272319Y970148D01*
G01X4274689Y969447D01*
G01X4275941Y968379D01*
G01X4277193Y967312D01*
G01X4279780Y966704D01*
G01X4282367Y966097D01*
G01X4283862Y965692D01*
G01X4285358Y965288D01*
G01X4286934Y964204D01*
G01X4288511Y963121D01*
G01X4294230Y961935D01*
G01X4299950Y960750D01*
G01X4301299Y959910D01*
G01X4302648Y959069D01*
G01X4306166Y958587D01*
G01X4309685Y958105D01*
G01X4312168Y957678D01*
G01X4314651Y957251D01*
G01X4317326Y956174D01*
G01X4320001Y955097D01*
G01X4323121Y954765D01*
G01X4326241Y954432D01*
G01X4330586Y954397D01*
G01X4334932Y954361D01*
G01X4338037Y953946D01*
G01X4341141Y953531D01*
G01X4348177Y953016D01*
G01X4355214Y952500D01*
G01X4369286Y952519D01*
G01X4383359Y952538D01*
G01X4393913Y953452D01*
G01X4404468Y954366D01*
G01X4409434Y954768D01*
G01X4414401Y955170D01*
G01X4416885Y956215D01*
G01X4419368Y957260D01*
G01X4425287Y958153D01*
G01X4431206Y959046D01*
G01X4433002Y960013D01*
G01X4434798Y960981D01*
G01X4438879Y961696D01*
G01X4442960Y962411D01*
G01X4444616Y962951D01*
G01X4446272Y963492D01*
G01X4447741Y964504D01*
G01X4449211Y965516D01*
G01X4452501Y966257D01*
G01X4455791Y966997D01*
G01X4459102Y968665D01*
G01X4462414Y970332D01*
G01X4464069Y970735D01*
G01X4465725Y971139D01*
G01X4467923Y972575D01*
G01X4470122Y974012D01*
G01X4471562Y974286D01*
G01X4473002Y974559D01*
G01X4474822Y975350D01*
G01X4476642Y976140D01*
G01X4477486Y976995D01*
G01X4478330Y977850D01*
G01X4479684Y978414D01*
G01X4481039Y978978D01*
G01X4483109Y979545D01*
G01X4485178Y980113D01*
G01X4486420Y981029D01*
G01X4487662Y981945D01*
G01X4490662Y983324D01*
G01X4493663Y984703D01*
G01X4493663Y985024D01*
G01X4493663Y985345D01*
G01X4497285Y987091D01*
G01X4500906Y988836D01*
G01X4501941Y989783D01*
G01X4502976Y990731D01*
G01X4505026Y991496D01*
G01X4507076Y992261D01*
G01X4508130Y993406D01*
G01X4509184Y994551D01*
G01X4511479Y996022D01*
G01X4513773Y997493D01*
G01X4514350Y998197D01*
G01X4514927Y998901D01*
G01X4516912Y999920D01*
G01X4518896Y1000939D01*
G01X4519521Y1001905D01*
G01X4520145Y1002871D01*
G01X4521908Y1003868D01*
G01X4523671Y1004865D01*
G01X4528638Y1008938D01*
G01X4533605Y1013012D01*
G01X4535260Y1014684D01*
G01X4536916Y1016357D01*
G01X4538236Y1017029D01*
G01X4539557Y1017702D01*
G01X4540292Y1018962D01*
G01X4541026Y1020222D01*
G01X4541354Y1020222D01*
G01X4541681Y1020222D01*
G01X4544158Y1022633D01*
G01X4546635Y1025044D01*
G01X4547669Y1026092D01*
G01X4548704Y1027141D01*
G01X4549488Y1027922D01*
G01X4550273Y1028704D01*
G01X4551666Y1030046D01*
G01X4553058Y1031388D01*
G01X4555052Y1033667D01*
G01X4557045Y1035947D01*
G01X4560712Y1039930D01*
G01X4564378Y1043914D01*
G01X4566390Y1046220D01*
G01X4568402Y1048527D01*
G01X4569945Y1050833D01*
G01X4571487Y1053139D01*
G01X4572896Y1055026D01*
G01X4574305Y1056913D01*
G01X4575744Y1058381D01*
G01X4577184Y1059848D01*
G01X4578003Y1061735D01*
G01X4578823Y1063622D01*
G01X4580851Y1066154D01*
G01X4582879Y1068685D01*
G01X4584485Y1072024D01*
G01X4586090Y1075364D01*
G01X4587536Y1077442D01*
G01X4588981Y1079519D01*
G01X4589972Y1081790D01*
G01X4590963Y1084060D01*
G01X4592085Y1085523D01*
G01X4593206Y1086987D01*
G01X4594655Y1089848D01*
G01X4596103Y1092709D01*
G01X4597404Y1095358D01*
G01X4598705Y1098008D01*
G01X4599388Y1099475D01*
G01X4600071Y1100943D01*
G01X4601402Y1103062D01*
G01X4602733Y1105180D01*
G01X4603246Y1107697D01*
G01X4603760Y1110213D01*
G01X4604813Y1111658D01*
G01X4605866Y1113103D01*
G01X4606928Y1116668D01*
G01X4607989Y1120232D01*
G01X4608801Y1121587D01*
G01X4609613Y1122941D01*
G01X4610426Y1126409D01*
G01X4611239Y1129877D01*
G01X4612294Y1132812D01*
G01X4613349Y1135747D01*
G01X4614110Y1139102D01*
G01X4614870Y1142457D01*
G01X4615730Y1146650D01*
G01X4616591Y1150843D01*
G01X4617375Y1153988D01*
G01X4618160Y1157133D01*
G01X4619033Y1161955D01*
G01X4619906Y1166778D01*
G01X4620321Y1170552D01*
G01X4620735Y1174326D01*
G01X4621152Y1177051D01*
G01X4621569Y1179777D01*
G01X4622185Y1190045D01*
G01X4622800Y1200313D01*
G01X4622797Y1207237D01*
G01X4622793Y1214162D01*
G01X4622187Y1222829D01*
G01X4621582Y1231496D01*
G01X4620952Y1237715D01*
G01X4620323Y1243934D01*
G01X4620086Y1245612D01*
G01X4619849Y1247289D01*
G01X4618592Y1253579D01*
G01X4617336Y1259869D01*
G01X4617177Y1260134D01*
G01X4617017Y1260398D01*
G01X4615531Y1267891D01*
G01X4614045Y1275384D01*
G01X4613091Y1277900D01*
G01X4612136Y1280416D01*
G01X4611853Y1281255D01*
G01X4611570Y1282093D01*
G01X4610967Y1284997D01*
G01X4610364Y1287901D01*
G01X4608956Y1291078D01*
G01X4607548Y1294254D01*
G01X4606862Y1296980D01*
G01X4606176Y1299705D01*
G01X4605003Y1301802D01*
G01X4603831Y1303899D01*
G01X4603196Y1306380D01*
G01X4602561Y1308861D01*
G01X4601120Y1310992D01*
G01X4599678Y1313124D01*
G01X4599385Y1314382D01*
G01X4599092Y1315640D01*
G01X4598482Y1316898D01*
G01X4597871Y1318156D01*
G01X4596935Y1319204D01*
G01X4595999Y1320252D01*
G01X4595095Y1322768D01*
G01X4594191Y1325284D01*
G01X4593023Y1326771D01*
G01X4591855Y1328257D01*
G01X4590519Y1330964D01*
G01X4589183Y1333671D01*
G01X4588252Y1334929D01*
G01X4587322Y1336187D01*
G01X4586174Y1338493D01*
G01X4585027Y1340800D01*
G01X4583896Y1342267D01*
G01X4582765Y1343735D01*
G01X4582034Y1345203D01*
G01X4581304Y1346670D01*
G01X4578635Y1350654D01*
G01X4575967Y1354638D01*
G01X4574446Y1356800D01*
G01X4572925Y1358962D01*
G01X4571476Y1360684D01*
G01X4570028Y1362406D01*
G01X4568544Y1364183D01*
G01X4567060Y1365959D01*
G01X4565379Y1368266D01*
G01X4563698Y1370572D01*
G01X4561556Y1372669D01*
G01X4559413Y1374765D01*
G01X4557895Y1376847D01*
G01X4556376Y1378928D01*
G01X4551613Y1383723D01*
G01X4546849Y1388517D01*
G01X4545194Y1389285D01*
G01X4543538Y1390053D01*
G01X4543005Y1390062D01*
G01X4542471Y1390071D01*
G01X4537831Y1385561D01*
G37*
G36*
G01X4353351Y1460061D02*
G01X4346108Y1459731D01*
G01X4341348Y1459064D01*
G01X4336588Y1458397D01*
G01X4332656Y1457783D01*
G01X4328724Y1457170D01*
G01X4324128Y1456548D01*
G01X4319533Y1455927D01*
G01X4315699Y1455257D01*
G01X4311864Y1454586D01*
G01X4309119Y1454239D01*
G01X4306373Y1453892D01*
G01X4303549Y1452798D01*
G01X4300726Y1451704D01*
G01X4296824Y1451110D01*
G01X4292923Y1450517D01*
G01X4291784Y1449903D01*
G01X4290645Y1449289D01*
G01X4289054Y1448430D01*
G01X4287464Y1447570D01*
G01X4285122Y1447313D01*
G01X4282781Y1447056D01*
G01X4281892Y1446871D01*
G01X4281003Y1446686D01*
G01X4279313Y1445255D01*
G01X4277622Y1443824D01*
G01X4273868Y1442948D01*
G01X4270114Y1442072D01*
G01X4268583Y1440859D01*
G01X4267053Y1439646D01*
G01X4264362Y1438742D01*
G01X4261672Y1437839D01*
G01X4260263Y1436619D01*
G01X4258855Y1435400D01*
G01X4255837Y1434679D01*
G01X4252820Y1433958D01*
G01X4251658Y1432927D01*
G01X4250497Y1431897D01*
G01X4247186Y1430245D01*
G01X4243874Y1428593D01*
G01X4242184Y1427651D01*
G01X4240493Y1426709D01*
G01X4239080Y1425699D01*
G01X4237666Y1424688D01*
G01X4236856Y1423936D01*
G01X4236046Y1423184D01*
G01X4234372Y1422759D01*
G01X4232699Y1422335D01*
G01X4231457Y1421650D01*
G01X4230216Y1420964D01*
G01X4228737Y1419634D01*
G01X4227259Y1418303D01*
G01X4225332Y1417812D01*
G01X4223406Y1417320D01*
G01X4222518Y1416103D01*
G01X4221630Y1414886D01*
G01X4219611Y1413561D01*
G01X4217592Y1412235D01*
G01X4217592Y1411880D01*
G01X4217592Y1411524D01*
G01X4214652Y1409289D01*
G01X4211712Y1407054D01*
G01X4210409Y1406354D01*
G01X4209107Y1405655D01*
G01X4207984Y1405217D01*
G01X4206861Y1404779D01*
G01X4205806Y1403086D01*
G01X4204750Y1401393D01*
G01X4204290Y1401393D01*
G01X4203830Y1401393D01*
G01X4201833Y1399401D01*
G01X4199836Y1397409D01*
G01X4195204Y1393006D01*
G01X4190573Y1388603D01*
G01X4184202Y1382180D01*
G01X4177832Y1375756D01*
G01X4176825Y1374140D01*
G01X4175818Y1372525D01*
G01X4174561Y1371773D01*
G01X4173304Y1371020D01*
G01X4173304Y1370682D01*
G01X4173304Y1370344D01*
G01X4171291Y1368361D01*
G01X4169278Y1366379D01*
G01X4168824Y1365002D01*
G01X4168371Y1363625D01*
G01X4166802Y1361706D01*
G01X4165233Y1359788D01*
G01X4163543Y1357842D01*
G01X4161853Y1355896D01*
G01X4160573Y1354009D01*
G01X4159294Y1352122D01*
G01X4158124Y1351024D01*
G01X4156955Y1349926D01*
G01X4156242Y1347879D01*
G01X4155529Y1345832D01*
G01X4154311Y1344402D01*
G01X4153094Y1342973D01*
G01X4152044Y1340802D01*
G01X4150994Y1338630D01*
G01X4150336Y1338076D01*
G01X4149677Y1337522D01*
G01X4148271Y1334440D01*
G01X4146866Y1331358D01*
G01X4146200Y1331099D01*
G01X4145535Y1330841D01*
G01X4144548Y1328869D01*
G01X4143562Y1326897D01*
G01X4142131Y1325791D01*
G01X4140700Y1324685D01*
G01X4140243Y1322049D01*
G01X4139787Y1319414D01*
G01X4138159Y1317888D01*
G01X4136532Y1316363D01*
G01X4136277Y1314324D01*
G01X4136022Y1312285D01*
G01X4135605Y1310706D01*
G01X4135188Y1309126D01*
G01X4133971Y1307722D01*
G01X4132753Y1306317D01*
G01X4132101Y1303640D01*
G01X4131448Y1300963D01*
G01X4130800Y1298867D01*
G01X4130152Y1296770D01*
G01X4129625Y1296141D01*
G01X4129097Y1295512D01*
G01X4127642Y1290690D01*
G01X4126186Y1285867D01*
G01X4125910Y1284492D01*
G01X4125635Y1283117D01*
G01X4124434Y1280718D01*
G01X4123233Y1278319D01*
G01X4123228Y1276323D01*
G01X4123222Y1274327D01*
G01X4122389Y1270453D01*
G01X4121555Y1266578D01*
G01X4120446Y1264315D01*
G01X4119337Y1262053D01*
G01X4119036Y1257164D01*
G01X4118734Y1252276D01*
G01X4117853Y1249783D01*
G01X4116971Y1247289D01*
G01X4116352Y1245402D01*
G01X4115734Y1243515D01*
G01X4115291Y1237435D01*
G01X4114848Y1231354D01*
G01X4114824Y1207243D01*
G01X4114800Y1183132D01*
G01X4115214Y1175374D01*
G01X4115628Y1167616D01*
G01X4117017Y1164718D01*
G01X4118407Y1161820D01*
G01X4118922Y1156541D01*
G01X4119437Y1151262D01*
G01X4120931Y1146650D01*
G01X4122424Y1142037D01*
G01X4122999Y1138230D01*
G01X4123574Y1134423D01*
G01X4125050Y1130596D01*
G01X4126526Y1126770D01*
G01X4127400Y1123542D01*
G01X4128274Y1120314D01*
G01X4129842Y1116289D01*
G01X4131411Y1112265D01*
G01X4131897Y1109749D01*
G01X4132383Y1107233D01*
G01X4132801Y1105870D01*
G01X4133220Y1104507D01*
G01X4133594Y1104507D01*
G01X4133967Y1104507D01*
G01X4134805Y1102844D01*
G01X4135642Y1101180D01*
G01X4136109Y1098977D01*
G01X4136575Y1096774D01*
G01X4137694Y1095714D01*
G01X4138813Y1094653D01*
G01X4139293Y1093742D01*
G01X4139774Y1092830D01*
G01X4140218Y1090729D01*
G01X4140663Y1088627D01*
G01X4141152Y1088237D01*
G01X4141641Y1087847D01*
G01X4143471Y1087611D01*
G01X4145301Y1087375D01*
G01X4157843Y1100030D01*
G01X4170385Y1112684D01*
G01X4172983Y1115203D01*
G01X4175581Y1117723D01*
G01X4177030Y1119298D01*
G01X4178478Y1120873D01*
G01X4183652Y1126078D01*
G01X4188826Y1131283D01*
G01X4189972Y1132467D01*
G01X4191118Y1133651D01*
G01X4195766Y1138167D01*
G01X4200415Y1142683D01*
G01X4208486Y1150780D01*
G01X4216557Y1158877D01*
G01X4226491Y1169041D01*
G01X4236424Y1179205D01*
G01X4238571Y1180459D01*
G01X4240717Y1181714D01*
G01X4241542Y1183130D01*
G01X4242368Y1184547D01*
G01X4243631Y1185209D01*
G01X4244895Y1185871D01*
G01X4245532Y1187118D01*
G01X4246168Y1188365D01*
G01X4247717Y1189166D01*
G01X4249266Y1189966D01*
G01X4249998Y1191648D01*
G01X4250730Y1193329D01*
G01X4260903Y1203460D01*
G01X4271076Y1213590D01*
G01X4272485Y1214271D01*
G01X4273894Y1214952D01*
G01X4274700Y1216335D01*
G01X4275505Y1217719D01*
G01X4276805Y1218519D01*
G01X4278104Y1219320D01*
G01X4278894Y1220636D01*
G01X4279684Y1221952D01*
G01X4281085Y1222790D01*
G01X4282486Y1223627D01*
G01X4283003Y1224892D01*
G01X4283520Y1226157D01*
G01X4285057Y1226952D01*
G01X4286595Y1227746D01*
G01X4287082Y1228938D01*
G01X4287569Y1230129D01*
G01X4290349Y1232926D01*
G01X4293129Y1235723D01*
G01X4297313Y1239934D01*
G01X4301498Y1244144D01*
G01X4301957Y1244144D01*
G01X4302416Y1244144D01*
G01X4303828Y1246381D01*
G01X4305241Y1248618D01*
G01X4306380Y1249526D01*
G01X4307520Y1250434D01*
G01X4309082Y1250909D01*
G01X4310644Y1251383D01*
G01X4311709Y1251112D01*
G01X4312774Y1250841D01*
G01X4313409Y1249596D01*
G01X4314045Y1248351D01*
G01X4313934Y1214597D01*
G01X4313824Y1180844D01*
G01X4312676Y1179681D01*
G01X4311528Y1178519D01*
G01X4288463Y1178435D01*
G01X4265397Y1178350D01*
G01X4264125Y1178115D01*
G01X4262852Y1177879D01*
G01X4261641Y1176588D01*
G01X4260430Y1175297D01*
G01X4258878Y1174488D01*
G01X4257326Y1173679D01*
G01X4256350Y1172113D01*
G01X4255374Y1170547D01*
G01X4254267Y1169947D01*
G01X4253159Y1169346D01*
G01X4252338Y1168001D01*
G01X4251517Y1166655D01*
G01X4250386Y1165927D01*
G01X4249255Y1165199D01*
G01X4248285Y1163985D01*
G01X4247315Y1162771D01*
G01X4245678Y1161925D01*
G01X4244041Y1161079D01*
G01X4243793Y1160364D01*
G01X4243544Y1159649D01*
G01X4242706Y1158706D01*
G01X4241868Y1157762D01*
G01X4241309Y1157762D01*
G01X4240750Y1157762D01*
G01X4239653Y1155922D01*
G01X4238556Y1154082D01*
G01X4237344Y1153357D01*
G01X4236132Y1152632D01*
G01X4235297Y1151198D01*
G01X4234462Y1149764D01*
G01X4233282Y1149146D01*
G01X4232103Y1148528D01*
G01X4231624Y1147589D01*
G01X4231145Y1146650D01*
G01X4229025Y1144483D01*
G01X4226904Y1142316D01*
G01X4226365Y1141757D01*
G01X4225826Y1141199D01*
G01X4223400Y1138787D01*
G01X4220974Y1136376D01*
G01X4220530Y1136376D01*
G01X4220086Y1136376D01*
G01X4219081Y1134765D01*
G01X4218077Y1133153D01*
G01X4216879Y1132650D01*
G01X4215680Y1132147D01*
G01X4214941Y1130880D01*
G01X4214202Y1129613D01*
G01X4213103Y1129138D01*
G01X4212004Y1128663D01*
G01X4209003Y1125589D01*
G01X4206003Y1122514D01*
G01X4206003Y1122103D01*
G01X4206003Y1121692D01*
G01X4203933Y1120402D01*
G01X4201864Y1119112D01*
G01X4201864Y1118612D01*
G01X4201864Y1118112D01*
G01X4202508Y1117180D01*
G01X4203152Y1116248D01*
G01X4251452Y1116226D01*
G01X4299751Y1116204D01*
G01X4305243Y1115872D01*
G01X4310736Y1115540D01*
G01X4311800Y1114531D01*
G01X4312865Y1113523D01*
G01X4313344Y1112684D01*
G01X4313824Y1111845D01*
G01X4314030Y1097169D01*
G01X4314237Y1082492D01*
G01X4314771Y1081546D01*
G01X4315304Y1080601D01*
G01X4350554Y1080708D01*
G01X4385805Y1080815D01*
G01X4386135Y1082422D01*
G01X4386464Y1084029D01*
G01X4386360Y1217027D01*
G01X4386256Y1350025D01*
G01X4354702Y1350132D01*
G01X4323147Y1350240D01*
G01X4322210Y1348774D01*
G01X4321274Y1347308D01*
G01X4319942Y1346662D01*
G01X4318610Y1346015D01*
G01X4317954Y1344614D01*
G01X4317298Y1343214D01*
G01X4315897Y1342450D01*
G01X4314495Y1341685D01*
G01X4313829Y1339917D01*
G01X4313162Y1338148D01*
G01X4306553Y1331402D01*
G01X4299944Y1324655D01*
G01X4299341Y1324655D01*
G01X4298737Y1324655D01*
G01X4298147Y1323498D01*
G01X4297556Y1322340D01*
G01X4295875Y1321383D01*
G01X4294194Y1320426D01*
G01X4293317Y1319177D01*
G01X4292439Y1317928D01*
G01X4291061Y1317345D01*
G01X4289684Y1316762D01*
G01X4289004Y1315312D01*
G01X4288325Y1313861D01*
G01X4286879Y1313073D01*
G01X4285432Y1312285D01*
G01X4284653Y1310948D01*
G01X4283874Y1309612D01*
G01X4282707Y1308994D01*
G01X4281539Y1308377D01*
G01X4280783Y1306934D01*
G01X4280026Y1305491D01*
G01X4278587Y1304795D01*
G01X4277148Y1304100D01*
G01X4276518Y1302532D01*
G01X4275888Y1300963D01*
G01X4274695Y1299705D01*
G01X4273503Y1298447D01*
G01X4271933Y1296840D01*
G01X4270364Y1295233D01*
G01X4268708Y1293652D01*
G01X4267053Y1292071D01*
G01X4266117Y1291770D01*
G01X4265181Y1291469D01*
G01X4264553Y1290238D01*
G01X4263925Y1289008D01*
G01X4262399Y1288276D01*
G01X4260873Y1287545D01*
G01X4259921Y1286111D01*
G01X4258969Y1284677D01*
G01X4257730Y1283913D01*
G01X4256491Y1283149D01*
G01X4255708Y1281846D01*
G01X4254926Y1280542D01*
G01X4253657Y1279760D01*
G01X4252389Y1278979D01*
G01X4251334Y1277286D01*
G01X4250279Y1275594D01*
G01X4249859Y1275594D01*
G01X4249439Y1275594D01*
G01X4245303Y1271401D01*
G01X4241167Y1267207D01*
G01X4240865Y1267204D01*
G01X4240563Y1267201D01*
G01X4239531Y1265632D01*
G01X4238500Y1264062D01*
G01X4235748Y1261337D01*
G01X4232996Y1258611D01*
G01X4230778Y1256616D01*
G01X4228560Y1254621D01*
G01X4227732Y1253780D01*
G01X4226904Y1252938D01*
G01X4224318Y1250237D01*
G01X4221731Y1247536D01*
G01X4221731Y1247122D01*
G01X4221731Y1246707D01*
G01X4220521Y1245984D01*
G01X4219312Y1245260D01*
G01X4218778Y1244248D01*
G01X4218243Y1243236D01*
G01X4216570Y1242242D01*
G01X4214896Y1241249D01*
G01X4214150Y1239969D01*
G01X4213403Y1238688D01*
G01X4212290Y1238073D01*
G01X4211176Y1237457D01*
G01X4206623Y1232600D01*
G01X4202070Y1227742D01*
G01X4194620Y1220258D01*
G01X4187170Y1212773D01*
G01X4185928Y1211523D01*
G01X4184687Y1210273D01*
G01X4182394Y1207814D01*
G01X4180101Y1205356D01*
G01X4179083Y1204659D01*
G01X4178064Y1203962D01*
G01X4175233Y1201095D01*
G01X4172402Y1198227D01*
G01X4167369Y1193088D01*
G01X4162336Y1187948D01*
G01X4159314Y1184911D01*
G01X4156292Y1181874D01*
G01X4155663Y1180825D01*
G01X4155034Y1179777D01*
G01X4152931Y1178309D01*
G01X4150828Y1176842D01*
G01X4150301Y1176444D01*
G01X4149773Y1176046D01*
G01X4147777Y1176673D01*
G01X4145780Y1177299D01*
G01X4145185Y1178538D01*
G01X4144590Y1179777D01*
G01X4144150Y1185228D01*
G01X4143711Y1190679D01*
G01X4143727Y1205566D01*
G01X4143743Y1220452D01*
G01X4144401Y1228629D01*
G01X4145059Y1236806D01*
G01X4146171Y1241838D01*
G01X4147283Y1246870D01*
G01X4148232Y1252321D01*
G01X4149181Y1257772D01*
G01X4150294Y1261337D01*
G01X4151407Y1264901D01*
G01X4151920Y1267670D01*
G01X4152433Y1270438D01*
G01X4153531Y1271760D01*
G01X4154629Y1273082D01*
G01X4154874Y1275072D01*
G01X4155120Y1277061D01*
G01X4155521Y1279338D01*
G01X4155923Y1281615D01*
G01X4156556Y1282483D01*
G01X4157190Y1283351D01*
G01X4158147Y1284680D01*
G01X4159104Y1286009D01*
G01X4159586Y1288442D01*
G01X4160069Y1290876D01*
G01X4161316Y1292448D01*
G01X4162564Y1294021D01*
G01X4163533Y1297411D01*
G01X4164502Y1300800D01*
G01X4165526Y1301930D01*
G01X4166551Y1303060D01*
G01X4167490Y1305995D01*
G01X4168428Y1308931D01*
G01X4169579Y1310189D01*
G01X4170731Y1311447D01*
G01X4171418Y1313890D01*
G01X4172104Y1316333D01*
G01X4173688Y1318083D01*
G01X4175272Y1319833D01*
G01X4175580Y1321301D01*
G01X4175888Y1322768D01*
G01X4176506Y1324026D01*
G01X4177124Y1325284D01*
G01X4178090Y1326333D01*
G01X4179055Y1327381D01*
G01X4179661Y1328849D01*
G01X4180266Y1330316D01*
G01X4181593Y1331994D01*
G01X4182919Y1333671D01*
G01X4184292Y1336511D01*
G01X4185664Y1339352D01*
G01X4186728Y1340632D01*
G01X4187791Y1341912D01*
G01X4187791Y1342272D01*
G01X4187791Y1342631D01*
G01X4189898Y1345280D01*
G01X4192005Y1347928D01*
G01X4192782Y1349458D01*
G01X4193560Y1350989D01*
G01X4195000Y1351890D01*
G01X4196440Y1352792D01*
G01X4196698Y1353614D01*
G01X4196955Y1354436D01*
G01X4198617Y1355789D01*
G01X4200278Y1357142D01*
G01X4200826Y1358469D01*
G01X4201374Y1359797D01*
G01X4202690Y1360782D01*
G01X4204007Y1361766D01*
G01X4204570Y1363131D01*
G01X4205134Y1364496D01*
G01X4206585Y1365363D01*
G01X4208035Y1366230D01*
G01X4208311Y1367111D01*
G01X4208587Y1367992D01*
G01X4210311Y1369911D01*
G01X4212035Y1371830D01*
G01X4213256Y1373507D01*
G01X4214476Y1375185D01*
G01X4216965Y1377688D01*
G01X4219454Y1380191D01*
G01X4221110Y1381606D01*
G01X4222765Y1383022D01*
G01X4226853Y1386861D01*
G01X4230941Y1390700D01*
G01X4232648Y1392314D01*
G01X4234355Y1393929D01*
G01X4235803Y1394691D01*
G01X4237252Y1395452D01*
G01X4237768Y1396318D01*
G01X4238284Y1397184D01*
G01X4240356Y1398248D01*
G01X4242428Y1399312D01*
G01X4242944Y1400166D01*
G01X4243460Y1401021D01*
G01X4244909Y1401935D01*
G01X4246358Y1402849D01*
G01X4248582Y1404890D01*
G01X4250807Y1406930D01*
G01X4252154Y1407501D01*
G01X4253501Y1408071D01*
G01X4253728Y1408671D01*
G01X4253955Y1409271D01*
G01X4256779Y1410622D01*
G01X4259603Y1411974D01*
G01X4260971Y1413191D01*
G01X4262340Y1414408D01*
G01X4264235Y1414921D01*
G01X4266130Y1415435D01*
G01X4267869Y1417171D01*
G01X4269607Y1418908D01*
G01X4270917Y1419166D01*
G01X4272227Y1419424D01*
G01X4273473Y1419668D01*
G01X4274720Y1419912D01*
G01X4275742Y1421270D01*
G01X4276764Y1422628D01*
G01X4278945Y1423633D01*
G01X4281125Y1424639D01*
G01X4282432Y1425758D01*
G01X4283738Y1426877D01*
G01X4286571Y1427816D01*
G01X4289403Y1428755D01*
G01X4290231Y1429488D01*
G01X4291059Y1430222D01*
G01X4291985Y1430706D01*
G01X4292912Y1431190D01*
G01X4295504Y1432005D01*
G01X4298095Y1432820D01*
G01X4299654Y1433900D01*
G01X4301213Y1434979D01*
G01X4304717Y1435754D01*
G01X4308220Y1436530D01*
G01X4309573Y1437409D01*
G01X4310926Y1438287D01*
G01X4312342Y1438955D01*
G01X4313759Y1439623D01*
G01X4316923Y1439946D01*
G01X4320088Y1440270D01*
G01X4322165Y1441327D01*
G01X4324243Y1442384D01*
G01X4328346Y1443249D01*
G01X4332449Y1444114D01*
G01X4336588Y1444755D01*
G01X4340727Y1445396D01*
G01X4344452Y1445811D01*
G01X4348177Y1446227D01*
G01X4350373Y1447090D01*
G01X4352569Y1447953D01*
G01X4361549Y1448359D01*
G01X4370528Y1448766D01*
G01X4379634Y1448759D01*
G01X4388739Y1448752D01*
G01X4397592Y1448363D01*
G01X4406445Y1447974D01*
G01X4409595Y1447504D01*
G01X4412746Y1447035D01*
G01X4414815Y1446611D01*
G01X4416885Y1446187D01*
G01X4421024Y1445784D01*
G01X4425163Y1445380D01*
G01X4428690Y1445275D01*
G01X4432218Y1445170D01*
G01X4432693Y1444873D01*
G01X4433168Y1444575D01*
G01X4438564Y1443737D01*
G01X4443959Y1442900D01*
G01X4445115Y1442442D01*
G01X4446272Y1441984D01*
G01X4449169Y1441430D01*
G01X4452066Y1440876D01*
G01X4454963Y1440221D01*
G01X4457861Y1439566D01*
G01X4459164Y1439559D01*
G01X4460467Y1439552D01*
G01X4462830Y1438292D01*
G01X4465194Y1437033D01*
G01X4467322Y1436442D01*
G01X4469450Y1435851D01*
G01X4471205Y1435600D01*
G01X4472960Y1435350D01*
G01X4473858Y1436260D01*
G01X4474757Y1437171D01*
G01X4473817Y1437942D01*
G01X4472876Y1438713D01*
G01X4472322Y1438713D01*
G01X4471767Y1438713D01*
G01X4469633Y1439177D01*
G01X4467499Y1439641D01*
G01X4466819Y1440845D01*
G01X4466139Y1442050D01*
G01X4465104Y1442440D01*
G01X4464069Y1442830D01*
G01X4461031Y1443298D01*
G01X4457993Y1443766D01*
G01X4456582Y1444363D01*
G01X4455170Y1444960D01*
G01X4455170Y1445353D01*
G01X4455170Y1445746D01*
G01X4453722Y1446443D01*
G01X4452274Y1447139D01*
G01X4448871Y1447745D01*
G01X4445469Y1448351D01*
G01X4443387Y1449401D01*
G01X4441305Y1450450D01*
G01X4436897Y1451511D01*
G01X4432489Y1452573D01*
G01X4429478Y1453610D01*
G01X4426466Y1454648D01*
G01X4424452Y1454648D01*
G01X4422438Y1454648D01*
G01X4417592Y1455446D01*
G01X4412746Y1456244D01*
G01X4407365Y1456968D01*
G01X4401984Y1457692D01*
G01X4400950Y1458103D01*
G01X4399915Y1458515D01*
G01X4395983Y1458859D01*
G01X4392051Y1459203D01*
G01X4383773Y1459851D01*
G01X4375495Y1460500D01*
G01X4368044Y1460445D01*
G01X4360594Y1460391D01*
G01X4353351Y1460061D01*
G37*
G36*
G01X4477755Y1433724D02*
G01X4476955Y1433407D01*
G01X4477435Y1433106D01*
G01X4477915Y1432805D01*
G01X4479939Y1432563D01*
G01X4481962Y1432320D01*
G01X4482278Y1432838D01*
G01X4482594Y1433356D01*
G01X4482023Y1433722D01*
G01X4481453Y1434088D01*
G01X4480004Y1434065D01*
G01X4478556Y1434042D01*
G01X4477755Y1433724D01*
G37*
G36*
G01X4169993Y1043914D02*
G01X4169993Y1042866D01*
G01X4171673Y1042866D01*
G01X4173353Y1042866D01*
G01X4173097Y1043285D01*
G01X4172842Y1043704D01*
G01X4172296Y1043704D01*
G01X4171750Y1043704D01*
G01X4171235Y1044333D01*
G01X4170720Y1044962D01*
G01X4170356Y1044962D01*
G01X4169993Y1044962D01*
G01X4169993Y1043914D01*
G37*
G36*
G01X4488903Y1429069D02*
G01X4489159Y1428649D01*
G01X4489342Y1428649D01*
G01X4489524Y1428649D01*
G01X4489524Y1429069D01*
G01X4489524Y1429488D01*
G01X4489086Y1429488D01*
G01X4488647Y1429488D01*
G01X4488903Y1429069D01*
G37*
G36*
G01X4505252Y1420892D02*
G01X4505252Y1420682D01*
G01X4505459Y1420682D01*
G01X4505666Y1420682D01*
G01X4505666Y1420892D01*
G01X4505666Y1421101D01*
G01X4505459Y1421101D01*
G01X4505252Y1421101D01*
G01X4505252Y1420892D01*
G37*
G04 Image End*

G04 Text Start*
G54D10*
G01X5905500Y2150618D02*
G01X5922518Y2133600D01*
G01X5922518Y2133600D02*
G01X5939282Y2133600D01*
G01X5939282Y2133600D02*
G01X5956300Y2150618D01*
G01X5956300Y2150618D02*
G01X5956300Y2235200D01*
G01X5939282Y2235200D02*
G01X5956300Y2235200D01*
G01X5956300Y2235200D02*
G01X5973318Y2235200D01*
G01X6024118Y2133600D02*
G01X6024118Y2235200D01*
G01X6007100Y2218182D02*
G01X6024118Y2235200D01*
G01X6007100Y2133600D02*
G01X6024118Y2133600D01*
G01X6024118Y2133600D02*
G01X6041136Y2133600D01*
G01X5884672Y330708D02*
G01X5901690Y313690D01*
G01X5901690Y313690D02*
G01X5918454Y313690D01*
G01X5918454Y313690D02*
G01X5935472Y330708D01*
G01X5935472Y330708D02*
G01X5935472Y415290D01*
G01X5918454Y415290D02*
G01X5935472Y415290D01*
G01X5935472Y415290D02*
G01X5952490Y415290D01*
G01X5986272Y313690D02*
G01X6054090Y313690D01*
G01X5986272Y313690D02*
G01X6054090Y381508D01*
G01X6054090Y381508D02*
G01X6054090Y398272D01*
G01X6037072Y415290D02*
G01X6054090Y398272D01*
G01X6003290Y415290D02*
G01X6037072Y415290D01*
G01X5986272Y398272D02*
G01X6003290Y415290D01*
G01X182118Y1375918D02*
G01X182118Y1460500D01*
G01X165100Y1358900D02*
G01X182118Y1375918D01*
G01X131318Y1358900D02*
G01X165100Y1358900D01*
G01X114300Y1375918D02*
G01X131318Y1358900D01*
G01X114300Y1375918D02*
G01X114300Y1460500D01*
G01X215900Y1409700D02*
G01X283718Y1409700D01*
G01X249936Y1460500D02*
G01X283718Y1426718D01*
G01X215900Y1426718D02*
G01X249936Y1460500D01*
G01X215900Y1358900D02*
G01X215900Y1409700D01*
G01X215900Y1409700D02*
G01X215900Y1426718D01*
G01X283718Y1358900D02*
G01X283718Y1409700D01*
G01X283718Y1409700D02*
G01X283718Y1426718D01*
G01X351536Y1392682D02*
G01X385318Y1358900D01*
G01X368300Y1392682D02*
G01X385318Y1409700D01*
G01X385318Y1409700D02*
G01X385318Y1443482D01*
G01X368300Y1460500D02*
G01X385318Y1443482D01*
G01X317500Y1460500D02*
G01X368300Y1460500D01*
G01X317500Y1358900D02*
G01X317500Y1392682D01*
G01X317500Y1392682D02*
G01X317500Y1460500D01*
G01X317500Y1392682D02*
G01X351536Y1392682D01*
G01X351536Y1392682D02*
G01X368300Y1392682D01*
G01X453136Y1358900D02*
G01X453136Y1460500D01*
G01X419100Y1460500D02*
G01X486918Y1460500D01*
G01X101600Y1168400D02*
G01X135382Y1168400D01*
G01X101600Y1117600D02*
G01X169418Y1117600D01*
G01X101600Y1219200D02*
G01X169418Y1219200D01*
G01X101600Y1117600D02*
G01X101600Y1168400D01*
G01X101600Y1168400D02*
G01X101600Y1219200D01*
G01X203200Y1134618D02*
G01X220218Y1117600D01*
G01X220218Y1117600D02*
G01X254000Y1117600D01*
G01X254000Y1117600D02*
G01X271018Y1134618D01*
G01X271018Y1134618D02*
G01X271018Y1151382D01*
G01X254000Y1168400D02*
G01X271018Y1151382D01*
G01X220218Y1168400D02*
G01X254000Y1168400D01*
G01X203200Y1185418D02*
G01X220218Y1168400D01*
G01X203200Y1185418D02*
G01X203200Y1202182D01*
G01X203200Y1202182D02*
G01X220218Y1219200D01*
G01X220218Y1219200D02*
G01X254000Y1219200D01*
G01X254000Y1219200D02*
G01X271018Y1202182D01*
G01X304800Y1151382D02*
G01X355600Y1151382D01*
G01X355600Y1151382D02*
G01X372618Y1168400D01*
G01X372618Y1168400D02*
G01X372618Y1202182D01*
G01X355600Y1219200D02*
G01X372618Y1202182D01*
G01X304800Y1219200D02*
G01X355600Y1219200D01*
G01X304800Y1117600D02*
G01X304800Y1151382D01*
G01X304800Y1151382D02*
G01X304800Y1219200D01*
G54D11*
G01X656082Y1087882D02*
G01X656082Y1130300D01*
G01X647700Y1079500D02*
G01X656082Y1087882D01*
G01X630682Y1079500D02*
G01X647700Y1079500D01*
G01X622300Y1087882D02*
G01X630682Y1079500D01*
G01X622300Y1087882D02*
G01X622300Y1130300D01*
G01X673100Y1087882D02*
G01X681482Y1079500D01*
G01X681482Y1079500D02*
G01X698500Y1079500D01*
G01X698500Y1079500D02*
G01X706882Y1087882D01*
G01X706882Y1087882D02*
G01X706882Y1096518D01*
G01X698500Y1104900D02*
G01X706882Y1096518D01*
G01X681482Y1104900D02*
G01X698500Y1104900D01*
G01X673100Y1113282D02*
G01X681482Y1104900D01*
G01X673100Y1113282D02*
G01X673100Y1121918D01*
G01X673100Y1121918D02*
G01X681482Y1130300D01*
G01X681482Y1130300D02*
G01X698500Y1130300D01*
G01X698500Y1130300D02*
G01X706882Y1121918D01*
G01X723900Y1104900D02*
G01X749046Y1104900D01*
G01X749300Y1130300D02*
G01X757682Y1121918D01*
G01X723900Y1130300D02*
G01X749300Y1130300D01*
G01X757682Y1113282D02*
G01X757682Y1121918D01*
G01X749300Y1104900D02*
G01X757682Y1113282D01*
G01X757682Y1087882D02*
G01X757682Y1096518D01*
G01X749300Y1079500D02*
G01X757682Y1087882D01*
G01X723900Y1079500D02*
G01X749300Y1079500D01*
G01X723900Y1079500D02*
G01X723900Y1104900D01*
G01X723900Y1104900D02*
G01X723900Y1130300D01*
G01X749300Y1104900D02*
G01X749300Y1104900D01*
G01X749300Y1104900D02*
G01X757682Y1096518D01*
G01X783082Y1079500D02*
G01X783082Y1130300D01*
G01X774700Y1121918D02*
G01X783082Y1130300D01*
G01X774700Y1079500D02*
G01X783082Y1079500D01*
G01X783082Y1079500D02*
G01X791464Y1079500D01*
G01X863600Y1104900D02*
G01X880618Y1104900D01*
G01X880618Y1104900D02*
G01X897382Y1104900D01*
G01X880618Y1087882D02*
G01X880618Y1104900D01*
G01X880618Y1104900D02*
G01X880618Y1121918D01*
G01X914400Y1087882D02*
G01X922782Y1079500D01*
G01X922782Y1079500D02*
G01X939800Y1079500D01*
G01X939800Y1079500D02*
G01X948182Y1087882D01*
G01X948182Y1087882D02*
G01X948182Y1104900D01*
G01X939800Y1113282D02*
G01X948182Y1104900D01*
G01X931164Y1113282D02*
G01X939800Y1113282D01*
G01X914400Y1104900D02*
G01X914400Y1130300D01*
G01X914400Y1130300D02*
G01X948182Y1130300D01*
G01X914400Y1104900D02*
G01X931164Y1113282D01*
G01X998982Y1096518D02*
G01X998982Y1130300D01*
G01X981964Y1079500D02*
G01X998982Y1096518D01*
G01X965200Y1096518D02*
G01X981964Y1079500D01*
G01X965200Y1096518D02*
G01X965200Y1130300D01*
G01X1158016Y1090442D02*
G01X1158016Y1132860D01*
G01X1149634Y1082060D02*
G01X1158016Y1090442D01*
G01X1132616Y1082060D02*
G01X1149634Y1082060D01*
G01X1124234Y1090442D02*
G01X1132616Y1082060D01*
G01X1124234Y1090442D02*
G01X1124234Y1132860D01*
G01X1175034Y1090442D02*
G01X1183416Y1082060D01*
G01X1183416Y1082060D02*
G01X1200434Y1082060D01*
G01X1200434Y1082060D02*
G01X1208816Y1090442D01*
G01X1208816Y1090442D02*
G01X1208816Y1099078D01*
G01X1200434Y1107460D02*
G01X1208816Y1099078D01*
G01X1183416Y1107460D02*
G01X1200434Y1107460D01*
G01X1175034Y1115842D02*
G01X1183416Y1107460D01*
G01X1175034Y1115842D02*
G01X1175034Y1124478D01*
G01X1175034Y1124478D02*
G01X1183416Y1132860D01*
G01X1183416Y1132860D02*
G01X1200434Y1132860D01*
G01X1200434Y1132860D02*
G01X1208816Y1124478D01*
G01X1225834Y1107460D02*
G01X1250980Y1107460D01*
G01X1251234Y1132860D02*
G01X1259616Y1124478D01*
G01X1225834Y1132860D02*
G01X1251234Y1132860D01*
G01X1259616Y1115842D02*
G01X1259616Y1124478D01*
G01X1251234Y1107460D02*
G01X1259616Y1115842D01*
G01X1259616Y1090442D02*
G01X1259616Y1099078D01*
G01X1251234Y1082060D02*
G01X1259616Y1090442D01*
G01X1225834Y1082060D02*
G01X1251234Y1082060D01*
G01X1225834Y1082060D02*
G01X1225834Y1107460D01*
G01X1225834Y1107460D02*
G01X1225834Y1132860D01*
G01X1251234Y1107460D02*
G01X1251234Y1107460D01*
G01X1251234Y1107460D02*
G01X1259616Y1099078D01*
G01X1276634Y1082060D02*
G01X1310416Y1082060D01*
G01X1276634Y1082060D02*
G01X1310416Y1115842D01*
G01X1310416Y1115842D02*
G01X1310416Y1124478D01*
G01X1302034Y1132860D02*
G01X1310416Y1124478D01*
G01X1285016Y1132860D02*
G01X1302034Y1132860D01*
G01X1276634Y1124478D02*
G01X1285016Y1132860D01*
G01X3077718Y1172718D02*
G01X3094482Y1155700D01*
G01X3086100Y1172718D02*
G01X3094482Y1181100D01*
G01X3094482Y1181100D02*
G01X3094482Y1198118D01*
G01X3086100Y1206500D02*
G01X3094482Y1198118D01*
G01X3060700Y1206500D02*
G01X3086100Y1206500D01*
G01X3060700Y1155700D02*
G01X3060700Y1172718D01*
G01X3060700Y1172718D02*
G01X3060700Y1206500D01*
G01X3060700Y1172718D02*
G01X3077718Y1172718D01*
G01X3077718Y1172718D02*
G01X3086100Y1172718D01*
G01X3111500Y1181100D02*
G01X3128264Y1181100D01*
G01X3111500Y1155700D02*
G01X3145282Y1155700D01*
G01X3111500Y1206500D02*
G01X3145282Y1206500D01*
G01X3111500Y1155700D02*
G01X3111500Y1181100D01*
G01X3111500Y1181100D02*
G01X3111500Y1206500D01*
G01X3187700Y1206500D02*
G01X3196082Y1198118D01*
G01X3170682Y1206500D02*
G01X3187700Y1206500D01*
G01X3162300Y1198118D02*
G01X3170682Y1206500D01*
G01X3162300Y1164082D02*
G01X3162300Y1198118D01*
G01X3162300Y1164082D02*
G01X3170682Y1155700D01*
G01X3170682Y1155700D02*
G01X3187700Y1155700D01*
G01X3187700Y1155700D02*
G01X3196082Y1164082D01*
G01X3196082Y1164082D02*
G01X3196082Y1181100D01*
G01X3179064Y1181100D02*
G01X3196082Y1181100D01*
G01X3788918Y1168400D02*
G01X3797300Y1168400D01*
G01X3771900Y1151382D02*
G01X3780282Y1143000D01*
G01X3780282Y1143000D02*
G01X3797300Y1143000D01*
G01X3797300Y1143000D02*
G01X3805682Y1151382D01*
G01X3805682Y1151382D02*
G01X3805682Y1160018D01*
G01X3797300Y1168400D02*
G01X3805682Y1160018D01*
G01X3797300Y1168400D02*
G01X3805682Y1176782D01*
G01X3805682Y1176782D02*
G01X3805682Y1185418D01*
G01X3797300Y1193800D02*
G01X3805682Y1185418D01*
G01X3780282Y1193800D02*
G01X3797300Y1193800D01*
G01X3771900Y1185418D02*
G01X3780282Y1193800D01*
G01X3856482Y1160018D02*
G01X3856482Y1193800D01*
G01X3839464Y1143000D02*
G01X3856482Y1160018D01*
G01X3822700Y1160018D02*
G01X3839464Y1143000D01*
G01X3822700Y1160018D02*
G01X3822700Y1193800D01*
G01X3890264Y1168400D02*
G01X3898900Y1168400D01*
G01X3873500Y1151382D02*
G01X3881882Y1143000D01*
G01X3881882Y1143000D02*
G01X3898900Y1143000D01*
G01X3898900Y1143000D02*
G01X3907282Y1151382D01*
G01X3907282Y1151382D02*
G01X3907282Y1160018D01*
G01X3898900Y1168400D02*
G01X3907282Y1160018D01*
G01X3898900Y1168400D02*
G01X3907282Y1176782D01*
G01X3907282Y1176782D02*
G01X3907282Y1185418D01*
G01X3898900Y1193800D02*
G01X3907282Y1185418D01*
G01X3881882Y1193800D02*
G01X3898900Y1193800D01*
G01X3873500Y1185418D02*
G01X3881882Y1193800D01*
G01X3282569Y1534160D02*
G01X3307969Y1534160D01*
G01X3307969Y1559560D02*
G01X3316351Y1551178D01*
G01X3282569Y1559560D02*
G01X3307969Y1559560D01*
G01X3316351Y1542542D02*
G01X3316351Y1551178D01*
G01X3307969Y1534160D02*
G01X3316351Y1542542D01*
G01X3316351Y1517142D02*
G01X3316351Y1525778D01*
G01X3307969Y1508760D02*
G01X3316351Y1517142D01*
G01X3282569Y1508760D02*
G01X3307969Y1508760D01*
G01X3282569Y1508760D02*
G01X3282569Y1534160D01*
G01X3282569Y1534160D02*
G01X3282569Y1559560D01*
G01X3307969Y1534160D02*
G01X3307969Y1534160D01*
G01X3307969Y1534160D02*
G01X3316351Y1525778D01*
G01X3333369Y1551178D02*
G01X3341751Y1559560D01*
G01X3333369Y1517142D02*
G01X3333369Y1551178D01*
G01X3333369Y1517142D02*
G01X3341751Y1508760D01*
G01X3341751Y1508760D02*
G01X3358769Y1508760D01*
G01X3358769Y1508760D02*
G01X3367151Y1517142D01*
G01X3367151Y1517142D02*
G01X3367151Y1551178D01*
G01X3358769Y1559560D02*
G01X3367151Y1551178D01*
G01X3341751Y1559560D02*
G01X3358769Y1559560D01*
G01X3384169Y1551178D02*
G01X3392551Y1559560D01*
G01X3384169Y1517142D02*
G01X3384169Y1551178D01*
G01X3384169Y1517142D02*
G01X3392551Y1508760D01*
G01X3392551Y1508760D02*
G01X3409569Y1508760D01*
G01X3409569Y1508760D02*
G01X3417951Y1517142D01*
G01X3417951Y1517142D02*
G01X3417951Y1551178D01*
G01X3409569Y1559560D02*
G01X3417951Y1551178D01*
G01X3392551Y1559560D02*
G01X3409569Y1559560D01*
G01X3451733Y1508760D02*
G01X3451733Y1559560D01*
G01X3434969Y1559560D02*
G01X3468751Y1559560D01*
G01X3485769Y1508760D02*
G01X3519551Y1542542D01*
G01X3570351Y1517142D02*
G01X3570351Y1559560D01*
G01X3561969Y1508760D02*
G01X3570351Y1517142D01*
G01X3544951Y1508760D02*
G01X3561969Y1508760D01*
G01X3536569Y1517142D02*
G01X3544951Y1508760D01*
G01X3536569Y1517142D02*
G01X3536569Y1559560D01*
G01X3587369Y1517142D02*
G01X3595751Y1508760D01*
G01X3595751Y1508760D02*
G01X3612769Y1508760D01*
G01X3612769Y1508760D02*
G01X3621151Y1517142D01*
G01X3621151Y1517142D02*
G01X3621151Y1525778D01*
G01X3612769Y1534160D02*
G01X3621151Y1525778D01*
G01X3595751Y1534160D02*
G01X3612769Y1534160D01*
G01X3587369Y1542542D02*
G01X3595751Y1534160D01*
G01X3587369Y1542542D02*
G01X3587369Y1551178D01*
G01X3587369Y1551178D02*
G01X3595751Y1559560D01*
G01X3595751Y1559560D02*
G01X3612769Y1559560D01*
G01X3612769Y1559560D02*
G01X3621151Y1551178D01*
G01X3638169Y1534160D02*
G01X3654933Y1534160D01*
G01X3638169Y1508760D02*
G01X3671951Y1508760D01*
G01X3638169Y1559560D02*
G01X3671951Y1559560D01*
G01X3638169Y1508760D02*
G01X3638169Y1534160D01*
G01X3638169Y1534160D02*
G01X3638169Y1559560D01*
G01X3705733Y1525778D02*
G01X3722751Y1508760D01*
G01X3714369Y1525778D02*
G01X3722751Y1534160D01*
G01X3722751Y1534160D02*
G01X3722751Y1551178D01*
G01X3714369Y1559560D02*
G01X3722751Y1551178D01*
G01X3688969Y1559560D02*
G01X3714369Y1559560D01*
G01X3688969Y1508760D02*
G01X3688969Y1525778D01*
G01X3688969Y1525778D02*
G01X3688969Y1559560D01*
G01X3688969Y1525778D02*
G01X3705733Y1525778D01*
G01X3705733Y1525778D02*
G01X3714369Y1525778D01*
G01X3286887Y992378D02*
G01X3303651Y975360D01*
G01X3295269Y992378D02*
G01X3303651Y1000760D01*
G01X3303651Y1000760D02*
G01X3303651Y1017778D01*
G01X3295269Y1026160D02*
G01X3303651Y1017778D01*
G01X3269869Y1026160D02*
G01X3295269Y1026160D01*
G01X3269869Y975360D02*
G01X3269869Y992378D01*
G01X3269869Y992378D02*
G01X3269869Y1026160D01*
G01X3269869Y992378D02*
G01X3286887Y992378D01*
G01X3286887Y992378D02*
G01X3295269Y992378D01*
G01X3320669Y1000760D02*
G01X3337433Y1000760D01*
G01X3320669Y975360D02*
G01X3354451Y975360D01*
G01X3320669Y1026160D02*
G01X3354451Y1026160D01*
G01X3320669Y975360D02*
G01X3320669Y1000760D01*
G01X3320669Y1000760D02*
G01X3320669Y1026160D01*
G01X3371469Y983742D02*
G01X3379851Y975360D01*
G01X3379851Y975360D02*
G01X3396869Y975360D01*
G01X3396869Y975360D02*
G01X3405251Y983742D01*
G01X3405251Y983742D02*
G01X3405251Y992378D01*
G01X3396869Y1000760D02*
G01X3405251Y992378D01*
G01X3379851Y1000760D02*
G01X3396869Y1000760D01*
G01X3371469Y1009142D02*
G01X3379851Y1000760D01*
G01X3371469Y1009142D02*
G01X3371469Y1017778D01*
G01X3371469Y1017778D02*
G01X3379851Y1026160D01*
G01X3379851Y1026160D02*
G01X3396869Y1026160D01*
G01X3396869Y1026160D02*
G01X3405251Y1017778D01*
G01X3422269Y1000760D02*
G01X3439033Y1000760D01*
G01X3422269Y975360D02*
G01X3456051Y975360D01*
G01X3422269Y1026160D02*
G01X3456051Y1026160D01*
G01X3422269Y975360D02*
G01X3422269Y1000760D01*
G01X3422269Y1000760D02*
G01X3422269Y1026160D01*
G01X3489833Y975360D02*
G01X3489833Y1026160D01*
G01X3473069Y1026160D02*
G01X3506851Y1026160D01*
G01X4401909Y712978D02*
G01X4427309Y712978D01*
G01X4427309Y712978D02*
G01X4435691Y721360D01*
G01X4435691Y721360D02*
G01X4435691Y738378D01*
G01X4427309Y746760D02*
G01X4435691Y738378D01*
G01X4401909Y746760D02*
G01X4427309Y746760D01*
G01X4401909Y695960D02*
G01X4401909Y712978D01*
G01X4401909Y712978D02*
G01X4401909Y746760D01*
G01X4452709Y738378D02*
G01X4461091Y746760D01*
G01X4452709Y704342D02*
G01X4452709Y738378D01*
G01X4452709Y704342D02*
G01X4461091Y695960D01*
G01X4461091Y695960D02*
G01X4478109Y695960D01*
G01X4478109Y695960D02*
G01X4486491Y704342D01*
G01X4486491Y704342D02*
G01X4486491Y738378D01*
G01X4478109Y746760D02*
G01X4486491Y738378D01*
G01X4461091Y746760D02*
G01X4478109Y746760D01*
G01X4537291Y695960D02*
G01X4537291Y746760D01*
G01X4520273Y712978D02*
G01X4537291Y695960D01*
G01X4503509Y695960D02*
G01X4520273Y712978D01*
G01X4503509Y695960D02*
G01X4503509Y746760D01*
G01X4554309Y721360D02*
G01X4571073Y721360D01*
G01X4554309Y695960D02*
G01X4588091Y695960D01*
G01X4554309Y746760D02*
G01X4588091Y746760D01*
G01X4554309Y695960D02*
G01X4554309Y721360D01*
G01X4554309Y721360D02*
G01X4554309Y746760D01*
G01X4621873Y712978D02*
G01X4638891Y695960D01*
G01X4630509Y712978D02*
G01X4638891Y721360D01*
G01X4638891Y721360D02*
G01X4638891Y738378D01*
G01X4630509Y746760D02*
G01X4638891Y738378D01*
G01X4605109Y746760D02*
G01X4630509Y746760D01*
G01X4605109Y695960D02*
G01X4605109Y712978D01*
G01X4605109Y712978D02*
G01X4605109Y746760D01*
G01X4605109Y712978D02*
G01X4621873Y712978D01*
G01X4621873Y712978D02*
G01X4630509Y712978D01*
G01X4466082Y1811782D02*
G01X4466082Y1854200D01*
G01X4457700Y1803400D02*
G01X4466082Y1811782D01*
G01X4440682Y1803400D02*
G01X4457700Y1803400D01*
G01X4432300Y1811782D02*
G01X4440682Y1803400D01*
G01X4432300Y1811782D02*
G01X4432300Y1854200D01*
G01X4483100Y1811782D02*
G01X4491482Y1803400D01*
G01X4491482Y1803400D02*
G01X4508500Y1803400D01*
G01X4508500Y1803400D02*
G01X4516882Y1811782D01*
G01X4516882Y1811782D02*
G01X4516882Y1820418D01*
G01X4508500Y1828800D02*
G01X4516882Y1820418D01*
G01X4491482Y1828800D02*
G01X4508500Y1828800D01*
G01X4483100Y1837182D02*
G01X4491482Y1828800D01*
G01X4483100Y1837182D02*
G01X4483100Y1845818D01*
G01X4483100Y1845818D02*
G01X4491482Y1854200D01*
G01X4491482Y1854200D02*
G01X4508500Y1854200D01*
G01X4508500Y1854200D02*
G01X4516882Y1845818D01*
G01X4533900Y1828800D02*
G01X4550664Y1828800D01*
G01X4533900Y1803400D02*
G01X4567682Y1803400D01*
G01X4533900Y1854200D02*
G01X4567682Y1854200D01*
G01X4533900Y1803400D02*
G01X4533900Y1828800D01*
G01X4533900Y1828800D02*
G01X4533900Y1854200D01*
G01X4601464Y1820418D02*
G01X4618482Y1803400D01*
G01X4610100Y1820418D02*
G01X4618482Y1828800D01*
G01X4618482Y1828800D02*
G01X4618482Y1845818D01*
G01X4610100Y1854200D02*
G01X4618482Y1845818D01*
G01X4584700Y1854200D02*
G01X4610100Y1854200D01*
G01X4584700Y1803400D02*
G01X4584700Y1820418D01*
G01X4584700Y1820418D02*
G01X4584700Y1854200D01*
G01X4584700Y1820418D02*
G01X4601464Y1820418D01*
G01X4601464Y1820418D02*
G01X4610100Y1820418D01*
G04 Text End*

G04 PolygonModel Start*
G54D10*
G01X5705858Y2294900D02*
G01X5705858Y2231400D01*
G01X4440887Y2275850D02*
G01X4440887Y2212350D01*
G01X3173095Y2279636D02*
G01X3173095Y2216136D01*
G01X1905000Y2292350D02*
G01X1905000Y2228850D01*
G01X5715107Y327650D02*
G01X5715107Y264150D01*
G01X4445000Y323850D02*
G01X4445000Y260350D01*
G01X3175000Y311150D02*
G01X3175000Y247650D01*
G01X1905000Y323850D02*
G01X1905000Y260350D01*
G01X1274061Y1827754D02*
G01X1324061Y1827754D01*
G01X1258819Y1743276D02*
G01X1258819Y1812516D01*
G01X1324061Y1728036D02*
G01X1274061Y1728036D01*
G01X1418339Y1728249D02*
G01X1368339Y1728249D01*
G01X1368339Y1827962D02*
G01X1418339Y1827962D01*
G01X1433581Y1812727D02*
G01X1433581Y1743484D01*
G01X1418339Y1827964D02*
G02X1433579Y1812724I0J-15240D01*
G01X1433579Y1743484D02*
G02X1418339Y1728244I-15240J0D01*
G01X1274061Y1728036D02*
G02X1258821Y1743276I0J15240D01*
G01X1258821Y1812516D02*
G02X1274061Y1827756I15240J0D01*
G01X1563146Y1502661D02*
G01X1563146Y1552661D01*
G01X1647624Y1487419D02*
G01X1578384Y1487419D01*
G01X1662864Y1552661D02*
G01X1662864Y1502661D01*
G01X1662651Y1646939D02*
G01X1662651Y1596939D01*
G01X1562938Y1596939D02*
G01X1562938Y1646939D01*
G01X1578173Y1662181D02*
G01X1647416Y1662181D01*
G01X1562936Y1646939D02*
G02X1578176Y1662179I15240J0D01*
G01X1647416Y1662179D02*
G02X1662656Y1646939I0J-15240D01*
G01X1662864Y1502661D02*
G02X1647624Y1487421I-15240J0D01*
G01X1578384Y1487421D02*
G02X1563144Y1502661I0J15240D01*
G01X2307339Y2033046D02*
G01X2257339Y2033046D01*
G01X2322581Y2117524D02*
G01X2322581Y2048284D01*
G01X2257339Y2132764D02*
G01X2307339Y2132764D01*
G01X2163061Y2132551D02*
G01X2213061Y2132551D01*
G01X2213061Y2032838D02*
G01X2163061Y2032838D01*
G01X2147819Y2048073D02*
G01X2147819Y2117316D01*
G01X2163061Y2032836D02*
G02X2147821Y2048076I0J15240D01*
G01X2147821Y2117316D02*
G02X2163061Y2132556I15240J0D01*
G01X2307339Y2132764D02*
G02X2322579Y2117524I0J-15240D01*
G01X2322579Y2048284D02*
G02X2307339Y2033044I-15240J0D01*
G01X1192279Y1476786D02*
G01X1142279Y1476786D01*
G01X1207521Y1561264D02*
G01X1207521Y1492024D01*
G01X1142279Y1576504D02*
G01X1192279Y1576504D01*
G01X1048001Y1576291D02*
G01X1098001Y1576291D01*
G01X1098001Y1476578D02*
G01X1048001Y1476578D01*
G01X1032759Y1491813D02*
G01X1032759Y1561056D01*
G01X1048001Y1476576D02*
G02X1032761Y1491816I0J15240D01*
G01X1032761Y1561056D02*
G02X1048001Y1576296I15240J0D01*
G01X1192279Y1576504D02*
G02X1207519Y1561264I0J-15240D01*
G01X1207519Y1492024D02*
G02X1192279Y1476784I-15240J0D01*
G01X1900939Y1423446D02*
G01X1850939Y1423446D01*
G01X1916181Y1507924D02*
G01X1916181Y1438684D01*
G01X1850939Y1523164D02*
G01X1900939Y1523164D01*
G01X1756661Y1522951D02*
G01X1806661Y1522951D01*
G01X1806661Y1423238D02*
G01X1756661Y1423238D01*
G01X1741419Y1438473D02*
G01X1741419Y1507716D01*
G01X1756661Y1423236D02*
G02X1741421Y1438476I0J15240D01*
G01X1741421Y1507716D02*
G02X1756661Y1522956I15240J0D01*
G01X1900939Y1523164D02*
G02X1916179Y1507924I0J-15240D01*
G01X1916179Y1438684D02*
G02X1900939Y1423444I-15240J0D01*
G01X1900939Y1525046D02*
G01X1850939Y1525046D01*
G01X1916181Y1609524D02*
G01X1916181Y1540284D01*
G01X1850939Y1624764D02*
G01X1900939Y1624764D01*
G01X1756661Y1624551D02*
G01X1806661Y1624551D01*
G01X1806661Y1524838D02*
G01X1756661Y1524838D01*
G01X1741419Y1540073D02*
G01X1741419Y1609316D01*
G01X1756661Y1524836D02*
G02X1741421Y1540076I0J15240D01*
G01X1741421Y1609316D02*
G02X1756661Y1624556I15240J0D01*
G01X1900939Y1624764D02*
G02X1916179Y1609524I0J-15240D01*
G01X1916179Y1540284D02*
G02X1900939Y1525044I-15240J0D01*
G01X1164339Y953546D02*
G01X1114339Y953546D01*
G01X1179581Y1038024D02*
G01X1179581Y968784D01*
G01X1114339Y1053264D02*
G01X1164339Y1053264D01*
G01X1020061Y1053051D02*
G01X1070061Y1053051D01*
G01X1070061Y953338D02*
G01X1020061Y953338D01*
G01X1004819Y968573D02*
G01X1004819Y1037816D01*
G01X1020061Y953336D02*
G02X1004821Y968576I0J15240D01*
G01X1004821Y1037816D02*
G02X1020061Y1053056I15240J0D01*
G01X1164339Y1053264D02*
G02X1179579Y1038024I0J-15240D01*
G01X1179579Y968784D02*
G02X1164339Y953544I-15240J0D01*
G01X1372646Y842261D02*
G01X1372646Y892261D01*
G01X1457124Y827019D02*
G01X1387884Y827019D01*
G01X1472364Y892261D02*
G01X1472364Y842261D01*
G01X1472151Y986539D02*
G01X1472151Y936539D01*
G01X1372438Y936539D02*
G01X1372438Y986539D01*
G01X1387673Y1001781D02*
G01X1456916Y1001781D01*
G01X1372436Y986539D02*
G02X1387676Y1001779I15240J0D01*
G01X1456916Y1001779D02*
G02X1472156Y986539I0J-15240D01*
G01X1472364Y842261D02*
G02X1457124Y827021I-15240J0D01*
G01X1387884Y827021D02*
G02X1372644Y842261I0J15240D01*
G01X1372646Y461261D02*
G01X1372646Y511261D01*
G01X1457124Y446019D02*
G01X1387884Y446019D01*
G01X1472364Y511261D02*
G01X1472364Y461261D01*
G01X1472151Y605539D02*
G01X1472151Y555539D01*
G01X1372438Y555539D02*
G01X1372438Y605539D01*
G01X1387673Y620781D02*
G01X1456916Y620781D01*
G01X1372436Y605539D02*
G02X1387676Y620779I15240J0D01*
G01X1456916Y620779D02*
G02X1472156Y605539I0J-15240D01*
G01X1472364Y461261D02*
G02X1457124Y446021I-15240J0D01*
G01X1387884Y446021D02*
G02X1372644Y461261I0J15240D01*
G01X1271046Y461261D02*
G01X1271046Y511261D01*
G01X1355524Y446019D02*
G01X1286284Y446019D01*
G01X1370764Y511261D02*
G01X1370764Y461261D01*
G01X1370551Y605539D02*
G01X1370551Y555539D01*
G01X1270838Y555539D02*
G01X1270838Y605539D01*
G01X1286073Y620781D02*
G01X1355316Y620781D01*
G01X1270836Y605539D02*
G02X1286076Y620779I15240J0D01*
G01X1355316Y620779D02*
G02X1370556Y605539I0J-15240D01*
G01X1370764Y461261D02*
G02X1355524Y446021I-15240J0D01*
G01X1286284Y446021D02*
G02X1271044Y461261I0J15240D01*
G01X6371339Y2109246D02*
G01X6321339Y2109246D01*
G01X6386581Y2193724D02*
G01X6386581Y2124484D01*
G01X6321339Y2208964D02*
G01X6371339Y2208964D01*
G01X6227061Y2208751D02*
G01X6277061Y2208751D01*
G01X6277061Y2109038D02*
G01X6227061Y2109038D01*
G01X6211819Y2124273D02*
G01X6211819Y2193516D01*
G01X6227061Y2109036D02*
G02X6211821Y2124276I0J15240D01*
G01X6211821Y2193516D02*
G02X6227061Y2208756I15240J0D01*
G01X6371339Y2208964D02*
G02X6386579Y2193724I0J-15240D01*
G01X6386579Y2124484D02*
G02X6371339Y2109244I-15240J0D01*
G01X6549139Y2109246D02*
G01X6499139Y2109246D01*
G01X6564381Y2193724D02*
G01X6564381Y2124484D01*
G01X6499139Y2208964D02*
G01X6549139Y2208964D01*
G01X6404861Y2208751D02*
G01X6454861Y2208751D01*
G01X6454861Y2109038D02*
G01X6404861Y2109038D01*
G01X6389619Y2124273D02*
G01X6389619Y2193516D01*
G01X6404861Y2109036D02*
G02X6389621Y2124276I0J15240D01*
G01X6389621Y2193516D02*
G02X6404861Y2208756I15240J0D01*
G01X6549139Y2208964D02*
G02X6564379Y2193724I0J-15240D01*
G01X6564379Y2124484D02*
G02X6549139Y2109244I-15240J0D01*
G01X4278854Y516639D02*
G01X4278854Y466639D01*
G01X4194376Y531881D02*
G01X4263616Y531881D01*
G01X4179136Y466639D02*
G01X4179136Y516639D01*
G01X4179349Y372361D02*
G01X4179349Y422361D01*
G01X4279062Y422361D02*
G01X4279062Y372361D01*
G01X4263827Y357119D02*
G01X4194584Y357119D01*
G01X4279064Y372361D02*
G02X4263824Y357121I-15240J0D01*
G01X4194584Y357121D02*
G02X4179344Y372361I0J15240D01*
G01X4179136Y516639D02*
G02X4194376Y531879I15240J0D01*
G01X4263616Y531879D02*
G02X4278856Y516639I0J-15240D01*
G01X4179346Y1591561D02*
G01X4179346Y1641561D01*
G01X4263824Y1576319D02*
G01X4194584Y1576319D01*
G01X4279064Y1641561D02*
G01X4279064Y1591561D01*
G01X4278851Y1735839D02*
G01X4278851Y1685839D01*
G01X4179138Y1685839D02*
G01X4179138Y1735839D01*
G01X4194373Y1751081D02*
G01X4263616Y1751081D01*
G01X4179136Y1735839D02*
G02X4194376Y1751079I15240J0D01*
G01X4263616Y1751079D02*
G02X4278856Y1735839I0J-15240D01*
G01X4279064Y1591561D02*
G02X4263824Y1576321I-15240J0D01*
G01X4194584Y1576321D02*
G02X4179344Y1591561I0J15240D01*
G54D12*
G01X926699Y1476939D02*
G01X876699Y1476939D01*
G01X876699Y1626941D02*
G01X926699Y1626941D01*
G01X851301Y2145101D02*
G01X901301Y2145101D01*
G01X901301Y1995099D02*
G01X851301Y1995099D01*
G01X901299Y1829999D02*
G01X851299Y1829999D01*
G01X851299Y1980001D02*
G01X901299Y1980001D01*
G01X838601Y1014801D02*
G01X888601Y1014801D01*
G01X888601Y864799D02*
G01X838601Y864799D01*
G01X838601Y737941D02*
G01X888601Y737941D01*
G01X888601Y587939D02*
G01X838601Y587939D01*
G01X888599Y415219D02*
G01X838599Y415219D01*
G01X838599Y565221D02*
G01X888599Y565221D01*
G54D13*
G01X3746452Y1397035D02*
G01X3746452Y1143035D01*
G01X3746452Y1143035D02*
G01X3238452Y1143035D01*
G01X3238452Y1143035D02*
G01X3238452Y1397035D01*
G01X3238452Y1397035D02*
G01X3428952Y1397035D01*
G54D14*
G01X3746452Y1397035D02*
G01X3428952Y1397035D01*
G54D15*
G01X822960Y1400078D02*
G01X822960Y1150079D01*
G01X1330858Y1400078D02*
G01X1330858Y1150079D01*
G01X568960Y1400078D02*
G01X1330858Y1400078D01*
G01X568960Y1150079D02*
G01X568960Y1400078D01*
G01X1330960Y1150079D02*
G01X568960Y1150079D01*
G54D10*
G01X4494860Y575719D02*
G01X4494860Y654609D01*
G01X4494860Y654609D02*
G01X4395140Y654609D01*
G01X4395140Y654609D02*
G01X4395140Y575719D01*
G01X4494860Y516481D02*
G01X4494860Y452831D01*
G01X4494860Y452831D02*
G01X4479620Y437591D01*
G01X4479620Y437591D02*
G01X4410380Y437591D01*
G01X4410380Y437591D02*
G01X4395140Y452831D01*
G01X4395140Y452831D02*
G01X4395140Y516481D01*
G36*
G01X4479620Y422351D02*
G01X4479620Y407111D01*
G01X4410380Y407111D01*
G01X4410380Y422351D01*
G01X4479620Y422351D01*
G37*
G01X4407840Y1989681D02*
G01X4407840Y1910791D01*
G01X4407840Y1910791D02*
G01X4507560Y1910791D01*
G01X4507560Y1910791D02*
G01X4507560Y1989681D01*
G01X4407840Y2048919D02*
G01X4407840Y2112569D01*
G01X4407840Y2112569D02*
G01X4423080Y2127809D01*
G01X4423080Y2127809D02*
G01X4492320Y2127809D01*
G01X4492320Y2127809D02*
G01X4507560Y2112569D01*
G01X4507560Y2112569D02*
G01X4507560Y2048919D01*
G36*
G01X4423080Y2143049D02*
G01X4423080Y2158289D01*
G01X4492320Y2158289D01*
G01X4492320Y2143049D01*
G01X4423080Y2143049D01*
G37*
G01X2759479Y1485679D02*
G01X2904721Y1485679D01*
G01X2904721Y1485679D02*
G01X2904721Y1588841D01*
G01X2759479Y1790921D02*
G01X2904721Y1790921D01*
G01X2904721Y1790921D02*
G01X2904721Y1687759D01*
G01X2759479Y1592760D02*
G01X2759479Y1683840D01*
G01X2759479Y1904779D02*
G01X2904721Y1904779D01*
G01X2904721Y1904779D02*
G01X2904721Y2007941D01*
G01X2759479Y2210021D02*
G01X2904721Y2210021D01*
G01X2904721Y2210021D02*
G01X2904721Y2106859D01*
G01X2759479Y2011860D02*
G01X2759479Y2102940D01*
G01X1004240Y1749821D02*
G01X1004240Y1821625D01*
G01X1004240Y1821625D02*
G01X1103960Y1821625D01*
G01X1103960Y1821625D02*
G01X1103960Y1749821D01*
G01X1004240Y1704579D02*
G01X1004240Y1632776D01*
G01X1004240Y1632776D02*
G01X1103960Y1632776D01*
G01X1103960Y1632776D02*
G01X1103960Y1704579D01*
G01X1048278Y2207021D02*
G01X1048278Y2278825D01*
G01X1048278Y2278825D02*
G01X1147998Y2278825D01*
G01X1147998Y2278825D02*
G01X1147998Y2207021D01*
G01X1048278Y2161779D02*
G01X1048278Y2089976D01*
G01X1048278Y2089976D02*
G01X1147998Y2089976D01*
G01X1147998Y2089976D02*
G01X1147998Y2161779D01*
G01X1323579Y1829740D02*
G01X1251776Y1829740D01*
G01X1251776Y1829740D02*
G01X1251776Y1929460D01*
G01X1251776Y1929460D02*
G01X1323579Y1929460D01*
G01X1368821Y1829740D02*
G01X1440625Y1829740D01*
G01X1440625Y1829740D02*
G01X1440625Y1929460D01*
G01X1440625Y1929460D02*
G01X1368821Y1929460D01*
G01X1323579Y1931340D02*
G01X1251776Y1931340D01*
G01X1251776Y1931340D02*
G01X1251776Y2031060D01*
G01X1251776Y2031060D02*
G01X1323579Y2031060D01*
G01X1368821Y1931340D02*
G01X1440625Y1931340D01*
G01X1440625Y1931340D02*
G01X1440625Y2031060D01*
G01X1440625Y2031060D02*
G01X1368821Y2031060D01*
G01X1561160Y1552179D02*
G01X1561160Y1480376D01*
G01X1561160Y1480376D02*
G01X1461440Y1480376D01*
G01X1461440Y1480376D02*
G01X1461440Y1552179D01*
G01X1561160Y1597421D02*
G01X1561160Y1669225D01*
G01X1561160Y1669225D02*
G01X1461440Y1669225D01*
G01X1461440Y1669225D02*
G01X1461440Y1597421D01*
G01X2257821Y2234260D02*
G01X2329625Y2234260D01*
G01X2329625Y2234260D02*
G01X2329625Y2134540D01*
G01X2329625Y2134540D02*
G01X2257821Y2134540D01*
G01X2212579Y2234260D02*
G01X2140776Y2234260D01*
G01X2140776Y2234260D02*
G01X2140776Y2134540D01*
G01X2140776Y2134540D02*
G01X2212579Y2134540D01*
G01X1851421Y1370660D02*
G01X1923225Y1370660D01*
G01X1923225Y1370660D02*
G01X1923225Y1270940D01*
G01X1923225Y1270940D02*
G01X1851421Y1270940D01*
G01X1806179Y1370660D02*
G01X1734376Y1370660D01*
G01X1734376Y1370660D02*
G01X1734376Y1270940D01*
G01X1734376Y1270940D02*
G01X1806179Y1270940D01*
G01X1720365Y1270940D02*
G01X1648562Y1270940D01*
G01X1648562Y1270940D02*
G01X1648562Y1370660D01*
G01X1648562Y1370660D02*
G01X1720365Y1370660D01*
G01X1765607Y1270940D02*
G01X1837411Y1270940D01*
G01X1837411Y1270940D02*
G01X1837411Y1370660D01*
G01X1837411Y1370660D02*
G01X1765607Y1370660D01*
G01X2212579Y1372540D02*
G01X2140776Y1372540D01*
G01X2140776Y1372540D02*
G01X2140776Y1472260D01*
G01X2140776Y1472260D02*
G01X2212579Y1472260D01*
G01X2257821Y1372540D02*
G01X2329625Y1372540D01*
G01X2329625Y1372540D02*
G01X2329625Y1472260D01*
G01X2329625Y1472260D02*
G01X2257821Y1472260D01*
G01X2257821Y1573860D02*
G01X2329625Y1573860D01*
G01X2329625Y1573860D02*
G01X2329625Y1474140D01*
G01X2329625Y1474140D02*
G01X2257821Y1474140D01*
G01X2212579Y1573860D02*
G01X2140776Y1573860D01*
G01X2140776Y1573860D02*
G01X2140776Y1474140D01*
G01X2140776Y1474140D02*
G01X2212579Y1474140D01*
G01X2212579Y1575740D02*
G01X2140776Y1575740D01*
G01X2140776Y1575740D02*
G01X2140776Y1675460D01*
G01X2140776Y1675460D02*
G01X2212579Y1675460D01*
G01X2257821Y1575740D02*
G01X2329625Y1575740D01*
G01X2329625Y1575740D02*
G01X2329625Y1675460D01*
G01X2329625Y1675460D02*
G01X2257821Y1675460D01*
G01X4647260Y523479D02*
G01X4647260Y451676D01*
G01X4647260Y451676D02*
G01X4547540Y451676D01*
G01X4547540Y451676D02*
G01X4547540Y523479D01*
G01X4647260Y568721D02*
G01X4647260Y640525D01*
G01X4647260Y640525D02*
G01X4547540Y640525D01*
G01X4547540Y640525D02*
G01X4547540Y568721D01*
G01X4534840Y2029221D02*
G01X4534840Y2101025D01*
G01X4534840Y2101025D02*
G01X4634560Y2101025D01*
G01X4634560Y2101025D02*
G01X4634560Y2029221D01*
G01X4534840Y1983979D02*
G01X4534840Y1912176D01*
G01X4534840Y1912176D02*
G01X4634560Y1912176D01*
G01X4634560Y1912176D02*
G01X4634560Y1983979D01*
G01X1001700Y393461D02*
G01X1001700Y465265D01*
G01X1001700Y465265D02*
G01X1101420Y465265D01*
G01X1101420Y465265D02*
G01X1101420Y393461D01*
G01X1001700Y348219D02*
G01X1001700Y276416D01*
G01X1001700Y276416D02*
G01X1101420Y276416D01*
G01X1101420Y276416D02*
G01X1101420Y348219D01*
G01X1004240Y848121D02*
G01X1004240Y919925D01*
G01X1004240Y919925D02*
G01X1103960Y919925D01*
G01X1103960Y919925D02*
G01X1103960Y848121D01*
G01X1004240Y802879D02*
G01X1004240Y731076D01*
G01X1004240Y731076D02*
G01X1103960Y731076D01*
G01X1103960Y731076D02*
G01X1103960Y802879D01*
G01X2602560Y1590279D02*
G01X2602560Y1518476D01*
G01X2602560Y1518476D02*
G01X2502840Y1518476D01*
G01X2502840Y1518476D02*
G01X2502840Y1590279D01*
G01X2602560Y1635521D02*
G01X2602560Y1707325D01*
G01X2602560Y1707325D02*
G01X2502840Y1707325D01*
G01X2502840Y1707325D02*
G01X2502840Y1635521D01*
G01X2502840Y2130821D02*
G01X2502840Y2202625D01*
G01X2502840Y2202625D02*
G01X2602560Y2202625D01*
G01X2602560Y2202625D02*
G01X2602560Y2130821D01*
G01X2502840Y2085579D02*
G01X2502840Y2013776D01*
G01X2502840Y2013776D02*
G01X2602560Y2013776D01*
G01X2602560Y2013776D02*
G01X2602560Y2085579D01*
G01X5420121Y418160D02*
G01X5491925Y418160D01*
G01X5491925Y418160D02*
G01X5491925Y318440D01*
G01X5491925Y318440D02*
G01X5420121Y318440D01*
G01X5374879Y418160D02*
G01X5303076Y418160D01*
G01X5303076Y418160D02*
G01X5303076Y318440D01*
G01X5303076Y318440D02*
G01X5374879Y318440D01*
G01X5191521Y418160D02*
G01X5263325Y418160D01*
G01X5263325Y418160D02*
G01X5263325Y318440D01*
G01X5263325Y318440D02*
G01X5191521Y318440D01*
G01X5146279Y418160D02*
G01X5074476Y418160D01*
G01X5074476Y418160D02*
G01X5074476Y318440D01*
G01X5074476Y318440D02*
G01X5146279Y318440D01*
G01X5057379Y2058340D02*
G01X4985576Y2058340D01*
G01X4985576Y2058340D02*
G01X4985576Y2158060D01*
G01X4985576Y2158060D02*
G01X5057379Y2158060D01*
G01X5102621Y2058340D02*
G01X5174425Y2058340D01*
G01X5174425Y2058340D02*
G01X5174425Y2158060D01*
G01X5174425Y2158060D02*
G01X5102621Y2158060D01*
G01X5057379Y1956740D02*
G01X4985576Y1956740D01*
G01X4985576Y1956740D02*
G01X4985576Y2056460D01*
G01X4985576Y2056460D02*
G01X5057379Y2056460D01*
G01X5102621Y1956740D02*
G01X5174425Y1956740D01*
G01X5174425Y1956740D02*
G01X5174425Y2056460D01*
G01X5174425Y2056460D02*
G01X5102621Y2056460D01*
G01X4971019Y1067740D02*
G01X4899216Y1067740D01*
G01X4899216Y1067740D02*
G01X4899216Y1167460D01*
G01X4899216Y1167460D02*
G01X4971019Y1167460D01*
G01X5016261Y1067740D02*
G01X5088065Y1067740D01*
G01X5088065Y1067740D02*
G01X5088065Y1167460D01*
G01X5088065Y1167460D02*
G01X5016261Y1167460D01*
G01X4971019Y1283640D02*
G01X4899216Y1283640D01*
G01X4899216Y1283640D02*
G01X4899216Y1383360D01*
G01X4899216Y1383360D02*
G01X4971019Y1383360D01*
G01X5016261Y1283640D02*
G01X5088065Y1283640D01*
G01X5088065Y1283640D02*
G01X5088065Y1383360D01*
G01X5088065Y1383360D02*
G01X5016261Y1383360D01*
G01X5102621Y1167460D02*
G01X5174425Y1167460D01*
G01X5174425Y1167460D02*
G01X5174425Y1067740D01*
G01X5174425Y1067740D02*
G01X5102621Y1067740D01*
G01X5057379Y1167460D02*
G01X4985576Y1167460D01*
G01X4985576Y1167460D02*
G01X4985576Y1067740D01*
G01X4985576Y1067740D02*
G01X5057379Y1067740D01*
G01X5102621Y1383360D02*
G01X5174425Y1383360D01*
G01X5174425Y1383360D02*
G01X5174425Y1283640D01*
G01X5174425Y1283640D02*
G01X5102621Y1283640D01*
G01X5057379Y1383360D02*
G01X4985576Y1383360D01*
G01X4985576Y1383360D02*
G01X4985576Y1283640D01*
G01X4985576Y1283640D02*
G01X5057379Y1283640D01*
G01X4179240Y721121D02*
G01X4179240Y792925D01*
G01X4179240Y792925D02*
G01X4278960Y792925D01*
G01X4278960Y792925D02*
G01X4278960Y721121D01*
G01X4179240Y675879D02*
G01X4179240Y604076D01*
G01X4179240Y604076D02*
G01X4278960Y604076D01*
G01X4278960Y604076D02*
G01X4278960Y675879D01*
G54D15*
G01X3861054Y940054D02*
G01X3861054Y329946D01*
G01X3861054Y329946D02*
G01X3258312Y329946D01*
G01X3258312Y329946D02*
G01X3258312Y940054D01*
G01X3258312Y940054D02*
G01X3861054Y940054D01*
G01X3860965Y2209964D02*
G01X3860965Y1599856D01*
G01X3860965Y1599856D02*
G01X3258223Y1599856D01*
G01X3258223Y1599856D02*
G01X3258223Y2209964D01*
G01X3258223Y2209964D02*
G01X3860965Y2209964D01*
G01X7293402Y1759999D02*
G01X7293402Y1609999D01*
G01X7293402Y1609999D02*
G01X7133402Y1609999D01*
G01X7133402Y1609999D02*
G01X7133402Y1390000D01*
G01X7133402Y1390000D02*
G01X7293402Y1390000D01*
G01X7293402Y1390000D02*
G01X7293402Y1170000D01*
G01X7293402Y1170000D02*
G01X7133402Y1170000D01*
G01X7133402Y1170000D02*
G01X7133402Y950001D01*
G01X7133402Y950001D02*
G01X7293402Y950001D01*
G01X7293402Y950001D02*
G01X7293402Y739999D01*
G01X7293402Y739999D02*
G01X7023402Y739999D01*
G01X7023402Y1920001D02*
G01X7293402Y1920001D01*
G01X7293402Y1920001D02*
G01X7293402Y1759999D01*
G01X7293402Y1759999D02*
G01X7023402Y1759999D01*
G01X6858363Y2040001D02*
G01X6858363Y489999D01*
G01X6858363Y489999D02*
G01X6861990Y489999D01*
G01X7363402Y2040001D02*
G01X7363402Y489999D01*
G01X7363402Y489999D02*
G01X5313401Y489999D01*
G01X5313401Y489999D02*
G01X5313401Y2040001D01*
G01X5313401Y2040001D02*
G01X7363402Y2040001D01*
G54D16*
G01X1588496Y1803409D02*
G01X1588496Y1740907D01*
G01X1588496Y1740907D02*
G01X1650997Y1740907D01*
G01X1955996Y1740907D02*
G01X2018497Y1740907D01*
G01X2018497Y1740907D02*
G01X2018497Y1803409D01*
G01X1955996Y2170909D02*
G01X2018497Y2170909D01*
G01X2018497Y2170909D02*
G01X2018497Y2108407D01*
G01X1650997Y2170909D02*
G01X1588496Y2170909D01*
G01X1588496Y2170909D02*
G01X1588496Y2108407D01*
G54D17*
G01X1998569Y2208384D02*
G03X1998442Y2238386I-127J15001D01*
G03X1998315Y2208384I0J-15001D01*
G54D10*
G01X2120839Y1076721D02*
G01X2120839Y396479D01*
G01X2120839Y396479D02*
G01X1841561Y396479D01*
G01X1841561Y396479D02*
G01X1841561Y1076721D01*
G01X1841561Y1076721D02*
G01X2120839Y1076721D01*
G54D15*
G01X302420Y1530998D02*
G01X460675Y1530998D01*
G01X-38435Y1530998D02*
G01X40709Y1530998D01*
G01X302420Y2430996D02*
G01X460647Y2430996D01*
G01X-38435Y2430996D02*
G01X40709Y2430996D01*
G01X-38435Y1530998D02*
G01X-38435Y2430996D01*
G01X302395Y109004D02*
G01X460649Y109004D01*
G01X-38461Y109004D02*
G01X40683Y109004D01*
G01X302395Y1009002D02*
G01X460621Y1009002D01*
G01X-38461Y1009002D02*
G01X40683Y1009002D01*
G01X-38461Y109004D02*
G01X-38461Y1009002D01*
G54D10*
G01X6620761Y418054D02*
G01X6670761Y418054D01*
G01X6605519Y333576D02*
G01X6605519Y402816D01*
G01X6670761Y318336D02*
G01X6620761Y318336D01*
G01X6765039Y318549D02*
G01X6715039Y318549D01*
G01X6715039Y418262D02*
G01X6765039Y418262D01*
G01X6780281Y403027D02*
G01X6780281Y333784D01*
G01X6765039Y418264D02*
G02X6780279Y403024I0J-15240D01*
G01X6780279Y333784D02*
G02X6765039Y318544I-15240J0D01*
G01X6620761Y318336D02*
G02X6605521Y333576I0J15240D01*
G01X6605521Y402816D02*
G02X6620761Y418056I15240J0D01*
G01X6739639Y2109246D02*
G01X6689639Y2109246D01*
G01X6754881Y2193724D02*
G01X6754881Y2124484D01*
G01X6689639Y2208964D02*
G01X6739639Y2208964D01*
G01X6595361Y2208751D02*
G01X6645361Y2208751D01*
G01X6645361Y2109038D02*
G01X6595361Y2109038D01*
G01X6580119Y2124273D02*
G01X6580119Y2193516D01*
G01X6595361Y2109036D02*
G02X6580121Y2124276I0J15240D01*
G01X6580121Y2193516D02*
G02X6595361Y2208756I15240J0D01*
G01X6739639Y2208964D02*
G02X6754879Y2193724I0J-15240D01*
G01X6754879Y2124484D02*
G02X6739639Y2109244I-15240J0D01*
G01X1274061Y2246854D02*
G01X1324061Y2246854D01*
G01X1258819Y2162376D02*
G01X1258819Y2231616D01*
G01X1324061Y2147136D02*
G01X1274061Y2147136D01*
G01X1418339Y2147349D02*
G01X1368339Y2147349D01*
G01X1368339Y2247062D02*
G01X1418339Y2247062D01*
G01X1433581Y2231827D02*
G01X1433581Y2162584D01*
G01X1418339Y2247064D02*
G02X1433579Y2231824I0J-15240D01*
G01X1433579Y2162584D02*
G02X1418339Y2147344I-15240J0D01*
G01X1274061Y2147136D02*
G02X1258821Y2162376I0J15240D01*
G01X1258821Y2231616D02*
G02X1274061Y2246856I15240J0D01*
G54D15*
G01X750001Y2538001D02*
G01X750001Y2288004D01*
G01X6869999Y2288004D02*
G01X750001Y2288004D01*
G01X6613195Y2288004D02*
G01X6613195Y2538001D01*
G01X6869999Y2538001D02*
G01X6869999Y2288004D01*
G01X6869999Y2538004D02*
G01X750001Y2538004D01*
G01X750001Y252001D02*
G01X750001Y2004D01*
G01X6869999Y2004D02*
G01X750001Y2004D01*
G01X6613195Y2004D02*
G01X6613195Y252001D01*
G01X6869999Y252001D02*
G01X6869999Y2004D01*
G01X6869999Y252004D02*
G01X750001Y252004D01*

G04 Rect Start*
G54D18*
G01X861695Y1611948D02*
G01X941705Y1611948D01*
G01X941705Y1491958D01*
G01X861695Y1491958D01*
G01X861695Y1611948D01*
G01X916305Y2010093D02*
G01X836295Y2010093D01*
G01X836295Y2130082D01*
G01X916305Y2130082D01*
G01X916305Y2010093D01*
G01X836295Y1965008D02*
G01X916305Y1965008D01*
G01X916305Y1845018D01*
G01X836295Y1845018D01*
G01X836295Y1965008D01*
G01X903605Y879793D02*
G01X823595Y879793D01*
G01X823595Y999782D01*
G01X903605Y999782D01*
G01X903605Y879793D01*
G01X903605Y602933D02*
G01X823595Y602933D01*
G01X823595Y722922D01*
G01X903605Y722922D01*
G01X903605Y602933D01*
G01X823595Y550228D02*
G01X903605Y550228D01*
G01X903605Y430238D01*
G01X823595Y430238D01*
G01X823595Y550228D01*
G04 Rect End*

G04 Circle Start*
G54D20*
G01X4491050Y546100D02*
G03X4498670Y546100I3810J0D01*
G03X4491050Y546100I-3810J0D01*
G01X4391330Y546100D02*
G03X4398950Y546100I3810J0D01*
G03X4391330Y546100I-3810J0D01*
G01X4503750Y2019300D02*
G03X4511370Y2019300I3810J0D01*
G03X4503750Y2019300I-3810J0D01*
G01X4404030Y2019300D02*
G03X4411650Y2019300I3810J0D01*
G03X4404030Y2019300I-3810J0D01*
G54D15*
G01X3403067Y635000D02*
G03X3708933Y635000I152933J0D01*
G03X3403067Y635000I-152933J0D01*
G01X3303397Y424510D02*
G03X3394989Y424510I45796J0D01*
G03X3303397Y424510I-45796J0D01*
G01X3294304Y852703D02*
G03X3385896Y852703I45796J0D01*
G03X3294304Y852703I-45796J0D01*
G01X3724300Y849097D02*
G03X3815893Y849097I45796J0D01*
G03X3724300Y849097I-45796J0D01*
G01X3723792Y425196D02*
G03X3815385Y425196I45796J0D01*
G03X3723792Y425196I-45796J0D01*
G01X3402978Y1904910D02*
G03X3708845Y1904910I152933J0D01*
G03X3402978Y1904910I-152933J0D01*
G01X3303308Y1694420D02*
G03X3394901Y1694420I45796J0D01*
G03X3303308Y1694420I-45796J0D01*
G01X3294215Y2122613D02*
G03X3385807Y2122613I45796J0D01*
G03X3294215Y2122613I-45796J0D01*
G01X3724212Y2119007D02*
G03X3815804Y2119007I45796J0D01*
G03X3724212Y2119007I-45796J0D01*
G01X3723704Y1695106D02*
G03X3815296Y1695106I45796J0D01*
G03X3723704Y1695106I-45796J0D01*
G01X6699250Y2089988D02*
G03X6727546Y2089988I14148J0D01*
G03X6699250Y2089988I-14148J0D01*
G04 Circle End*

M02*

