G04 Layer: InnerLayer2*
G04 EasyEDA Pro v3.2.149, 2026-10-06 17:45:09*
G04 Gerber Generator version 0.3*
G04 Scale: 100 percent, Rotated: No, Reflected: No*
G04 Dimensions in millimeters*
G04 Leading zeros omitted, absolute positions, 4 integers and 5 decimals*
G04 Generated by one-click*
G04 Object Configs: Pad,Via,Track,Text,Image,Dimension,BoardOutline,BoardCutout,CopperFilled,SolidRegion,FPCStiffener,Line,PlaneZone,ComponentProperty,ComponentSilkscreen,TearDrop*
G04 Layer Configs: 1,15,16,2,3,4,5,6,7,8,9,10,11,13,14,56*
G04 Copper Areas: 0*
%FSLAX45Y45*%
%MOMM*%
%ADD10R,2.0X2.0*%
%ADD11C,2.0*%
%ADD12R,1.7X1.7*%
%ADD13C,1.7*%
%ADD14O,2.2X1.0*%
%ADD15O,1.8X1.0*%
%ADD16R,1.6X1.6*%
%ADD17C,1.6096*%
%ADD18C,1.6*%
%ADD19C,0.61*%
G75*


G04 PlaneZone Start*
G36*
G01X6811000Y2307346D02*
G03X6832346Y2318771I0J25654D01*
G01X6832346Y221229D01*
G03X6811000Y232654I-21346J-14229D01*
G01X6651000Y232654D01*
G03X6625346Y207000I0J-25654D01*
G01X6625346Y47000D01*
G03X6636771Y25654I25654J0D01*
G01X6506862Y25654D01*
G03X6477000Y232654I-29862J101346D01*
G03X6447138Y25654I0J-105654D01*
G01X6252862Y25654D01*
G03X6223000Y232654I-29862J101346D01*
G03X6193138Y25654I0J-105654D01*
G01X5998862Y25654D01*
G03X5969000Y232654I-29862J101346D01*
G03X5939138Y25654I0J-105654D01*
G01X5744862Y25654D01*
G03X5715000Y232654I-29862J101346D01*
G03X5685138Y25654I0J-105654D01*
G01X5490862Y25654D01*
G03X5461000Y232654I-29862J101346D01*
G03X5431138Y25654I0J-105654D01*
G01X5236862Y25654D01*
G03X5207000Y232654I-29862J101346D01*
G03X5177138Y25654I0J-105654D01*
G01X4982862Y25654D01*
G03X4953000Y232654I-29862J101346D01*
G03X4923138Y25654I0J-105654D01*
G01X4728862Y25654D01*
G03X4699000Y232654I-29862J101346D01*
G03X4669138Y25654I0J-105654D01*
G01X4474862Y25654D01*
G03X4445000Y232654I-29862J101346D01*
G03X4415138Y25654I0J-105654D01*
G01X4220862Y25654D01*
G03X4191000Y232654I-29862J101346D01*
G03X4161138Y25654I0J-105654D01*
G01X3966862Y25654D01*
G03X3937000Y232654I-29862J101346D01*
G03X3907138Y25654I0J-105654D01*
G01X3712862Y25654D01*
G03X3683000Y232654I-29862J101346D01*
G03X3653138Y25654I0J-105654D01*
G01X3458862Y25654D01*
G03X3429000Y232654I-29862J101346D01*
G03X3399138Y25654I0J-105654D01*
G01X3204862Y25654D01*
G03X3175000Y232654I-29862J101346D01*
G03X3145138Y25654I0J-105654D01*
G01X2950862Y25654D01*
G03X2921000Y232654I-29862J101346D01*
G03X2891138Y25654I0J-105654D01*
G01X2696862Y25654D01*
G03X2667000Y232654I-29862J101346D01*
G03X2637138Y25654I0J-105654D01*
G01X2442862Y25654D01*
G03X2413000Y232654I-29862J101346D01*
G03X2383138Y25654I0J-105654D01*
G01X2188862Y25654D01*
G03X2159000Y232654I-29862J101346D01*
G03X2129138Y25654I0J-105654D01*
G01X1934862Y25654D01*
G03X1905000Y232654I-29862J101346D01*
G03X1875138Y25654I0J-105654D01*
G01X1680862Y25654D01*
G03X1651000Y232654I-29862J101346D01*
G03X1621138Y25654I0J-105654D01*
G01X1426862Y25654D01*
G03X1397000Y232654I-29862J101346D01*
G03X1367138Y25654I0J-105654D01*
G01X1172862Y25654D01*
G03X1143000Y232654I-29862J101346D01*
G03X1113138Y25654I0J-105654D01*
G01X918862Y25654D01*
G03X889000Y232654I-29862J101346D01*
G03X859138Y25654I0J-105654D01*
G01X25654Y25654D01*
G01X25654Y2514346D01*
G01X859138Y2514346D01*
G03X889000Y2307346I29862J-101346D01*
G03X918862Y2514346I0J105654D01*
G01X1113138Y2514346D01*
G03X1143000Y2307346I29862J-101346D01*
G03X1172862Y2514346I0J105654D01*
G01X1367138Y2514346D01*
G03X1397000Y2307346I29862J-101346D01*
G03X1426862Y2514346I0J105654D01*
G01X1621138Y2514346D01*
G03X1651000Y2307346I29862J-101346D01*
G03X1680862Y2514346I0J105654D01*
G01X1875138Y2514346D01*
G03X1905000Y2307346I29862J-101346D01*
G03X1934862Y2514346I0J105654D01*
G01X2129138Y2514346D01*
G03X2159000Y2307346I29862J-101346D01*
G03X2188862Y2514346I0J105654D01*
G01X2383138Y2514346D01*
G03X2413000Y2307346I29862J-101346D01*
G03X2442862Y2514346I0J105654D01*
G01X2637138Y2514346D01*
G03X2667000Y2307346I29862J-101346D01*
G03X2696862Y2514346I0J105654D01*
G01X2891138Y2514346D01*
G03X2921000Y2307346I29862J-101346D01*
G03X2950862Y2514346I0J105654D01*
G01X3145138Y2514346D01*
G03X3175000Y2307346I29862J-101346D01*
G03X3204862Y2514346I0J105654D01*
G01X3399138Y2514346D01*
G03X3429000Y2307346I29862J-101346D01*
G03X3458862Y2514346I0J105654D01*
G01X3653138Y2514346D01*
G03X3683000Y2307346I29862J-101346D01*
G03X3712862Y2514346I0J105654D01*
G01X3907138Y2514346D01*
G03X3937000Y2307346I29862J-101346D01*
G03X3966862Y2514346I0J105654D01*
G01X4161138Y2514346D01*
G03X4191000Y2307346I29862J-101346D01*
G03X4220862Y2514346I0J105654D01*
G01X4415138Y2514346D01*
G03X4445000Y2307346I29862J-101346D01*
G03X4474862Y2514346I0J105654D01*
G01X4669138Y2514346D01*
G03X4699000Y2307346I29862J-101346D01*
G03X4728862Y2514346I0J105654D01*
G01X4923138Y2514346D01*
G03X4953000Y2307346I29862J-101346D01*
G03X4982862Y2514346I0J105654D01*
G01X5177138Y2514346D01*
G03X5207000Y2307346I29862J-101346D01*
G03X5236862Y2514346I0J105654D01*
G01X5431138Y2514346D01*
G03X5461000Y2307346I29862J-101346D01*
G03X5490862Y2514346I0J105654D01*
G01X5685138Y2514346D01*
G03X5715000Y2307346I29862J-101346D01*
G03X5744862Y2514346I0J105654D01*
G01X5939138Y2514346D01*
G03X5969000Y2307346I29862J-101346D01*
G03X5998862Y2514346I0J105654D01*
G01X6193138Y2514346D01*
G03X6223000Y2307346I29862J-101346D01*
G03X6252862Y2514346I0J105654D01*
G01X6447138Y2514346D01*
G03X6477000Y2307346I29862J-101346D01*
G03X6506862Y2514346I0J105654D01*
G01X6636771Y2514346D01*
G03X6625346Y2493000I14229J-21346D01*
G01X6625346Y2333000D01*
G03X6651000Y2307346I25654J0D01*
G01X6811000Y2307346D01*
G37*
%LPC*%
G36*
G01X231526Y202654D02*
G01X111526Y202654D01*
G03X111526Y51346I0J-75654D01*
G01X231526Y51346D01*
G03X231526Y202654I0J75654D01*
G37*
G36*
G01X231526Y1066660D02*
G01X111526Y1066660D01*
G03X111526Y915353I0J-75654D01*
G01X231526Y915353D01*
G03X231526Y1066660I0J75654D01*
G37*
G36*
G01X231551Y1624648D02*
G01X111552Y1624648D01*
G03X111552Y1473340I0J-75654D01*
G01X231551Y1473340D01*
G03X231551Y1624648I0J75654D01*
G37*
G36*
G01X231551Y2488654D02*
G01X111552Y2488654D01*
G03X111552Y2337346I0J-75654D01*
G01X231551Y2337346D01*
G03X231551Y2488654I0J75654D01*
G37*
G36*
G01X611475Y1066660D02*
G01X531475Y1066660D01*
G03X531475Y915353I0J-75654D01*
G01X611475Y915353D01*
G03X611475Y1066660I0J75654D01*
G37*
G36*
G01X611500Y202654D02*
G01X531500Y202654D01*
G03X531500Y51346I0J-75654D01*
G01X611500Y51346D01*
G03X611500Y202654I0J75654D01*
G37*
G36*
G01X611500Y2488654D02*
G01X531500Y2488654D01*
G03X531500Y2337346I0J-75654D01*
G01X611500Y2337346D01*
G03X611500Y2488654I0J75654D01*
G37*
G36*
G01X611525Y1624648D02*
G01X531525Y1624648D01*
G03X531525Y1473340I0J-75654D01*
G01X611525Y1473340D01*
G03X611525Y1624648I0J75654D01*
G37*
G36*
G01X780960Y1164426D02*
G03X806614Y1190080I0J25654D01*
G01X806614Y1360080D01*
G03X780960Y1385734I-25654J0D01*
G01X610960Y1385734D01*
G03X585306Y1360080I0J-25654D01*
G01X585306Y1190080D01*
G03X610960Y1164426I25654J0D01*
G01X780960Y1164426D01*
G37*
G36*
G01X747820Y1985872D02*
G03X860128Y1985872I56154J0D01*
G03X747820Y1985872I-56154J0D01*
G37*
G36*
G01X839306Y1275080D02*
G03X1060614Y1275080I110654J0D01*
G03X839306Y1275080I-110654J0D01*
G37*
G36*
G01X898822Y1982878D02*
G03X1011130Y1982878I56154J0D01*
G03X898822Y1982878I-56154J0D01*
G37*
G36*
G01X1074460Y477226D02*
G03X1110335Y576580I0J56154D01*
G03X1074460Y675934I-35875J43200D01*
G03X1038585Y576580I0J-56154D01*
G03X1074460Y477226I35875J-43200D01*
G37*
G36*
G01X1093306Y1275080D02*
G03X1314614Y1275080I110654J0D01*
G03X1093306Y1275080I-110654J0D01*
G37*
G36*
G01X1206086Y1823447D02*
G03X1230801Y1930223I414J56152D01*
G03X1207663Y2037353I-23552J50976D01*
G03X1182948Y1930577I-414J-56152D01*
G03X1206086Y1823447I23552J-50976D01*
G37*
G36*
G01X1363081Y430240D02*
G03X1264288Y393700I-42639J-36540D01*
G03X1363081Y357160I56154J0D01*
G03X1445810Y354380I42639J36540D01*
G03X1542054Y393700I40090J39320D01*
G03X1445810Y433020I-56154J0D01*
G03X1363081Y430240I-40090J-39320D01*
G37*
G36*
G01X1366246Y1054100D02*
G03X1478554Y1054100I56154J0D01*
G03X1366246Y1054100I-56154J0D01*
G37*
G36*
G01X1531346Y1320800D02*
G03X1643654Y1320800I56154J0D01*
G03X1531346Y1320800I-56154J0D01*
G37*
G36*
G01X1582146Y1795168D02*
G03X1694454Y1795168I56154J0D01*
G03X1582146Y1795168I-56154J0D01*
G37*
G36*
G01X1836126Y571500D02*
G03X1935480Y535625I56154J0D01*
G03X2034834Y571500I43200J35875D01*
G03X1935480Y607375I-56154J0D01*
G03X1836126Y571500I-43200J-35875D01*
G37*
G36*
G01X1899646Y2222500D02*
G03X2011954Y2222500I56154J0D01*
G03X1899646Y2222500I-56154J0D01*
G37*
G36*
G01X1912346Y1308100D02*
G03X2024654Y1308100I56154J0D01*
G03X1912346Y1308100I-56154J0D01*
G37*
G36*
G01X2013946Y2171700D02*
G03X2126254Y2171700I56154J0D01*
G03X2013946Y2171700I-56154J0D01*
G37*
G36*
G01X2128246Y1828800D02*
G03X2240554Y1828800I56154J0D01*
G03X2128246Y1828800I-56154J0D01*
G37*
G36*
G01X2398831Y2124700D02*
G03X2511139Y2124700I56154J0D01*
G03X2398831Y2124700I-56154J0D01*
G37*
G36*
G01X3465452Y1144381D02*
G03X3491106Y1170035I0J25654D01*
G01X3491106Y1370034D01*
G03X3465452Y1395688I-25654J0D01*
G01X3265452Y1395688D01*
G03X3239798Y1370034I0J-25654D01*
G01X3239798Y1170035D01*
G03X3265452Y1144381I25654J0D01*
G01X3465452Y1144381D01*
G37*
G36*
G01X3493798Y1270035D02*
G03X3745106Y1270035I125654J0D01*
G03X3493798Y1270035I-125654J0D01*
G37*
G36*
G01X3741146Y1562100D02*
G03X3853454Y1562100I56154J0D01*
G03X3741146Y1562100I-56154J0D01*
G37*
G36*
G01X3779246Y1270000D02*
G03X3891554Y1270000I56154J0D01*
G03X3779246Y1270000I-56154J0D01*
G37*
G36*
G01X3860546Y1544300D02*
G03X3972854Y1544300I56154J0D01*
G03X3860546Y1544300I-56154J0D01*
G37*
G36*
G01X4250556Y2008010D02*
G03X4362864Y2008010I56154J0D01*
G03X4250556Y2008010I-56154J0D01*
G37*
G36*
G01X4287246Y1549400D02*
G03X4399554Y1549400I56154J0D01*
G03X4287246Y1549400I-56154J0D01*
G37*
G36*
G01X4442262Y1550381D02*
G03X4546421Y1522897I56131J1611D01*
G03X4648832Y1556312I46280J31803D01*
G03X4544673Y1583796I-56131J-1611D01*
G03X4442262Y1550381I-46280J-31803D01*
G37*
G36*
G01X4637522Y1021100D02*
G03X4749830Y1021100I56154J0D01*
G03X4637522Y1021100I-56154J0D01*
G37*
G36*
G01X4714240Y1127546D02*
G03X4748567Y1228140I0J56154D01*
G03X4714240Y1328734I-34327J44440D01*
G03X4679913Y1228140I0J-56154D01*
G03X4714240Y1127546I34327J-44440D01*
G37*
G36*
G01X4668246Y1912600D02*
G03X4780554Y1912600I56154J0D01*
G03X4668246Y1912600I-56154J0D01*
G37*
G36*
G01X4693646Y1772800D02*
G03X4805954Y1772800I56154J0D01*
G03X4693646Y1772800I-56154J0D01*
G37*
G36*
G01X4693646Y1610004D02*
G03X4805954Y1610004I56154J0D01*
G03X4693646Y1610004I-56154J0D01*
G37*
G36*
G01X4787332Y962700D02*
G03X4899640Y962700I56154J0D01*
G03X4787332Y962700I-56154J0D01*
G37*
G36*
G01X4884146Y792500D02*
G03X4996454Y792500I56154J0D01*
G03X4884146Y792500I-56154J0D01*
G37*
G36*
G01X4894781Y1852135D02*
G03X5007089Y1852135I56154J0D01*
G03X4894781Y1852135I-56154J0D01*
G37*
G36*
G01X4896846Y1694993D02*
G03X5009154Y1694993I56154J0D01*
G03X4896846Y1694993I-56154J0D01*
G37*
G36*
G01X4998446Y759993D02*
G03X5110754Y759993I56154J0D01*
G03X4998446Y759993I-56154J0D01*
G37*
G36*
G01X5011146Y957600D02*
G03X5123454Y957600I56154J0D01*
G03X5011146Y957600I-56154J0D01*
G37*
G36*
G01X5169577Y968848D02*
G03X5220254Y1064433I12023J54852D01*
G03X5214206Y1172452I-18071J53167D01*
G03X5163529Y1076867I-12023J-54852D01*
G03X5169577Y968848I18071J-53167D01*
G37*
G36*
G01X5146029Y1333500D02*
G03X5258337Y1333500I56154J0D01*
G03X5146029Y1333500I-56154J0D01*
G37*
G36*
G01X5571082Y658105D02*
G03X5625196Y730824I458J56152D01*
G03X5699872Y812355I30064J47428D01*
G03X5601604Y761686I-44613J-34103D01*
G03X5539777Y760564I-30064J-47428D01*
G03X5441449Y811661I-53377J17441D01*
G03X5518164Y731698I44951J-33656D01*
G03X5571082Y658105I53377J-17441D01*
G37*
G36*
G01X5430246Y1863595D02*
G03X5542554Y1863595I56154J0D01*
G03X5430246Y1863595I-56154J0D01*
G37*
G36*
G01X5515387Y1761748D02*
G03X5627695Y1761748I56154J0D01*
G03X5515387Y1761748I-56154J0D01*
G37*
G36*
G01X5599105Y1863843D02*
G03X5711413Y1863843I56154J0D01*
G03X5599105Y1863843I-56154J0D01*
G37*
G36*
G01X5685567Y1776988D02*
G03X5797875Y1776988I56154J0D01*
G03X5685567Y1776988I-56154J0D01*
G37*
G36*
G01X5688107Y676157D02*
G03X5800415Y676157I56154J0D01*
G03X5688107Y676157I-56154J0D01*
G37*
G36*
G01X5769285Y1863843D02*
G03X5881593Y1863843I56154J0D01*
G03X5769285Y1863843I-56154J0D01*
G37*
G36*
G01X5771825Y778252D02*
G03X5884133Y778252I56154J0D01*
G03X5771825Y778252I-56154J0D01*
G37*
G36*
G01X5858287Y676157D02*
G03X5970595Y676157I56154J0D01*
G03X5858287Y676157I-56154J0D01*
G37*
G36*
G01X5858287Y1774448D02*
G03X5970595Y1774448I56154J0D01*
G03X5858287Y1774448I-56154J0D01*
G37*
G36*
G01X5942005Y778252D02*
G03X6054313Y778252I56154J0D01*
G03X5942005Y778252I-56154J0D01*
G37*
G36*
G01X5942005Y1866383D02*
G03X6054313Y1866383I56154J0D01*
G03X5942005Y1866383I-56154J0D01*
G37*
G36*
G01X6025927Y678697D02*
G03X6138235Y678697I56154J0D01*
G03X6025927Y678697I-56154J0D01*
G37*
G36*
G01X6027248Y1765300D02*
G03X6139556Y1765300I56154J0D01*
G03X6027248Y1765300I-56154J0D01*
G37*
G36*
G01X6109645Y780792D02*
G03X6221953Y780792I56154J0D01*
G03X6109645Y780792I-56154J0D01*
G37*
G36*
G01X6110966Y1867395D02*
G03X6223274Y1867395I56154J0D01*
G03X6110966Y1867395I-56154J0D01*
G37*
G36*
G01X6197326Y1764535D02*
G03X6309634Y1764535I56154J0D01*
G03X6197326Y1764535I-56154J0D01*
G37*
G36*
G01X6198647Y681237D02*
G03X6310955Y681237I56154J0D01*
G03X6198647Y681237I-56154J0D01*
G37*
G36*
G01X6282238Y1866900D02*
G03X6394546Y1866900I56154J0D01*
G03X6282238Y1866900I-56154J0D01*
G37*
G36*
G01X6282365Y783332D02*
G03X6394673Y783332I56154J0D01*
G03X6282365Y783332I-56154J0D01*
G37*
G36*
G01X6317752Y2250492D02*
G03X6411963Y2208123I56144J-1087D01*
G03X6507744Y2246813I39637J39777D01*
G03X6413533Y2289181I-56144J1087D01*
G03X6317752Y2250492I-39637J-39777D01*
G37*
%LPD*%
G36*
G01X171526Y114300D02*
G02X171526Y139700I0J12700D01*
G01X307180Y139700D01*
G02X307180Y114300I0J-12700D01*
G01X171526Y114300D01*
G37*
G36*
G01X171526Y978306D02*
G02X171526Y1003706I0J12700D01*
G01X307180Y1003706D01*
G02X307180Y978306I0J-12700D01*
G01X171526Y978306D01*
G37*
G36*
G01X171552Y1536294D02*
G02X171552Y1561694I0J12700D01*
G01X307205Y1561694D01*
G02X307205Y1536294I0J-12700D01*
G01X171552Y1536294D01*
G37*
G36*
G01X171552Y2400300D02*
G02X171552Y2425700I0J12700D01*
G01X307205Y2425700D01*
G02X307205Y2400300I0J-12700D01*
G01X171552Y2400300D01*
G37*
G36*
G01X455821Y978306D02*
G02X455821Y1003706I0J12700D01*
G01X571475Y1003706D01*
G02X571475Y978306I0J-12700D01*
G01X455821Y978306D01*
G37*
G36*
G01X571525Y1536294D02*
G02X571525Y1561694I0J12700D01*
G01X687179Y1561694D01*
G02X687179Y1536294I0J-12700D01*
G01X571525Y1536294D01*
G37*
G36*
G01X571475Y978306D02*
G02X571475Y1003706I0J12700D01*
G01X687128Y1003706D01*
G02X687128Y978306I0J-12700D01*
G01X571475Y978306D01*
G37*
G36*
G01X571500Y114300D02*
G02X571500Y139700I0J12700D01*
G01X687154Y139700D01*
G02X687154Y114300I0J-12700D01*
G01X571500Y114300D01*
G37*
G36*
G01X455846Y114300D02*
G02X455846Y139700I0J12700D01*
G01X571500Y139700D01*
G02X571500Y114300I0J-12700D01*
G01X455846Y114300D01*
G37*
G36*
G01X571500Y2400300D02*
G02X571500Y2425700I0J12700D01*
G01X687154Y2425700D01*
G02X687154Y2400300I0J-12700D01*
G01X571500Y2400300D01*
G37*
G36*
G01X455846Y2400300D02*
G02X455846Y2425700I0J12700D01*
G01X571500Y2425700D01*
G02X571500Y2400300I0J-12700D01*
G01X455846Y2400300D01*
G37*
G36*
G01X455872Y1536294D02*
G02X455872Y1561694I0J12700D01*
G01X571525Y1561694D01*
G02X571525Y1536294I0J-12700D01*
G01X455872Y1536294D01*
G37*
G36*
G01X6477000Y114300D02*
G02X6477000Y139700I0J12700D01*
G01X6582654Y139700D01*
G02X6582654Y114300I0J-12700D01*
G01X6477000Y114300D01*
G37*
G36*
G01X6371346Y114300D02*
G02X6371346Y139700I0J12700D01*
G01X6477000Y139700D01*
G02X6477000Y114300I0J-12700D01*
G01X6371346Y114300D01*
G37*
G36*
G01X6625346Y2400300D02*
G02X6625346Y2425700I0J12700D01*
G01X6731000Y2425700D01*
G02X6731000Y2400300I0J-12700D01*
G01X6625346Y2400300D01*
G37*
G36*
G01X783346Y114300D02*
G02X783346Y139700I0J12700D01*
G01X889000Y139700D01*
G02X889000Y114300I0J-12700D01*
G01X783346Y114300D01*
G37*
G36*
G01X889000Y114300D02*
G02X889000Y139700I0J12700D01*
G01X994654Y139700D01*
G02X994654Y114300I0J-12700D01*
G01X889000Y114300D01*
G37*
G36*
G01X1143000Y2400300D02*
G02X1143000Y2425700I0J12700D01*
G01X1248654Y2425700D01*
G02X1248654Y2400300I0J-12700D01*
G01X1143000Y2400300D01*
G37*
G36*
G01X1037346Y2400300D02*
G02X1037346Y2425700I0J12700D01*
G01X1143000Y2425700D01*
G02X1143000Y2400300I0J-12700D01*
G01X1037346Y2400300D01*
G37*
G36*
G01X184252Y1548994D02*
G02X158852Y1548994I-12700J0D01*
G01X158852Y1624648D01*
G02X184252Y1624648I12700J0D01*
G01X184252Y1548994D01*
G37*
G36*
G01X184252Y1473340D02*
G02X158852Y1473340I-12700J0D01*
G01X158852Y1548994D01*
G02X184252Y1548994I12700J0D01*
G01X184252Y1473340D01*
G37*
G36*
G01X184252Y2413000D02*
G02X158852Y2413000I-12700J0D01*
G01X158852Y2488654D01*
G02X184252Y2488654I12700J0D01*
G01X184252Y2413000D01*
G37*
G36*
G01X158852Y2413000D02*
G02X184252Y2413000I12700J0D01*
G01X184252Y2337346D01*
G02X158852Y2337346I-12700J0D01*
G01X158852Y2413000D01*
G37*
G36*
G01X901700Y127000D02*
G02X876300Y127000I-12700J0D01*
G01X876300Y232654D01*
G02X901700Y232654I12700J0D01*
G01X901700Y127000D01*
G37*
G36*
G01X6489700Y127000D02*
G02X6464300Y127000I-12700J0D01*
G01X6464300Y232654D01*
G02X6489700Y232654I12700J0D01*
G01X6489700Y127000D01*
G37*
G36*
G01X1130300Y2413000D02*
G02X1155700Y2413000I12700J0D01*
G01X1155700Y2307346D01*
G02X1130300Y2307346I-12700J0D01*
G01X1130300Y2413000D01*
G37*
G36*
G01X6718300Y2413000D02*
G02X6743700Y2413000I12700J0D01*
G01X6743700Y2307346D01*
G02X6718300Y2307346I-12700J0D01*
G01X6718300Y2413000D01*
G37*
G36*
G01X184226Y915353D02*
G02X158826Y915353I-12700J0D01*
G01X158826Y991006D01*
G02X184226Y991006I12700J0D01*
G01X184226Y915353D01*
G37*
G36*
G01X558775Y991006D02*
G02X584175Y991006I12700J0D01*
G01X584175Y915353D01*
G02X558775Y915353I-12700J0D01*
G01X558775Y991006D01*
G37*
G36*
G01X584225Y1548994D02*
G02X558825Y1548994I-12700J0D01*
G01X558825Y1624648D01*
G02X584225Y1624648I12700J0D01*
G01X584225Y1548994D01*
G37*
G36*
G01X558825Y1548994D02*
G02X584225Y1548994I12700J0D01*
G01X584225Y1473340D01*
G02X558825Y1473340I-12700J0D01*
G01X558825Y1548994D01*
G37*
G36*
G01X184226Y127000D02*
G02X158826Y127000I-12700J0D01*
G01X158826Y202654D01*
G02X184226Y202654I12700J0D01*
G01X184226Y127000D01*
G37*
G36*
G01X584200Y127000D02*
G02X558800Y127000I-12700J0D01*
G01X558800Y202654D01*
G02X584200Y202654I12700J0D01*
G01X584200Y127000D01*
G37*
G36*
G01X184226Y51346D02*
G02X158826Y51346I-12700J0D01*
G01X158826Y127000D01*
G02X184226Y127000I12700J0D01*
G01X184226Y51346D01*
G37*
G36*
G01X584200Y51346D02*
G02X558800Y51346I-12700J0D01*
G01X558800Y127000D01*
G02X584200Y127000I12700J0D01*
G01X584200Y51346D01*
G37*
G36*
G01X158826Y1066660D02*
G02X184226Y1066660I12700J0D01*
G01X184226Y991006D01*
G02X158826Y991006I-12700J0D01*
G01X158826Y1066660D01*
G37*
G36*
G01X584175Y991006D02*
G02X558775Y991006I-12700J0D01*
G01X558775Y1066660D01*
G02X584175Y1066660I12700J0D01*
G01X584175Y991006D01*
G37*
G36*
G01X558800Y2488654D02*
G02X584200Y2488654I12700J0D01*
G01X584200Y2413000D01*
G02X558800Y2413000I-12700J0D01*
G01X558800Y2488654D01*
G37*
G36*
G01X584200Y2337346D02*
G02X558800Y2337346I-12700J0D01*
G01X558800Y2413000D01*
G02X584200Y2413000I12700J0D01*
G01X584200Y2337346D01*
G37*
G04 PlaneZone End*

G04 Pad Start*
G54D10*
G01X3365452Y1270035D03*
G54D11*
G01X3619452Y1270035D03*
G54D12*
G01X695960Y1275080D03*
G54D13*
G01X949960Y1275080D03*
G01X1203960Y1275080D03*
G54D14*
G01X171552Y1548994D03*
G01X171552Y2413000D03*
G54D15*
G01X571525Y1548994D03*
G01X571500Y2413000D03*
G54D14*
G01X171526Y127000D03*
G01X171526Y991006D03*
G54D15*
G01X571500Y127000D03*
G01X571475Y991006D03*
G54D16*
G01X6731000Y2413000D03*
G54D18*
G01X6477000Y2413000D03*
G01X6223000Y2413000D03*
G01X5969000Y2413000D03*
G01X5715000Y2413000D03*
G01X5461000Y2413000D03*
G01X5207000Y2413000D03*
G01X4953000Y2413000D03*
G01X4699000Y2413000D03*
G01X4445000Y2413000D03*
G01X4191000Y2413000D03*
G01X3937000Y2413000D03*
G01X3683000Y2413000D03*
G01X3429000Y2413000D03*
G01X3175000Y2413000D03*
G01X2921000Y2413000D03*
G01X2667000Y2413000D03*
G01X2413000Y2413000D03*
G01X2159000Y2413000D03*
G01X1905000Y2413000D03*
G01X1651000Y2413000D03*
G01X1397000Y2413000D03*
G01X1143000Y2413000D03*
G01X889000Y2413000D03*
G54D16*
G01X6731000Y127000D03*
G54D18*
G01X6477000Y127000D03*
G01X6223000Y127000D03*
G01X5969000Y127000D03*
G01X5715000Y127000D03*
G01X5461000Y127000D03*
G01X5207000Y127000D03*
G01X4953000Y127000D03*
G01X4699000Y127000D03*
G01X4445000Y127000D03*
G01X4191000Y127000D03*
G01X3937000Y127000D03*
G01X3683000Y127000D03*
G01X3429000Y127000D03*
G01X3175000Y127000D03*
G01X2921000Y127000D03*
G01X2667000Y127000D03*
G01X2413000Y127000D03*
G01X2159000Y127000D03*
G01X1905000Y127000D03*
G01X1651000Y127000D03*
G01X1397000Y127000D03*
G01X1143000Y127000D03*
G01X889000Y127000D03*
G04 Pad End*

G04 Via Start*
G54D19*
G01X6338392Y1866900D03*
G01X6167120Y1867395D03*
G01X6083402Y1765300D03*
G01X5914441Y1774448D03*
G01X5998159Y1866383D03*
G01X5741721Y1776988D03*
G01X5825439Y1863843D03*
G01X5571541Y1761748D03*
G01X5655259Y1863843D03*
G01X5655259Y778252D03*
G01X5571541Y714257D03*
G01X5827979Y778252D03*
G01X5744261Y676157D03*
G01X5998159Y778252D03*
G01X5914441Y676157D03*
G01X6165799Y780792D03*
G01X6082081Y678697D03*
G01X6338519Y783332D03*
G01X6254801Y681237D03*
G01X5486400Y778005D03*
G01X5486400Y1863595D03*
G01X6423660Y676405D03*
G01X6507480Y676405D03*
G01X6253480Y1764535D03*
G01X6676895Y673100D03*
G01X6676895Y762000D03*
G01X6674355Y845820D03*
G01X6676895Y927100D03*
G01X6676895Y1016000D03*
G01X6676895Y1102360D03*
G01X6676895Y1183640D03*
G01X6678165Y1268730D03*
G01X6678165Y1357630D03*
G01X6675625Y1441450D03*
G01X6678165Y1522730D03*
G01X6678165Y1611630D03*
G01X6678165Y1697990D03*
G01X6678165Y1779270D03*
G01X6676895Y1866900D03*
G01X5816600Y1435100D03*
G01X5811479Y1275080D03*
G01X5806399Y1104900D03*
G01X6083300Y980399D03*
G01X6360201Y1104900D03*
G01X6360201Y1270000D03*
G01X6360201Y1435100D03*
G01X6083300Y1546901D03*
G01X6002020Y1351280D03*
G01X6167120Y1353820D03*
G01X6167120Y1191260D03*
G01X6002020Y1188720D03*
G01X6593840Y1871215D03*
G01X6549139Y2082800D03*
G01X6451600Y2247900D03*
G01X6373896Y2249404D03*
G01X6269137Y2250910D03*
G01X6769100Y469900D03*
G01X5232400Y558800D03*
G01X4356100Y533400D03*
G01X4127500Y330200D03*
G01X3950145Y990156D03*
G01X5054600Y759993D03*
G01X4940300Y792500D03*
G01X5067300Y957600D03*
G01X5181600Y1023700D03*
G01X4843486Y962700D03*
G01X4693676Y1021100D03*
G01X5219700Y1905000D03*
G01X4724400Y1912600D03*
G01X4306710Y2008010D03*
G01X4950935Y1852135D03*
G01X4749800Y1772800D03*
G01X4953000Y1694993D03*
G01X4749800Y1610004D03*
G01X4592701Y1554700D03*
G01X4498393Y1551993D03*
G01X4127500Y1587500D03*
G01X4000500Y2019300D03*
G01X3314700Y1993900D03*
G01X2431550Y2016800D03*
G01X2070100Y2171700D03*
G01X1955800Y2222500D03*
G01X2184400Y1828800D03*
G01X3797300Y1562100D03*
G01X3916700Y1544300D03*
G01X2374900Y1498600D03*
G01X2374900Y1397000D03*
G01X1964732Y1485146D03*
G01X1968500Y1397000D03*
G01X1958300Y1565642D03*
G01X1968500Y1308100D03*
G01X1612900Y1447800D03*
G01X1219200Y1765300D03*
G01X1206500Y2197100D03*
G01X1790700Y2235200D03*
G01X1739900Y2019300D03*
G01X1867572Y2019300D03*
G01X1867572Y1886878D03*
G01X1739900Y1892300D03*
G01X1803497Y1955908D03*
G01X4343400Y1549400D03*
G01X2454985Y2124700D03*
G01X3835400Y1270000D03*
G01X3048000Y965200D03*
G01X2463800Y876300D03*
G01X2590800Y876300D03*
G01X2717800Y876300D03*
G01X2832100Y876300D03*
G01X2946400Y876300D03*
G01X2463800Y1092200D03*
G01X2590800Y1092200D03*
G01X2717800Y1092200D03*
G01X2832100Y1092200D03*
G01X2946400Y1092200D03*
G01X2590800Y1320800D03*
G01X2717800Y1320800D03*
G01X2832100Y1320800D03*
G01X2946400Y1320800D03*
G01X1498600Y736600D03*
G01X1485900Y393700D03*
G01X1409700Y736600D03*
G01X1320800Y736600D03*
G01X1405721Y393700D03*
G01X1320442Y393700D03*
G01X1143000Y431800D03*
G01X1001720Y2227682D03*
G01X1143000Y1765300D03*
G01X1244600Y1526540D03*
G01X755650Y933450D03*
G01X736600Y228600D03*
G01X760844Y2337956D03*
G01X5202183Y1333500D03*
G01X5202183Y1117600D03*
G01X1892280Y571500D03*
G01X1978680Y571500D03*
G01X2590800Y685800D03*
G01X2717800Y685800D03*
G01X2832100Y685800D03*
G01X2946400Y685800D03*
G01X2451100Y685800D03*
G01X3073400Y685800D03*
G01X3188889Y685800D03*
G01X4714240Y1272580D03*
G01X4714240Y1183700D03*
G01X1074460Y619780D03*
G01X1074460Y533380D03*
G01X1193800Y1028700D03*
G01X1117600Y868782D03*
G01X954976Y1982878D03*
G01X803974Y1985872D03*
G01X1206500Y1879600D03*
G01X1207249Y1981200D03*
G01X952500Y1872501D03*
G01X838200Y2184400D03*
G01X1422400Y1054100D03*
G01X1587500Y1320800D03*
G01X1638300Y1795168D03*
G01X825500Y1028700D03*
G01X927100Y695439D03*
G01X876300Y381000D03*
G01X901700Y1460500D03*
G01X723900Y1612900D03*
G04 Via End*

M02*

