G04 Layer: BottomLayer*
G04 EasyEDA Pro v3.2.149, 2026-10-06 17:45:09*
G04 Gerber Generator version 0.3*
G04 Scale: 100 percent, Rotated: No, Reflected: No*
G04 Dimensions in millimeters*
G04 Leading zeros omitted, absolute positions, 4 integers and 5 decimals*
G04 Generated by one-click*
G04 Object Configs: Pad,Via,Track,Text,Image,Dimension,BoardOutline,BoardCutout,CopperFilled,SolidRegion,FPCStiffener,Line,PlaneZone,ComponentProperty,ComponentSilkscreen,TearDrop*
G04 Layer Configs: 1,15,16,2,3,4,5,6,7,8,9,10,11,13,14,56*
G04 Copper Areas: 0*
%FSLAX45Y45*%
%MOMM*%
%ADD10R,2.0X2.0*%
%ADD11C,2.0*%
%ADD12R,1.7X1.7*%
%ADD13C,1.7*%
%ADD14O,2.2X1.0*%
%ADD15O,1.8043X1.0*%
%ADD16O,1.8X1.0*%
%ADD17R,1.6X1.6*%
%ADD18C,1.6*%
%ADD19C,0.61*%
%ADD20C,0.1524*%
%ADD21C,0.508*%
G75*


G04 Pad Start*
G54D10*
G01X3365452Y1270035D03*
G54D11*
G01X3619452Y1270035D03*
G54D12*
G01X695960Y1275080D03*
G54D13*
G01X949960Y1275080D03*
G01X1203960Y1275080D03*
G54D14*
G01X171552Y1548994D03*
G01X171552Y2413000D03*
G54D16*
G01X571525Y1548994D03*
G01X571500Y2413000D03*
G54D14*
G01X171526Y127000D03*
G01X171526Y991006D03*
G54D16*
G01X571500Y127000D03*
G01X571475Y991006D03*
G54D17*
G01X6731000Y2413000D03*
G54D18*
G01X6477000Y2413000D03*
G01X6223000Y2413000D03*
G01X5969000Y2413000D03*
G01X5715000Y2413000D03*
G01X5461000Y2413000D03*
G01X5207000Y2413000D03*
G01X4953000Y2413000D03*
G01X4699000Y2413000D03*
G01X4445000Y2413000D03*
G01X4191000Y2413000D03*
G01X3937000Y2413000D03*
G01X3683000Y2413000D03*
G01X3429000Y2413000D03*
G01X3175000Y2413000D03*
G01X2921000Y2413000D03*
G01X2667000Y2413000D03*
G01X2413000Y2413000D03*
G01X2159000Y2413000D03*
G01X1905000Y2413000D03*
G01X1651000Y2413000D03*
G01X1397000Y2413000D03*
G01X1143000Y2413000D03*
G01X889000Y2413000D03*
G54D17*
G01X6731000Y127000D03*
G54D18*
G01X6477000Y127000D03*
G01X6223000Y127000D03*
G01X5969000Y127000D03*
G01X5715000Y127000D03*
G01X5461000Y127000D03*
G01X5207000Y127000D03*
G01X4953000Y127000D03*
G01X4699000Y127000D03*
G01X4445000Y127000D03*
G01X4191000Y127000D03*
G01X3937000Y127000D03*
G01X3683000Y127000D03*
G01X3429000Y127000D03*
G01X3175000Y127000D03*
G01X2921000Y127000D03*
G01X2667000Y127000D03*
G01X2413000Y127000D03*
G01X2159000Y127000D03*
G01X1905000Y127000D03*
G01X1651000Y127000D03*
G01X1397000Y127000D03*
G01X1143000Y127000D03*
G01X889000Y127000D03*
G04 Pad End*

G04 Via Start*
G54D19*
G01X6338392Y1866900D03*
G01X6167120Y1867395D03*
G01X6083402Y1765300D03*
G01X5914441Y1774448D03*
G01X5998159Y1866383D03*
G01X5741721Y1776988D03*
G01X5825439Y1863843D03*
G01X5571541Y1761748D03*
G01X5655259Y1863843D03*
G01X5655259Y778252D03*
G01X5571541Y714257D03*
G01X5827979Y778252D03*
G01X5744261Y676157D03*
G01X5998159Y778252D03*
G01X5914441Y676157D03*
G01X6165799Y780792D03*
G01X6082081Y678697D03*
G01X6338519Y783332D03*
G01X6254801Y681237D03*
G01X5486400Y778005D03*
G01X5486400Y1863595D03*
G01X6423660Y676405D03*
G01X6507480Y676405D03*
G01X6253480Y1764535D03*
G01X6676895Y673100D03*
G01X6676895Y762000D03*
G01X6674355Y845820D03*
G01X6676895Y927100D03*
G01X6676895Y1016000D03*
G01X6676895Y1102360D03*
G01X6676895Y1183640D03*
G01X6678165Y1268730D03*
G01X6678165Y1357630D03*
G01X6675625Y1441450D03*
G01X6678165Y1522730D03*
G01X6678165Y1611630D03*
G01X6678165Y1697990D03*
G01X6678165Y1779270D03*
G01X6676895Y1866900D03*
G01X5816600Y1435100D03*
G01X5811479Y1275080D03*
G01X5806399Y1104900D03*
G01X6083300Y980399D03*
G01X6360201Y1104900D03*
G01X6360201Y1270000D03*
G01X6360201Y1435100D03*
G01X6083300Y1546901D03*
G01X6002020Y1351280D03*
G01X6167120Y1353820D03*
G01X6167120Y1191260D03*
G01X6002020Y1188720D03*
G01X6593840Y1871215D03*
G01X6549139Y2082800D03*
G01X6451600Y2247900D03*
G01X6373896Y2249404D03*
G01X6269137Y2250910D03*
G01X6769100Y469900D03*
G01X5232400Y558800D03*
G01X4356100Y533400D03*
G01X4127500Y330200D03*
G01X3950145Y990156D03*
G01X5054600Y759993D03*
G01X4940300Y792500D03*
G01X5067300Y957600D03*
G01X5181600Y1023700D03*
G01X4843486Y962700D03*
G01X4693676Y1021100D03*
G01X5219700Y1905000D03*
G01X4724400Y1912600D03*
G01X4306710Y2008010D03*
G01X4950935Y1852135D03*
G01X4749800Y1772800D03*
G01X4953000Y1694993D03*
G01X4749800Y1610004D03*
G01X4592701Y1554700D03*
G01X4498393Y1551993D03*
G01X4127500Y1587500D03*
G01X4000500Y2019300D03*
G01X3314700Y1993900D03*
G01X2431550Y2016800D03*
G01X2070100Y2171700D03*
G01X1955800Y2222500D03*
G01X2184400Y1828800D03*
G01X3797300Y1562100D03*
G01X3916700Y1544300D03*
G01X2374900Y1498600D03*
G01X2374900Y1397000D03*
G01X1964732Y1485146D03*
G01X1968500Y1397000D03*
G01X1958300Y1565642D03*
G01X1968500Y1308100D03*
G01X1612900Y1447800D03*
G01X1219200Y1765300D03*
G01X1206500Y2197100D03*
G01X1790700Y2235200D03*
G01X1739900Y2019300D03*
G01X1867572Y2019300D03*
G01X1867572Y1886878D03*
G01X1739900Y1892300D03*
G01X1803497Y1955908D03*
G01X4343400Y1549400D03*
G01X2454985Y2124700D03*
G01X3835400Y1270000D03*
G01X3048000Y965200D03*
G01X2463800Y876300D03*
G01X2590800Y876300D03*
G01X2717800Y876300D03*
G01X2832100Y876300D03*
G01X2946400Y876300D03*
G01X2463800Y1092200D03*
G01X2590800Y1092200D03*
G01X2717800Y1092200D03*
G01X2832100Y1092200D03*
G01X2946400Y1092200D03*
G01X2590800Y1320800D03*
G01X2717800Y1320800D03*
G01X2832100Y1320800D03*
G01X2946400Y1320800D03*
G01X1498600Y736600D03*
G01X1485900Y393700D03*
G01X1409700Y736600D03*
G01X1320800Y736600D03*
G01X1405721Y393700D03*
G01X1320442Y393700D03*
G01X1143000Y431800D03*
G01X1001720Y2227682D03*
G01X1143000Y1765300D03*
G01X1244600Y1526540D03*
G01X755650Y933450D03*
G01X736600Y228600D03*
G01X760844Y2337956D03*
G01X5202183Y1333500D03*
G01X5202183Y1117600D03*
G01X1892280Y571500D03*
G01X1978680Y571500D03*
G01X2590800Y685800D03*
G01X2717800Y685800D03*
G01X2832100Y685800D03*
G01X2946400Y685800D03*
G01X2451100Y685800D03*
G01X3073400Y685800D03*
G01X3188889Y685800D03*
G01X4714240Y1272580D03*
G01X4714240Y1183700D03*
G01X1074460Y619780D03*
G01X1074460Y533380D03*
G01X1193800Y1028700D03*
G01X1117600Y868782D03*
G01X954976Y1982878D03*
G01X803974Y1985872D03*
G01X1206500Y1879600D03*
G01X1207249Y1981200D03*
G01X952500Y1872501D03*
G01X838200Y2184400D03*
G01X1422400Y1054100D03*
G01X1587500Y1320800D03*
G01X1638300Y1795168D03*
G01X825500Y1028700D03*
G01X927100Y695439D03*
G01X876300Y381000D03*
G01X901700Y1460500D03*
G01X723900Y1612900D03*
G04 Via End*

G04 Track Start*
G54D20*
G01X6338392Y1866900D02*
G01X6338392Y2043608D01*
G01X5969000Y2413000D01*
G01X5579100Y2294900D02*
G01X5461000Y2413000D01*
G01X5207000Y2400300D02*
G01X5207000Y2413000D01*
G01X5541000Y2244100D02*
G01X5490200Y2294900D01*
G01X5312400Y2294900D02*
G01X5207000Y2400300D01*
G01X5312400Y2294900D02*
G01X5490200Y2294900D01*
G01X5519958Y2193300D02*
G01X5469158Y2244100D01*
G01X5914441Y1774448D02*
G01X5915847Y1775854D01*
G01X5498916Y2142500D02*
G01X5448116Y2193300D01*
G01X4817100Y2294900D02*
G01X4699000Y2413000D01*
G01X5825439Y1863843D02*
G01X5829300Y1867704D01*
G01X5473887Y2091700D02*
G01X5423087Y2142500D01*
G01X4618442Y2239558D02*
G01X4445000Y2413000D01*
G01X5452845Y2040900D02*
G01X5402045Y2091700D01*
G01X4500158Y2286000D02*
G01X4267200Y2286000D01*
G01X4191000Y2362200D01*
G01X4191000Y2413000D01*
G01X4597400Y2188758D02*
G01X4500158Y2286000D01*
G01X5431803Y1990100D02*
G01X5381003Y2040900D01*
G01X4572000Y2137958D02*
G01X4474758Y2235200D01*
G01X5410761Y1939300D02*
G01X5368861Y1981200D01*
G01X3683000Y2400300D02*
G01X3683000Y2413000D01*
G01X5741721Y1776988D02*
G01X5741721Y2006600D01*
G01X5707421Y2040900D01*
G01X5452845Y2040900D01*
G01X5829300Y1867704D02*
G01X5829300Y1990863D01*
G01X5728463Y2091700D01*
G01X5473887Y2091700D01*
G01X5915847Y1775854D02*
G01X5915847Y1983553D01*
G01X5756900Y2142500D01*
G01X5498916Y2142500D01*
G01X5998159Y1866383D02*
G01X5998159Y1990141D01*
G01X5795000Y2193300D01*
G01X5519958Y2193300D01*
G01X6083402Y1765300D02*
G01X6083402Y1993798D01*
G01X5833100Y2244100D01*
G01X5541000Y2244100D01*
G01X6167120Y1867395D02*
G01X6167120Y1986280D01*
G01X5858500Y2294900D01*
G01X5579100Y2294900D01*
G01X5655259Y1863843D02*
G01X5655259Y1964741D01*
G01X5629900Y1990100D01*
G01X5431803Y1990100D01*
G01X5571541Y1761748D02*
G01X5571541Y1921459D01*
G01X5553700Y1939300D01*
G01X5410761Y1939300D01*
G01X5008158Y254000D02*
G01X4826000Y254000D01*
G01X4699000Y127000D01*
G01X5029016Y346700D02*
G01X4987116Y304800D01*
G01X5293982Y127000D02*
G01X5207000Y127000D01*
G01X5293982Y127000D02*
G01X5412081Y245100D01*
G01X5391040Y295900D02*
G01X5340240Y245100D01*
G01X5348955Y397500D02*
G01X5298155Y346700D01*
G01X5029016Y346700D01*
G01X4064000Y254000D02*
G01X3937000Y127000D01*
G01X5998159Y778252D02*
G01X5998159Y524459D01*
G01X5924550Y450850D01*
G01X6338519Y783332D02*
G01X6338519Y394919D01*
G01X6188700Y245100D01*
G01X6254801Y681237D02*
G01X6254801Y400101D01*
G01X6153150Y298450D01*
G01X6082081Y678697D02*
G01X6082081Y443281D01*
G01X6038850Y400050D01*
G01X6165799Y780792D02*
G01X6165799Y412699D01*
G01X5914441Y676157D02*
G01X5914441Y555041D01*
G01X5861050Y501650D01*
G01X5744261Y676157D02*
G01X5744261Y613461D01*
G01X6165799Y412699D02*
G01X6102350Y349250D01*
G01X5655259Y778252D02*
G01X5655259Y700960D01*
G01X5589299Y635000D01*
G01X5486400Y571500D02*
G01X5414000Y499100D01*
G01X5528484Y469900D02*
G01X5456084Y397500D01*
G01X5348955Y397500D01*
G01X5536826Y406400D02*
G01X5477126Y346700D01*
G01X5369997Y346700D01*
G01X5557868Y355600D02*
G01X5498168Y295900D01*
G01X5391040Y295900D01*
G01X5570010Y295900D02*
G01X5519210Y245100D01*
G01X5412081Y245100D01*
G01X5615021Y245100D02*
G01X5496921Y127000D01*
G01X5461000Y127000D01*
G01X6188700Y245100D02*
G01X5920081Y245100D01*
G01X5801982Y127000D01*
G01X5715000Y127000D01*
G01X6153150Y298450D02*
G01X5886450Y298450D01*
G01X5833100Y245100D01*
G01X5615021Y245100D01*
G01X6102350Y349250D02*
G01X5865408Y349250D01*
G01X5812058Y295900D01*
G01X5570010Y295900D01*
G01X6038850Y400050D02*
G01X5844366Y400050D01*
G01X5799916Y355600D01*
G01X5557868Y355600D01*
G01X5924550Y450850D02*
G01X5822950Y450850D01*
G01X5778500Y406400D01*
G01X5536826Y406400D01*
G01X5435042Y448300D02*
G01X5327913Y448300D01*
G01X5007974Y397500D02*
G01X4966074Y355600D01*
G01X5861050Y501650D02*
G01X5797550Y501650D01*
G01X5765800Y469900D01*
G01X5528484Y469900D01*
G01X5744758Y520700D02*
G01X5507442Y520700D01*
G01X5435042Y448300D01*
G01X5827979Y778252D02*
G01X5827979Y603921D01*
G01X5744758Y520700D01*
G01X5277113Y397500D02*
G01X5007974Y397500D01*
G01X5277113Y397500D02*
G01X5327913Y448300D01*
G01X5414000Y499100D02*
G01X5299700Y499100D01*
G01X5702300Y571500D02*
G01X5486400Y571500D01*
G01X5702300Y571500D02*
G01X5744261Y613461D01*
G01X4622800Y304800D02*
G01X4445000Y127000D01*
G01X4622800Y304800D02*
G01X4987116Y304800D01*
G01X5340240Y245100D02*
G01X5121900Y245100D01*
G01X5041900Y165100D01*
G01X4991100Y165100D01*
G01X4953000Y127000D01*
G01X5369997Y346700D02*
G01X5319197Y295900D01*
G01X5050058Y295900D01*
G01X5008158Y254000D01*
G01X4927600Y406400D02*
G01X4969500Y448300D01*
G01X5248900Y448300D01*
G01X5299700Y499100D01*
G01X5589299Y635000D02*
G01X5207000Y635000D01*
G01X5080000Y508000D01*
G01X4957358Y508000D01*
G01X5571541Y714257D02*
G01X5519667Y714257D01*
G01X5514815Y709405D01*
G01X5457985Y709405D01*
G01X5453133Y714257D01*
G01X5210057Y714257D01*
G01X3556000Y254000D02*
G01X3429000Y127000D01*
G01X5486400Y778005D02*
G01X5172205Y778005D01*
G01X5054600Y660400D01*
G01X3825140Y254000D02*
G01X3556000Y254000D01*
G01X3769982Y127000D02*
G01X3683000Y127000D01*
G01X5054600Y660400D02*
G01X4159698Y660400D01*
G01X3804098Y304800D01*
G01X5054600Y759993D02*
G01X5018507Y723900D01*
G01X4151355Y723900D01*
G01X3783055Y355600D01*
G01X4894085Y843300D02*
G01X4119900Y843300D01*
G01X3733800Y457200D01*
G01X4873043Y894100D02*
G01X4098858Y894100D01*
G01X3712758Y508000D01*
G01X1397000Y190500D02*
G01X1397000Y127000D01*
G01X4064000Y254000D02*
G01X4148315Y254000D01*
G01X4300715Y406400D01*
G01X4927600Y406400D01*
G01X4966074Y355600D02*
G01X4381500Y355600D01*
G01X4191000Y165100D01*
G01X4191000Y127000D01*
G01X4957358Y508000D02*
G01X4908976Y459618D01*
G01X4102600Y459618D01*
G01X3769982Y127000D01*
G01X4085416Y952500D02*
G01X3691716Y558800D01*
G01X1295400Y317500D02*
G01X1143000Y165100D01*
G01X1143000Y127000D01*
G01X4114800Y2235200D02*
G01X3937000Y2413000D01*
G01X4114800Y2235200D02*
G01X4474758Y2235200D01*
G01X4542242Y2087158D02*
G01X4445000Y2184400D01*
G01X6253480Y1764535D02*
G01X6253480Y1732280D01*
G01X4316590Y2008010D02*
G01X4306710Y2008010D01*
G01X4343400Y1981200D02*
G01X4316590Y2008010D01*
G01X5469158Y2244100D02*
G01X5208881Y2244100D01*
G01X5039982Y2413000D01*
G01X4953000Y2413000D01*
G01X5448116Y2193300D02*
G01X5185400Y2193300D01*
G01X5083800Y2294900D01*
G01X4817100Y2294900D01*
G01X5423087Y2142500D02*
G01X5160000Y2142500D01*
G01X5062942Y2239558D01*
G01X4618442Y2239558D01*
G01X5402045Y2091700D02*
G01X5134600Y2091700D01*
G01X5037542Y2188758D01*
G01X4597400Y2188758D01*
G01X5381003Y2040900D02*
G01X5113558Y2040900D01*
G01X5016500Y2137958D01*
G01X4572000Y2137958D01*
G01X5368861Y1981200D02*
G01X5101416Y1981200D01*
G01X4995458Y2087158D01*
G01X4542242Y2087158D01*
G01X4521200Y2036358D02*
G01X4950821Y2036358D01*
G01X5069479Y1917700D01*
G01X5109985Y1917700D01*
G01X4343400Y1981200D02*
G01X4931585Y1981200D01*
G01X5048451Y1864333D01*
G01X5084373Y1864333D01*
G01X5255558Y1693148D01*
G01X6214348Y1693148D01*
G01X6253480Y1732280D01*
G01X5109985Y1917700D02*
G01X5203985Y1823700D01*
G01X5446504Y1823700D01*
G01X5486400Y1863595D01*
G01X4633000Y1844000D02*
G01X4546600Y1930400D01*
G01X4950935Y1852135D02*
G01X4942800Y1844000D01*
G01X4633000Y1844000D01*
G01X4749800Y1772800D02*
G01X4729400Y1793200D01*
G01X4953000Y1694993D02*
G01X4943793Y1704200D01*
G01X4612058Y1704200D01*
G01X4500158Y1816100D01*
G01X4749800Y1610004D02*
G01X4634412Y1610004D01*
G01X4479116Y1765300D01*
G01X2413000Y2349500D02*
G01X2413000Y2413000D01*
G01X2467600Y2294900D02*
G01X2413000Y2349500D01*
G01X2245982Y2413000D02*
G01X2159000Y2413000D01*
G01X2414881Y2244100D02*
G01X2245982Y2413000D01*
G01X4592701Y1554700D02*
G01X4432901Y1714500D01*
G01X4386686Y1663700D02*
G01X4498393Y1551993D01*
G01X2753982Y2413000D02*
G01X2667000Y2413000D01*
G01X2800240Y2294900D02*
G01X2467600Y2294900D01*
G01X2779197Y2244100D02*
G01X2414881Y2244100D01*
G01X3804098Y304800D02*
G01X3439782Y304800D01*
G01X3261982Y127000D01*
G01X3175000Y127000D01*
G01X2921000Y127000D02*
G01X3007982Y127000D01*
G01X3236582Y355600D01*
G01X3783055Y355600D01*
G01X2667000Y127000D02*
G01X2753982Y127000D01*
G01X3033382Y406400D01*
G01X3762013Y406400D01*
G01X2413000Y127000D02*
G01X2499982Y127000D01*
G01X2830182Y457200D01*
G01X3733800Y457200D01*
G01X2159000Y127000D02*
G01X2245982Y127000D01*
G01X2626982Y508000D01*
G01X3712758Y508000D01*
G01X3691716Y558800D02*
G01X2605940Y558800D01*
G01X3670674Y609600D02*
G01X2584898Y609600D01*
G01X2292798Y317500D01*
G01X1295400Y317500D01*
G01X4445000Y2184400D02*
G01X4093758Y2184400D01*
G01X3985808Y2292350D01*
G01X3790950Y2292350D01*
G01X3683000Y2400300D01*
G01X4423958Y2133600D02*
G01X4521200Y2036358D01*
G01X3429000Y2413000D02*
G01X3606800Y2235200D01*
G01X3971116Y2235200D01*
G01X4072716Y2133600D01*
G01X4423958Y2133600D01*
G01X3287755Y1663700D02*
G01X4386686Y1663700D01*
G01X3308798Y1714500D02*
G01X2779197Y2244100D01*
G01X3308798Y1714500D02*
G01X4432901Y1714500D01*
G01X3329840Y1765300D02*
G01X2800240Y2294900D01*
G01X3329840Y1765300D02*
G01X4479116Y1765300D01*
G01X3350882Y1816100D02*
G01X2753982Y2413000D01*
G01X3350882Y1816100D02*
G01X4500158Y1816100D01*
G01X3175000Y2413000D02*
G01X3261982Y2413000D01*
G01X3744582Y1930400D01*
G01X4546600Y1930400D01*
G01X2921000Y2413000D02*
G01X3007982Y2413000D01*
G01X3541382Y1879600D01*
G01X4508500Y1879600D01*
G01X2184400Y1828800D02*
G01X2978971Y1828800D01*
G01X3865900Y1493500D02*
G01X3916700Y1544300D01*
G01X2949213Y1930400D02*
G01X3279413Y1600200D01*
G01X3759200Y1600200D01*
G01X3797300Y1562100D01*
G01X2126000Y1760200D02*
G01X2964200Y1760200D01*
G01X3281700Y1442700D01*
G01X4236700Y1442700D01*
G01X4343400Y1549400D01*
G01X2978971Y1828800D02*
G01X3314272Y1493500D01*
G01X3865900Y1493500D01*
G01X4508500Y1879600D02*
G01X4594900Y1793200D01*
G01X4729400Y1793200D01*
G01X6223000Y127000D02*
G01X6235700Y127000D01*
G01X6591300Y482600D01*
G01X6591300Y749300D01*
G01X6489700Y850900D02*
G01X6367967Y850900D01*
G01X6366934Y851933D01*
G01X6310104Y851933D01*
G01X6309072Y850900D01*
G01X4326342Y1460500D02*
G01X4257742Y1391900D01*
G01X3957300Y1391900D01*
G01X3835400Y1270000D01*
G01X6591300Y749300D02*
G01X6489700Y850900D01*
G01X4894085Y843300D02*
G01X5008385Y957600D01*
G01X5067300Y957600D01*
G01X4873043Y894100D02*
G01X5005143Y1026200D01*
G01X5179100Y1026200D01*
G01X5181600Y1023700D01*
G01X6309072Y850900D02*
G01X5791200Y850900D01*
G01X5181600Y1460500D01*
G01X4326342Y1460500D01*
G01X1892280Y571500D02*
G01X1892280Y617240D01*
G01X5202183Y1117600D02*
G01X5112013Y1207770D01*
G01X5202183Y1333500D02*
G01X5112688Y1244005D01*
G01X5112688Y1243330D01*
G01X1892280Y617240D02*
G01X2062440Y787400D01*
G01X3581869Y787400D01*
G01X3594058Y749300D02*
G01X2108200Y749300D01*
G01X1978680Y619780D01*
G01X1978680Y571500D01*
G01X2605940Y558800D02*
G01X2313840Y266700D01*
G01X1473200Y266700D01*
G01X1397000Y190500D01*
G01X5112013Y1207770D02*
G01X4928870Y1207770D01*
G01X4900930Y1243330D02*
G01X5112688Y1243330D01*
G01X5210057Y714257D02*
G01X5097800Y602000D01*
G01X4173140Y602000D01*
G01X3825140Y254000D01*
G01X3762013Y406400D02*
G01X4130313Y774700D01*
G01X4922500Y774700D01*
G01X4940300Y792500D01*
G01X4843486Y962700D02*
G01X4833286Y952500D01*
G01X4085416Y952500D01*
G01X4693676Y1021100D02*
G01X4082174Y1021100D01*
G01X3670674Y609600D01*
G01X4928870Y1207770D02*
G01X4805720Y1084620D01*
G01X3929378Y1084620D01*
G01X3594058Y749300D01*
G01X3581869Y787400D02*
G01X3914649Y1120180D01*
G01X4777780Y1120180D01*
G01X4900930Y1243330D01*
G01X1074460Y619780D02*
G01X1120200Y619780D01*
G01X1145620Y594360D01*
G01X2997200Y1170940D02*
G01X3124200Y1043940D01*
G01X3011929Y1206500D02*
G01X3138929Y1079500D01*
G01X3746500Y1079500D01*
G01X3124200Y1043940D02*
G01X3761229Y1043940D01*
G01X4668500Y1272580D02*
G01X4714240Y1272580D01*
G01X4668500Y1183700D02*
G01X4714240Y1183700D01*
G01X4641840Y1245920D02*
G01X4668500Y1272580D01*
G01X4641840Y1210360D02*
G01X4668500Y1183700D01*
G01X3761229Y1043940D02*
G01X3927649Y1210360D01*
G01X4641840Y1210360D01*
G01X3912920Y1245920D02*
G01X3746500Y1079500D01*
G01X3912920Y1245920D02*
G01X4641840Y1245920D01*
G01X2301240Y1170940D02*
G01X2997200Y1170940D01*
G01X3011929Y1206500D02*
G01X2286511Y1206500D01*
G01X1674371Y594360D01*
G01X1145620Y594360D01*
G01X1686560Y556260D02*
G01X2301240Y1170940D01*
G01X1074460Y533380D02*
G01X1117580Y533380D01*
G01X1140460Y556260D01*
G01X1686560Y556260D01*
G01X803974Y1985872D02*
G01X858520Y2040418D01*
G01X858520Y2110229D02*
G01X890127Y2141836D01*
G01X858520Y2040418D02*
G01X858520Y2110229D01*
G01X894080Y2095500D02*
G01X897236Y2098656D01*
G01X912476Y2098656D01*
G01X1098513Y1912620D01*
G01X890127Y2141836D02*
G01X919586Y2141836D01*
G01X1102466Y1958956D01*
G01X1146156Y1958956D01*
G01X1168400Y1981200D01*
G01X1207249Y1981200D01*
G01X1098513Y1912620D02*
G01X1135380Y1912620D01*
G01X1168400Y1879600D01*
G01X1206500Y1879600D01*
G54D21*
G01X1422400Y1054100D02*
G01X1371600Y1054100D01*
G01X1115040Y1110000D02*
G01X949960Y1275080D01*
G01X1371600Y1054100D02*
G01X1315700Y1110000D01*
G01X1115040Y1110000D01*
G01X1422400Y1054100D02*
G01X1511300Y1143000D01*
G01X1511300Y1244600D02*
G01X1587500Y1320800D01*
G01X1511300Y1143000D02*
G01X1511300Y1244600D01*
G01X1397000Y1511300D02*
G01X1587500Y1320800D01*
G01X1397000Y2413000D02*
G01X1397000Y1511300D01*
G54D20*
G01X1467939Y2115639D02*
G01X1467939Y1732461D01*
G01X1536700Y1663700D01*
G01X2029500Y1663700D01*
G01X2126000Y1760200D01*
G01X1651000Y2413000D02*
G01X1651000Y2298700D01*
G01X1467939Y2115639D01*
G54D21*
G01X1972968Y1795168D02*
G01X1638300Y1795168D01*
G01X2032000Y1854200D02*
G01X1972968Y1795168D01*
G54D20*
G01X1905000Y2413000D02*
G01X1991982Y2413000D01*
G01X2758155Y2193300D02*
G01X3287755Y1663700D01*
G01X2391460Y2193300D02*
G01X2758155Y2193300D01*
G01X1991982Y2413000D02*
G01X2110081Y2294900D01*
G01X2289860Y2294900D01*
G01X2391460Y2193300D01*
G54D21*
G01X2070100Y2171700D02*
G01X2032000Y2133600D01*
G01X2032000Y1854200D01*
G54D20*
G01X2094715Y2244100D02*
G01X2408415Y1930400D01*
G01X2949213Y1930400D01*
G01X954976Y1982878D02*
G01X894080Y2043774D01*
G01X894080Y2095500D01*
G01X1955800Y2222500D02*
G01X1977400Y2244100D01*
G01X2094715Y2244100D01*
G04 Track End*

M02*

