G04 Layer: BottomSilkscreenLayer*
G04 EasyEDA Pro v3.2.149, 2026-10-06 17:45:09*
G04 Gerber Generator version 0.3*
G04 Scale: 100 percent, Rotated: No, Reflected: No*
G04 Dimensions in millimeters*
G04 Leading zeros omitted, absolute positions, 4 integers and 5 decimals*
G04 Generated by one-click*
G04 Object Configs: Pad,Via,Track,Text,Image,Dimension,BoardOutline,BoardCutout,CopperFilled,SolidRegion,FPCStiffener,Line,PlaneZone,ComponentProperty,ComponentSilkscreen,TearDrop*
G04 Layer Configs: 1,15,16,2,3,4,5,6,7,8,9,10,11,13,14,56*
G04 Copper Areas: 0*
%FSLAX45Y45*%
%MOMM*%
%ADD10C,0.1524*%
%ADD11C,0.4035*%
G75*


G04 Text Start*
G54D10*
G01X6680200Y2159000D02*
G01X6697218Y2141982D01*
G01X6680200Y2192782D02*
G01X6680200Y2159000D01*
G01X6697218Y2209800D02*
G01X6680200Y2192782D01*
G01X6764782Y2209800D02*
G01X6697218Y2209800D01*
G01X6764782Y2209800D02*
G01X6781800Y2192782D01*
G01X6781800Y2192782D02*
G01X6781800Y2159000D01*
G01X6781800Y2159000D02*
G01X6764782Y2141982D01*
G01X6764782Y2141982D02*
G01X6731000Y2141982D01*
G01X6731000Y2176018D02*
G01X6731000Y2141982D01*
G01X6781800Y2040382D02*
G01X6680200Y2040382D01*
G01X6680200Y2108200D02*
G01X6781800Y2040382D01*
G01X6781800Y2108200D02*
G01X6680200Y2108200D01*
G01X6680200Y2006600D02*
G01X6680200Y1955800D01*
G01X6781800Y2006600D02*
G01X6680200Y2006600D01*
G01X6781800Y2006600D02*
G01X6781800Y1955800D01*
G01X6680200Y1955800D02*
G01X6697218Y1938782D01*
G01X6765036Y1938782D02*
G01X6697218Y1938782D01*
G01X6781800Y1955800D02*
G01X6765036Y1938782D01*
G01X6475548Y2172442D02*
G01X6475548Y2155424D01*
G01X6509330Y2206224D02*
G01X6526348Y2189206D01*
G01X6526348Y2189206D02*
G01X6526348Y2155424D01*
G01X6526348Y2155424D02*
G01X6509330Y2138406D01*
G01X6509330Y2138406D02*
G01X6492566Y2138406D01*
G01X6475548Y2155424D02*
G01X6492566Y2138406D01*
G01X6475548Y2155424D02*
G01X6458530Y2138406D01*
G01X6458530Y2138406D02*
G01X6441766Y2138406D01*
G01X6424748Y2155424D02*
G01X6441766Y2138406D01*
G01X6424748Y2189206D02*
G01X6424748Y2155424D01*
G01X6441766Y2206224D02*
G01X6424748Y2189206D01*
G01X6492566Y2036806D02*
G01X6424748Y2036806D01*
G01X6526348Y2070588D02*
G01X6492566Y2036806D01*
G01X6492566Y2104624D02*
G01X6526348Y2070588D01*
G01X6492566Y2104624D02*
G01X6424748Y2104624D01*
G01X6475548Y1968988D02*
G01X6475548Y1952224D01*
G01X6509330Y2003024D02*
G01X6526348Y1986006D01*
G01X6526348Y1986006D02*
G01X6526348Y1952224D01*
G01X6526348Y1952224D02*
G01X6509330Y1935206D01*
G01X6509330Y1935206D02*
G01X6492566Y1935206D01*
G01X6475548Y1952224D02*
G01X6492566Y1935206D01*
G01X6475548Y1952224D02*
G01X6458530Y1935206D01*
G01X6458530Y1935206D02*
G01X6441766Y1935206D01*
G01X6424748Y1952224D02*
G01X6441766Y1935206D01*
G01X6424748Y1986006D02*
G01X6424748Y1952224D01*
G01X6441766Y2003024D02*
G01X6424748Y1986006D01*
G01X6011919Y2188878D02*
G01X5910319Y2188878D01*
G01X5910319Y2205896D02*
G01X5910319Y2188878D01*
G01X5910319Y2188878D02*
G01X5910319Y2172114D01*
G01X6011919Y2205896D02*
G01X6011919Y2188878D01*
G01X6011919Y2188878D02*
G01X6011919Y2172114D01*
G01X5927337Y2121314D02*
G01X5910319Y2104296D01*
G01X5994901Y2121314D02*
G01X5927337Y2121314D01*
G01X5994901Y2121314D02*
G01X6011919Y2104296D01*
G01X6011919Y2104296D02*
G01X6011919Y2070514D01*
G01X6011919Y2070514D02*
G01X5994901Y2053496D01*
G01X5994901Y2053496D02*
G01X5927337Y2053496D01*
G01X5910319Y2070514D02*
G01X5927337Y2053496D01*
G01X5910319Y2104296D02*
G01X5910319Y2070514D01*
G01X6011919Y2002696D02*
G01X5910319Y2002696D01*
G01X5927337Y2019714D02*
G01X5910319Y2002696D01*
G01X6011919Y2019714D02*
G01X6011919Y2002696D01*
G01X6011919Y2002696D02*
G01X6011919Y1985678D01*
G01X6267371Y2192454D02*
G01X6165771Y2192454D01*
G01X6165771Y2209472D02*
G01X6165771Y2192454D01*
G01X6165771Y2192454D02*
G01X6165771Y2175690D01*
G01X6267371Y2209472D02*
G01X6267371Y2192454D01*
G01X6267371Y2192454D02*
G01X6267371Y2175690D01*
G01X6182789Y2124890D02*
G01X6165771Y2107872D01*
G01X6250353Y2124890D02*
G01X6182789Y2124890D01*
G01X6250353Y2124890D02*
G01X6267371Y2107872D01*
G01X6267371Y2107872D02*
G01X6267371Y2074090D01*
G01X6267371Y2074090D02*
G01X6250353Y2057072D01*
G01X6250353Y2057072D02*
G01X6182789Y2057072D01*
G01X6165771Y2074090D02*
G01X6182789Y2057072D01*
G01X6165771Y2107872D02*
G01X6165771Y2074090D01*
G01X6182789Y2023290D02*
G01X6165771Y2006272D01*
G01X6250353Y2023290D02*
G01X6182789Y2023290D01*
G01X6250353Y2023290D02*
G01X6267371Y2006272D01*
G01X6267371Y2006272D02*
G01X6267371Y1972490D01*
G01X6267371Y1972490D02*
G01X6250353Y1955472D01*
G01X6250353Y1955472D02*
G01X6182789Y1955472D01*
G01X6165771Y1972490D02*
G01X6182789Y1955472D01*
G01X6165771Y2006272D02*
G01X6165771Y1972490D01*
G01X4995353Y2190449D02*
G01X4893753Y2190449D01*
G01X4893753Y2207467D02*
G01X4893753Y2190449D01*
G01X4893753Y2190449D02*
G01X4893753Y2173685D01*
G01X4995353Y2207467D02*
G01X4995353Y2190449D01*
G01X4995353Y2190449D02*
G01X4995353Y2173685D01*
G01X4910771Y2122885D02*
G01X4893753Y2105867D01*
G01X4978335Y2122885D02*
G01X4910771Y2122885D01*
G01X4978335Y2122885D02*
G01X4995353Y2105867D01*
G01X4995353Y2105867D02*
G01X4995353Y2072085D01*
G01X4995353Y2072085D02*
G01X4978335Y2055067D01*
G01X4978335Y2055067D02*
G01X4910771Y2055067D01*
G01X4893753Y2072085D02*
G01X4910771Y2055067D01*
G01X4893753Y2105867D02*
G01X4893753Y2072085D01*
G01X4978335Y2021285D02*
G01X4995353Y2004267D01*
G01X4995353Y2004267D02*
G01X4995353Y1970485D01*
G01X4995353Y1970485D02*
G01X4978335Y1953467D01*
G01X4978335Y1953467D02*
G01X4944553Y1953467D01*
G01X4927535Y1970485D02*
G01X4944553Y1953467D01*
G01X4927535Y1987249D02*
G01X4927535Y1970485D01*
G01X4944553Y2021285D02*
G01X4893753Y2021285D01*
G01X4893753Y2021285D02*
G01X4893753Y1953467D01*
G01X4944553Y2021285D02*
G01X4927535Y1987249D01*
G01X5250805Y2194025D02*
G01X5149205Y2194025D01*
G01X5149205Y2211043D02*
G01X5149205Y2194025D01*
G01X5149205Y2194025D02*
G01X5149205Y2177261D01*
G01X5250805Y2211043D02*
G01X5250805Y2194025D01*
G01X5250805Y2194025D02*
G01X5250805Y2177261D01*
G01X5166223Y2126461D02*
G01X5149205Y2109443D01*
G01X5233787Y2126461D02*
G01X5166223Y2126461D01*
G01X5233787Y2126461D02*
G01X5250805Y2109443D01*
G01X5250805Y2109443D02*
G01X5250805Y2075661D01*
G01X5250805Y2075661D02*
G01X5233787Y2058643D01*
G01X5233787Y2058643D02*
G01X5166223Y2058643D01*
G01X5149205Y2075661D02*
G01X5166223Y2058643D01*
G01X5149205Y2109443D02*
G01X5149205Y2075661D01*
G01X5200005Y2024861D02*
G01X5149205Y1974061D01*
G01X5200005Y2024861D02*
G01X5200005Y1974061D01*
G01X5200005Y1974061D02*
G01X5200005Y1957043D01*
G01X5250805Y1974061D02*
G01X5200005Y1974061D01*
G01X5200005Y1974061D02*
G01X5149205Y1974061D01*
G01X5765234Y2194353D02*
G01X5663634Y2194353D01*
G01X5663634Y2211371D02*
G01X5663634Y2194353D01*
G01X5663634Y2194353D02*
G01X5663634Y2177589D01*
G01X5765234Y2211371D02*
G01X5765234Y2194353D01*
G01X5765234Y2194353D02*
G01X5765234Y2177589D01*
G01X5680652Y2126789D02*
G01X5663634Y2109771D01*
G01X5748216Y2126789D02*
G01X5680652Y2126789D01*
G01X5748216Y2126789D02*
G01X5765234Y2109771D01*
G01X5765234Y2109771D02*
G01X5765234Y2075989D01*
G01X5765234Y2075989D02*
G01X5748216Y2058971D01*
G01X5748216Y2058971D02*
G01X5680652Y2058971D01*
G01X5663634Y2075989D02*
G01X5680652Y2058971D01*
G01X5663634Y2109771D02*
G01X5663634Y2075989D01*
G01X5765234Y2025189D02*
G01X5765234Y1957371D01*
G01X5765234Y2025189D02*
G01X5697416Y1957371D01*
G01X5697416Y1957371D02*
G01X5680652Y1957371D01*
G01X5663634Y1974389D02*
G01X5680652Y1957371D01*
G01X5663634Y2008171D02*
G01X5663634Y1974389D01*
G01X5680652Y2025189D02*
G01X5663634Y2008171D01*
G01X5509782Y2190777D02*
G01X5408182Y2190777D01*
G01X5408182Y2207795D02*
G01X5408182Y2190777D01*
G01X5408182Y2190777D02*
G01X5408182Y2174013D01*
G01X5509782Y2207795D02*
G01X5509782Y2190777D01*
G01X5509782Y2190777D02*
G01X5509782Y2174013D01*
G01X5425200Y2123213D02*
G01X5408182Y2106195D01*
G01X5492764Y2123213D02*
G01X5425200Y2123213D01*
G01X5492764Y2123213D02*
G01X5509782Y2106195D01*
G01X5509782Y2106195D02*
G01X5509782Y2072413D01*
G01X5509782Y2072413D02*
G01X5492764Y2055395D01*
G01X5492764Y2055395D02*
G01X5425200Y2055395D01*
G01X5408182Y2072413D02*
G01X5425200Y2055395D01*
G01X5408182Y2106195D02*
G01X5408182Y2072413D01*
G01X5458982Y1987577D02*
G01X5458982Y1970813D01*
G01X5492764Y2021613D02*
G01X5509782Y2004595D01*
G01X5509782Y2004595D02*
G01X5509782Y1970813D01*
G01X5509782Y1970813D02*
G01X5492764Y1953795D01*
G01X5492764Y1953795D02*
G01X5476000Y1953795D01*
G01X5458982Y1970813D02*
G01X5476000Y1953795D01*
G01X5458982Y1970813D02*
G01X5441964Y1953795D01*
G01X5441964Y1953795D02*
G01X5425200Y1953795D01*
G01X5408182Y1970813D02*
G01X5425200Y1953795D01*
G01X5408182Y2004595D02*
G01X5408182Y1970813D01*
G01X5425200Y2021613D02*
G01X5408182Y2004595D01*
G01X3976744Y2189373D02*
G01X3875144Y2189373D01*
G01X3875144Y2206391D02*
G01X3875144Y2189373D01*
G01X3875144Y2189373D02*
G01X3875144Y2172609D01*
G01X3976744Y2206391D02*
G01X3976744Y2189373D01*
G01X3976744Y2189373D02*
G01X3976744Y2172609D01*
G01X3892162Y2121809D02*
G01X3875144Y2104791D01*
G01X3959726Y2121809D02*
G01X3892162Y2121809D01*
G01X3959726Y2121809D02*
G01X3976744Y2104791D01*
G01X3976744Y2104791D02*
G01X3976744Y2071009D01*
G01X3976744Y2071009D02*
G01X3959726Y2053991D01*
G01X3959726Y2053991D02*
G01X3892162Y2053991D01*
G01X3875144Y2071009D02*
G01X3892162Y2053991D01*
G01X3875144Y2104791D02*
G01X3875144Y2071009D01*
G01X3959726Y2020209D02*
G01X3976744Y2003191D01*
G01X3976744Y2003191D02*
G01X3976744Y1969409D01*
G01X3976744Y1969409D02*
G01X3959726Y1952391D01*
G01X3875144Y1969409D02*
G01X3892162Y1952391D01*
G01X3875144Y2003191D02*
G01X3875144Y1969409D01*
G01X3892162Y2020209D02*
G01X3875144Y2003191D01*
G01X3908926Y2020209D02*
G01X3892162Y2020209D01*
G01X3908926Y2020209D02*
G01X3925944Y2003191D01*
G01X3925944Y2003191D02*
G01X3925944Y1952391D01*
G01X3959726Y1952391D02*
G01X3925944Y1952391D01*
G01X3925944Y1952391D02*
G01X3892162Y1952391D01*
G01X4232196Y2192949D02*
G01X4130596Y2192949D01*
G01X4130596Y2209967D02*
G01X4130596Y2192949D01*
G01X4130596Y2192949D02*
G01X4130596Y2176185D01*
G01X4232196Y2209967D02*
G01X4232196Y2192949D01*
G01X4232196Y2192949D02*
G01X4232196Y2176185D01*
G01X4147614Y2125385D02*
G01X4130596Y2108367D01*
G01X4215178Y2125385D02*
G01X4147614Y2125385D01*
G01X4215178Y2125385D02*
G01X4232196Y2108367D01*
G01X4232196Y2108367D02*
G01X4232196Y2074585D01*
G01X4232196Y2074585D02*
G01X4215178Y2057567D01*
G01X4215178Y2057567D02*
G01X4147614Y2057567D01*
G01X4130596Y2074585D02*
G01X4147614Y2057567D01*
G01X4130596Y2108367D02*
G01X4130596Y2074585D01*
G01X4181396Y1972985D02*
G01X4198414Y1955967D01*
G01X4215178Y1955967D02*
G01X4198414Y1955967D01*
G01X4232196Y1972985D02*
G01X4215178Y1955967D01*
G01X4232196Y2006767D02*
G01X4232196Y1972985D01*
G01X4215178Y2023785D02*
G01X4232196Y2006767D01*
G01X4215178Y2023785D02*
G01X4198414Y2023785D01*
G01X4198414Y2023785D02*
G01X4181396Y2006767D01*
G01X4147614Y2023785D02*
G01X4130596Y2006767D01*
G01X4164378Y2023785D02*
G01X4147614Y2023785D01*
G01X4164378Y2023785D02*
G01X4181396Y2006767D01*
G01X4181396Y2006767D02*
G01X4181396Y1972985D01*
G01X4181396Y1972985D02*
G01X4164378Y1955967D01*
G01X4164378Y1955967D02*
G01X4147614Y1955967D01*
G01X4130596Y1972985D02*
G01X4147614Y1955967D01*
G01X4130596Y2006767D02*
G01X4130596Y1972985D01*
G01X4746625Y2193277D02*
G01X4645025Y2193277D01*
G01X4645025Y2210295D02*
G01X4645025Y2193277D01*
G01X4645025Y2193277D02*
G01X4645025Y2176513D01*
G01X4746625Y2210295D02*
G01X4746625Y2193277D01*
G01X4746625Y2193277D02*
G01X4746625Y2176513D01*
G01X4662043Y2125713D02*
G01X4645025Y2108695D01*
G01X4729607Y2125713D02*
G01X4662043Y2125713D01*
G01X4729607Y2125713D02*
G01X4746625Y2108695D01*
G01X4746625Y2108695D02*
G01X4746625Y2074913D01*
G01X4746625Y2074913D02*
G01X4729607Y2057895D01*
G01X4729607Y2057895D02*
G01X4662043Y2057895D01*
G01X4645025Y2074913D02*
G01X4662043Y2057895D01*
G01X4645025Y2108695D02*
G01X4645025Y2074913D01*
G01X4695825Y2024113D02*
G01X4695825Y1973313D01*
G01X4695825Y1973313D02*
G01X4712843Y1956295D01*
G01X4729607Y1956295D02*
G01X4712843Y1956295D01*
G01X4746625Y1973313D02*
G01X4729607Y1956295D01*
G01X4746625Y2007095D02*
G01X4746625Y1973313D01*
G01X4729607Y2024113D02*
G01X4746625Y2007095D01*
G01X4729607Y2024113D02*
G01X4695825Y2024113D01*
G01X4695825Y2024113D02*
G01X4662043Y1990077D01*
G01X4645025Y1956295D02*
G01X4662043Y1990077D01*
G01X4491173Y2189701D02*
G01X4389573Y2189701D01*
G01X4389573Y2206719D02*
G01X4389573Y2189701D01*
G01X4389573Y2189701D02*
G01X4389573Y2172937D01*
G01X4491173Y2206719D02*
G01X4491173Y2189701D01*
G01X4491173Y2189701D02*
G01X4491173Y2172937D01*
G01X4406591Y2122137D02*
G01X4389573Y2105119D01*
G01X4474155Y2122137D02*
G01X4406591Y2122137D01*
G01X4474155Y2122137D02*
G01X4491173Y2105119D01*
G01X4491173Y2105119D02*
G01X4491173Y2071337D01*
G01X4491173Y2071337D02*
G01X4474155Y2054319D01*
G01X4474155Y2054319D02*
G01X4406591Y2054319D01*
G01X4389573Y2071337D02*
G01X4406591Y2054319D01*
G01X4389573Y2105119D02*
G01X4389573Y2071337D01*
G01X4491173Y2020537D02*
G01X4474155Y2020537D01*
G01X4474155Y2020537D02*
G01X4406591Y1952719D01*
G01X4406591Y1952719D02*
G01X4389573Y1952719D01*
G01X4389573Y2020537D02*
G01X4389573Y1952719D01*
G01X2971669Y2190449D02*
G01X2870069Y2190449D01*
G01X2870069Y2207467D02*
G01X2870069Y2190449D01*
G01X2870069Y2190449D02*
G01X2870069Y2173685D01*
G01X2971669Y2207467D02*
G01X2971669Y2190449D01*
G01X2971669Y2190449D02*
G01X2971669Y2173685D01*
G01X2887087Y2122885D02*
G01X2870069Y2105867D01*
G01X2954651Y2122885D02*
G01X2887087Y2122885D01*
G01X2954651Y2122885D02*
G01X2971669Y2105867D01*
G01X2971669Y2105867D02*
G01X2971669Y2072085D01*
G01X2971669Y2072085D02*
G01X2954651Y2055067D01*
G01X2954651Y2055067D02*
G01X2887087Y2055067D01*
G01X2870069Y2072085D02*
G01X2887087Y2055067D01*
G01X2870069Y2105867D02*
G01X2870069Y2072085D01*
G01X2971669Y2004267D02*
G01X2870069Y2004267D01*
G01X2887087Y2021285D02*
G01X2870069Y2004267D01*
G01X2971669Y2021285D02*
G01X2971669Y2004267D01*
G01X2971669Y2004267D02*
G01X2971669Y1987249D01*
G01X2920869Y1902667D02*
G01X2920869Y1885649D01*
G01X2954651Y1936449D02*
G01X2971669Y1919431D01*
G01X2971669Y1919431D02*
G01X2971669Y1885649D01*
G01X2971669Y1885649D02*
G01X2954651Y1868631D01*
G01X2954651Y1868631D02*
G01X2937887Y1868631D01*
G01X2920869Y1885649D02*
G01X2937887Y1868631D01*
G01X2920869Y1885649D02*
G01X2903851Y1868631D01*
G01X2903851Y1868631D02*
G01X2887087Y1868631D01*
G01X2870069Y1885649D02*
G01X2887087Y1868631D01*
G01X2870069Y1919431D02*
G01X2870069Y1885649D01*
G01X2887087Y1936449D02*
G01X2870069Y1919431D01*
G01X3227121Y2194025D02*
G01X3125521Y2194025D01*
G01X3125521Y2211043D02*
G01X3125521Y2194025D01*
G01X3125521Y2194025D02*
G01X3125521Y2177261D01*
G01X3227121Y2211043D02*
G01X3227121Y2194025D01*
G01X3227121Y2194025D02*
G01X3227121Y2177261D01*
G01X3142539Y2126461D02*
G01X3125521Y2109443D01*
G01X3210103Y2126461D02*
G01X3142539Y2126461D01*
G01X3210103Y2126461D02*
G01X3227121Y2109443D01*
G01X3227121Y2109443D02*
G01X3227121Y2075661D01*
G01X3227121Y2075661D02*
G01X3210103Y2058643D01*
G01X3210103Y2058643D02*
G01X3142539Y2058643D01*
G01X3125521Y2075661D02*
G01X3142539Y2058643D01*
G01X3125521Y2109443D02*
G01X3125521Y2075661D01*
G01X3227121Y2007843D02*
G01X3125521Y2007843D01*
G01X3142539Y2024861D02*
G01X3125521Y2007843D01*
G01X3227121Y2024861D02*
G01X3227121Y2007843D01*
G01X3227121Y2007843D02*
G01X3227121Y1990825D01*
G01X3227121Y1940025D02*
G01X3227121Y1872207D01*
G01X3227121Y1940025D02*
G01X3159303Y1872207D01*
G01X3159303Y1872207D02*
G01X3142539Y1872207D01*
G01X3125521Y1889225D02*
G01X3142539Y1872207D01*
G01X3125521Y1923007D02*
G01X3125521Y1889225D01*
G01X3142539Y1940025D02*
G01X3125521Y1923007D01*
G01X3741551Y2194353D02*
G01X3639951Y2194353D01*
G01X3639951Y2211371D02*
G01X3639951Y2194353D01*
G01X3639951Y2194353D02*
G01X3639951Y2177589D01*
G01X3741551Y2211371D02*
G01X3741551Y2194353D01*
G01X3741551Y2194353D02*
G01X3741551Y2177589D01*
G01X3656969Y2126789D02*
G01X3639951Y2109771D01*
G01X3724533Y2126789D02*
G01X3656969Y2126789D01*
G01X3724533Y2126789D02*
G01X3741551Y2109771D01*
G01X3741551Y2109771D02*
G01X3741551Y2075989D01*
G01X3741551Y2075989D02*
G01X3724533Y2058971D01*
G01X3724533Y2058971D02*
G01X3656969Y2058971D01*
G01X3639951Y2075989D02*
G01X3656969Y2058971D01*
G01X3639951Y2109771D02*
G01X3639951Y2075989D01*
G01X3741551Y2008171D02*
G01X3639951Y2008171D01*
G01X3656969Y2025189D02*
G01X3639951Y2008171D01*
G01X3741551Y2025189D02*
G01X3741551Y2008171D01*
G01X3741551Y2008171D02*
G01X3741551Y1991153D01*
G01X3656969Y1940353D02*
G01X3639951Y1923335D01*
G01X3724533Y1940353D02*
G01X3656969Y1940353D01*
G01X3724533Y1940353D02*
G01X3741551Y1923335D01*
G01X3741551Y1923335D02*
G01X3741551Y1889553D01*
G01X3741551Y1889553D02*
G01X3724533Y1872535D01*
G01X3724533Y1872535D02*
G01X3656969Y1872535D01*
G01X3639951Y1889553D02*
G01X3656969Y1872535D01*
G01X3639951Y1923335D02*
G01X3639951Y1889553D01*
G01X3486099Y2190777D02*
G01X3384499Y2190777D01*
G01X3384499Y2207795D02*
G01X3384499Y2190777D01*
G01X3384499Y2190777D02*
G01X3384499Y2174013D01*
G01X3486099Y2207795D02*
G01X3486099Y2190777D01*
G01X3486099Y2190777D02*
G01X3486099Y2174013D01*
G01X3401517Y2123213D02*
G01X3384499Y2106195D01*
G01X3469081Y2123213D02*
G01X3401517Y2123213D01*
G01X3469081Y2123213D02*
G01X3486099Y2106195D01*
G01X3486099Y2106195D02*
G01X3486099Y2072413D01*
G01X3486099Y2072413D02*
G01X3469081Y2055395D01*
G01X3469081Y2055395D02*
G01X3401517Y2055395D01*
G01X3384499Y2072413D02*
G01X3401517Y2055395D01*
G01X3384499Y2106195D02*
G01X3384499Y2072413D01*
G01X3486099Y2004595D02*
G01X3384499Y2004595D01*
G01X3401517Y2021613D02*
G01X3384499Y2004595D01*
G01X3486099Y2021613D02*
G01X3486099Y2004595D01*
G01X3486099Y2004595D02*
G01X3486099Y1987577D01*
G01X3486099Y1919759D02*
G01X3384499Y1919759D01*
G01X3401517Y1936777D02*
G01X3384499Y1919759D01*
G01X3486099Y1936777D02*
G01X3486099Y1919759D01*
G01X3486099Y1919759D02*
G01X3486099Y1902995D01*
G01X1946881Y2203149D02*
G01X1845281Y2203149D01*
G01X1845281Y2220167D02*
G01X1845281Y2203149D01*
G01X1845281Y2203149D02*
G01X1845281Y2186385D01*
G01X1946881Y2220167D02*
G01X1946881Y2203149D01*
G01X1946881Y2203149D02*
G01X1946881Y2186385D01*
G01X1862299Y2135585D02*
G01X1845281Y2118567D01*
G01X1929863Y2135585D02*
G01X1862299Y2135585D01*
G01X1929863Y2135585D02*
G01X1946881Y2118567D01*
G01X1946881Y2118567D02*
G01X1946881Y2084785D01*
G01X1946881Y2084785D02*
G01X1929863Y2067767D01*
G01X1929863Y2067767D02*
G01X1862299Y2067767D01*
G01X1845281Y2084785D02*
G01X1862299Y2067767D01*
G01X1845281Y2118567D02*
G01X1845281Y2084785D01*
G01X1946881Y2016967D02*
G01X1845281Y2016967D01*
G01X1862299Y2033985D02*
G01X1845281Y2016967D01*
G01X1946881Y2033985D02*
G01X1946881Y2016967D01*
G01X1946881Y2016967D02*
G01X1946881Y1999949D01*
G01X1946881Y1949149D02*
G01X1929863Y1949149D01*
G01X1929863Y1949149D02*
G01X1862299Y1881331D01*
G01X1862299Y1881331D02*
G01X1845281Y1881331D01*
G01X1845281Y1949149D02*
G01X1845281Y1881331D01*
G01X2202333Y2206725D02*
G01X2100733Y2206725D01*
G01X2100733Y2223743D02*
G01X2100733Y2206725D01*
G01X2100733Y2206725D02*
G01X2100733Y2189961D01*
G01X2202333Y2223743D02*
G01X2202333Y2206725D01*
G01X2202333Y2206725D02*
G01X2202333Y2189961D01*
G01X2117751Y2139161D02*
G01X2100733Y2122143D01*
G01X2185315Y2139161D02*
G01X2117751Y2139161D01*
G01X2185315Y2139161D02*
G01X2202333Y2122143D01*
G01X2202333Y2122143D02*
G01X2202333Y2088361D01*
G01X2202333Y2088361D02*
G01X2185315Y2071343D01*
G01X2185315Y2071343D02*
G01X2117751Y2071343D01*
G01X2100733Y2088361D02*
G01X2117751Y2071343D01*
G01X2100733Y2122143D02*
G01X2100733Y2088361D01*
G01X2202333Y2020543D02*
G01X2100733Y2020543D01*
G01X2117751Y2037561D02*
G01X2100733Y2020543D01*
G01X2202333Y2037561D02*
G01X2202333Y2020543D01*
G01X2202333Y2020543D02*
G01X2202333Y2003525D01*
G01X2151533Y1952725D02*
G01X2151533Y1901925D01*
G01X2151533Y1901925D02*
G01X2168551Y1884907D01*
G01X2185315Y1884907D02*
G01X2168551Y1884907D01*
G01X2202333Y1901925D02*
G01X2185315Y1884907D01*
G01X2202333Y1935707D02*
G01X2202333Y1901925D01*
G01X2185315Y1952725D02*
G01X2202333Y1935707D01*
G01X2185315Y1952725D02*
G01X2151533Y1952725D01*
G01X2151533Y1952725D02*
G01X2117751Y1918943D01*
G01X2100733Y1884907D02*
G01X2117751Y1918943D01*
G01X2716762Y2207053D02*
G01X2615162Y2207053D01*
G01X2615162Y2224071D02*
G01X2615162Y2207053D01*
G01X2615162Y2207053D02*
G01X2615162Y2190289D01*
G01X2716762Y2224071D02*
G01X2716762Y2207053D01*
G01X2716762Y2207053D02*
G01X2716762Y2190289D01*
G01X2632180Y2139489D02*
G01X2615162Y2122471D01*
G01X2699744Y2139489D02*
G01X2632180Y2139489D01*
G01X2699744Y2139489D02*
G01X2716762Y2122471D01*
G01X2716762Y2122471D02*
G01X2716762Y2088689D01*
G01X2716762Y2088689D02*
G01X2699744Y2071671D01*
G01X2699744Y2071671D02*
G01X2632180Y2071671D01*
G01X2615162Y2088689D02*
G01X2632180Y2071671D01*
G01X2615162Y2122471D02*
G01X2615162Y2088689D01*
G01X2716762Y2020871D02*
G01X2615162Y2020871D01*
G01X2632180Y2037889D02*
G01X2615162Y2020871D01*
G01X2716762Y2037889D02*
G01X2716762Y2020871D01*
G01X2716762Y2020871D02*
G01X2716762Y2003853D01*
G01X2665962Y1953053D02*
G01X2615162Y1902253D01*
G01X2665962Y1953053D02*
G01X2665962Y1902253D01*
G01X2665962Y1902253D02*
G01X2665962Y1885235D01*
G01X2716762Y1902253D02*
G01X2665962Y1902253D01*
G01X2665962Y1902253D02*
G01X2615162Y1902253D01*
G01X2461310Y2203477D02*
G01X2359710Y2203477D01*
G01X2359710Y2220495D02*
G01X2359710Y2203477D01*
G01X2359710Y2203477D02*
G01X2359710Y2186713D01*
G01X2461310Y2220495D02*
G01X2461310Y2203477D01*
G01X2461310Y2203477D02*
G01X2461310Y2186713D01*
G01X2376728Y2135913D02*
G01X2359710Y2118895D01*
G01X2444292Y2135913D02*
G01X2376728Y2135913D01*
G01X2444292Y2135913D02*
G01X2461310Y2118895D01*
G01X2461310Y2118895D02*
G01X2461310Y2085113D01*
G01X2461310Y2085113D02*
G01X2444292Y2068095D01*
G01X2444292Y2068095D02*
G01X2376728Y2068095D01*
G01X2359710Y2085113D02*
G01X2376728Y2068095D01*
G01X2359710Y2118895D02*
G01X2359710Y2085113D01*
G01X2461310Y2017295D02*
G01X2359710Y2017295D01*
G01X2376728Y2034313D02*
G01X2359710Y2017295D01*
G01X2461310Y2034313D02*
G01X2461310Y2017295D01*
G01X2461310Y2017295D02*
G01X2461310Y2000277D01*
G01X2444292Y1949477D02*
G01X2461310Y1932459D01*
G01X2461310Y1932459D02*
G01X2461310Y1898677D01*
G01X2461310Y1898677D02*
G01X2444292Y1881659D01*
G01X2444292Y1881659D02*
G01X2410510Y1881659D01*
G01X2393492Y1898677D02*
G01X2410510Y1881659D01*
G01X2393492Y1915695D02*
G01X2393492Y1898677D01*
G01X2410510Y1949477D02*
G01X2359710Y1949477D01*
G01X2359710Y1949477D02*
G01X2359710Y1881659D01*
G01X2410510Y1949477D02*
G01X2393492Y1915695D01*
G01X926969Y2152349D02*
G01X825369Y2152349D01*
G01X825369Y2220167D02*
G01X926969Y2152349D01*
G01X926969Y2220167D02*
G01X825369Y2220167D01*
G01X926969Y2067767D02*
G01X909951Y2050749D01*
G01X926969Y2101549D02*
G01X926969Y2067767D01*
G01X909951Y2118567D02*
G01X926969Y2101549D01*
G01X909951Y2118567D02*
G01X842387Y2118567D01*
G01X842387Y2118567D02*
G01X825369Y2101549D01*
G01X825369Y2101549D02*
G01X825369Y2067767D01*
G01X825369Y2067767D02*
G01X842387Y2050749D01*
G01X1080821Y2172943D02*
G01X1097839Y2155925D01*
G01X1080821Y2206725D02*
G01X1080821Y2172943D01*
G01X1097839Y2223743D02*
G01X1080821Y2206725D01*
G01X1165403Y2223743D02*
G01X1097839Y2223743D01*
G01X1165403Y2223743D02*
G01X1182421Y2206725D01*
G01X1182421Y2206725D02*
G01X1182421Y2172943D01*
G01X1182421Y2172943D02*
G01X1165403Y2155925D01*
G01X1165403Y2155925D02*
G01X1131621Y2155925D01*
G01X1131621Y2189961D02*
G01X1131621Y2155925D01*
G01X1182421Y2054325D02*
G01X1080821Y2054325D01*
G01X1080821Y2122143D02*
G01X1182421Y2054325D01*
G01X1182421Y2122143D02*
G01X1080821Y2122143D01*
G01X1080821Y2020543D02*
G01X1080821Y1969743D01*
G01X1182421Y2020543D02*
G01X1080821Y2020543D01*
G01X1182421Y2020543D02*
G01X1182421Y1969743D01*
G01X1080821Y1969743D02*
G01X1097839Y1952725D01*
G01X1165657Y1952725D02*
G01X1097839Y1952725D01*
G01X1182421Y1969743D02*
G01X1165657Y1952725D01*
G01X1696851Y2207053D02*
G01X1595251Y2207053D01*
G01X1595251Y2224071D02*
G01X1595251Y2207053D01*
G01X1595251Y2207053D02*
G01X1595251Y2190289D01*
G01X1696851Y2224071D02*
G01X1696851Y2207053D01*
G01X1696851Y2207053D02*
G01X1696851Y2190289D01*
G01X1612269Y2139489D02*
G01X1595251Y2122471D01*
G01X1679833Y2139489D02*
G01X1612269Y2139489D01*
G01X1679833Y2139489D02*
G01X1696851Y2122471D01*
G01X1696851Y2122471D02*
G01X1696851Y2088689D01*
G01X1696851Y2088689D02*
G01X1679833Y2071671D01*
G01X1679833Y2071671D02*
G01X1612269Y2071671D01*
G01X1595251Y2088689D02*
G01X1612269Y2071671D01*
G01X1595251Y2122471D02*
G01X1595251Y2088689D01*
G01X1696851Y2020871D02*
G01X1595251Y2020871D01*
G01X1612269Y2037889D02*
G01X1595251Y2020871D01*
G01X1696851Y2037889D02*
G01X1696851Y2020871D01*
G01X1696851Y2020871D02*
G01X1696851Y2003853D01*
G01X1646051Y1902253D02*
G01X1663069Y1885235D01*
G01X1679833Y1885235D02*
G01X1663069Y1885235D01*
G01X1696851Y1902253D02*
G01X1679833Y1885235D01*
G01X1696851Y1936035D02*
G01X1696851Y1902253D01*
G01X1679833Y1953053D02*
G01X1696851Y1936035D01*
G01X1679833Y1953053D02*
G01X1663069Y1953053D01*
G01X1663069Y1953053D02*
G01X1646051Y1936035D01*
G01X1612269Y1953053D02*
G01X1595251Y1936035D01*
G01X1629033Y1953053D02*
G01X1612269Y1953053D01*
G01X1629033Y1953053D02*
G01X1646051Y1936035D01*
G01X1646051Y1936035D02*
G01X1646051Y1902253D01*
G01X1646051Y1902253D02*
G01X1629033Y1885235D01*
G01X1629033Y1885235D02*
G01X1612269Y1885235D01*
G01X1595251Y1902253D02*
G01X1612269Y1885235D01*
G01X1595251Y1936035D02*
G01X1595251Y1902253D01*
G01X1424381Y2220495D02*
G01X1441399Y2203477D01*
G01X1441399Y2203477D02*
G01X1441399Y2169695D01*
G01X1441399Y2169695D02*
G01X1424381Y2152677D01*
G01X1424381Y2152677D02*
G01X1390599Y2152677D01*
G01X1373581Y2169695D02*
G01X1390599Y2152677D01*
G01X1373581Y2186713D02*
G01X1373581Y2169695D01*
G01X1390599Y2220495D02*
G01X1339799Y2220495D01*
G01X1339799Y2220495D02*
G01X1339799Y2152677D01*
G01X1390599Y2220495D02*
G01X1373581Y2186713D01*
G01X1407617Y2051077D02*
G01X1339799Y2051077D01*
G01X1441399Y2084859D02*
G01X1407617Y2051077D01*
G01X1407617Y2118895D02*
G01X1441399Y2084859D01*
G01X1407617Y2118895D02*
G01X1339799Y2118895D01*
G01X6015812Y598551D02*
G01X5914212Y598551D01*
G01X5914212Y615569D02*
G01X5914212Y598551D01*
G01X5914212Y598551D02*
G01X5914212Y581787D01*
G01X6015812Y615569D02*
G01X6015812Y598551D01*
G01X6015812Y598551D02*
G01X6015812Y581787D01*
G01X5931230Y530987D02*
G01X5914212Y513969D01*
G01X5998794Y530987D02*
G01X5931230Y530987D01*
G01X5998794Y530987D02*
G01X6015812Y513969D01*
G01X6015812Y513969D02*
G01X6015812Y480187D01*
G01X6015812Y480187D02*
G01X5998794Y463169D01*
G01X5998794Y463169D02*
G01X5931230Y463169D01*
G01X5914212Y480187D02*
G01X5931230Y463169D01*
G01X5914212Y513969D02*
G01X5914212Y480187D01*
G01X5965012Y429387D02*
G01X5914212Y378587D01*
G01X5965012Y429387D02*
G01X5965012Y378587D01*
G01X5965012Y378587D02*
G01X5965012Y361569D01*
G01X6015812Y378587D02*
G01X5965012Y378587D01*
G01X5965012Y378587D02*
G01X5914212Y378587D01*
G01X5965012Y327787D02*
G01X5965012Y276987D01*
G01X5965012Y276987D02*
G01X5982030Y259969D01*
G01X5998794Y259969D02*
G01X5982030Y259969D01*
G01X6015812Y276987D02*
G01X5998794Y259969D01*
G01X6015812Y310769D02*
G01X6015812Y276987D01*
G01X5998794Y327787D02*
G01X6015812Y310769D01*
G01X5998794Y327787D02*
G01X5965012Y327787D01*
G01X5965012Y327787D02*
G01X5931230Y293751D01*
G01X5914212Y259969D02*
G01X5931230Y293751D01*
G01X6224797Y632460D02*
G01X6224797Y598678D01*
G01X6275597Y632460D02*
G01X6275597Y564642D01*
G01X6173997Y632460D02*
G01X6173997Y564642D01*
G01X6275597Y632460D02*
G01X6224797Y632460D01*
G01X6224797Y632460D02*
G01X6173997Y632460D01*
G01X6275597Y463042D02*
G01X6173997Y463042D01*
G01X6173997Y530860D02*
G01X6275597Y463042D01*
G01X6275597Y530860D02*
G01X6173997Y530860D01*
G01X6433820Y579120D02*
G01X6450838Y562102D01*
G01X6433820Y612902D02*
G01X6433820Y579120D01*
G01X6450838Y629920D02*
G01X6433820Y612902D01*
G01X6518402Y629920D02*
G01X6450838Y629920D01*
G01X6518402Y629920D02*
G01X6535420Y612902D01*
G01X6535420Y612902D02*
G01X6535420Y579120D01*
G01X6535420Y579120D02*
G01X6518402Y562102D01*
G01X6518402Y562102D02*
G01X6484620Y562102D01*
G01X6484620Y596138D02*
G01X6484620Y562102D01*
G01X6535420Y460502D02*
G01X6433820Y460502D01*
G01X6433820Y528320D02*
G01X6535420Y460502D01*
G01X6535420Y528320D02*
G01X6433820Y528320D01*
G01X6433820Y426720D02*
G01X6433820Y375920D01*
G01X6535420Y426720D02*
G01X6433820Y426720D01*
G01X6535420Y426720D02*
G01X6535420Y375920D01*
G01X6433820Y375920D02*
G01X6450838Y358902D01*
G01X6518656Y358902D02*
G01X6450838Y358902D01*
G01X6535420Y375920D02*
G01X6518656Y358902D01*
G01X6722110Y592328D02*
G01X6722110Y575310D01*
G01X6755892Y626110D02*
G01X6772910Y609092D01*
G01X6772910Y609092D02*
G01X6772910Y575310D01*
G01X6772910Y575310D02*
G01X6755892Y558292D01*
G01X6755892Y558292D02*
G01X6739128Y558292D01*
G01X6722110Y575310D02*
G01X6739128Y558292D01*
G01X6722110Y575310D02*
G01X6705092Y558292D01*
G01X6705092Y558292D02*
G01X6688328Y558292D01*
G01X6671310Y575310D02*
G01X6688328Y558292D01*
G01X6671310Y609092D02*
G01X6671310Y575310D01*
G01X6688328Y626110D02*
G01X6671310Y609092D01*
G01X6739128Y456692D02*
G01X6671310Y456692D01*
G01X6772910Y490474D02*
G01X6739128Y456692D01*
G01X6739128Y524510D02*
G01X6772910Y490474D01*
G01X6739128Y524510D02*
G01X6671310Y524510D01*
G01X6722110Y388874D02*
G01X6722110Y372110D01*
G01X6755892Y422910D02*
G01X6772910Y405892D01*
G01X6772910Y405892D02*
G01X6772910Y372110D01*
G01X6772910Y372110D02*
G01X6755892Y355092D01*
G01X6755892Y355092D02*
G01X6739128Y355092D01*
G01X6722110Y372110D02*
G01X6739128Y355092D01*
G01X6722110Y372110D02*
G01X6705092Y355092D01*
G01X6705092Y355092D02*
G01X6688328Y355092D01*
G01X6671310Y372110D02*
G01X6688328Y355092D01*
G01X6671310Y405892D02*
G01X6671310Y372110D01*
G01X6688328Y422910D02*
G01X6671310Y405892D01*
G01X5761072Y597017D02*
G01X5659472Y597017D01*
G01X5659472Y614035D02*
G01X5659472Y597017D01*
G01X5659472Y597017D02*
G01X5659472Y580253D01*
G01X5761072Y614035D02*
G01X5761072Y597017D01*
G01X5761072Y597017D02*
G01X5761072Y580253D01*
G01X5676490Y529453D02*
G01X5659472Y512435D01*
G01X5744054Y529453D02*
G01X5676490Y529453D01*
G01X5744054Y529453D02*
G01X5761072Y512435D01*
G01X5761072Y512435D02*
G01X5761072Y478653D01*
G01X5761072Y478653D02*
G01X5744054Y461635D01*
G01X5744054Y461635D02*
G01X5676490Y461635D01*
G01X5659472Y478653D02*
G01X5676490Y461635D01*
G01X5659472Y512435D02*
G01X5659472Y478653D01*
G01X5710272Y427853D02*
G01X5659472Y377053D01*
G01X5710272Y427853D02*
G01X5710272Y377053D01*
G01X5710272Y377053D02*
G01X5710272Y360035D01*
G01X5761072Y377053D02*
G01X5710272Y377053D01*
G01X5710272Y377053D02*
G01X5659472Y377053D01*
G01X5744054Y326253D02*
G01X5761072Y309235D01*
G01X5761072Y309235D02*
G01X5761072Y275453D01*
G01X5761072Y275453D02*
G01X5744054Y258435D01*
G01X5744054Y258435D02*
G01X5710272Y258435D01*
G01X5693254Y275453D02*
G01X5710272Y258435D01*
G01X5693254Y292217D02*
G01X5693254Y275453D01*
G01X5710272Y326253D02*
G01X5659472Y326253D01*
G01X5659472Y326253D02*
G01X5659472Y258435D01*
G01X5710272Y326253D02*
G01X5693254Y292217D01*
G01X5489800Y584063D02*
G01X5523582Y550027D01*
G01X5489800Y567045D02*
G01X5472782Y550027D01*
G01X5472782Y550027D02*
G01X5439000Y550027D01*
G01X5421982Y567045D02*
G01X5439000Y550027D01*
G01X5421982Y617845D02*
G01X5421982Y567045D01*
G01X5523582Y617845D02*
G01X5489800Y617845D01*
G01X5489800Y617845D02*
G01X5421982Y617845D01*
G01X5489800Y617845D02*
G01X5489800Y584063D01*
G01X5489800Y584063D02*
G01X5489800Y567045D01*
G01X5421982Y516245D02*
G01X5523582Y448427D01*
G01X5421982Y448427D02*
G01X5523582Y516245D01*
G01X5421982Y414645D02*
G01X5421982Y363845D01*
G01X5523582Y414645D02*
G01X5421982Y414645D01*
G01X5523582Y414645D02*
G01X5523582Y363845D01*
G01X5421982Y363845D02*
G01X5439000Y346827D01*
G01X5506818Y346827D02*
G01X5439000Y346827D01*
G01X5523582Y363845D02*
G01X5506818Y346827D01*
G01X5263759Y586603D02*
G01X5162159Y586603D01*
G01X5162159Y620385D02*
G01X5162159Y552567D01*
G01X5162159Y518785D02*
G01X5263759Y450967D01*
G01X5162159Y450967D02*
G01X5263759Y518785D01*
G01X5162159Y417185D02*
G01X5162159Y366385D01*
G01X5263759Y417185D02*
G01X5162159Y417185D01*
G01X5263759Y417185D02*
G01X5263759Y366385D01*
G01X5162159Y366385D02*
G01X5179177Y349367D01*
G01X5246995Y349367D02*
G01X5179177Y349367D01*
G01X5263759Y366385D02*
G01X5246995Y349367D01*
G01X5003974Y599176D02*
G01X4902374Y599176D01*
G01X4902374Y616194D02*
G01X4902374Y599176D01*
G01X4902374Y599176D02*
G01X4902374Y582412D01*
G01X5003974Y616194D02*
G01X5003974Y599176D01*
G01X5003974Y599176D02*
G01X5003974Y582412D01*
G01X4919392Y531612D02*
G01X4902374Y514594D01*
G01X4986956Y531612D02*
G01X4919392Y531612D01*
G01X4986956Y531612D02*
G01X5003974Y514594D01*
G01X5003974Y514594D02*
G01X5003974Y480812D01*
G01X5003974Y480812D02*
G01X4986956Y463794D01*
G01X4986956Y463794D02*
G01X4919392Y463794D01*
G01X4902374Y480812D02*
G01X4919392Y463794D01*
G01X4902374Y514594D02*
G01X4902374Y480812D01*
G01X4953174Y430012D02*
G01X4902374Y379212D01*
G01X4953174Y430012D02*
G01X4953174Y379212D01*
G01X4953174Y379212D02*
G01X4953174Y362194D01*
G01X5003974Y379212D02*
G01X4953174Y379212D01*
G01X4953174Y379212D02*
G01X4902374Y379212D01*
G01X5003974Y328412D02*
G01X5003974Y260594D01*
G01X5003974Y328412D02*
G01X4936156Y260594D01*
G01X4936156Y260594D02*
G01X4919392Y260594D01*
G01X4902374Y277612D02*
G01X4919392Y260594D01*
G01X4902374Y311394D02*
G01X4902374Y277612D01*
G01X4919392Y328412D02*
G01X4902374Y311394D01*
G01X4725759Y605917D02*
G01X4624159Y605917D01*
G01X4624159Y622935D02*
G01X4624159Y605917D01*
G01X4624159Y605917D02*
G01X4624159Y589153D01*
G01X4725759Y622935D02*
G01X4725759Y605917D01*
G01X4725759Y605917D02*
G01X4725759Y589153D01*
G01X4641177Y538353D02*
G01X4624159Y521335D01*
G01X4708741Y538353D02*
G01X4641177Y538353D01*
G01X4708741Y538353D02*
G01X4725759Y521335D01*
G01X4725759Y521335D02*
G01X4725759Y487553D01*
G01X4725759Y487553D02*
G01X4708741Y470535D01*
G01X4708741Y470535D02*
G01X4641177Y470535D01*
G01X4624159Y487553D02*
G01X4641177Y470535D01*
G01X4624159Y521335D02*
G01X4624159Y487553D01*
G01X4674959Y436753D02*
G01X4624159Y385953D01*
G01X4674959Y436753D02*
G01X4674959Y385953D01*
G01X4674959Y385953D02*
G01X4674959Y368935D01*
G01X4725759Y385953D02*
G01X4674959Y385953D01*
G01X4674959Y385953D02*
G01X4624159Y385953D01*
G01X4725759Y318135D02*
G01X4624159Y318135D01*
G01X4641177Y335153D02*
G01X4624159Y318135D01*
G01X4725759Y335153D02*
G01X4725759Y318135D01*
G01X4725759Y318135D02*
G01X4725759Y301117D01*
G01X4488269Y609727D02*
G01X4386669Y609727D01*
G01X4386669Y626745D02*
G01X4386669Y609727D01*
G01X4386669Y609727D02*
G01X4386669Y592963D01*
G01X4488269Y626745D02*
G01X4488269Y609727D01*
G01X4488269Y609727D02*
G01X4488269Y592963D01*
G01X4403687Y542163D02*
G01X4386669Y525145D01*
G01X4471251Y542163D02*
G01X4403687Y542163D01*
G01X4471251Y542163D02*
G01X4488269Y525145D01*
G01X4488269Y525145D02*
G01X4488269Y491363D01*
G01X4488269Y491363D02*
G01X4471251Y474345D01*
G01X4471251Y474345D02*
G01X4403687Y474345D01*
G01X4386669Y491363D02*
G01X4403687Y474345D01*
G01X4386669Y525145D02*
G01X4386669Y491363D01*
G01X4437469Y440563D02*
G01X4386669Y389763D01*
G01X4437469Y440563D02*
G01X4437469Y389763D01*
G01X4437469Y389763D02*
G01X4437469Y372745D01*
G01X4488269Y389763D02*
G01X4437469Y389763D01*
G01X4437469Y389763D02*
G01X4386669Y389763D01*
G01X4403687Y338963D02*
G01X4386669Y321945D01*
G01X4471251Y338963D02*
G01X4403687Y338963D01*
G01X4471251Y338963D02*
G01X4488269Y321945D01*
G01X4488269Y321945D02*
G01X4488269Y288163D01*
G01X4488269Y288163D02*
G01X4471251Y271145D01*
G01X4471251Y271145D02*
G01X4403687Y271145D01*
G01X4386669Y288163D02*
G01X4403687Y271145D01*
G01X4386669Y321945D02*
G01X4386669Y288163D01*
G01X4228446Y612267D02*
G01X4126846Y612267D01*
G01X4126846Y629285D02*
G01X4126846Y612267D01*
G01X4126846Y612267D02*
G01X4126846Y595503D01*
G01X4228446Y629285D02*
G01X4228446Y612267D01*
G01X4228446Y612267D02*
G01X4228446Y595503D01*
G01X4143864Y544703D02*
G01X4126846Y527685D01*
G01X4211428Y544703D02*
G01X4143864Y544703D01*
G01X4211428Y544703D02*
G01X4228446Y527685D01*
G01X4228446Y527685D02*
G01X4228446Y493903D01*
G01X4228446Y493903D02*
G01X4211428Y476885D01*
G01X4211428Y476885D02*
G01X4143864Y476885D01*
G01X4126846Y493903D02*
G01X4143864Y476885D01*
G01X4126846Y527685D02*
G01X4126846Y493903D01*
G01X4177646Y409067D02*
G01X4177646Y392303D01*
G01X4211428Y443103D02*
G01X4228446Y426085D01*
G01X4228446Y426085D02*
G01X4228446Y392303D01*
G01X4228446Y392303D02*
G01X4211428Y375285D01*
G01X4211428Y375285D02*
G01X4194664Y375285D01*
G01X4177646Y392303D02*
G01X4194664Y375285D01*
G01X4177646Y392303D02*
G01X4160628Y375285D01*
G01X4160628Y375285D02*
G01X4143864Y375285D01*
G01X4126846Y392303D02*
G01X4143864Y375285D01*
G01X4126846Y426085D02*
G01X4126846Y392303D01*
G01X4143864Y443103D02*
G01X4126846Y426085D01*
G01X4211428Y341503D02*
G01X4228446Y324485D01*
G01X4228446Y324485D02*
G01X4228446Y290703D01*
G01X4228446Y290703D02*
G01X4211428Y273685D01*
G01X4126846Y290703D02*
G01X4143864Y273685D01*
G01X4126846Y324485D02*
G01X4126846Y290703D01*
G01X4143864Y341503D02*
G01X4126846Y324485D01*
G01X4160628Y341503D02*
G01X4143864Y341503D01*
G01X4160628Y341503D02*
G01X4177646Y324485D01*
G01X4177646Y324485D02*
G01X4177646Y273685D01*
G01X4211428Y273685D02*
G01X4177646Y273685D01*
G01X4177646Y273685D02*
G01X4143864Y273685D01*
G01X3968661Y608076D02*
G01X3867061Y608076D01*
G01X3867061Y625094D02*
G01X3867061Y608076D01*
G01X3867061Y608076D02*
G01X3867061Y591312D01*
G01X3968661Y625094D02*
G01X3968661Y608076D01*
G01X3968661Y608076D02*
G01X3968661Y591312D01*
G01X3884079Y540512D02*
G01X3867061Y523494D01*
G01X3951643Y540512D02*
G01X3884079Y540512D01*
G01X3951643Y540512D02*
G01X3968661Y523494D01*
G01X3968661Y523494D02*
G01X3968661Y489712D01*
G01X3968661Y489712D02*
G01X3951643Y472694D01*
G01X3951643Y472694D02*
G01X3884079Y472694D01*
G01X3867061Y489712D02*
G01X3884079Y472694D01*
G01X3867061Y523494D02*
G01X3867061Y489712D01*
G01X3917861Y404876D02*
G01X3917861Y388112D01*
G01X3951643Y438912D02*
G01X3968661Y421894D01*
G01X3968661Y421894D02*
G01X3968661Y388112D01*
G01X3968661Y388112D02*
G01X3951643Y371094D01*
G01X3951643Y371094D02*
G01X3934879Y371094D01*
G01X3917861Y388112D02*
G01X3934879Y371094D01*
G01X3917861Y388112D02*
G01X3900843Y371094D01*
G01X3900843Y371094D02*
G01X3884079Y371094D01*
G01X3867061Y388112D02*
G01X3884079Y371094D01*
G01X3867061Y421894D02*
G01X3867061Y388112D01*
G01X3884079Y438912D02*
G01X3867061Y421894D01*
G01X3917861Y286512D02*
G01X3934879Y269494D01*
G01X3951643Y269494D02*
G01X3934879Y269494D01*
G01X3968661Y286512D02*
G01X3951643Y269494D01*
G01X3968661Y320294D02*
G01X3968661Y286512D01*
G01X3951643Y337312D02*
G01X3968661Y320294D01*
G01X3951643Y337312D02*
G01X3934879Y337312D01*
G01X3934879Y337312D02*
G01X3917861Y320294D01*
G01X3884079Y337312D02*
G01X3867061Y320294D01*
G01X3900843Y337312D02*
G01X3884079Y337312D01*
G01X3900843Y337312D02*
G01X3917861Y320294D01*
G01X3917861Y320294D02*
G01X3917861Y286512D01*
G01X3917861Y286512D02*
G01X3900843Y269494D01*
G01X3900843Y269494D02*
G01X3884079Y269494D01*
G01X3867061Y286512D02*
G01X3884079Y269494D01*
G01X3867061Y320294D02*
G01X3867061Y286512D01*
G01X3722858Y605917D02*
G01X3621258Y605917D01*
G01X3621258Y622935D02*
G01X3621258Y605917D01*
G01X3621258Y605917D02*
G01X3621258Y589153D01*
G01X3722858Y622935D02*
G01X3722858Y605917D01*
G01X3722858Y605917D02*
G01X3722858Y589153D01*
G01X3638276Y538353D02*
G01X3621258Y521335D01*
G01X3705840Y538353D02*
G01X3638276Y538353D01*
G01X3705840Y538353D02*
G01X3722858Y521335D01*
G01X3722858Y521335D02*
G01X3722858Y487553D01*
G01X3722858Y487553D02*
G01X3705840Y470535D01*
G01X3705840Y470535D02*
G01X3638276Y470535D01*
G01X3621258Y487553D02*
G01X3638276Y470535D01*
G01X3621258Y521335D02*
G01X3621258Y487553D01*
G01X3672058Y402717D02*
G01X3672058Y385953D01*
G01X3705840Y436753D02*
G01X3722858Y419735D01*
G01X3722858Y419735D02*
G01X3722858Y385953D01*
G01X3722858Y385953D02*
G01X3705840Y368935D01*
G01X3705840Y368935D02*
G01X3689076Y368935D01*
G01X3672058Y385953D02*
G01X3689076Y368935D01*
G01X3672058Y385953D02*
G01X3655040Y368935D01*
G01X3655040Y368935D02*
G01X3638276Y368935D01*
G01X3621258Y385953D02*
G01X3638276Y368935D01*
G01X3621258Y419735D02*
G01X3621258Y385953D01*
G01X3638276Y436753D02*
G01X3621258Y419735D01*
G01X3722858Y335153D02*
G01X3705840Y335153D01*
G01X3705840Y335153D02*
G01X3638276Y267335D01*
G01X3638276Y267335D02*
G01X3621258Y267335D01*
G01X3621258Y335153D02*
G01X3621258Y267335D01*
G01X3485368Y609727D02*
G01X3383768Y609727D01*
G01X3383768Y626745D02*
G01X3383768Y609727D01*
G01X3383768Y609727D02*
G01X3383768Y592963D01*
G01X3485368Y626745D02*
G01X3485368Y609727D01*
G01X3485368Y609727D02*
G01X3485368Y592963D01*
G01X3400786Y542163D02*
G01X3383768Y525145D01*
G01X3468350Y542163D02*
G01X3400786Y542163D01*
G01X3468350Y542163D02*
G01X3485368Y525145D01*
G01X3485368Y525145D02*
G01X3485368Y491363D01*
G01X3485368Y491363D02*
G01X3468350Y474345D01*
G01X3468350Y474345D02*
G01X3400786Y474345D01*
G01X3383768Y491363D02*
G01X3400786Y474345D01*
G01X3383768Y525145D02*
G01X3383768Y491363D01*
G01X3434568Y406527D02*
G01X3434568Y389763D01*
G01X3468350Y440563D02*
G01X3485368Y423545D01*
G01X3485368Y423545D02*
G01X3485368Y389763D01*
G01X3485368Y389763D02*
G01X3468350Y372745D01*
G01X3468350Y372745D02*
G01X3451586Y372745D01*
G01X3434568Y389763D02*
G01X3451586Y372745D01*
G01X3434568Y389763D02*
G01X3417550Y372745D01*
G01X3417550Y372745D02*
G01X3400786Y372745D01*
G01X3383768Y389763D02*
G01X3400786Y372745D01*
G01X3383768Y423545D02*
G01X3383768Y389763D01*
G01X3400786Y440563D02*
G01X3383768Y423545D01*
G01X3434568Y338963D02*
G01X3434568Y288163D01*
G01X3434568Y288163D02*
G01X3451586Y271145D01*
G01X3468350Y271145D02*
G01X3451586Y271145D01*
G01X3485368Y288163D02*
G01X3468350Y271145D01*
G01X3485368Y321945D02*
G01X3485368Y288163D01*
G01X3468350Y338963D02*
G01X3485368Y321945D01*
G01X3468350Y338963D02*
G01X3434568Y338963D01*
G01X3434568Y338963D02*
G01X3400786Y304927D01*
G01X3383768Y271145D02*
G01X3400786Y304927D01*
G01X3225544Y612267D02*
G01X3123944Y612267D01*
G01X3123944Y629285D02*
G01X3123944Y612267D01*
G01X3123944Y612267D02*
G01X3123944Y595503D01*
G01X3225544Y629285D02*
G01X3225544Y612267D01*
G01X3225544Y612267D02*
G01X3225544Y595503D01*
G01X3140962Y544703D02*
G01X3123944Y527685D01*
G01X3208526Y544703D02*
G01X3140962Y544703D01*
G01X3208526Y544703D02*
G01X3225544Y527685D01*
G01X3225544Y527685D02*
G01X3225544Y493903D01*
G01X3225544Y493903D02*
G01X3208526Y476885D01*
G01X3208526Y476885D02*
G01X3140962Y476885D01*
G01X3123944Y493903D02*
G01X3140962Y476885D01*
G01X3123944Y527685D02*
G01X3123944Y493903D01*
G01X3174744Y409067D02*
G01X3174744Y392303D01*
G01X3208526Y443103D02*
G01X3225544Y426085D01*
G01X3225544Y426085D02*
G01X3225544Y392303D01*
G01X3225544Y392303D02*
G01X3208526Y375285D01*
G01X3208526Y375285D02*
G01X3191762Y375285D01*
G01X3174744Y392303D02*
G01X3191762Y375285D01*
G01X3174744Y392303D02*
G01X3157726Y375285D01*
G01X3157726Y375285D02*
G01X3140962Y375285D01*
G01X3123944Y392303D02*
G01X3140962Y375285D01*
G01X3123944Y426085D02*
G01X3123944Y392303D01*
G01X3140962Y443103D02*
G01X3123944Y426085D01*
G01X3208526Y341503D02*
G01X3225544Y324485D01*
G01X3225544Y324485D02*
G01X3225544Y290703D01*
G01X3225544Y290703D02*
G01X3208526Y273685D01*
G01X3208526Y273685D02*
G01X3174744Y273685D01*
G01X3157726Y290703D02*
G01X3174744Y273685D01*
G01X3157726Y307467D02*
G01X3157726Y290703D01*
G01X3174744Y341503D02*
G01X3123944Y341503D01*
G01X3123944Y341503D02*
G01X3123944Y273685D01*
G01X3174744Y341503D02*
G01X3157726Y307467D01*
G01X2965759Y608076D02*
G01X2864159Y608076D01*
G01X2864159Y625094D02*
G01X2864159Y608076D01*
G01X2864159Y608076D02*
G01X2864159Y591312D01*
G01X2965759Y625094D02*
G01X2965759Y608076D01*
G01X2965759Y608076D02*
G01X2965759Y591312D01*
G01X2881177Y540512D02*
G01X2864159Y523494D01*
G01X2948741Y540512D02*
G01X2881177Y540512D01*
G01X2948741Y540512D02*
G01X2965759Y523494D01*
G01X2965759Y523494D02*
G01X2965759Y489712D01*
G01X2965759Y489712D02*
G01X2948741Y472694D01*
G01X2948741Y472694D02*
G01X2881177Y472694D01*
G01X2864159Y489712D02*
G01X2881177Y472694D01*
G01X2864159Y523494D02*
G01X2864159Y489712D01*
G01X2914959Y404876D02*
G01X2914959Y388112D01*
G01X2948741Y438912D02*
G01X2965759Y421894D01*
G01X2965759Y421894D02*
G01X2965759Y388112D01*
G01X2965759Y388112D02*
G01X2948741Y371094D01*
G01X2948741Y371094D02*
G01X2931977Y371094D01*
G01X2914959Y388112D02*
G01X2931977Y371094D01*
G01X2914959Y388112D02*
G01X2897941Y371094D01*
G01X2897941Y371094D02*
G01X2881177Y371094D01*
G01X2864159Y388112D02*
G01X2881177Y371094D01*
G01X2864159Y421894D02*
G01X2864159Y388112D01*
G01X2881177Y438912D02*
G01X2864159Y421894D01*
G01X2914959Y337312D02*
G01X2864159Y286512D01*
G01X2914959Y337312D02*
G01X2914959Y286512D01*
G01X2914959Y286512D02*
G01X2914959Y269494D01*
G01X2965759Y286512D02*
G01X2914959Y286512D01*
G01X2914959Y286512D02*
G01X2864159Y286512D01*
G01X2706459Y605917D02*
G01X2604859Y605917D01*
G01X2604859Y622935D02*
G01X2604859Y605917D01*
G01X2604859Y605917D02*
G01X2604859Y589153D01*
G01X2706459Y622935D02*
G01X2706459Y605917D01*
G01X2706459Y605917D02*
G01X2706459Y589153D01*
G01X2621877Y538353D02*
G01X2604859Y521335D01*
G01X2689441Y538353D02*
G01X2621877Y538353D01*
G01X2689441Y538353D02*
G01X2706459Y521335D01*
G01X2706459Y521335D02*
G01X2706459Y487553D01*
G01X2706459Y487553D02*
G01X2689441Y470535D01*
G01X2689441Y470535D02*
G01X2621877Y470535D01*
G01X2604859Y487553D02*
G01X2621877Y470535D01*
G01X2604859Y521335D02*
G01X2604859Y487553D01*
G01X2655659Y402717D02*
G01X2655659Y385953D01*
G01X2689441Y436753D02*
G01X2706459Y419735D01*
G01X2706459Y419735D02*
G01X2706459Y385953D01*
G01X2706459Y385953D02*
G01X2689441Y368935D01*
G01X2689441Y368935D02*
G01X2672677Y368935D01*
G01X2655659Y385953D02*
G01X2672677Y368935D01*
G01X2655659Y385953D02*
G01X2638641Y368935D01*
G01X2638641Y368935D02*
G01X2621877Y368935D01*
G01X2604859Y385953D02*
G01X2621877Y368935D01*
G01X2604859Y419735D02*
G01X2604859Y385953D01*
G01X2621877Y436753D02*
G01X2604859Y419735D01*
G01X2655659Y301117D02*
G01X2655659Y284353D01*
G01X2689441Y335153D02*
G01X2706459Y318135D01*
G01X2706459Y318135D02*
G01X2706459Y284353D01*
G01X2706459Y284353D02*
G01X2689441Y267335D01*
G01X2689441Y267335D02*
G01X2672677Y267335D01*
G01X2655659Y284353D02*
G01X2672677Y267335D01*
G01X2655659Y284353D02*
G01X2638641Y267335D01*
G01X2638641Y267335D02*
G01X2621877Y267335D01*
G01X2604859Y284353D02*
G01X2621877Y267335D01*
G01X2604859Y318135D02*
G01X2604859Y284353D01*
G01X2621877Y335153D02*
G01X2604859Y318135D01*
G01X2468969Y609727D02*
G01X2367369Y609727D01*
G01X2367369Y626745D02*
G01X2367369Y609727D01*
G01X2367369Y609727D02*
G01X2367369Y592963D01*
G01X2468969Y626745D02*
G01X2468969Y609727D01*
G01X2468969Y609727D02*
G01X2468969Y592963D01*
G01X2384387Y542163D02*
G01X2367369Y525145D01*
G01X2451951Y542163D02*
G01X2384387Y542163D01*
G01X2451951Y542163D02*
G01X2468969Y525145D01*
G01X2468969Y525145D02*
G01X2468969Y491363D01*
G01X2468969Y491363D02*
G01X2451951Y474345D01*
G01X2451951Y474345D02*
G01X2384387Y474345D01*
G01X2367369Y491363D02*
G01X2384387Y474345D01*
G01X2367369Y525145D02*
G01X2367369Y491363D01*
G01X2468969Y440563D02*
G01X2468969Y372745D01*
G01X2468969Y440563D02*
G01X2401151Y372745D01*
G01X2401151Y372745D02*
G01X2384387Y372745D01*
G01X2367369Y389763D02*
G01X2384387Y372745D01*
G01X2367369Y423545D02*
G01X2367369Y389763D01*
G01X2384387Y440563D02*
G01X2367369Y423545D01*
G01X2418169Y338963D02*
G01X2418169Y288163D01*
G01X2418169Y288163D02*
G01X2435187Y271145D01*
G01X2451951Y271145D02*
G01X2435187Y271145D01*
G01X2468969Y288163D02*
G01X2451951Y271145D01*
G01X2468969Y321945D02*
G01X2468969Y288163D01*
G01X2451951Y338963D02*
G01X2468969Y321945D01*
G01X2451951Y338963D02*
G01X2418169Y338963D01*
G01X2418169Y338963D02*
G01X2384387Y304927D01*
G01X2367369Y271145D02*
G01X2384387Y304927D01*
G01X2209146Y612267D02*
G01X2107546Y612267D01*
G01X2107546Y629285D02*
G01X2107546Y612267D01*
G01X2107546Y612267D02*
G01X2107546Y595503D01*
G01X2209146Y629285D02*
G01X2209146Y612267D01*
G01X2209146Y612267D02*
G01X2209146Y595503D01*
G01X2124564Y544703D02*
G01X2107546Y527685D01*
G01X2192128Y544703D02*
G01X2124564Y544703D01*
G01X2192128Y544703D02*
G01X2209146Y527685D01*
G01X2209146Y527685D02*
G01X2209146Y493903D01*
G01X2209146Y493903D02*
G01X2192128Y476885D01*
G01X2192128Y476885D02*
G01X2124564Y476885D01*
G01X2107546Y493903D02*
G01X2124564Y476885D01*
G01X2107546Y527685D02*
G01X2107546Y493903D01*
G01X2209146Y443103D02*
G01X2209146Y375285D01*
G01X2209146Y443103D02*
G01X2141328Y375285D01*
G01X2141328Y375285D02*
G01X2124564Y375285D01*
G01X2107546Y392303D02*
G01X2124564Y375285D01*
G01X2107546Y426085D02*
G01X2107546Y392303D01*
G01X2124564Y443103D02*
G01X2107546Y426085D01*
G01X2209146Y324485D02*
G01X2107546Y324485D01*
G01X2124564Y341503D02*
G01X2107546Y324485D01*
G01X2209146Y341503D02*
G01X2209146Y324485D01*
G01X2209146Y324485D02*
G01X2209146Y307467D01*
G01X1932343Y557276D02*
G01X1847761Y557276D01*
G01X1949361Y574294D02*
G01X1932343Y557276D01*
G01X1949361Y608076D02*
G01X1949361Y574294D01*
G01X1932343Y625094D02*
G01X1949361Y608076D01*
G01X1932343Y625094D02*
G01X1847761Y625094D01*
G01X1932343Y523494D02*
G01X1949361Y506476D01*
G01X1949361Y506476D02*
G01X1949361Y472694D01*
G01X1949361Y472694D02*
G01X1932343Y455676D01*
G01X1932343Y455676D02*
G01X1915579Y455676D01*
G01X1898561Y472694D02*
G01X1915579Y455676D01*
G01X1898561Y506476D02*
G01X1898561Y472694D01*
G01X1881543Y523494D02*
G01X1898561Y506476D01*
G01X1881543Y523494D02*
G01X1864779Y523494D01*
G01X1864779Y523494D02*
G01X1847761Y506476D01*
G01X1847761Y506476D02*
G01X1847761Y472694D01*
G01X1847761Y472694D02*
G01X1864779Y455676D01*
G01X1898561Y421894D02*
G01X1898561Y371094D01*
G01X1847761Y371094D02*
G01X1864779Y354076D01*
G01X1847761Y421894D02*
G01X1847761Y371094D01*
G01X1881543Y354076D02*
G01X1864779Y354076D01*
G01X1898561Y371094D02*
G01X1881543Y354076D01*
G01X1932343Y354076D02*
G01X1915579Y354076D01*
G01X1949361Y371094D02*
G01X1932343Y354076D01*
G01X1949361Y421894D02*
G01X1949361Y371094D01*
G01X1949361Y421894D02*
G01X1898561Y421894D01*
G01X1898561Y421894D02*
G01X1847761Y421894D01*
G01X1898561Y371094D02*
G01X1898561Y371094D01*
G01X1898561Y371094D02*
G01X1915579Y354076D01*
G01X1898561Y320294D02*
G01X1898561Y286258D01*
G01X1898561Y286258D02*
G01X1898561Y252476D01*
G01X1932343Y286258D02*
G01X1898561Y286258D01*
G01X1898561Y286258D02*
G01X1864779Y286258D01*
G01X1666284Y556636D02*
G01X1581702Y556636D01*
G01X1683302Y573654D02*
G01X1666284Y556636D01*
G01X1683302Y607436D02*
G01X1683302Y573654D01*
G01X1666284Y624454D02*
G01X1683302Y607436D01*
G01X1666284Y624454D02*
G01X1581702Y624454D01*
G01X1666284Y522854D02*
G01X1683302Y505836D01*
G01X1683302Y505836D02*
G01X1683302Y472054D01*
G01X1683302Y472054D02*
G01X1666284Y455036D01*
G01X1666284Y455036D02*
G01X1649520Y455036D01*
G01X1632502Y472054D02*
G01X1649520Y455036D01*
G01X1632502Y505836D02*
G01X1632502Y472054D01*
G01X1615484Y522854D02*
G01X1632502Y505836D01*
G01X1615484Y522854D02*
G01X1598720Y522854D01*
G01X1598720Y522854D02*
G01X1581702Y505836D01*
G01X1581702Y505836D02*
G01X1581702Y472054D01*
G01X1581702Y472054D02*
G01X1598720Y455036D01*
G01X1632502Y421254D02*
G01X1632502Y370454D01*
G01X1581702Y370454D02*
G01X1598720Y353436D01*
G01X1581702Y421254D02*
G01X1581702Y370454D01*
G01X1615484Y353436D02*
G01X1598720Y353436D01*
G01X1632502Y370454D02*
G01X1615484Y353436D01*
G01X1666284Y353436D02*
G01X1649520Y353436D01*
G01X1683302Y370454D02*
G01X1666284Y353436D01*
G01X1683302Y421254D02*
G01X1683302Y370454D01*
G01X1683302Y421254D02*
G01X1632502Y421254D01*
G01X1632502Y421254D02*
G01X1581702Y421254D01*
G01X1632502Y370454D02*
G01X1632502Y370454D01*
G01X1632502Y370454D02*
G01X1649520Y353436D01*
G01X1632502Y319654D02*
G01X1632502Y251836D01*
G01X1445812Y611246D02*
G01X1344212Y611246D01*
G01X1344212Y628264D02*
G01X1344212Y611246D01*
G01X1344212Y611246D02*
G01X1344212Y594482D01*
G01X1445812Y628264D02*
G01X1445812Y611246D01*
G01X1445812Y611246D02*
G01X1445812Y594482D01*
G01X1361230Y543682D02*
G01X1344212Y526664D01*
G01X1428794Y543682D02*
G01X1361230Y543682D01*
G01X1428794Y543682D02*
G01X1445812Y526664D01*
G01X1445812Y526664D02*
G01X1445812Y492882D01*
G01X1445812Y492882D02*
G01X1428794Y475864D01*
G01X1428794Y475864D02*
G01X1361230Y475864D01*
G01X1344212Y492882D02*
G01X1361230Y475864D01*
G01X1344212Y526664D02*
G01X1344212Y492882D01*
G01X1395012Y442082D02*
G01X1344212Y391282D01*
G01X1395012Y442082D02*
G01X1395012Y391282D01*
G01X1395012Y391282D02*
G01X1395012Y374264D01*
G01X1445812Y391282D02*
G01X1395012Y391282D01*
G01X1395012Y391282D02*
G01X1344212Y391282D01*
G01X1395012Y289682D02*
G01X1412030Y272664D01*
G01X1428794Y272664D02*
G01X1412030Y272664D01*
G01X1445812Y289682D02*
G01X1428794Y272664D01*
G01X1445812Y323464D02*
G01X1445812Y289682D01*
G01X1428794Y340482D02*
G01X1445812Y323464D01*
G01X1428794Y340482D02*
G01X1412030Y340482D01*
G01X1412030Y340482D02*
G01X1395012Y323464D01*
G01X1361230Y340482D02*
G01X1344212Y323464D01*
G01X1377994Y340482D02*
G01X1361230Y340482D01*
G01X1377994Y340482D02*
G01X1395012Y323464D01*
G01X1395012Y323464D02*
G01X1395012Y289682D01*
G01X1395012Y289682D02*
G01X1377994Y272664D01*
G01X1377994Y272664D02*
G01X1361230Y272664D01*
G01X1344212Y289682D02*
G01X1361230Y272664D01*
G01X1344212Y323464D02*
G01X1344212Y289682D01*
G01X1185988Y613786D02*
G01X1084388Y613786D01*
G01X1084388Y630804D02*
G01X1084388Y613786D01*
G01X1084388Y613786D02*
G01X1084388Y597022D01*
G01X1185988Y630804D02*
G01X1185988Y613786D01*
G01X1185988Y613786D02*
G01X1185988Y597022D01*
G01X1101406Y546222D02*
G01X1084388Y529204D01*
G01X1168970Y546222D02*
G01X1101406Y546222D01*
G01X1168970Y546222D02*
G01X1185988Y529204D01*
G01X1185988Y529204D02*
G01X1185988Y495422D01*
G01X1185988Y495422D02*
G01X1168970Y478404D01*
G01X1168970Y478404D02*
G01X1101406Y478404D01*
G01X1084388Y495422D02*
G01X1101406Y478404D01*
G01X1084388Y529204D02*
G01X1084388Y495422D01*
G01X1135188Y444622D02*
G01X1084388Y393822D01*
G01X1135188Y444622D02*
G01X1135188Y393822D01*
G01X1135188Y393822D02*
G01X1135188Y376804D01*
G01X1185988Y393822D02*
G01X1135188Y393822D01*
G01X1135188Y393822D02*
G01X1084388Y393822D01*
G01X1185988Y343022D02*
G01X1168970Y343022D01*
G01X1168970Y343022D02*
G01X1101406Y275204D01*
G01X1101406Y275204D02*
G01X1084388Y275204D01*
G01X1084388Y343022D02*
G01X1084388Y275204D01*
G01X824604Y575813D02*
G01X841622Y558795D01*
G01X824604Y609595D02*
G01X824604Y575813D01*
G01X841622Y626613D02*
G01X824604Y609595D01*
G01X909186Y626613D02*
G01X841622Y626613D01*
G01X909186Y626613D02*
G01X926204Y609595D01*
G01X926204Y609595D02*
G01X926204Y575813D01*
G01X926204Y575813D02*
G01X909186Y558795D01*
G01X909186Y558795D02*
G01X875404Y558795D01*
G01X875404Y592831D02*
G01X875404Y558795D01*
G01X926204Y457195D02*
G01X824604Y457195D01*
G01X824604Y525013D02*
G01X926204Y457195D01*
G01X926204Y525013D02*
G01X824604Y525013D01*
G01X824604Y423413D02*
G01X824604Y372613D01*
G01X926204Y423413D02*
G01X824604Y423413D01*
G01X926204Y423413D02*
G01X926204Y372613D01*
G01X824604Y372613D02*
G01X841622Y355595D01*
G01X909440Y355595D02*
G01X841622Y355595D01*
G01X926204Y372613D02*
G01X909440Y355595D01*
G01X4191000Y821182D02*
G01X4157218Y787400D01*
G01X4191000Y821182D02*
G01X4191000Y855218D01*
G01X4191000Y855218D02*
G01X4157218Y889000D01*
G01X4055618Y787400D02*
G01X4038600Y804418D01*
G01X4089400Y787400D02*
G01X4055618Y787400D01*
G01X4106418Y804418D02*
G01X4089400Y787400D01*
G01X4106418Y804418D02*
G01X4106418Y871982D01*
G01X4106418Y871982D02*
G01X4089400Y889000D01*
G01X4089400Y889000D02*
G01X4055618Y889000D01*
G01X4055618Y889000D02*
G01X4038600Y871982D01*
G01X4004818Y787400D02*
G01X3970782Y821182D01*
G01X3970782Y821182D02*
G01X3970782Y855218D01*
G01X4004818Y889000D02*
G01X3970782Y855218D01*
G01X3919982Y787400D02*
G01X3852164Y787400D01*
G01X3919982Y787400D02*
G01X3852164Y855218D01*
G01X3852164Y855218D02*
G01X3852164Y871982D01*
G01X3869182Y889000D02*
G01X3852164Y871982D01*
G01X3902964Y889000D02*
G01X3869182Y889000D01*
G01X3919982Y871982D02*
G01X3902964Y889000D01*
G01X3818382Y871982D02*
G01X3801364Y889000D01*
G01X3818382Y804418D02*
G01X3818382Y871982D01*
G01X3818382Y804418D02*
G01X3801364Y787400D01*
G01X3801364Y787400D02*
G01X3767582Y787400D01*
G01X3767582Y787400D02*
G01X3750564Y804418D01*
G01X3750564Y804418D02*
G01X3750564Y871982D01*
G01X3767582Y889000D02*
G01X3750564Y871982D01*
G01X3801364Y889000D02*
G01X3767582Y889000D01*
G01X3716782Y787400D02*
G01X3648964Y787400D01*
G01X3716782Y787400D02*
G01X3648964Y855218D01*
G01X3648964Y855218D02*
G01X3648964Y871982D01*
G01X3665982Y889000D02*
G01X3648964Y871982D01*
G01X3699764Y889000D02*
G01X3665982Y889000D01*
G01X3716782Y871982D02*
G01X3699764Y889000D01*
G01X3615182Y838200D02*
G01X3564382Y838200D01*
G01X3564382Y838200D02*
G01X3547364Y821182D01*
G01X3547364Y804418D02*
G01X3547364Y821182D01*
G01X3564382Y787400D02*
G01X3547364Y804418D01*
G01X3598164Y787400D02*
G01X3564382Y787400D01*
G01X3615182Y804418D02*
G01X3598164Y787400D01*
G01X3615182Y804418D02*
G01X3615182Y838200D01*
G01X3615182Y838200D02*
G01X3581146Y871982D01*
G01X3547364Y889000D02*
G01X3581146Y871982D01*
G01X3411982Y838200D02*
G01X3344164Y838200D01*
G01X3377946Y889000D02*
G01X3344164Y855218D01*
G01X3411982Y855218D02*
G01X3377946Y889000D01*
G01X3411982Y787400D02*
G01X3411982Y838200D01*
G01X3411982Y838200D02*
G01X3411982Y855218D01*
G01X3344164Y787400D02*
G01X3344164Y838200D01*
G01X3344164Y838200D02*
G01X3344164Y855218D01*
G01X3293364Y838200D02*
G01X3242564Y787400D01*
G01X3310382Y787400D02*
G01X3310382Y821182D01*
G01X3310382Y821182D02*
G01X3310382Y889000D01*
G01X3310382Y821182D02*
G01X3293364Y838200D01*
G01X3293364Y838200D02*
G01X3242564Y889000D01*
G04 Text End*

M02*

