G04 Layer: TopLayer*
G04 EasyEDA Pro v3.2.149, 2026-10-06 17:45:09*
G04 Gerber Generator version 0.3*
G04 Scale: 100 percent, Rotated: No, Reflected: No*
G04 Dimensions in millimeters*
G04 Leading zeros omitted, absolute positions, 4 integers and 5 decimals*
G04 Generated by one-click*
G04 Object Configs: Pad,Via,Track,Text,Image,Dimension,BoardOutline,BoardCutout,CopperFilled,SolidRegion,FPCStiffener,Line,PlaneZone,ComponentProperty,ComponentSilkscreen,TearDrop*
G04 Layer Configs: 1,15,16,2,3,4,5,6,7,8,9,10,11,13,14,56*
G04 Copper Areas: 9*
%FSLAX45Y45*%
%MOMM*%
%ADD10C,0.2032*%
%ADD11R,0.5X0.54*%
%ADD12R,0.54X0.5*%
%ADD13R,0.6X0.3*%
%ADD14R,2.0X2.0*%
%ADD15C,2.0001*%
%ADD16C,2.0*%
%ADD17R,1.7X1.7*%
%ADD18C,1.7*%
%ADD19R,0.54X0.63647*%
%ADD20R,1.0X0.65001*%
%ADD21R,0.54X0.56566*%
%ADD22R,0.56566X0.54*%
%ADD23R,1.9X1.3*%
%ADD24R,0.4X0.8*%
%ADD25R,0.8X0.4*%
%ADD26R,0.8X0.8*%
%ADD27R,1.2X1.2*%
%ADD28R,0.3X1.0*%
%ADD29R,1.0X0.3*%
%ADD30R,2.15001X2.15001*%
%ADD31R,2.46499X1.05001*%
%ADD32R,2.46499X3.54*%
%ADD33R,1.15001X0.6*%
%ADD34R,1.15001X0.3*%
%ADD35O,2.2X1.0*%
%ADD36O,1.8X1.0*%
%ADD37R,1.6X1.6*%
%ADD38C,1.6*%
%ADD39C,0.61*%
%ADD40C,0.1524*%
%ADD41C,0.381*%
%ADD42C,0.508*%
%ADD43C,0.254*%
%ADD44C,0.3048*%
%ADD45C,1.016*%
G75*


G04 Copper Start*
G36*
G01X6314131Y2202196D02*
G01X6322642Y2211734D01*
G01X6329165Y2222727D01*
G01X6333457Y2234768D01*
G01X6344484Y2245796D01*
G01X6346687Y2249092D01*
G01X6347460Y2252980D01*
G01X6347460Y2277844D01*
G01X6487501Y2277844D01*
G01X6487501Y2243323D01*
G01X6469816Y2225639D01*
G01X6467613Y2222342D01*
G01X6466840Y2218454D01*
G01X6466840Y2209331D01*
G01X6462130Y2202316D01*
G01X6459195Y2194391D01*
G01X6458198Y2186000D01*
G01X6458198Y2132000D01*
G01X6458774Y2125600D01*
G01X6460485Y2119406D01*
G01X6315715Y2119406D01*
G01X6317426Y2125600D01*
G01X6318002Y2132000D01*
G01X6318002Y2186000D01*
G01X6317021Y2194326D01*
G01X6314131Y2202196D01*
G37*
G36*
G01X2042160Y2213769D02*
G01X2214463Y2213769D01*
G01X2214385Y2211400D01*
G01X2214385Y2157400D01*
G01X2215807Y2147408D01*
G01X2219960Y2138210D01*
G01X2219960Y2125372D01*
G01X2217300Y2117787D01*
G01X2216398Y2109800D01*
G01X2216398Y2055800D01*
G01X2216907Y2049780D01*
G01X2176236Y2049780D01*
G01X2159711Y2066305D01*
G01X2149664Y2074014D01*
G01X2137963Y2078861D01*
G01X2125407Y2080514D01*
G01X2121636Y2080514D01*
G01X2112166Y2089984D01*
G01X2108870Y2092187D01*
G01X2104982Y2092960D01*
G01X2042160Y2092960D01*
G01X2042160Y2213769D01*
G37*
G36*
G01X1662843Y1784507D02*
G01X1658530Y1780194D01*
G01X1653976Y1777564D01*
G01X1641712Y1765300D01*
G01X1597363Y1765300D01*
G01X1593475Y1764527D01*
G01X1590179Y1762324D01*
G01X1533238Y1705384D01*
G01X1418339Y1705384D01*
G01X1413259Y1704023D01*
G01X1409540Y1700304D01*
G01X1408179Y1695224D01*
G01X1408179Y1594101D01*
G01X1408952Y1590213D01*
G01X1411154Y1586917D01*
G01X1440347Y1557724D01*
G01X1442219Y1553454D01*
G01X1445802Y1550470D01*
G01X1450340Y1549400D01*
G01X1534426Y1549400D01*
G01X1534426Y1505108D01*
G01X1442981Y1501226D01*
G01X1372155Y1572052D01*
G01X1369192Y1800960D01*
G01X1486000Y1800960D01*
G01X1489888Y1801733D01*
G01X1493184Y1803936D01*
G01X1548528Y1859280D01*
G01X1557020Y1859280D01*
G01X1557020Y1838960D01*
G01X1558381Y1833880D01*
G01X1562100Y1830161D01*
G01X1567180Y1828800D01*
G01X1595120Y1828800D01*
G01X1595120Y1821180D01*
G01X1595893Y1817292D01*
G01X1598096Y1813996D01*
G01X1603176Y1808916D01*
G01X1607730Y1806286D01*
G01X1612990Y1806286D01*
G01X1617544Y1808916D01*
G01X1627268Y1818640D01*
G01X1662843Y1818640D01*
G01X1662843Y1784507D01*
G37*
G36*
G01X1259840Y520700D02*
G01X1273803Y520700D01*
G01X1283346Y516157D01*
G01X1293800Y514598D01*
G01X1313813Y514598D01*
G01X1327787Y514598D01*
G01X1347800Y514598D01*
G01X1358254Y516157D01*
G01X1367797Y520700D01*
G01X1375403Y520700D01*
G01X1384946Y516157D01*
G01X1395400Y514598D01*
G01X1415413Y514598D01*
G01X1429387Y514598D01*
G01X1449400Y514598D01*
G01X1459854Y516157D01*
G01X1469397Y520700D01*
G01X1551940Y520700D01*
G01X1557020Y522061D01*
G01X1560739Y525780D01*
G01X1562100Y530860D01*
G01X1562100Y570782D01*
G01X1819729Y570782D01*
G01X1819729Y382554D01*
G01X1790235Y353060D01*
G01X1259840Y353060D01*
G01X1259840Y520700D01*
G37*
G36*
G01X1254760Y922020D02*
G01X1254760Y1002596D01*
G01X1258762Y1015376D01*
G01X1260114Y1028700D01*
G01X1258762Y1042024D01*
G01X1254760Y1054804D01*
G01X1254760Y1145540D01*
G01X1818640Y1145540D01*
G01X1818640Y914400D01*
G01X1563279Y914400D01*
G01X1561664Y916504D01*
G01X1559124Y919044D01*
G01X1555828Y921247D01*
G01X1551940Y922020D01*
G01X1475399Y922020D01*
G01X1467862Y928077D01*
G01X1458980Y931897D01*
G01X1449400Y933202D01*
G01X1429387Y933202D01*
G01X1415413Y933202D01*
G01X1395400Y933202D01*
G01X1385820Y931897D01*
G01X1376938Y928077D01*
G01X1369401Y922020D01*
G01X1254760Y922020D01*
G37*
G36*
G01X1026160Y1567180D02*
G01X1104037Y1567180D01*
G01X1102019Y1560492D01*
G01X1101338Y1553540D01*
G01X1101338Y1499540D01*
G01X1102335Y1491149D01*
G01X1105270Y1483224D01*
G01X1109980Y1476209D01*
G01X1109980Y1445260D01*
G01X1055768Y1445260D01*
G01X1051560Y1449468D01*
G01X1051560Y1466113D01*
G01X1050787Y1470001D01*
G01X1048584Y1473298D01*
G01X965721Y1556161D01*
G01X965721Y1556499D01*
G01X964947Y1560387D01*
G01X962745Y1563684D01*
G01X957144Y1569284D01*
G01X953848Y1571487D01*
G01X949960Y1572260D01*
G01X858520Y1572260D01*
G01X854632Y1571487D01*
G01X851336Y1569284D01*
G01X800536Y1518484D01*
G01X798333Y1515188D01*
G01X797560Y1511300D01*
G01X797560Y1127760D01*
G01X538480Y1127760D01*
G01X538480Y1422400D01*
G01X629920Y1422400D01*
G01X633808Y1423173D01*
G01X637104Y1425376D01*
G01X824628Y1612900D01*
G01X976232Y1612900D01*
G01X1018976Y1570156D01*
G01X1022272Y1567953D01*
G01X1026160Y1567180D01*
G37*
G36*
G01X805852Y828525D02*
G01X805852Y890122D01*
G01X811730Y898059D01*
G01X816365Y906780D01*
G01X817880Y906780D01*
G01X821768Y907553D01*
G01X825064Y909756D01*
G01X836794Y921485D01*
G01X858655Y921485D01*
G01X868545Y921485D01*
G01X893600Y921485D01*
G01X901745Y922424D01*
G01X909464Y925190D01*
G01X916351Y929640D01*
G01X916940Y929640D01*
G01X920828Y930413D01*
G01X924124Y932616D01*
G01X928768Y937260D01*
G01X929640Y937260D01*
G01X934720Y938621D01*
G01X938439Y942340D01*
G01X939800Y947420D01*
G01X939800Y963532D01*
G01X997784Y1021516D01*
G01X999987Y1024812D01*
G01X1000760Y1028700D01*
G01X1000760Y1066800D01*
G01X1083326Y1066800D01*
G01X1083326Y1055051D01*
G01X1077932Y1047742D01*
G01X1074550Y1039311D01*
G01X1073398Y1030300D01*
G01X1073398Y1010287D01*
G01X1073398Y996313D01*
G01X1073398Y976300D01*
G01X1074436Y967740D01*
G01X1005840Y967740D01*
G01X1001952Y966967D01*
G01X998656Y964764D01*
G01X965636Y931744D01*
G01X963433Y928448D01*
G01X962660Y924560D01*
G01X962660Y905908D01*
G01X887484Y830732D01*
G01X820318Y830732D01*
G01X813002Y830177D01*
G01X805852Y828525D01*
G37*
G36*
G01X5742940Y947420D02*
G01X5742940Y1587500D01*
G01X6408420Y1587500D01*
G01X6408420Y947420D01*
G01X5742940Y947420D01*
G37*
G36*
G01X1262380Y566674D02*
G01X1262380Y876046D01*
G01X1532395Y876046D01*
G01X1542799Y870385D01*
G01X1554480Y868426D01*
G01X1828800Y868426D01*
G01X1839138Y869951D01*
G01X1848597Y874395D01*
G01X1856369Y881380D01*
G01X1991360Y881380D01*
G01X1995248Y882153D01*
G01X1998544Y884356D01*
G01X2264808Y1150620D01*
G01X2298700Y1150620D01*
G01X2302588Y1151393D01*
G01X2305884Y1153596D01*
G01X2421822Y1269533D01*
G01X2434129Y1274978D01*
G01X2444740Y1283255D01*
G01X2488645Y1327160D01*
G01X2496922Y1337771D01*
G01X2502367Y1350078D01*
G01X2508648Y1356360D01*
G01X2989580Y1356360D01*
G01X2989580Y403860D01*
G01X2151220Y403860D01*
G01X2151220Y515689D01*
G01X2150446Y519577D01*
G01X2148244Y522873D01*
G01X2015008Y656108D01*
G01X2011387Y658439D01*
G01X2007125Y659060D01*
G01X2002989Y657860D01*
G01X1496060Y657860D01*
G01X1490980Y656499D01*
G01X1487261Y652780D01*
G01X1485900Y647700D01*
G01X1485900Y566674D01*
G01X1262380Y566674D01*
G37*
G54D10*
G01X6314131Y2202196D02*
G03X6333457Y2234768I-44994J48714D01*
G01X6344484Y2245796D01*
G03X6347460Y2252980I-7184J7184D01*
G01X6347460Y2277844D01*
G01X6487501Y2277844D01*
G01X6487501Y2243323D01*
G01X6469816Y2225639D01*
G03X6466840Y2218454I7184J-7184D01*
G01X6466840Y2209331D01*
G03X6458198Y2186000I27172J-23331D01*
G01X6458198Y2132000D01*
G03X6460485Y2119406I35814J0D01*
G01X6315715Y2119406D01*
G03X6318002Y2132000I-33527J12593D01*
G01X6318002Y2186000D01*
G03X6314131Y2202196I-35814J0D01*
G01X2042160Y2213769D02*
G01X2214463Y2213769D01*
G01X2214385Y2211400D01*
G01X2214385Y2157400D01*
G03X2219960Y2138210I35814J0D01*
G01X2219960Y2125372D01*
G03X2216398Y2109800I32252J-15572D01*
G01X2216398Y2055800D01*
G03X2216907Y2049780I35814J0D01*
G01X2176236Y2049780D01*
G01X2159711Y2066305D01*
G03X2125407Y2080514I-34305J-34305D01*
G01X2121636Y2080514D01*
G01X2112166Y2089984D01*
G03X2104982Y2092960I-7184J-7184D01*
G01X2042160Y2092960D01*
G01X2042160Y2213769D01*
G01X1662843Y1784507D02*
G01X1658530Y1780194D01*
G03X1653976Y1777564I2630J-9814D01*
G01X1641712Y1765300D01*
G01X1597363Y1765300D01*
G03X1590179Y1762324I0J-10160D01*
G01X1533238Y1705384D01*
G01X1418339Y1705384D01*
G03X1408179Y1695224I0J-10160D01*
G01X1408179Y1594101D01*
G03X1411154Y1586917I10160J0D01*
G01X1440347Y1557724D01*
G03X1450340Y1549400I9993J1836D01*
G01X1534426Y1549400D01*
G01X1534426Y1505108D01*
G01X1442981Y1501226D01*
G01X1372155Y1572052D01*
G01X1369192Y1800960D01*
G01X1486000Y1800960D01*
G03X1493184Y1803936I0J10160D01*
G01X1548528Y1859280D01*
G01X1557020Y1859280D01*
G01X1557020Y1838960D01*
G03X1567180Y1828800I10160J0D01*
G01X1595120Y1828800D01*
G01X1595120Y1821180D01*
G03X1598096Y1813996I10160J0D01*
G01X1603176Y1808916D01*
G03X1617544Y1808916I7184J7184D01*
G01X1627268Y1818640D01*
G01X1662843Y1818640D01*
G01X1662843Y1784507D01*
G01X1259840Y520700D02*
G01X1273803Y520700D01*
G03X1293800Y514598I19997J29712D01*
G01X1313813Y514598D01*
G03X1327787Y514598I6987J60814D01*
G01X1347800Y514598D01*
G03X1367797Y520700I0J35814D01*
G01X1375403Y520700D01*
G03X1395400Y514598I19997J29712D01*
G01X1415413Y514598D01*
G03X1429387Y514598I6987J60814D01*
G01X1449400Y514598D01*
G03X1469397Y520700I0J35814D01*
G01X1551940Y520700D01*
G03X1562100Y530860I0J10160D01*
G01X1562100Y570782D01*
G01X1819729Y570782D01*
G01X1819729Y382554D01*
G01X1790235Y353060D01*
G01X1259840Y353060D01*
G01X1259840Y520700D01*
G01X1254760Y922020D02*
G01X1254760Y1002596D01*
G03X1254760Y1054804I-60960J26104D01*
G01X1254760Y1145540D01*
G01X1818640Y1145540D01*
G01X1818640Y914400D01*
G01X1563279Y914400D01*
G03X1561664Y916504I-8799J-5080D01*
G01X1559124Y919044D01*
G03X1551940Y922020I-7184J-7184D01*
G01X1475399Y922020D01*
G03X1449400Y933202I-25999J-24632D01*
G01X1429387Y933202D01*
G03X1415413Y933202I-6987J-60814D01*
G01X1395400Y933202D01*
G03X1369401Y922020I0J-35814D01*
G01X1254760Y922020D01*
G01X1026160Y1567180D02*
G01X1104037Y1567180D01*
G03X1101338Y1553540I33115J-13640D01*
G01X1101338Y1499540D01*
G03X1109980Y1476209I35814J0D01*
G01X1109980Y1445260D01*
G01X1055768Y1445260D01*
G01X1051560Y1449468D01*
G01X1051560Y1466113D01*
G03X1048584Y1473298I-10160J0D01*
G01X965721Y1556161D01*
G01X965721Y1556499D01*
G03X962745Y1563684I-10160J0D01*
G01X957144Y1569284D01*
G03X949960Y1572260I-7184J-7184D01*
G01X858520Y1572260D01*
G03X851336Y1569284I0J-10160D01*
G01X800536Y1518484D01*
G03X797560Y1511300I7184J-7184D01*
G01X797560Y1127760D01*
G01X538480Y1127760D01*
G01X538480Y1422400D01*
G01X629920Y1422400D01*
G03X637104Y1425376I0J10160D01*
G01X824628Y1612900D01*
G01X976232Y1612900D01*
G01X1018976Y1570156D01*
G03X1026160Y1567180I7184J7184D01*
G01X805852Y828525D02*
G01X805852Y890122D01*
G03X816365Y906780I-50202J43328D01*
G01X817880Y906780D01*
G03X825064Y909756I0J10160D01*
G01X836794Y921485D01*
G01X858655Y921485D01*
G03X868545Y921485I4945J50814D01*
G01X893600Y921485D01*
G03X916351Y929640I0J35814D01*
G01X916940Y929640D01*
G03X924124Y932616I0J10160D01*
G01X928768Y937260D01*
G01X929640Y937260D01*
G03X939800Y947420I0J10160D01*
G01X939800Y963532D01*
G01X997784Y1021516D01*
G03X1000760Y1028700I-7184J7184D01*
G01X1000760Y1066800D01*
G01X1083326Y1066800D01*
G01X1083326Y1055051D01*
G03X1073398Y1030300I25885J-24750D01*
G01X1073398Y1010287D01*
G03X1073398Y996313I60814J-6987D01*
G01X1073398Y976300D01*
G03X1074436Y967740I35814J0D01*
G01X1005840Y967740D01*
G03X998656Y964764I0J-10160D01*
G01X965636Y931744D01*
G03X962660Y924560I7184J-7184D01*
G01X962660Y905908D01*
G01X887484Y830732D01*
G01X820318Y830732D01*
G03X805852Y828525I0J-48514D01*
G01X5742940Y947420D02*
G01X5742940Y1587500D01*
G01X6408420Y1587500D01*
G01X6408420Y947420D01*
G01X5742940Y947420D01*
G01X1262380Y566674D02*
G01X1262380Y876046D01*
G01X1532395Y876046D01*
G03X1554480Y868426I22085J28194D01*
G01X1828800Y868426D01*
G03X1856369Y881380I0J35814D01*
G01X1991360Y881380D01*
G03X1998544Y884356I0J10160D01*
G01X2264808Y1150620D01*
G01X2298700Y1150620D01*
G03X2305884Y1153596I0J10160D01*
G01X2421822Y1269533D01*
G03X2444740Y1283255I-15876J52517D01*
G01X2488645Y1327160D01*
G03X2502367Y1350078I-38795J38795D01*
G01X2508648Y1356360D01*
G01X2989580Y1356360D01*
G01X2989580Y403860D01*
G01X2151220Y403860D01*
G01X2151220Y515689D01*
G03X2148244Y522873I-10160J0D01*
G01X2015008Y656108D01*
G03X2002989Y657860I-7184J-7184D01*
G01X1496060Y657860D01*
G03X1485900Y647700I0J-10160D01*
G01X1485900Y566674D01*
G01X1262380Y566674D01*
G04 Copper End*

G04 Pad Start*
G54D11*
G01X1388212Y1778000D03*
G01X1304188Y1778000D03*
G54D12*
G01X1612900Y1616812D03*
G01X1612900Y1532788D03*
G54D11*
G01X2193188Y2082800D03*
G01X2277212Y2082800D03*
G01X1078128Y1526540D03*
G01X1162152Y1526540D03*
G01X1786788Y1473200D03*
G01X1870812Y1473200D03*
G01X1786788Y1574800D03*
G01X1870812Y1574800D03*
G01X1050188Y1003300D03*
G01X1134212Y1003300D03*
G54D12*
G01X1422400Y956412D03*
G01X1422400Y872388D03*
G01X1422400Y575412D03*
G01X1422400Y491388D03*
G01X1320800Y575412D03*
G01X1320800Y491388D03*
G54D11*
G01X6257188Y2159000D03*
G01X6341212Y2159000D03*
G01X6434988Y2159000D03*
G01X6519012Y2159000D03*
G54D12*
G01X4229100Y402488D03*
G01X4229100Y486512D03*
G01X4229100Y1705712D03*
G01X4229100Y1621688D03*
G54D13*
G01X901700Y1519441D03*
G01X901700Y1584439D03*
G01X876300Y2102599D03*
G01X876300Y2037601D03*
G01X876300Y1872501D03*
G01X876300Y1937499D03*
G01X863600Y972299D03*
G01X863600Y907301D03*
G01X863600Y695439D03*
G01X863600Y630441D03*
G01X863600Y457721D03*
G01X863600Y522719D03*
G54D14*
G01X3365452Y1270035D03*
G54D16*
G01X3619452Y1270035D03*
G54D17*
G01X695960Y1275080D03*
G54D18*
G01X949960Y1275080D03*
G01X1203960Y1275080D03*
G54D12*
G01X4445000Y588594D03*
G01X4445000Y503606D03*
G54D19*
G01X4457700Y2070125D03*
G01X4457700Y1968475D03*
G54D20*
G01X2732100Y1733296D03*
G01X2732100Y1543304D03*
G01X2932100Y1638300D03*
G01X2732100Y2152396D03*
G01X2732100Y1962404D03*
G01X2932100Y2057400D03*
G54D21*
G01X1054100Y1683918D03*
G01X1054100Y1770482D03*
G01X1098138Y2141118D03*
G01X1098138Y2227682D03*
G54D22*
G01X1389482Y1879600D03*
G01X1302918Y1879600D03*
G01X1389482Y1981200D03*
G01X1302918Y1981200D03*
G54D21*
G01X1511300Y1618082D03*
G01X1511300Y1531518D03*
G54D22*
G01X2191918Y2184400D03*
G01X2278482Y2184400D03*
G01X1785518Y1320800D03*
G01X1872082Y1320800D03*
G01X1786268Y1320800D03*
G01X1699705Y1320800D03*
G01X2278482Y1422400D03*
G01X2191918Y1422400D03*
G01X2191918Y1524000D03*
G01X2278482Y1524000D03*
G01X2278482Y1625600D03*
G01X2191918Y1625600D03*
G54D21*
G01X4597400Y589382D03*
G01X4597400Y502818D03*
G01X4584700Y1963318D03*
G01X4584700Y2049882D03*
G01X1051560Y327558D03*
G01X1051560Y414122D03*
G01X1054100Y782218D03*
G01X1054100Y868782D03*
G01X2552700Y1656182D03*
G01X2552700Y1569618D03*
G01X2552700Y2064918D03*
G01X2552700Y2151482D03*
G54D22*
G01X5354218Y368300D03*
G01X5440782Y368300D03*
G01X5125618Y368300D03*
G01X5212182Y368300D03*
G01X5123282Y2108200D03*
G01X5036718Y2108200D03*
G01X5123282Y2006600D03*
G01X5036718Y2006600D03*
G01X5036922Y1117600D03*
G01X4950358Y1117600D03*
G01X5036922Y1333500D03*
G01X4950358Y1333500D03*
G01X5036718Y1117600D03*
G01X5123282Y1117600D03*
G01X5036718Y1333500D03*
G01X5123282Y1333500D03*
G54D21*
G01X4229100Y655218D03*
G01X4229100Y741782D03*
G54D23*
G01X3975989Y410007D03*
G01X3136011Y410007D03*
G01X3975989Y859993D03*
G01X3136011Y859993D03*
G01X3975900Y1679917D03*
G01X3135922Y1679917D03*
G01X3975900Y2129903D03*
G01X3135922Y2129903D03*
G54D24*
G01X6678397Y1967509D03*
G01X6593408Y1967509D03*
G01X6508394Y1967509D03*
G01X6423406Y1967509D03*
G01X6338392Y1967509D03*
G01X6253404Y1967509D03*
G01X6168390Y1967509D03*
G01X6083402Y1967509D03*
G01X5998413Y1967509D03*
G01X5913399Y1967509D03*
G01X5828411Y1967509D03*
G01X5743397Y1967509D03*
G01X5658409Y1967509D03*
G01X5573395Y1967509D03*
G01X5488407Y1967509D03*
G54D25*
G01X5380888Y1864995D03*
G01X5380888Y1780007D03*
G01X5380888Y1694993D03*
G01X5380888Y1610004D03*
G01X5380888Y1524991D03*
G01X5380888Y1440002D03*
G01X5380888Y1354988D03*
G01X5380888Y1270000D03*
G01X5380888Y1185012D03*
G01X5380888Y1099998D03*
G01X5380888Y1015009D03*
G01X5380888Y929996D03*
G01X5380888Y845007D03*
G01X5380888Y759993D03*
G01X5380888Y675005D03*
G54D24*
G01X5488407Y572491D03*
G01X5573395Y572491D03*
G01X5658409Y572491D03*
G01X5743397Y572491D03*
G01X5828411Y572491D03*
G01X5913399Y572491D03*
G01X5998413Y572491D03*
G01X6083402Y572491D03*
G01X6168390Y572491D03*
G01X6253404Y572491D03*
G01X6338392Y572491D03*
G01X6423406Y572491D03*
G01X6508394Y572491D03*
G01X6593408Y572491D03*
G01X6678397Y572491D03*
G54D25*
G01X6785889Y675005D03*
G01X6785889Y759993D03*
G01X6785889Y845007D03*
G01X6785889Y929996D03*
G01X6785889Y1015009D03*
G01X6785889Y1099998D03*
G01X6785889Y1185012D03*
G01X6785889Y1270000D03*
G01X6785889Y1354988D03*
G01X6785889Y1440002D03*
G01X6785889Y1524991D03*
G01X6785889Y1610004D03*
G01X6785889Y1694993D03*
G01X6785889Y1780007D03*
G01X6785889Y1864995D03*
G54D26*
G01X6783400Y1969999D03*
G01X6783400Y570001D03*
G01X5383403Y1969999D03*
G01X5383403Y570001D03*
G54D27*
G01X6248400Y1434998D03*
G01X6248400Y1270000D03*
G01X6248400Y1105002D03*
G01X6083402Y1434998D03*
G01X6083402Y1270000D03*
G01X6083402Y1105002D03*
G01X5918403Y1434998D03*
G01X5918403Y1270000D03*
G01X5918403Y1105002D03*
G54D28*
G01X1903496Y2140896D03*
G01X1853484Y2140896D03*
G01X1803497Y2140896D03*
G01X1753484Y2140896D03*
G01X1703497Y2140896D03*
G54D29*
G01X1618508Y2055908D03*
G01X1618508Y2005895D03*
G01X1618508Y1955908D03*
G01X1618508Y1905896D03*
G01X1618508Y1855908D03*
G54D28*
G01X1703497Y1770920D03*
G01X1753484Y1770920D03*
G01X1803497Y1770920D03*
G01X1853484Y1770920D03*
G01X1903496Y1770920D03*
G54D29*
G01X1988485Y1855908D03*
G01X1988485Y1905896D03*
G01X1988485Y1955908D03*
G01X1988485Y2005895D03*
G01X1988485Y2055908D03*
G54D30*
G01X1803497Y1955908D03*
G54D31*
G01X1695450Y966597D03*
G01X1695450Y736600D03*
G01X1695450Y506603D03*
G54D32*
G01X2266950Y736600D03*
G54D33*
G01X629031Y2301011D03*
G01X629031Y2221001D03*
G01X629031Y1661008D03*
G01X629031Y1740992D03*
G54D34*
G01X629031Y1805991D03*
G01X629031Y2156003D03*
G01X629031Y1905991D03*
G01X629031Y1956003D03*
G01X629031Y2005990D03*
G01X629031Y2056003D03*
G01X629031Y2105990D03*
G01X629031Y1856003D03*
G54D35*
G01X171552Y1548994D03*
G01X171552Y2413000D03*
G54D36*
G01X571525Y1548994D03*
G01X571500Y2413000D03*
G54D33*
G01X629006Y879018D03*
G01X629006Y799008D03*
G01X629006Y239014D03*
G01X629006Y318999D03*
G54D34*
G01X629006Y383997D03*
G01X629006Y734009D03*
G01X629006Y483997D03*
G01X629006Y534010D03*
G01X629006Y583997D03*
G01X629006Y634009D03*
G01X629006Y683997D03*
G01X629006Y434010D03*
G54D35*
G01X171526Y127000D03*
G01X171526Y991006D03*
G54D36*
G01X571500Y127000D03*
G01X571475Y991006D03*
G54D11*
G01X6734912Y368300D03*
G01X6650888Y368300D03*
G01X6625488Y2159000D03*
G01X6709512Y2159000D03*
G01X1388212Y2197100D03*
G01X1304188Y2197100D03*
G54D37*
G01X6731000Y2413000D03*
G54D38*
G01X6477000Y2413000D03*
G01X6223000Y2413000D03*
G01X5969000Y2413000D03*
G01X5715000Y2413000D03*
G01X5461000Y2413000D03*
G01X5207000Y2413000D03*
G01X4953000Y2413000D03*
G01X4699000Y2413000D03*
G01X4445000Y2413000D03*
G01X4191000Y2413000D03*
G01X3937000Y2413000D03*
G01X3683000Y2413000D03*
G01X3429000Y2413000D03*
G01X3175000Y2413000D03*
G01X2921000Y2413000D03*
G01X2667000Y2413000D03*
G01X2413000Y2413000D03*
G01X2159000Y2413000D03*
G01X1905000Y2413000D03*
G01X1651000Y2413000D03*
G01X1397000Y2413000D03*
G01X1143000Y2413000D03*
G01X889000Y2413000D03*
G54D37*
G01X6731000Y127000D03*
G54D38*
G01X6477000Y127000D03*
G01X6223000Y127000D03*
G01X5969000Y127000D03*
G01X5715000Y127000D03*
G01X5461000Y127000D03*
G01X5207000Y127000D03*
G01X4953000Y127000D03*
G01X4699000Y127000D03*
G01X4445000Y127000D03*
G01X4191000Y127000D03*
G01X3937000Y127000D03*
G01X3683000Y127000D03*
G01X3429000Y127000D03*
G01X3175000Y127000D03*
G01X2921000Y127000D03*
G01X2667000Y127000D03*
G01X2413000Y127000D03*
G01X2159000Y127000D03*
G01X1905000Y127000D03*
G01X1651000Y127000D03*
G01X1397000Y127000D03*
G01X1143000Y127000D03*
G01X889000Y127000D03*
G04 Pad End*

G04 Via Start*
G54D39*
G01X6338392Y1866900D03*
G01X6167120Y1867395D03*
G01X6083402Y1765300D03*
G01X5914441Y1774448D03*
G01X5998159Y1866383D03*
G01X5741721Y1776988D03*
G01X5825439Y1863843D03*
G01X5571541Y1761748D03*
G01X5655259Y1863843D03*
G01X5655259Y778252D03*
G01X5571541Y714257D03*
G01X5827979Y778252D03*
G01X5744261Y676157D03*
G01X5998159Y778252D03*
G01X5914441Y676157D03*
G01X6165799Y780792D03*
G01X6082081Y678697D03*
G01X6338519Y783332D03*
G01X6254801Y681237D03*
G01X5486400Y778005D03*
G01X5486400Y1863595D03*
G01X6423660Y676405D03*
G01X6507480Y676405D03*
G01X6253480Y1764535D03*
G01X6676895Y673100D03*
G01X6676895Y762000D03*
G01X6674355Y845820D03*
G01X6676895Y927100D03*
G01X6676895Y1016000D03*
G01X6676895Y1102360D03*
G01X6676895Y1183640D03*
G01X6678165Y1268730D03*
G01X6678165Y1357630D03*
G01X6675625Y1441450D03*
G01X6678165Y1522730D03*
G01X6678165Y1611630D03*
G01X6678165Y1697990D03*
G01X6678165Y1779270D03*
G01X6676895Y1866900D03*
G01X5816600Y1435100D03*
G01X5811479Y1275080D03*
G01X5806399Y1104900D03*
G01X6083300Y980399D03*
G01X6360201Y1104900D03*
G01X6360201Y1270000D03*
G01X6360201Y1435100D03*
G01X6083300Y1546901D03*
G01X6002020Y1351280D03*
G01X6167120Y1353820D03*
G01X6167120Y1191260D03*
G01X6002020Y1188720D03*
G01X6593840Y1871215D03*
G01X6549139Y2082800D03*
G01X6451600Y2247900D03*
G01X6373896Y2249404D03*
G01X6269137Y2250910D03*
G01X6769100Y469900D03*
G01X5232400Y558800D03*
G01X4356100Y533400D03*
G01X4127500Y330200D03*
G01X3950145Y990156D03*
G01X5054600Y759993D03*
G01X4940300Y792500D03*
G01X5067300Y957600D03*
G01X5181600Y1023700D03*
G01X4843486Y962700D03*
G01X4693676Y1021100D03*
G01X5219700Y1905000D03*
G01X4724400Y1912600D03*
G01X4306710Y2008010D03*
G01X4950935Y1852135D03*
G01X4749800Y1772800D03*
G01X4953000Y1694993D03*
G01X4749800Y1610004D03*
G01X4592701Y1554700D03*
G01X4498393Y1551993D03*
G01X4127500Y1587500D03*
G01X4000500Y2019300D03*
G01X3314700Y1993900D03*
G01X2431550Y2016800D03*
G01X2070100Y2171700D03*
G01X1955800Y2222500D03*
G01X2184400Y1828800D03*
G01X3797300Y1562100D03*
G01X3916700Y1544300D03*
G01X2374900Y1498600D03*
G01X2374900Y1397000D03*
G01X1964732Y1485146D03*
G01X1968500Y1397000D03*
G01X1958300Y1565642D03*
G01X1968500Y1308100D03*
G01X1612900Y1447800D03*
G01X1219200Y1765300D03*
G01X1206500Y2197100D03*
G01X1790700Y2235200D03*
G01X1739900Y2019300D03*
G01X1867572Y2019300D03*
G01X1867572Y1886878D03*
G01X1739900Y1892300D03*
G01X1803497Y1955908D03*
G01X4343400Y1549400D03*
G01X2454985Y2124700D03*
G01X3835400Y1270000D03*
G01X3048000Y965200D03*
G01X2463800Y876300D03*
G01X2590800Y876300D03*
G01X2717800Y876300D03*
G01X2832100Y876300D03*
G01X2946400Y876300D03*
G01X2463800Y1092200D03*
G01X2590800Y1092200D03*
G01X2717800Y1092200D03*
G01X2832100Y1092200D03*
G01X2946400Y1092200D03*
G01X2590800Y1320800D03*
G01X2717800Y1320800D03*
G01X2832100Y1320800D03*
G01X2946400Y1320800D03*
G01X1498600Y736600D03*
G01X1485900Y393700D03*
G01X1409700Y736600D03*
G01X1320800Y736600D03*
G01X1405721Y393700D03*
G01X1320442Y393700D03*
G01X1143000Y431800D03*
G01X1001720Y2227682D03*
G01X1143000Y1765300D03*
G01X1244600Y1526540D03*
G01X755650Y933450D03*
G01X736600Y228600D03*
G01X760844Y2337956D03*
G01X5202183Y1333500D03*
G01X5202183Y1117600D03*
G01X1892280Y571500D03*
G01X1978680Y571500D03*
G01X2590800Y685800D03*
G01X2717800Y685800D03*
G01X2832100Y685800D03*
G01X2946400Y685800D03*
G01X2451100Y685800D03*
G01X3073400Y685800D03*
G01X3188889Y685800D03*
G01X4714240Y1272580D03*
G01X4714240Y1183700D03*
G01X1074460Y619780D03*
G01X1074460Y533380D03*
G01X1193800Y1028700D03*
G01X1117600Y868782D03*
G01X954976Y1982878D03*
G01X803974Y1985872D03*
G01X1206500Y1879600D03*
G01X1207249Y1981200D03*
G01X952500Y1872501D03*
G01X838200Y2184400D03*
G01X1422400Y1054100D03*
G01X1587500Y1320800D03*
G01X1638300Y1795168D03*
G01X825500Y1028700D03*
G01X927100Y695439D03*
G01X876300Y381000D03*
G01X901700Y1460500D03*
G01X723900Y1612900D03*
G04 Via End*

G04 Track Start*
G54D40*
G01X6338392Y1967509D02*
G01X6338392Y1866900D01*
G01X6167120Y1968005D02*
G01X6167120Y1867395D01*
G01X6083402Y1967509D02*
G01X6083402Y1765300D01*
G01X5914441Y1976657D02*
G01X5914441Y1774448D01*
G01X5741721Y1979197D02*
G01X5741721Y1776988D01*
G01X5825439Y1979693D02*
G01X5825439Y1863843D01*
G01X5571541Y1963957D02*
G01X5571541Y1761748D01*
G01X5655259Y1964452D02*
G01X5655259Y1863843D01*
G01X5655259Y576043D02*
G01X5655259Y778252D01*
G01X5827979Y576043D02*
G01X5827979Y778252D01*
G01X5744261Y575548D02*
G01X5744261Y676157D01*
G01X5998159Y576043D02*
G01X5998159Y778252D01*
G01X5914441Y575548D02*
G01X5914441Y676157D01*
G01X6165799Y578583D02*
G01X6165799Y780792D01*
G01X6082081Y578087D02*
G01X6082081Y678697D01*
G01X6338519Y581123D02*
G01X6338519Y783332D01*
G01X6254801Y580628D02*
G01X6254801Y681237D01*
G01X5486400Y575795D02*
G01X5486400Y778005D01*
G01X5486400Y1964205D02*
G01X5486400Y1863595D01*
G54D41*
G01X6423660Y575795D02*
G01X6423660Y676405D01*
G01X6507480Y575795D02*
G01X6507480Y676405D01*
G54D40*
G01X6253480Y1966745D02*
G01X6253480Y1764535D01*
G01X5998159Y1977152D02*
G01X5998159Y1866383D01*
G54D41*
G01X6777505Y673100D02*
G01X6676895Y673100D01*
G01X6777505Y762000D02*
G01X6676895Y762000D01*
G01X6774965Y845820D02*
G01X6674355Y845820D01*
G01X6777505Y927100D02*
G01X6676895Y927100D01*
G01X6777505Y1016000D02*
G01X6676895Y1016000D01*
G01X6777505Y1102360D02*
G01X6676895Y1102360D01*
G01X6777505Y1183640D02*
G01X6676895Y1183640D01*
G01X6778775Y1268730D02*
G01X6678165Y1268730D01*
G01X6778775Y1357630D02*
G01X6678165Y1357630D01*
G01X6776235Y1441450D02*
G01X6675625Y1441450D01*
G01X6778775Y1522730D02*
G01X6678165Y1522730D01*
G01X6778775Y1611630D02*
G01X6678165Y1611630D01*
G01X6778775Y1697990D02*
G01X6678165Y1697990D01*
G01X6778775Y1779270D02*
G01X6678165Y1779270D01*
G01X6777505Y1866900D02*
G01X6676895Y1866900D01*
G54D42*
G01X5918302Y1435100D02*
G01X5816600Y1435100D01*
G01X5913181Y1275080D02*
G01X5811479Y1275080D01*
G01X5908101Y1104900D02*
G01X5806399Y1104900D01*
G01X6083300Y1082101D02*
G01X6083300Y980399D01*
G01X6258499Y1104900D02*
G01X6360201Y1104900D01*
G01X6258499Y1270000D02*
G01X6360201Y1270000D01*
G01X6258499Y1435100D02*
G01X6360201Y1435100D01*
G01X6083300Y1445199D02*
G01X6083300Y1546901D01*
G54D41*
G01X6593840Y1971825D02*
G01X6593840Y1871215D01*
G01X6783400Y1969999D02*
G01X6783400Y2044700D01*
G01X6745300Y2082800D01*
G01X6519012Y2159000D02*
G01X6519012Y2112927D01*
G01X6549139Y2082800D01*
G01X6678397Y1967509D02*
G01X6678397Y2082165D01*
G01X6679032Y2082800D01*
G01X6745300Y2082800D02*
G01X6679032Y2082800D01*
G01X6549139Y2082800D01*
G01X6709512Y2277212D02*
G01X6709512Y2159000D01*
G01X6731000Y2413000D02*
G01X6731000Y2298700D01*
G01X6709512Y2277212D01*
G01X6625488Y2159000D02*
G01X6625488Y2212882D01*
G01X6477000Y2361370D01*
G01X6477000Y2413000D01*
G01X6341212Y2159000D02*
G01X6341212Y2216721D01*
G01X6373896Y2249404D01*
G01X6434988Y2159000D02*
G01X6434988Y2231288D01*
G01X6451600Y2247900D01*
G01X6257188Y2159000D02*
G01X6257188Y2238961D01*
G01X6269137Y2250910D01*
G01X6783400Y570001D02*
G01X6783400Y484200D01*
G01X6769100Y469900D01*
G01X6650888Y368300D02*
G01X6650888Y300888D01*
G01X6477000Y127000D01*
G01X6734912Y368300D02*
G01X6734912Y130912D01*
G01X6731000Y127000D01*
G54D40*
G01X6678397Y572491D02*
G01X6678397Y506197D01*
G01X6223000Y139700D02*
G01X6223000Y127000D01*
G01X6678397Y506197D02*
G01X6553200Y381000D01*
G01X6464300Y381000D02*
G01X6223000Y139700D01*
G01X6464300Y381000D02*
G01X6553200Y381000D01*
G01X5994400Y127000D02*
G01X5969000Y127000D01*
G01X6593408Y572491D02*
G01X6593408Y497408D01*
G01X6527800Y431800D01*
G01X6112500Y245100D02*
G01X5994400Y127000D01*
G01X6527800Y431800D02*
G01X6438900Y431800D01*
G01X6252200Y245100D01*
G01X6112500Y245100D01*
G54D42*
G01X5383403Y570001D02*
G01X5372202Y558800D01*
G01X5232400Y558800D01*
G01X4445000Y503606D02*
G01X4385894Y503606D01*
G01X4356100Y533400D01*
G54D40*
G01X5571541Y575548D02*
G01X5571541Y714257D01*
G54D41*
G01X4229100Y402488D02*
G01X4199788Y402488D01*
G01X4127500Y330200D01*
G54D40*
G01X5380888Y759993D02*
G01X5054600Y759993D01*
G01X4990092Y792500D02*
G01X4940300Y792500D01*
G01X5380888Y845007D02*
G01X5364475Y828593D01*
G01X5026185Y828593D01*
G01X4990092Y792500D01*
G01X5380888Y675005D02*
G01X5378983Y673100D01*
G01X4927600Y673100D01*
G01X5380888Y929996D02*
G01X5298796Y929996D01*
G01X5257800Y889000D01*
G01X4457700Y2070125D02*
G01X4368825Y2070125D01*
G01X4306710Y2008010D01*
G01X4522800Y2010583D02*
G01X4522800Y2032000D01*
G01X4540761Y2049961D01*
G01X4584621Y2049961D01*
G01X4457703Y1968472D02*
G01X4480714Y1968497D01*
G01X4522800Y2010583D01*
G01X4457700Y2070125D02*
G01X4457700Y2197100D01*
G54D42*
G01X5383403Y1969999D02*
G01X5284699Y1969999D01*
G01X5219700Y1905000D01*
G54D40*
G01X5380888Y1864995D02*
G01X5276710Y1864995D01*
G01X5248115Y1836400D01*
G54D42*
G01X4584700Y1963318D02*
G01X4635418Y1912600D01*
G01X4724400Y1912600D01*
G54D40*
G01X5248115Y1836400D02*
G01X4966670Y1836400D01*
G01X4950935Y1852135D01*
G01X5380888Y1780007D02*
G01X5373681Y1772800D01*
G01X4749800Y1772800D01*
G01X5380888Y1694993D02*
G01X4953000Y1694993D01*
G01X5380888Y1610004D02*
G01X4749800Y1610004D01*
G01X5380888Y1440002D02*
G01X5360391Y1460500D01*
G01X4589886Y1460500D01*
G01X4498393Y1551993D01*
G01X5380888Y1524991D02*
G01X4622410Y1524991D01*
G01X4592701Y1554700D01*
G54D41*
G01X4229100Y1621688D02*
G01X4161688Y1621688D01*
G01X4127500Y1587500D01*
G54D42*
G01X3975900Y2129903D02*
G01X3975900Y2043900D01*
G01X4000500Y2019300D01*
G01X3135922Y2129903D02*
G01X3271925Y1993900D01*
G01X3314700Y1993900D01*
G54D40*
G01X1903496Y2140896D02*
G01X1905000Y2142400D01*
G01X5257800Y482600D02*
G01X5354218Y386182D01*
G01X5354218Y368300D01*
G01X5046258Y482600D02*
G01X5257800Y482600D01*
G01X4583288Y945570D02*
G01X5046258Y482600D01*
G01X3916700Y1544300D02*
G01X4073685Y1544300D01*
G01X4583288Y1034697D01*
G01X4583288Y945570D01*
G01X5088716Y368300D02*
G01X5125618Y368300D01*
G01X5440782Y368300D02*
G01X5461000Y348082D01*
G01X5461000Y127000D01*
G01X5212182Y368300D02*
G01X5212182Y132182D01*
G01X5207000Y127000D01*
G54D41*
G01X2278482Y1625600D02*
G01X2374900Y1625600D01*
G54D40*
G01X2278482Y1524000D02*
G01X2349500Y1524000D01*
G01X2374900Y1498600D01*
G01X2278482Y1422400D02*
G01X2349500Y1422400D01*
G01X2374900Y1397000D01*
G01X2032000Y1727200D02*
G01X2133600Y1625600D01*
G01X2191918Y1625600D01*
G01X2191918Y1524000D01*
G54D41*
G01X1872082Y1320800D02*
G01X1955800Y1320800D01*
G01X1968500Y1308100D01*
G01X1612900Y1532788D02*
G01X1612900Y1447800D01*
G54D40*
G01X2032000Y1812393D02*
G01X2032000Y1727200D01*
G01X1988485Y1855908D02*
G01X2032000Y1812393D01*
G01X1803497Y1770920D02*
G01X1803497Y1701703D01*
G01X1753484Y1608104D02*
G01X1786788Y1574800D01*
G01X1753484Y1770920D02*
G01X1753484Y1723533D01*
G01X1753484Y1679874D02*
G01X1753484Y1608104D01*
G01X1752697Y1722746D02*
G01X1753484Y1723533D01*
G01X1752697Y1722746D02*
G01X1752697Y1680661D01*
G01X1753484Y1679874D01*
G01X1703497Y1770920D02*
G01X1612900Y1680323D01*
G01X1612900Y1616812D01*
G01X1512570Y1616812D01*
G01X1511300Y1618082D01*
G54D41*
G01X1786788Y1574800D02*
G01X1786788Y1473200D01*
G01X1786788Y1321321D01*
G01X1786268Y1320800D01*
G01X1511300Y1531518D02*
G01X1440282Y1531518D01*
G01X1485900Y1778000D02*
G01X1388212Y1778000D01*
G01X1538408Y1830508D02*
G01X1485900Y1778000D01*
G01X1304188Y2197100D02*
G01X1206500Y2197100D01*
G01X1388212Y2197100D02*
G01X1388212Y2404212D01*
G01X1397000Y2413000D01*
G54D40*
G01X1803497Y2140896D02*
G01X1803497Y2222403D01*
G01X1790700Y2235200D01*
G54D41*
G01X2191918Y2171700D02*
G01X2193188Y2170430D01*
G54D40*
G01X5380888Y1354988D02*
G01X5292909Y1354988D01*
G01X5238198Y1409700D01*
G01X4483100Y1409700D01*
G01X4343400Y1549400D01*
G01X5036718Y2108200D02*
G01X5036718Y2159000D01*
G01X4457700Y2197100D02*
G01X4555500Y2294900D01*
G01X5596900Y2294900D01*
G01X5715000Y2413000D01*
G01X6223000Y2413000D02*
G01X6054100Y2244100D01*
G01X5121819Y2244100D01*
G01X5036718Y2159000D01*
G01X5123282Y2006600D02*
G01X5123282Y2108200D01*
G01X6121400Y2108200D01*
G01X6159500Y2070100D01*
G01X6362700Y2070100D01*
G01X6426200Y2006600D01*
G01X2552700Y2151482D02*
G01X2731186Y2151482D01*
G01X2732100Y2152396D01*
G01X2552700Y2064918D02*
G01X2786482Y2064918D01*
G01X2844000Y2007400D01*
G01X2844000Y1701000D01*
G01X2732100Y1589100D01*
G01X2732100Y1543304D01*
G01X1988485Y1905896D02*
G01X2057379Y1905896D01*
G01X2134475Y1828800D01*
G01X2184400Y1828800D01*
G01X2035549Y1955908D02*
G01X1988485Y1955908D01*
G01X2036337Y1956696D02*
G01X2035549Y1955908D01*
G01X2078421Y1956696D02*
G01X2036337Y1956696D01*
G01X2552700Y2032000D02*
G01X2552700Y2064918D01*
G01X2159149Y2082800D02*
G01X2193188Y2082800D01*
G01X2024561Y2113461D02*
G01X2128488Y2113461D01*
G54D41*
G01X2128488Y2113461D02*
G01X2159149Y2082800D01*
G54D40*
G01X1988485Y2068608D02*
G01X1988485Y2077385D01*
G01X2024561Y2113461D01*
G54D41*
G01X2193188Y2183130D02*
G01X2193188Y2170430D01*
G01X2193188Y2082800D01*
G54D40*
G01X2137717Y1897400D02*
G01X2078421Y1956696D01*
G01X2552700Y1656182D02*
G01X2458618Y1656182D01*
G01X2217400Y1897400D01*
G01X2137717Y1897400D01*
G01X2552700Y1656182D02*
G01X2552700Y1866900D01*
G01X2648204Y1962404D02*
G01X2732100Y1962404D01*
G01X2552700Y1866900D02*
G01X2648204Y1962404D01*
G01X2552700Y1569618D02*
G01X2611018Y1569618D01*
G01X2641600Y1600200D01*
G01X2641600Y1701800D01*
G01X2673096Y1733296D01*
G01X2732100Y1733296D01*
G01X2932100Y2057400D02*
G01X2984500Y2005000D01*
G01X2984500Y1831339D02*
G01X3135922Y1679917D01*
G01X2984500Y2005000D02*
G01X2984500Y1831339D01*
G54D43*
G01X3135922Y1679917D02*
G01X3975900Y1679917D01*
G01X4118317Y1679917D01*
G54D40*
G01X4118317Y1679917D02*
G01X4140200Y1701800D01*
G01X4225188Y1701800D01*
G01X4229100Y1705712D01*
G01X4943415Y2006600D02*
G01X5036718Y2006600D01*
G01X4943415Y2006600D02*
G01X4778215Y1841400D01*
G01X4229100Y1705712D02*
G01X4372712Y1705712D01*
G01X4508400Y1841400D01*
G01X4778215Y1841400D01*
G01X2932100Y1638300D02*
G01X2932100Y1487500D01*
G01X3022600Y1397000D01*
G01X3124200Y1397000D01*
G01X3162300Y1358900D01*
G01X3162300Y1143000D01*
G01X3204007Y410007D02*
G01X3136011Y410007D01*
G54D43*
G01X3204007Y410007D02*
G01X3975989Y410007D01*
G01X4054907Y410007D01*
G54D40*
G01X4131412Y486512D02*
G01X4229100Y486512D01*
G01X4054907Y410007D02*
G01X4131412Y486512D01*
G01X4229100Y486512D02*
G01X4229100Y655218D01*
G01X3929482Y655218D01*
G01X3835400Y749300D01*
G01X3835400Y1270000D01*
G54D42*
G01X2266950Y736600D02*
G01X2406650Y876300D01*
G01X2463800Y876300D01*
G01X1695450Y736600D02*
G01X1498600Y736600D01*
G01X1422400Y872388D02*
G01X1498600Y796188D01*
G01X1498600Y736600D01*
G01X1409700Y736600D01*
G01X1320800Y736600D01*
G01X1422400Y575412D02*
G01X1422400Y660400D01*
G01X1498600Y736600D01*
G01X1320800Y575412D02*
G01X1320800Y647700D01*
G01X1409700Y736600D01*
G54D41*
G01X1695450Y506603D02*
G01X1522603Y506603D01*
G01X1498600Y482600D01*
G01X1320800Y491388D02*
G01X1422400Y491388D01*
G01X1485900Y393700D02*
G01X1485900Y469900D01*
G01X1498600Y482600D01*
G01X1489812Y491388D01*
G01X1422400Y491388D01*
G01X1162152Y1526540D02*
G01X1244600Y1526540D01*
G01X1098138Y2227682D02*
G01X1001720Y2227682D01*
G54D42*
G01X629006Y239014D02*
G01X726186Y239014D01*
G01X736600Y228600D01*
G01X629006Y879018D02*
G01X701218Y879018D01*
G01X755650Y933450D01*
G01X629031Y2301011D02*
G01X723900Y2301011D01*
G01X760844Y2337956D01*
G01X506501Y318999D02*
G01X444500Y381000D01*
G01X629006Y318999D02*
G01X506501Y318999D01*
G01X444500Y381000D02*
G01X444500Y736600D01*
G01X506908Y799008D01*
G01X629006Y799008D01*
G54D40*
G01X952500Y266700D02*
G01X1013358Y327558D01*
G01X1051560Y327558D01*
G01X629006Y383997D02*
G01X708203Y383997D01*
G01X825500Y266700D01*
G01X952500Y266700D01*
G01X5380888Y1015009D02*
G01X5307609Y1015009D01*
G01X5380888Y1099998D02*
G01X5303698Y1099998D01*
G01X5307609Y1015009D02*
G01X5232400Y939800D01*
G01X5085100Y939800D01*
G01X5067300Y957600D01*
G01X5303698Y1099998D02*
G01X5227400Y1023700D01*
G01X5181600Y1023700D01*
G01X5380888Y1185012D02*
G01X5325648Y1185012D01*
G01X5380888Y1270000D02*
G01X5325648Y1270000D01*
G01X5300934Y1245286D01*
G01X5325648Y1185012D02*
G01X5302890Y1207770D01*
G01X5055870Y1207770D01*
G01X5036922Y1188822D01*
G01X5036922Y1117600D01*
G01X5300934Y1245286D02*
G01X5053914Y1245286D01*
G01X5036922Y1262278D01*
G01X5036922Y1333500D01*
G01X5123282Y1333500D02*
G01X5202183Y1333500D01*
G01X5123282Y1117600D02*
G01X5202183Y1117600D01*
G01X1651000Y127000D02*
G01X1749444Y127000D01*
G01X1905000Y127000D02*
G01X1806556Y127000D01*
G01X1749444Y127000D02*
G01X1760220Y137776D01*
G01X1806556Y127000D02*
G01X1795780Y137776D01*
G01X1892280Y525760D02*
G01X1892280Y571500D01*
G01X1917700Y500340D02*
G01X1892280Y525760D01*
G01X1953260Y500340D02*
G01X1978680Y525760D01*
G01X1978680Y571500D01*
G01X1760220Y137776D02*
G01X1760220Y261620D01*
G01X1917700Y419100D01*
G01X1917700Y500340D01*
G01X1795780Y137776D02*
G01X1795780Y246891D01*
G01X1953260Y404371D01*
G01X1953260Y500340D01*
G01X5257800Y889000D02*
G01X5029200Y889000D01*
G54D42*
G01X3975989Y859993D02*
G01X3975989Y964311D01*
G01X3950145Y990156D01*
G54D40*
G01X4886900Y1031300D02*
G01X5029200Y889000D01*
G01X4927600Y673100D02*
G01X4843486Y757214D01*
G01X4843486Y962700D01*
G01X4693676Y1021100D02*
G01X4703876Y1031300D01*
G01X4886900Y1031300D01*
G01X4950358Y1117600D02*
G01X4780340Y1117600D01*
G01X4714240Y1183700D01*
G01X4950358Y1333500D02*
G01X4775160Y1333500D01*
G01X4714240Y1272580D01*
G54D42*
G01X1203960Y1275080D02*
G01X1050188Y1121308D01*
G01X1050188Y1003300D01*
G01X3136011Y859993D02*
G01X3048000Y948004D01*
G01X3048000Y965200D01*
G54D44*
G01X629006Y799008D02*
G01X749300Y799008D01*
G01X774700Y824408D01*
G54D40*
G01X774700Y824408D02*
G01X857593Y907301D01*
G54D43*
G01X857593Y907301D02*
G01X863600Y907301D01*
G54D40*
G01X1044928Y1008561D02*
G01X1050188Y1003300D01*
G54D43*
G01X863600Y907301D02*
G01X927100Y907301D01*
G54D40*
G01X927100Y907301D02*
G01X952500Y932701D01*
G01X952500Y968622D01*
G01X992439Y1008561D01*
G01X1044928Y1008561D01*
G01X863600Y630441D02*
G01X908840Y630441D01*
G01X863600Y522719D02*
G01X908840Y522719D01*
G01X908840Y630441D02*
G01X944921Y594360D01*
G01X908840Y522719D02*
G01X944921Y558800D01*
G01X1028720Y619780D02*
G01X1074460Y619780D01*
G01X1028720Y533380D02*
G01X1074460Y533380D01*
G01X944921Y594360D02*
G01X1003300Y594360D01*
G01X1028720Y619780D01*
G01X944921Y558800D02*
G01X1003300Y558800D01*
G01X1028720Y533380D01*
G01X629006Y683997D02*
G01X722097Y683997D01*
G01X820318Y782218D02*
G01X1054100Y782218D01*
G01X722097Y683997D02*
G01X820318Y782218D01*
G54D42*
G01X1054100Y868782D02*
G01X1117600Y868782D01*
G54D40*
G01X629006Y634009D02*
G01X533400Y634009D01*
G01X508000Y608609D02*
G01X508000Y558800D01*
G01X532790Y534010D01*
G01X629006Y534010D01*
G01X533400Y634009D02*
G01X508000Y608609D01*
G01X789419Y522719D02*
G01X863600Y522719D01*
G01X750697Y483997D02*
G01X789419Y522719D01*
G01X629006Y634009D02*
G01X860031Y634009D01*
G01X863600Y630441D01*
G01X629006Y583997D02*
G01X711200Y583997D01*
G01X711403Y583997D02*
G01X723900Y571500D01*
G01X723900Y487118D01*
G01X720779Y483997D01*
G01X629006Y483997D02*
G01X720779Y483997D01*
G01X750697Y483997D01*
G01X1562100Y1854200D02*
G01X1538408Y1830508D01*
G01X1618508Y1905896D02*
G01X1553268Y1905896D01*
G01X1618508Y1955908D02*
G01X1553268Y1955908D01*
G01X1481766Y1948682D02*
G01X1481265Y1948180D01*
G01X1433005Y1879600D02*
G01X1389482Y1879600D01*
G01X1433005Y1981200D02*
G01X1389482Y1981200D01*
G01X1553268Y1905896D02*
G01X1546042Y1913122D01*
G01X1466025Y1912620D02*
G01X1433005Y1879600D01*
G01X1481265Y1948180D02*
G01X1466025Y1948180D01*
G01X1433005Y1981200D01*
G01X1496496Y1913122D02*
G01X1495994Y1912620D01*
G01X1466025Y1912620D01*
G01X1553268Y1955908D02*
G01X1546042Y1948682D01*
G01X1481766Y1948682D01*
G01X1546042Y1913122D02*
G01X1496496Y1913122D01*
G01X852347Y1937499D02*
G01X803974Y1985872D01*
G01X876300Y1937499D02*
G01X852347Y1937499D01*
G01X859321Y2054579D02*
G01X876300Y2037601D01*
G01X629031Y2056003D02*
G01X630455Y2054579D01*
G01X628421Y2006600D02*
G01X629031Y2005990D01*
G01X629031Y1956003D02*
G01X698703Y1956003D01*
G01X719224Y1976524D02*
G01X719224Y2054579D01*
G01X630455Y2054579D02*
G01X719224Y2054579D01*
G01X859321Y2054579D01*
G01X698703Y1956003D02*
G01X719224Y1976524D01*
G01X629031Y1905991D02*
G01X762000Y1905991D01*
G01X793509Y1937499D01*
G01X852347Y1937499D01*
G54D41*
G01X1304188Y1778000D02*
G01X1291488Y1765300D01*
G01X1219200Y1765300D01*
G01X1054100Y1770482D02*
G01X1137818Y1770482D01*
G01X1143000Y1765300D01*
G54D40*
G01X1303668Y1981200D02*
G01X1207249Y1981200D01*
G01X1302918Y1879600D02*
G01X1206500Y1879600D01*
G01X876300Y1872501D02*
G01X952500Y1872501D01*
G01X876300Y2102599D02*
G01X838200Y2140699D01*
G01X838200Y2184400D01*
G01X983082Y2141118D02*
G01X1098138Y2141118D01*
G01X779800Y2253000D02*
G01X736600Y2209800D01*
G01X871200Y2253000D02*
G01X983082Y2141118D01*
G01X871200Y2253000D02*
G01X779800Y2253000D01*
G01X629031Y2105990D02*
G01X708990Y2105990D01*
G01X736600Y2133600D01*
G01X736600Y2209800D01*
G54D42*
G01X629031Y1740992D02*
G01X749300Y1740992D01*
G54D41*
G01X749300Y1740992D02*
G01X787400Y1702892D01*
G54D40*
G01X787400Y1702892D02*
G01X901700Y1588592D01*
G01X901700Y1584439D01*
G01X955561Y1584439D01*
G01X1013460Y1526540D02*
G01X1078128Y1526540D01*
G01X955561Y1584439D02*
G01X1013460Y1526540D01*
G01X896176Y1683918D02*
G01X1054100Y1683918D01*
G01X896176Y1683918D02*
G01X774104Y1805991D01*
G01X629031Y1805991D01*
G01X629031Y1905991D02*
G01X563910Y1905991D01*
G01X548670Y1921231D01*
G01X548670Y1991360D01*
G01X563910Y2006600D01*
G01X628421Y2006600D01*
G54D44*
G01X901700Y1584439D02*
G01X838200Y1584439D01*
G01X695960Y1442199D02*
G01X695960Y1275080D01*
G01X838200Y1584439D02*
G01X695960Y1442199D01*
G54D41*
G01X2449850Y1365955D02*
G01X2405945Y1322050D01*
G01X2274550Y1322050D01*
G01X2184400Y1231900D02*
G01X1524000Y1231900D01*
G01X1130300Y1435100D02*
G01X1078128Y1487272D01*
G01X1078128Y1526540D01*
G01X2274550Y1322050D02*
G01X2184400Y1231900D01*
G01X1320800Y1435100D02*
G01X1130300Y1435100D01*
G01X1320800Y1435100D02*
G01X1524000Y1231900D01*
G01X2449850Y1550650D02*
G01X2449850Y1365955D01*
G01X2449850Y1550650D02*
G01X2374900Y1625600D01*
G54D42*
G01X1695450Y966597D02*
G01X1432585Y966597D01*
G01X1422400Y956412D01*
G01X1422400Y1054100D01*
G01X1134212Y1003300D02*
G01X1168400Y1003300D01*
G01X1193800Y1028700D01*
G54D41*
G01X1699705Y1320800D02*
G01X1587500Y1320800D01*
G01X1388212Y1778000D02*
G01X1388212Y1583588D01*
G01X1440282Y1531518D01*
G54D40*
G01X1903496Y1770920D02*
G01X1912080Y1770920D01*
G01X2032000Y1498600D02*
G01X2108200Y1422400D01*
G01X2191918Y1422400D01*
G01X1912080Y1770920D02*
G01X2032000Y1651000D01*
G01X2032000Y1498600D01*
G54D41*
G01X1870812Y1473200D02*
G01X1892300Y1473200D01*
G01X1968500Y1397000D01*
G01X1870812Y1574800D02*
G01X1870812Y1570952D01*
G01X1960675Y1481089D01*
G54D40*
G01X1803497Y1701703D02*
G01X1939558Y1565642D01*
G01X1958300Y1565642D01*
G01X1638300Y1795168D02*
G01X1633650Y1799819D01*
G01X1588541Y1855908D02*
G01X1618508Y1855908D01*
G01X1586833Y1854200D02*
G01X1562100Y1854200D01*
G01X1586833Y1854200D02*
G01X1588541Y1855908D01*
G01X1633650Y1799819D02*
G01X1604969Y1799819D01*
G01X1588541Y1816247D01*
G01X1588541Y1852492D01*
G01X1586833Y1854200D01*
G54D44*
G01X863600Y695439D02*
G01X927100Y695439D01*
G01X863600Y457721D02*
G01X863600Y393700D01*
G01X876300Y381000D01*
G01X863600Y972299D02*
G01X863600Y990600D01*
G01X825500Y1028700D01*
G54D41*
G01X1051560Y414122D02*
G01X1125322Y414122D01*
G01X1143000Y431800D01*
G54D44*
G01X901700Y1519441D02*
G01X901700Y1473200D01*
G54D42*
G01X629031Y1661008D02*
G01X675792Y1661008D01*
G01X723900Y1612900D01*
G01X629031Y2221001D02*
G01X619672Y2211643D01*
G01X554697Y2211643D01*
G01X500410Y2157356D01*
G01X500410Y1804637D01*
G01X564056Y1740992D01*
G01X629031Y1740992D01*
G54D40*
G01X2191918Y2171700D02*
G01X2070100Y2171700D01*
G01X1988485Y2005895D02*
G01X2056695Y2005895D01*
G01X2082800Y2032000D02*
G01X2125407Y2032000D01*
G01X2056695Y2005895D02*
G01X2082800Y2032000D01*
G01X2125407Y2032000D02*
G01X2209207Y1948200D01*
G01X2468900Y1948200D01*
G01X2552700Y2032000D01*
G54D41*
G01X2277212Y2082800D02*
G01X2343211Y2016800D01*
G01X2431550Y2016800D01*
G01X2278482Y2184400D02*
G01X2395285Y2184400D01*
G01X2454985Y2124700D01*
G01X6434988Y2090955D02*
G01X6434988Y2159000D01*
G01X6508394Y1967509D02*
G01X6508394Y2017549D01*
G01X6434988Y2090955D01*
G54D40*
G01X4445000Y588594D02*
G01X4478706Y588594D01*
G01X4564482Y502818D01*
G01X4597400Y502818D01*
G54D45*
G01X3619452Y1270035D02*
G01X3733717Y1384300D01*
G54D40*
G01X3797300Y1562100D02*
G01X3886200Y1473200D01*
G01X3983816Y1473200D01*
G01X5088716Y368300D01*
G54D45*
G01X4470400Y762000D02*
G01X4600521Y631879D01*
G01X4600521Y607301D01*
G01X4229100Y762000D02*
G01X4470400Y762000D01*
G01X4229100Y762000D02*
G01X4229100Y759701D01*
G01X3733717Y1384300D02*
G01X3946992Y1384300D01*
G01X4229100Y1102192D01*
G01X4229100Y762000D01*
G54D40*
G01X876300Y2037601D02*
G01X900253Y2037601D01*
G01X954976Y1982878D01*
G01X3162300Y1143000D02*
G01X3302000Y1003300D01*
G01X3302000Y508000D01*
G01X3204007Y410007D01*
G01X1905000Y2142400D02*
G01X1905000Y2171700D01*
G01X1955800Y2222500D01*
G04 Track End*

M02*

