G04 Layer: BottomSolderMaskLayer*
G04 EasyEDA Pro v3.2.149, 2026-10-06 17:45:09*
G04 Gerber Generator version 0.3*
G04 Scale: 100 percent, Rotated: No, Reflected: No*
G04 Dimensions in millimeters*
G04 Leading zeros omitted, absolute positions, 4 integers and 5 decimals*
G04 Generated by one-click*
G04 Object Configs: Pad,Via,Track,Text,Image,Dimension,BoardOutline,BoardCutout,CopperFilled,SolidRegion,FPCStiffener,Line,PlaneZone,ComponentProperty,ComponentSilkscreen,TearDrop*
G04 Layer Configs: 1,15,16,2,3,4,5,6,7,8,9,10,11,13,14,56*
G04 Copper Areas: 0*
%FSLAX45Y45*%
%MOMM*%
%AMRoundRect*1,1,$1,$2,$3*1,1,$1,$4,$5*1,1,$1,0-$2,0-$3*1,1,$1,0-$4,0-$5*20,1,$1,$2,$3,$4,$5,0*20,1,$1,$4,$5,0-$2,0-$3,0*20,1,$1,0-$2,0-$3,0-$4,0-$5,0*20,1,$1,0-$4,0-$5,$2,$3,0*4,1,4,$2,$3,$4,$5,0-$2,0-$3,0-$4,0-$5,$2,$3,0*%
%ADD10RoundRect,0.1016X-1.0X1.0X1.0X1.0*%
%ADD11C,2.1016*%
%ADD12RoundRect,0.1016X-0.85X0.85X0.85X0.85*%
%ADD13C,1.8016*%
%ADD14O,2.30002X1.10002*%
%ADD15O,1.9002X1.10002*%
%ADD16O,1.90002X1.10002*%
%ADD17RoundRect,0.1016X-0.8X0.8X0.8X0.8*%
%ADD18C,1.7016*%
G75*


G04 Pad Start*
G54D10*
G01X3365452Y1270035D03*
G54D11*
G01X3619452Y1270035D03*
G54D12*
G01X695960Y1275080D03*
G54D13*
G01X949960Y1275080D03*
G01X1203960Y1275080D03*
G54D14*
G01X171552Y1548994D03*
G01X171552Y2413000D03*
G54D16*
G01X571525Y1548994D03*
G01X571500Y2413000D03*
G54D14*
G01X171526Y127000D03*
G01X171526Y991006D03*
G54D16*
G01X571500Y127000D03*
G01X571475Y991006D03*
G54D17*
G01X6731000Y2413000D03*
G54D18*
G01X6477000Y2413000D03*
G01X6223000Y2413000D03*
G01X5969000Y2413000D03*
G01X5715000Y2413000D03*
G01X5461000Y2413000D03*
G01X5207000Y2413000D03*
G01X4953000Y2413000D03*
G01X4699000Y2413000D03*
G01X4445000Y2413000D03*
G01X4191000Y2413000D03*
G01X3937000Y2413000D03*
G01X3683000Y2413000D03*
G01X3429000Y2413000D03*
G01X3175000Y2413000D03*
G01X2921000Y2413000D03*
G01X2667000Y2413000D03*
G01X2413000Y2413000D03*
G01X2159000Y2413000D03*
G01X1905000Y2413000D03*
G01X1651000Y2413000D03*
G01X1397000Y2413000D03*
G01X1143000Y2413000D03*
G01X889000Y2413000D03*
G54D17*
G01X6731000Y127000D03*
G54D18*
G01X6477000Y127000D03*
G01X6223000Y127000D03*
G01X5969000Y127000D03*
G01X5715000Y127000D03*
G01X5461000Y127000D03*
G01X5207000Y127000D03*
G01X4953000Y127000D03*
G01X4699000Y127000D03*
G01X4445000Y127000D03*
G01X4191000Y127000D03*
G01X3937000Y127000D03*
G01X3683000Y127000D03*
G01X3429000Y127000D03*
G01X3175000Y127000D03*
G01X2921000Y127000D03*
G01X2667000Y127000D03*
G01X2413000Y127000D03*
G01X2159000Y127000D03*
G01X1905000Y127000D03*
G01X1651000Y127000D03*
G01X1397000Y127000D03*
G01X1143000Y127000D03*
G01X889000Y127000D03*
G04 Pad End*

M02*

