G04 Layer: DrillDrawingLayer*
G04 EasyEDA Pro v3.2.149, 2026-10-06 17:45:09*
G04 Gerber Generator version 0.3*
G04 Scale: 100 percent, Rotated: No, Reflected: No*
G04 Dimensions in millimeters*
G04 Leading zeros omitted, absolute positions, 4 integers and 5 decimals*
G04 Generated by one-click*
G04 Object Configs: Pad,Via,Track,Text,Image,Dimension,BoardOutline,BoardCutout,CopperFilled,SolidRegion,FPCStiffener,Line,PlaneZone,ComponentProperty,ComponentSilkscreen,TearDrop*
G04 Layer Configs: 1,15,16,2,3,4,5,6,7,8,9,10,11,13,14,56*
G04 Copper Areas: 0*
%FSLAX45Y45*%
%MOMM*%
%AMIconRect*4,1,4,0.28,-0.28,-0.28,-0.28,-0.28,0.28,0.28,0.28,0.28,-0.28,0*4,0,4,0.233333,-0.233333,0.233333,0.233333,-0.233333,0.233333,-0.233333,-0.233333,0.233333,-0.233333,0*%
%AMIconTriangle*4,1,3,-0.339593,0.240473,0.339593,0.240473,0,-0.37884,-0.339593,0.240473,0*4,0,3,-0.265673,0.19404,0,-0.27342,0.266233,0.19404,-0.265673,0.19404,0*%
%AMIconStar6*4,1,12,0.12068,0.20888,0.298527,0.172713,0.241313,0,0.298527,-0.17206,0.12068,-0.208227,0,-0.344073,-0.120073,-0.208227,-0.298573,-0.17206,-0.240707,0,-0.298573,0.17206,-0.120073,0.20888,0,0.344073,0.12068,0.20888,0*4,0,12,-0.000467,0.273467,-0.090067,0.171733,-0.237533,0.136733,-0.193667,-0.007467,-0.237533,-0.1372,-0.090067,-0.171733,-0.000467,-0.273933,0.090067,-0.171733,0.237533,-0.1372,0.194133,0.007,0.237533,0.1372,0.090067,0.171267,-0.000467,0.273467,0*%
%AMIconStar4*4,1,8,-0.311733,0.311733,0,0.202533,0.311733,0.311733,0.202533,0,0.311733,-0.311733,0,-0.202533,-0.304407,-0.311733,-0.202533,0,-0.311733,0.311733,0*4,0,8,0.233333,-0.233333,0.1512,0,0.233333,0.233333,0,0.1512,-0.233333,0.233333,-0.1512,0,-0.233333,-0.233333,0,-0.1512,0.233333,-0.233333,0*%
%AMIconPlus*4,1,12,0.1736,-0.28,-0.1736,-0.28,-0.1736,-0.1736,-0.28,-0.1736,-0.28,0.1736,-0.1736,0.1736,-0.1736,0.28,0.1736,0.28,0.1736,0.1736,0.28,0.1736,0.28,-0.1736,0.1736,-0.1736,0.1736,-0.28,0*4,0,12,0.126933,-0.233333,0.126933,-0.126933,0.233333,-0.126933,0.233333,0.126933,0.126933,0.126933,0.126933,0.233333,-0.126933,0.233333,-0.126933,0.126933,-0.233333,0.126933,-0.233333,-0.126933,-0.126933,-0.126933,-0.126933,-0.233333,0.126933,-0.233333,0*%
%ADD10IconRect*%
%ADD11C,0.616X0.522667*%
%ADD12IconTriangle*%
%ADD13IconStar6*%
%ADD14IconStar4*%
%ADD15IconPlus*%
%ADD16C,0.2032*%
%ADD17C,0.254*%
G75*


G04 Drill Drawing Start*
G54D10*
G01X3365452Y1270035D03*
G01X3619452Y1270035D03*
G54D11*
G01X695960Y1275080D03*
G01X949960Y1275080D03*
G01X1203960Y1275080D03*
G54D12*
G01X171554Y991017D03*
G01X171559Y127010D03*
G01X171580Y2413010D03*
G01X171585Y1549004D03*
G54D13*
G01X571477Y991001D03*
G01X571503Y2412995D03*
G01X571515Y126995D03*
G01X571541Y1548989D03*
G54D14*
G01X889000Y127000D03*
G01X889000Y2413000D03*
G01X1143000Y127000D03*
G01X1143000Y2413000D03*
G01X1397000Y127000D03*
G01X1397000Y2413000D03*
G01X1651000Y127000D03*
G01X1651000Y2413000D03*
G01X1905000Y127000D03*
G01X1905000Y2413000D03*
G01X2159000Y127000D03*
G01X2159000Y2413000D03*
G01X2413000Y127000D03*
G01X2413000Y2413000D03*
G01X2667000Y127000D03*
G01X2667000Y2413000D03*
G01X2921000Y127000D03*
G01X2921000Y2413000D03*
G01X3175000Y127000D03*
G01X3175000Y2413000D03*
G01X3429000Y127000D03*
G01X3429000Y2413000D03*
G01X3683000Y127000D03*
G01X3683000Y2413000D03*
G01X3937000Y127000D03*
G01X3937000Y2413000D03*
G01X4191000Y127000D03*
G01X4191000Y2413000D03*
G01X4445000Y127000D03*
G01X4445000Y2413000D03*
G01X4699000Y127000D03*
G01X4699000Y2413000D03*
G01X4953000Y127000D03*
G01X4953000Y2413000D03*
G01X5207000Y127000D03*
G01X5207000Y2413000D03*
G01X5461000Y127000D03*
G01X5461000Y2413000D03*
G01X5715000Y127000D03*
G01X5715000Y2413000D03*
G01X5969000Y127000D03*
G01X5969000Y2413000D03*
G01X6223000Y127000D03*
G01X6223000Y2413000D03*
G01X6477000Y127000D03*
G01X6477000Y2413000D03*
G01X6731000Y127000D03*
G01X6731000Y2413000D03*
G54D15*
G01X723900Y1612900D03*
G01X736600Y228600D03*
G01X755650Y933450D03*
G01X760844Y2337956D03*
G01X803974Y1985872D03*
G01X825500Y1028700D03*
G01X838200Y2184400D03*
G01X876300Y381000D03*
G01X901700Y1460500D03*
G01X927100Y695439D03*
G01X952500Y1872501D03*
G01X954976Y1982878D03*
G01X1001720Y2227682D03*
G01X1074460Y533380D03*
G01X1074460Y619780D03*
G01X1117600Y868782D03*
G01X1143000Y431800D03*
G01X1143000Y1765300D03*
G01X1193800Y1028700D03*
G01X1206500Y1879600D03*
G01X1206500Y2197100D03*
G01X1207249Y1981200D03*
G01X1219200Y1765300D03*
G01X1244600Y1526540D03*
G01X1320442Y393700D03*
G01X1320800Y736600D03*
G01X1405721Y393700D03*
G01X1409700Y736600D03*
G01X1422400Y1054100D03*
G01X1485900Y393700D03*
G01X1498600Y736600D03*
G01X1587500Y1320800D03*
G01X1612900Y1447800D03*
G01X1638300Y1795168D03*
G01X1739900Y1892300D03*
G01X1739900Y2019300D03*
G01X1790700Y2235200D03*
G01X1803497Y1955908D03*
G01X1867572Y1886878D03*
G01X1867572Y2019300D03*
G01X1892280Y571500D03*
G01X1955800Y2222500D03*
G01X1958300Y1565642D03*
G01X1964732Y1485146D03*
G01X1968500Y1308100D03*
G01X1968500Y1397000D03*
G01X1978680Y571500D03*
G01X2070100Y2171700D03*
G01X2184400Y1828800D03*
G01X2374900Y1397000D03*
G01X2374900Y1498600D03*
G01X2431550Y2016800D03*
G01X2451100Y685800D03*
G01X2454985Y2124700D03*
G01X2463800Y876300D03*
G01X2463800Y1092200D03*
G01X2590800Y685800D03*
G01X2590800Y876300D03*
G01X2590800Y1092200D03*
G01X2590800Y1320800D03*
G01X2717800Y685800D03*
G01X2717800Y876300D03*
G01X2717800Y1092200D03*
G01X2717800Y1320800D03*
G01X2832100Y685800D03*
G01X2832100Y876300D03*
G01X2832100Y1092200D03*
G01X2832100Y1320800D03*
G01X2946400Y685800D03*
G01X2946400Y876300D03*
G01X2946400Y1092200D03*
G01X2946400Y1320800D03*
G01X3048000Y965200D03*
G01X3073400Y685800D03*
G01X3188889Y685800D03*
G01X3314700Y1993900D03*
G01X3797300Y1562100D03*
G01X3835400Y1270000D03*
G01X3916700Y1544300D03*
G01X3950145Y990156D03*
G01X4000500Y2019300D03*
G01X4127500Y330200D03*
G01X4127500Y1587500D03*
G01X4306710Y2008010D03*
G01X4343400Y1549400D03*
G01X4356100Y533400D03*
G01X4498393Y1551993D03*
G01X4592701Y1554700D03*
G01X4693676Y1021100D03*
G01X4714240Y1183700D03*
G01X4714240Y1272580D03*
G01X4724400Y1912600D03*
G01X4749800Y1610004D03*
G01X4749800Y1772800D03*
G01X4843486Y962700D03*
G01X4940300Y792500D03*
G01X4950935Y1852135D03*
G01X4953000Y1694993D03*
G01X5054600Y759993D03*
G01X5067300Y957600D03*
G01X5181600Y1023700D03*
G01X5202183Y1117600D03*
G01X5202183Y1333500D03*
G01X5219700Y1905000D03*
G01X5232400Y558800D03*
G01X5486400Y778005D03*
G01X5486400Y1863595D03*
G01X5571541Y714257D03*
G01X5571541Y1761748D03*
G01X5655259Y778252D03*
G01X5655259Y1863843D03*
G01X5741721Y1776988D03*
G01X5744261Y676157D03*
G01X5806399Y1104900D03*
G01X5811479Y1275080D03*
G01X5816600Y1435100D03*
G01X5825439Y1863843D03*
G01X5827979Y778252D03*
G01X5914441Y676157D03*
G01X5914441Y1774448D03*
G01X5998159Y778252D03*
G01X5998159Y1866383D03*
G01X6002020Y1188720D03*
G01X6002020Y1351280D03*
G01X6082081Y678697D03*
G01X6083300Y980399D03*
G01X6083300Y1546901D03*
G01X6083402Y1765300D03*
G01X6165799Y780792D03*
G01X6167120Y1191260D03*
G01X6167120Y1353820D03*
G01X6167120Y1867395D03*
G01X6253480Y1764535D03*
G01X6254801Y681237D03*
G01X6269137Y2250910D03*
G01X6338392Y1866900D03*
G01X6338519Y783332D03*
G01X6360201Y1104900D03*
G01X6360201Y1270000D03*
G01X6360201Y1435100D03*
G01X6373896Y2249404D03*
G01X6423660Y676405D03*
G01X6451600Y2247900D03*
G01X6507480Y676405D03*
G01X6549139Y2082800D03*
G01X6593840Y1871215D03*
G01X6674355Y845820D03*
G01X6675625Y1441450D03*
G01X6676895Y673100D03*
G01X6676895Y762000D03*
G01X6676895Y927100D03*
G01X6676895Y1016000D03*
G01X6676895Y1102360D03*
G01X6676895Y1183640D03*
G01X6676895Y1866900D03*
G01X6678165Y1268730D03*
G01X6678165Y1357630D03*
G01X6678165Y1522730D03*
G01X6678165Y1611630D03*
G01X6678165Y1697990D03*
G01X6678165Y1779270D03*
G01X6769100Y469900D03*
G04 Drill Drawing End*

G04 Text Start*
G54D16*
G01X9158446Y2318294D02*
G01X9158446Y2198152D01*
G01X9158446Y2318294D02*
G01X9204166Y2198152D01*
G01X9249886Y2318294D02*
G01X9204166Y2198152D01*
G01X9249886Y2318294D02*
G01X9249886Y2198152D01*
G01X9366218Y2278162D02*
G01X9366218Y2198152D01*
G01X9366218Y2261144D02*
G01X9354788Y2272574D01*
G01X9343358Y2278162D01*
G01X9326340Y2278162D01*
G01X9314910Y2272574D01*
G01X9303480Y2261144D01*
G01X9297638Y2243872D01*
G01X9297638Y2232442D01*
G01X9303480Y2215424D01*
G01X9314910Y2203994D01*
G01X9326340Y2198152D01*
G01X9343358Y2198152D01*
G01X9354788Y2203994D01*
G01X9366218Y2215424D01*
G01X9413970Y2278162D02*
G01X9413970Y2198152D01*
G01X9413970Y2243872D02*
G01X9419812Y2261144D01*
G01X9431242Y2272574D01*
G01X9442672Y2278162D01*
G01X9459690Y2278162D01*
G01X9507442Y2318294D02*
G01X9507442Y2198152D01*
G01X9564592Y2278162D02*
G01X9507442Y2221012D01*
G01X9530302Y2243872D02*
G01X9570434Y2198152D01*
G01X10695726Y2289592D02*
G01X10689884Y2301022D01*
G01X10678454Y2312452D01*
G01X10667024Y2318294D01*
G01X10644164Y2318294D01*
G01X10632734Y2312452D01*
G01X10621304Y2301022D01*
G01X10615716Y2289592D01*
G01X10609874Y2272574D01*
G01X10609874Y2243872D01*
G01X10615716Y2226854D01*
G01X10621304Y2215424D01*
G01X10632734Y2203994D01*
G01X10644164Y2198152D01*
G01X10667024Y2198152D01*
G01X10678454Y2203994D01*
G01X10689884Y2215424D01*
G01X10695726Y2226854D01*
G01X10772180Y2278162D02*
G01X10760750Y2272574D01*
G01X10749320Y2261144D01*
G01X10743478Y2243872D01*
G01X10743478Y2232442D01*
G01X10749320Y2215424D01*
G01X10760750Y2203994D01*
G01X10772180Y2198152D01*
G01X10789198Y2198152D01*
G01X10800628Y2203994D01*
G01X10812058Y2215424D01*
G01X10817900Y2232442D01*
G01X10817900Y2243872D01*
G01X10812058Y2261144D01*
G01X10800628Y2272574D01*
G01X10789198Y2278162D01*
G01X10772180Y2278162D01*
G01X10865652Y2278162D02*
G01X10865652Y2221012D01*
G01X10871494Y2203994D01*
G01X10882924Y2198152D01*
G01X10899942Y2198152D01*
G01X10911372Y2203994D01*
G01X10928644Y2221012D01*
G01X10928644Y2278162D02*
G01X10928644Y2198152D01*
G01X10976396Y2278162D02*
G01X10976396Y2198152D01*
G01X10976396Y2255302D02*
G01X10993668Y2272574D01*
G01X11005098Y2278162D01*
G01X11022116Y2278162D01*
G01X11033546Y2272574D01*
G01X11039388Y2255302D01*
G01X11039388Y2198152D01*
G01X11104412Y2318294D02*
G01X11104412Y2221012D01*
G01X11110000Y2203994D01*
G01X11121430Y2198152D01*
G01X11132860Y2198152D01*
G01X11087140Y2278162D02*
G01X11127272Y2278162D01*
G01X12104047Y2301022D02*
G01X12092617Y2312452D01*
G01X12075599Y2318294D01*
G01X12052739Y2318294D01*
G01X12035467Y2312452D01*
G01X12024037Y2301022D01*
G01X12024037Y2289592D01*
G01X12029879Y2278162D01*
G01X12035467Y2272574D01*
G01X12046897Y2266732D01*
G01X12081187Y2255302D01*
G01X12092617Y2249714D01*
G01X12098459Y2243872D01*
G01X12104047Y2232442D01*
G01X12104047Y2215424D01*
G01X12092617Y2203994D01*
G01X12075599Y2198152D01*
G01X12052739Y2198152D01*
G01X12035467Y2203994D01*
G01X12024037Y2215424D01*
G01X12151799Y2318294D02*
G01X12157641Y2312452D01*
G01X12163229Y2318294D01*
G01X12157641Y2323882D01*
G01X12151799Y2318294D01*
G01X12157641Y2278162D02*
G01X12157641Y2198152D01*
G01X12273973Y2278162D02*
G01X12210981Y2198152D01*
G01X12210981Y2278162D02*
G01X12273973Y2278162D01*
G01X12210981Y2198152D02*
G01X12273973Y2198152D01*
G01X12321725Y2243872D02*
G01X12390305Y2243872D01*
G01X12390305Y2255302D01*
G01X12384717Y2266732D01*
G01X12378875Y2272574D01*
G01X12367445Y2278162D01*
G01X12350427Y2278162D01*
G01X12338997Y2272574D01*
G01X12327567Y2261144D01*
G01X12321725Y2243872D01*
G01X12321725Y2232442D01*
G01X12327567Y2215424D01*
G01X12338997Y2203994D01*
G01X12350427Y2198152D01*
G01X12367445Y2198152D01*
G01X12378875Y2203994D01*
G01X12390305Y2215424D01*
G01X15849423Y2318294D02*
G01X15849423Y2198152D01*
G01X15849423Y2318294D02*
G01X15900985Y2318294D01*
G01X15918003Y2312452D01*
G01X15923845Y2306864D01*
G01X15929433Y2295434D01*
G01X15929433Y2278162D01*
G01X15923845Y2266732D01*
G01X15918003Y2261144D01*
G01X15900985Y2255302D01*
G01X15849423Y2255302D01*
G01X15977185Y2318294D02*
G01X15977185Y2198152D01*
G01X16093517Y2278162D02*
G01X16093517Y2198152D01*
G01X16093517Y2261144D02*
G01X16082087Y2272574D01*
G01X16070657Y2278162D01*
G01X16053639Y2278162D01*
G01X16042209Y2272574D01*
G01X16030779Y2261144D01*
G01X16024937Y2243872D01*
G01X16024937Y2232442D01*
G01X16030779Y2215424D01*
G01X16042209Y2203994D01*
G01X16053639Y2198152D01*
G01X16070657Y2198152D01*
G01X16082087Y2203994D01*
G01X16093517Y2215424D01*
G01X16158541Y2318294D02*
G01X16158541Y2221012D01*
G01X16164129Y2203994D01*
G01X16175559Y2198152D01*
G01X16186989Y2198152D01*
G01X16141269Y2278162D02*
G01X16181401Y2278162D01*
G01X16234741Y2243872D02*
G01X16303321Y2243872D01*
G01X16303321Y2255302D01*
G01X16297733Y2266732D01*
G01X16291891Y2272574D01*
G01X16280461Y2278162D01*
G01X16263443Y2278162D01*
G01X16252013Y2272574D01*
G01X16240583Y2261144D01*
G01X16234741Y2243872D01*
G01X16234741Y2232442D01*
G01X16240583Y2215424D01*
G01X16252013Y2203994D01*
G01X16263443Y2198152D01*
G01X16280461Y2198152D01*
G01X16291891Y2203994D01*
G01X16303321Y2215424D01*
G01X16419653Y2318294D02*
G01X16419653Y2198152D01*
G01X16419653Y2261144D02*
G01X16408223Y2272574D01*
G01X16396793Y2278162D01*
G01X16379775Y2278162D01*
G01X16368345Y2272574D01*
G01X16356915Y2261144D01*
G01X16351073Y2243872D01*
G01X16351073Y2232442D01*
G01X16356915Y2215424D01*
G01X16368345Y2203994D01*
G01X16379775Y2198152D01*
G01X16396793Y2198152D01*
G01X16408223Y2203994D01*
G01X16419653Y2215424D01*
G01X17390840Y2301022D02*
G01X17379410Y2312452D01*
G01X17362392Y2318294D01*
G01X17339532Y2318294D01*
G01X17322260Y2312452D01*
G01X17310830Y2301022D01*
G01X17310830Y2289592D01*
G01X17316672Y2278162D01*
G01X17322260Y2272574D01*
G01X17333690Y2266732D01*
G01X17367980Y2255302D01*
G01X17379410Y2249714D01*
G01X17385252Y2243872D01*
G01X17390840Y2232442D01*
G01X17390840Y2215424D01*
G01X17379410Y2203994D01*
G01X17362392Y2198152D01*
G01X17339532Y2198152D01*
G01X17322260Y2203994D01*
G01X17310830Y2215424D01*
G01X17438592Y2318294D02*
G01X17438592Y2198152D01*
G01X17438592Y2255302D02*
G01X17455864Y2272574D01*
G01X17467294Y2278162D01*
G01X17484312Y2278162D01*
G01X17495742Y2272574D01*
G01X17501584Y2255302D01*
G01X17501584Y2198152D01*
G01X17617916Y2278162D02*
G01X17617916Y2198152D01*
G01X17617916Y2261144D02*
G01X17606486Y2272574D01*
G01X17595056Y2278162D01*
G01X17578038Y2278162D01*
G01X17566608Y2272574D01*
G01X17555178Y2261144D01*
G01X17549336Y2243872D01*
G01X17549336Y2232442D01*
G01X17555178Y2215424D01*
G01X17566608Y2203994D01*
G01X17578038Y2198152D01*
G01X17595056Y2198152D01*
G01X17606486Y2203994D01*
G01X17617916Y2215424D01*
G01X17665668Y2278162D02*
G01X17665668Y2158274D01*
G01X17665668Y2261144D02*
G01X17677098Y2272574D01*
G01X17688528Y2278162D01*
G01X17705800Y2278162D01*
G01X17717230Y2272574D01*
G01X17728660Y2261144D01*
G01X17734248Y2243872D01*
G01X17734248Y2232442D01*
G01X17728660Y2215424D01*
G01X17717230Y2203994D01*
G01X17705800Y2198152D01*
G01X17688528Y2198152D01*
G01X17677098Y2203994D01*
G01X17665668Y2215424D01*
G01X17782000Y2243872D02*
G01X17850580Y2243872D01*
G01X17850580Y2255302D01*
G01X17844992Y2266732D01*
G01X17839150Y2272574D01*
G01X17827720Y2278162D01*
G01X17810702Y2278162D01*
G01X17799272Y2272574D01*
G01X17787842Y2261144D01*
G01X17782000Y2243872D01*
G01X17782000Y2232442D01*
G01X17787842Y2215424D01*
G01X17799272Y2203994D01*
G01X17810702Y2198152D01*
G01X17827720Y2198152D01*
G01X17839150Y2203994D01*
G01X17850580Y2215424D01*
G01X18742011Y2318294D02*
G01X18787731Y2198152D01*
G01X18833451Y2318294D02*
G01X18787731Y2198152D01*
G01X18881203Y2318294D02*
G01X18887045Y2312452D01*
G01X18892633Y2318294D01*
G01X18887045Y2323882D01*
G01X18881203Y2318294D01*
G01X18887045Y2278162D02*
G01X18887045Y2198152D01*
G01X19008965Y2278162D02*
G01X19008965Y2198152D01*
G01X19008965Y2261144D02*
G01X18997535Y2272574D01*
G01X18986105Y2278162D01*
G01X18969087Y2278162D01*
G01X18957657Y2272574D01*
G01X18946227Y2261144D01*
G01X18940385Y2243872D01*
G01X18940385Y2232442D01*
G01X18946227Y2215424D01*
G01X18957657Y2203994D01*
G01X18969087Y2198152D01*
G01X18986105Y2198152D01*
G01X18997535Y2203994D01*
G01X19008965Y2215424D01*
G01X19159587Y2341154D02*
G01X19056717Y2158274D01*
G01X19207339Y2318294D02*
G01X19207339Y2198152D01*
G01X19207339Y2318294D02*
G01X19258901Y2318294D01*
G01X19275919Y2312452D01*
G01X19281761Y2306864D01*
G01X19287349Y2295434D01*
G01X19287349Y2278162D01*
G01X19281761Y2266732D01*
G01X19275919Y2261144D01*
G01X19258901Y2255302D01*
G01X19207339Y2255302D01*
G01X19403681Y2278162D02*
G01X19403681Y2198152D01*
G01X19403681Y2261144D02*
G01X19392251Y2272574D01*
G01X19380821Y2278162D01*
G01X19363803Y2278162D01*
G01X19352373Y2272574D01*
G01X19340943Y2261144D01*
G01X19335101Y2243872D01*
G01X19335101Y2232442D01*
G01X19340943Y2215424D01*
G01X19352373Y2203994D01*
G01X19363803Y2198152D01*
G01X19380821Y2198152D01*
G01X19392251Y2203994D01*
G01X19403681Y2215424D01*
G01X19520013Y2318294D02*
G01X19520013Y2198152D01*
G01X19520013Y2261144D02*
G01X19508583Y2272574D01*
G01X19497153Y2278162D01*
G01X19480135Y2278162D01*
G01X19468705Y2272574D01*
G01X19457275Y2261144D01*
G01X19451433Y2243872D01*
G01X19451433Y2232442D01*
G01X19457275Y2215424D01*
G01X19468705Y2203994D01*
G01X19480135Y2198152D01*
G01X19497153Y2198152D01*
G01X19508583Y2203994D01*
G01X19520013Y2215424D01*
G01X20411190Y2318294D02*
G01X20411190Y2198152D01*
G01X20411190Y2318294D02*
G01X20462752Y2318294D01*
G01X20479770Y2312452D01*
G01X20485612Y2306864D01*
G01X20491200Y2295434D01*
G01X20491200Y2278162D01*
G01X20485612Y2266732D01*
G01X20479770Y2261144D01*
G01X20462752Y2255302D01*
G01X20411190Y2255302D01*
G01X20607532Y2278162D02*
G01X20607532Y2198152D01*
G01X20607532Y2261144D02*
G01X20596102Y2272574D01*
G01X20584672Y2278162D01*
G01X20567654Y2278162D01*
G01X20556224Y2272574D01*
G01X20544794Y2261144D01*
G01X20538952Y2243872D01*
G01X20538952Y2232442D01*
G01X20544794Y2215424D01*
G01X20556224Y2203994D01*
G01X20567654Y2198152D01*
G01X20584672Y2198152D01*
G01X20596102Y2203994D01*
G01X20607532Y2215424D01*
G01X20723864Y2318294D02*
G01X20723864Y2198152D01*
G01X20723864Y2261144D02*
G01X20712434Y2272574D01*
G01X20701004Y2278162D01*
G01X20683986Y2278162D01*
G01X20672556Y2272574D01*
G01X20661126Y2261144D01*
G01X20655284Y2243872D01*
G01X20655284Y2232442D01*
G01X20661126Y2215424D01*
G01X20672556Y2203994D01*
G01X20683986Y2198152D01*
G01X20701004Y2198152D01*
G01X20712434Y2203994D01*
G01X20723864Y2215424D01*
G01X20979642Y2301022D02*
G01X20968212Y2312452D01*
G01X20951194Y2318294D01*
G01X20928334Y2318294D01*
G01X20911062Y2312452D01*
G01X20899632Y2301022D01*
G01X20899632Y2289592D01*
G01X20905474Y2278162D01*
G01X20911062Y2272574D01*
G01X20922492Y2266732D01*
G01X20956782Y2255302D01*
G01X20968212Y2249714D01*
G01X20974054Y2243872D01*
G01X20979642Y2232442D01*
G01X20979642Y2215424D01*
G01X20968212Y2203994D01*
G01X20951194Y2198152D01*
G01X20928334Y2198152D01*
G01X20911062Y2203994D01*
G01X20899632Y2215424D01*
G01X21027394Y2318294D02*
G01X21027394Y2198152D01*
G01X21027394Y2255302D02*
G01X21044666Y2272574D01*
G01X21056096Y2278162D01*
G01X21073114Y2278162D01*
G01X21084544Y2272574D01*
G01X21090386Y2255302D01*
G01X21090386Y2198152D01*
G01X21206718Y2278162D02*
G01X21206718Y2198152D01*
G01X21206718Y2261144D02*
G01X21195288Y2272574D01*
G01X21183858Y2278162D01*
G01X21166840Y2278162D01*
G01X21155410Y2272574D01*
G01X21143980Y2261144D01*
G01X21138138Y2243872D01*
G01X21138138Y2232442D01*
G01X21143980Y2215424D01*
G01X21155410Y2203994D01*
G01X21166840Y2198152D01*
G01X21183858Y2198152D01*
G01X21195288Y2203994D01*
G01X21206718Y2215424D01*
G01X21254470Y2278162D02*
G01X21254470Y2158274D01*
G01X21254470Y2261144D02*
G01X21265900Y2272574D01*
G01X21277330Y2278162D01*
G01X21294602Y2278162D01*
G01X21306032Y2272574D01*
G01X21317462Y2261144D01*
G01X21323050Y2243872D01*
G01X21323050Y2232442D01*
G01X21317462Y2215424D01*
G01X21306032Y2203994D01*
G01X21294602Y2198152D01*
G01X21277330Y2198152D01*
G01X21265900Y2203994D01*
G01X21254470Y2215424D01*
G01X21370802Y2243872D02*
G01X21439382Y2243872D01*
G01X21439382Y2255302D01*
G01X21433794Y2266732D01*
G01X21427952Y2272574D01*
G01X21416522Y2278162D01*
G01X21399504Y2278162D01*
G01X21388074Y2272574D01*
G01X21376644Y2261144D01*
G01X21370802Y2243872D01*
G01X21370802Y2232442D01*
G01X21376644Y2215424D01*
G01X21388074Y2203994D01*
G01X21399504Y2198152D01*
G01X21416522Y2198152D01*
G01X21427952Y2203994D01*
G01X21439382Y2215424D01*
G01X22330559Y2318294D02*
G01X22330559Y2198152D01*
G01X22330559Y2198152D02*
G01X22399139Y2198152D01*
G01X22515471Y2278162D02*
G01X22515471Y2198152D01*
G01X22515471Y2261144D02*
G01X22504041Y2272574D01*
G01X22492611Y2278162D01*
G01X22475593Y2278162D01*
G01X22464163Y2272574D01*
G01X22452733Y2261144D01*
G01X22446891Y2243872D01*
G01X22446891Y2232442D01*
G01X22452733Y2215424D01*
G01X22464163Y2203994D01*
G01X22475593Y2198152D01*
G01X22492611Y2198152D01*
G01X22504041Y2203994D01*
G01X22515471Y2215424D01*
G01X22569065Y2278162D02*
G01X22603355Y2198152D01*
G01X22637645Y2278162D02*
G01X22603355Y2198152D01*
G01X22591925Y2175292D01*
G01X22580495Y2163862D01*
G01X22569065Y2158274D01*
G01X22563223Y2158274D01*
G01X22685397Y2243872D02*
G01X22753977Y2243872D01*
G01X22753977Y2255302D01*
G01X22748389Y2266732D01*
G01X22742547Y2272574D01*
G01X22731117Y2278162D01*
G01X22714099Y2278162D01*
G01X22702669Y2272574D01*
G01X22691239Y2261144D01*
G01X22685397Y2243872D01*
G01X22685397Y2232442D01*
G01X22691239Y2215424D01*
G01X22702669Y2203994D01*
G01X22714099Y2198152D01*
G01X22731117Y2198152D01*
G01X22742547Y2203994D01*
G01X22753977Y2215424D01*
G01X22801729Y2278162D02*
G01X22801729Y2198152D01*
G01X22801729Y2243872D02*
G01X22807571Y2261144D01*
G01X22819001Y2272574D01*
G01X22830431Y2278162D01*
G01X22847449Y2278162D01*
G01X23023217Y2318294D02*
G01X23023217Y2198152D01*
G01X23023217Y2318294D02*
G01X23074779Y2318294D01*
G01X23091797Y2312452D01*
G01X23097639Y2306864D01*
G01X23103227Y2295434D01*
G01X23103227Y2278162D01*
G01X23097639Y2266732D01*
G01X23091797Y2261144D01*
G01X23074779Y2255302D01*
G01X23023217Y2255302D01*
G01X23219559Y2278162D02*
G01X23219559Y2198152D01*
G01X23219559Y2261144D02*
G01X23208129Y2272574D01*
G01X23196699Y2278162D01*
G01X23179681Y2278162D01*
G01X23168251Y2272574D01*
G01X23156821Y2261144D01*
G01X23150979Y2243872D01*
G01X23150979Y2232442D01*
G01X23156821Y2215424D01*
G01X23168251Y2203994D01*
G01X23179681Y2198152D01*
G01X23196699Y2198152D01*
G01X23208129Y2203994D01*
G01X23219559Y2215424D01*
G01X23267311Y2318294D02*
G01X23273153Y2312452D01*
G01X23278741Y2318294D01*
G01X23273153Y2323882D01*
G01X23267311Y2318294D01*
G01X23273153Y2278162D02*
G01X23273153Y2198152D01*
G01X23326493Y2278162D02*
G01X23326493Y2198152D01*
G01X23326493Y2243872D02*
G01X23332335Y2261144D01*
G01X23343765Y2272574D01*
G01X23355195Y2278162D01*
G01X23372213Y2278162D01*
G01X10615716Y1709021D02*
G01X10615716Y1714863D01*
G01X10621304Y1726293D01*
G01X10627146Y1731881D01*
G01X10638576Y1737723D01*
G01X10661436Y1737723D01*
G01X10672866Y1731881D01*
G01X10678454Y1726293D01*
G01X10684296Y1714863D01*
G01X10684296Y1703433D01*
G01X10678454Y1692003D01*
G01X10667024Y1674731D01*
G01X10609874Y1617581D01*
G01X10689884Y1617581D01*
G01X12081187Y1737723D02*
G01X12024037Y1657713D01*
G01X12109889Y1657713D01*
G01X12081187Y1737723D02*
G01X12081187Y1617581D01*
G01X12237651Y1737723D02*
G01X12180501Y1617581D01*
G01X12157641Y1737723D02*
G01X12237651Y1737723D01*
G01X12291245Y1646283D02*
G01X12285403Y1640441D01*
G01X12291245Y1634853D01*
G01X12296833Y1640441D01*
G01X12291245Y1646283D01*
G01X12350427Y1709021D02*
G01X12350427Y1714863D01*
G01X12356015Y1726293D01*
G01X12361857Y1731881D01*
G01X12373287Y1737723D01*
G01X12396147Y1737723D01*
G01X12407577Y1731881D01*
G01X12413165Y1726293D01*
G01X12419007Y1714863D01*
G01X12419007Y1703433D01*
G01X12413165Y1692003D01*
G01X12401735Y1674731D01*
G01X12344585Y1617581D01*
G01X12424595Y1617581D01*
G01X12472347Y1697591D02*
G01X12535339Y1617581D01*
G01X12535339Y1697591D02*
G01X12472347Y1617581D01*
G01X12640241Y1737723D02*
G01X12583091Y1657713D01*
G01X12668943Y1657713D01*
G01X12640241Y1737723D02*
G01X12640241Y1617581D01*
G01X12796705Y1737723D02*
G01X12739555Y1617581D01*
G01X12716695Y1737723D02*
G01X12796705Y1737723D01*
G01X12850299Y1646283D02*
G01X12844457Y1640441D01*
G01X12850299Y1634853D01*
G01X12855887Y1640441D01*
G01X12850299Y1646283D01*
G01X12909481Y1709021D02*
G01X12909481Y1714863D01*
G01X12915069Y1726293D01*
G01X12920911Y1731881D01*
G01X12932341Y1737723D01*
G01X12955201Y1737723D01*
G01X12966631Y1731881D01*
G01X12972219Y1726293D01*
G01X12978061Y1714863D01*
G01X12978061Y1703433D01*
G01X12972219Y1692003D01*
G01X12960789Y1674731D01*
G01X12903639Y1617581D01*
G01X12983649Y1617581D01*
G01X13031401Y1697591D02*
G01X13031401Y1617581D01*
G01X13031401Y1674731D02*
G01X13048673Y1692003D01*
G01X13060103Y1697591D01*
G01X13077121Y1697591D01*
G01X13088551Y1692003D01*
G01X13094393Y1674731D01*
G01X13094393Y1617581D01*
G01X13094393Y1674731D02*
G01X13111411Y1692003D01*
G01X13122841Y1697591D01*
G01X13140113Y1697591D01*
G01X13151543Y1692003D01*
G01X13157131Y1674731D01*
G01X13157131Y1617581D01*
G01X13204883Y1737723D02*
G01X13210725Y1731881D01*
G01X13216313Y1737723D01*
G01X13210725Y1743311D01*
G01X13204883Y1737723D01*
G01X13210725Y1697591D02*
G01X13210725Y1617581D01*
G01X13264065Y1737723D02*
G01X13264065Y1617581D01*
G01X13351949Y1760583D02*
G01X13340519Y1749153D01*
G01X13329089Y1731881D01*
G01X13317659Y1709021D01*
G01X13311817Y1680573D01*
G01X13311817Y1657713D01*
G01X13317659Y1629011D01*
G01X13329089Y1606151D01*
G01X13340519Y1589133D01*
G01X13351949Y1577703D01*
G01X13399701Y1714863D02*
G01X13411131Y1720451D01*
G01X13428403Y1737723D01*
G01X13428403Y1617581D01*
G01X13481997Y1646283D02*
G01X13476155Y1640441D01*
G01X13481997Y1634853D01*
G01X13487585Y1640441D01*
G01X13481997Y1646283D01*
G01X13541179Y1709021D02*
G01X13541179Y1714863D01*
G01X13546767Y1726293D01*
G01X13552609Y1731881D01*
G01X13564039Y1737723D01*
G01X13586899Y1737723D01*
G01X13598329Y1731881D01*
G01X13603917Y1726293D01*
G01X13609759Y1714863D01*
G01X13609759Y1703433D01*
G01X13603917Y1692003D01*
G01X13592487Y1674731D01*
G01X13535337Y1617581D01*
G01X13615347Y1617581D01*
G01X13697389Y1737723D02*
G01X13680371Y1731881D01*
G01X13668941Y1714863D01*
G01X13663099Y1686161D01*
G01X13663099Y1669143D01*
G01X13668941Y1640441D01*
G01X13680371Y1623423D01*
G01X13697389Y1617581D01*
G01X13708819Y1617581D01*
G01X13726091Y1623423D01*
G01X13737521Y1640441D01*
G01X13743109Y1669143D01*
G01X13743109Y1686161D01*
G01X13737521Y1714863D01*
G01X13726091Y1731881D01*
G01X13708819Y1737723D01*
G01X13697389Y1737723D01*
G01X13825151Y1737723D02*
G01X13808133Y1731881D01*
G01X13796703Y1714863D01*
G01X13790861Y1686161D01*
G01X13790861Y1669143D01*
G01X13796703Y1640441D01*
G01X13808133Y1623423D01*
G01X13825151Y1617581D01*
G01X13836581Y1617581D01*
G01X13853853Y1623423D01*
G01X13865283Y1640441D01*
G01X13870871Y1669143D01*
G01X13870871Y1686161D01*
G01X13865283Y1714863D01*
G01X13853853Y1731881D01*
G01X13836581Y1737723D01*
G01X13825151Y1737723D01*
G01X13918623Y1697591D02*
G01X13981615Y1617581D01*
G01X13981615Y1697591D02*
G01X13918623Y1617581D01*
G01X14029367Y1714863D02*
G01X14040797Y1720451D01*
G01X14058069Y1737723D01*
G01X14058069Y1617581D01*
G01X14111663Y1646283D02*
G01X14105821Y1640441D01*
G01X14111663Y1634853D01*
G01X14117251Y1640441D01*
G01X14111663Y1646283D01*
G01X14170845Y1709021D02*
G01X14170845Y1714863D01*
G01X14176433Y1726293D01*
G01X14182275Y1731881D01*
G01X14193705Y1737723D01*
G01X14216565Y1737723D01*
G01X14227995Y1731881D01*
G01X14233583Y1726293D01*
G01X14239425Y1714863D01*
G01X14239425Y1703433D01*
G01X14233583Y1692003D01*
G01X14222153Y1674731D01*
G01X14165003Y1617581D01*
G01X14245013Y1617581D01*
G01X14327055Y1737723D02*
G01X14310037Y1731881D01*
G01X14298607Y1714863D01*
G01X14292765Y1686161D01*
G01X14292765Y1669143D01*
G01X14298607Y1640441D01*
G01X14310037Y1623423D01*
G01X14327055Y1617581D01*
G01X14338485Y1617581D01*
G01X14355757Y1623423D01*
G01X14367187Y1640441D01*
G01X14372775Y1669143D01*
G01X14372775Y1686161D01*
G01X14367187Y1714863D01*
G01X14355757Y1731881D01*
G01X14338485Y1737723D01*
G01X14327055Y1737723D01*
G01X14454817Y1737723D02*
G01X14437799Y1731881D01*
G01X14426369Y1714863D01*
G01X14420527Y1686161D01*
G01X14420527Y1669143D01*
G01X14426369Y1640441D01*
G01X14437799Y1623423D01*
G01X14454817Y1617581D01*
G01X14466247Y1617581D01*
G01X14483519Y1623423D01*
G01X14494949Y1640441D01*
G01X14500537Y1669143D01*
G01X14500537Y1686161D01*
G01X14494949Y1714863D01*
G01X14483519Y1731881D01*
G01X14466247Y1737723D01*
G01X14454817Y1737723D01*
G01X14548289Y1697591D02*
G01X14548289Y1617581D01*
G01X14548289Y1674731D02*
G01X14565561Y1692003D01*
G01X14576991Y1697591D01*
G01X14594009Y1697591D01*
G01X14605439Y1692003D01*
G01X14611281Y1674731D01*
G01X14611281Y1617581D01*
G01X14611281Y1674731D02*
G01X14628299Y1692003D01*
G01X14639729Y1697591D01*
G01X14657001Y1697591D01*
G01X14668431Y1692003D01*
G01X14674019Y1674731D01*
G01X14674019Y1617581D01*
G01X14721771Y1697591D02*
G01X14721771Y1617581D01*
G01X14721771Y1674731D02*
G01X14739043Y1692003D01*
G01X14750473Y1697591D01*
G01X14767491Y1697591D01*
G01X14778921Y1692003D01*
G01X14784763Y1674731D01*
G01X14784763Y1617581D01*
G01X14784763Y1674731D02*
G01X14801781Y1692003D01*
G01X14813211Y1697591D01*
G01X14830483Y1697591D01*
G01X14841913Y1692003D01*
G01X14847501Y1674731D01*
G01X14847501Y1617581D01*
G01X14895253Y1760583D02*
G01X14906683Y1749153D01*
G01X14918113Y1731881D01*
G01X14929543Y1709021D01*
G01X14935385Y1680573D01*
G01X14935385Y1657713D01*
G01X14929543Y1629011D01*
G01X14918113Y1606151D01*
G01X14906683Y1589133D01*
G01X14895253Y1577703D01*
G01X15849423Y1737723D02*
G01X15849423Y1617581D01*
G01X15849423Y1737723D02*
G01X15900985Y1737723D01*
G01X15918003Y1731881D01*
G01X15923845Y1726293D01*
G01X15929433Y1714863D01*
G01X15929433Y1697591D01*
G01X15923845Y1686161D01*
G01X15918003Y1680573D01*
G01X15900985Y1674731D01*
G01X15849423Y1674731D01*
G01X16017317Y1737723D02*
G01X16017317Y1617581D01*
G01X15977185Y1737723D02*
G01X16057195Y1737723D01*
G01X16104947Y1737723D02*
G01X16104947Y1617581D01*
G01X16184957Y1737723D02*
G01X16184957Y1617581D01*
G01X16104947Y1680573D02*
G01X16184957Y1680573D01*
G01X17310830Y1737723D02*
G01X17310830Y1617581D01*
G01X17310830Y1737723D02*
G01X17362392Y1737723D01*
G01X17379410Y1731881D01*
G01X17385252Y1726293D01*
G01X17390840Y1714863D01*
G01X17390840Y1703433D01*
G01X17385252Y1692003D01*
G01X17379410Y1686161D01*
G01X17362392Y1680573D01*
G01X17310830Y1680573D01*
G01X17350962Y1680573D02*
G01X17390840Y1617581D01*
G01X17467294Y1697591D02*
G01X17455864Y1692003D01*
G01X17444434Y1680573D01*
G01X17438592Y1663301D01*
G01X17438592Y1651871D01*
G01X17444434Y1634853D01*
G01X17455864Y1623423D01*
G01X17467294Y1617581D01*
G01X17484312Y1617581D01*
G01X17495742Y1623423D01*
G01X17507172Y1634853D01*
G01X17513014Y1651871D01*
G01X17513014Y1663301D01*
G01X17507172Y1680573D01*
G01X17495742Y1692003D01*
G01X17484312Y1697591D01*
G01X17467294Y1697591D01*
G01X17560766Y1697591D02*
G01X17560766Y1640441D01*
G01X17566608Y1623423D01*
G01X17578038Y1617581D01*
G01X17595056Y1617581D01*
G01X17606486Y1623423D01*
G01X17623758Y1640441D01*
G01X17623758Y1697591D02*
G01X17623758Y1617581D01*
G01X17671510Y1697591D02*
G01X17671510Y1617581D01*
G01X17671510Y1674731D02*
G01X17688782Y1692003D01*
G01X17700212Y1697591D01*
G01X17717230Y1697591D01*
G01X17728660Y1692003D01*
G01X17734502Y1674731D01*
G01X17734502Y1617581D01*
G01X17850834Y1737723D02*
G01X17850834Y1617581D01*
G01X17850834Y1680573D02*
G01X17839404Y1692003D01*
G01X17827974Y1697591D01*
G01X17810956Y1697591D01*
G01X17799526Y1692003D01*
G01X17788096Y1680573D01*
G01X17782254Y1663301D01*
G01X17782254Y1651871D01*
G01X17788096Y1634853D01*
G01X17799526Y1623423D01*
G01X17810956Y1617581D01*
G01X17827974Y1617581D01*
G01X17839404Y1623423D01*
G01X17850834Y1634853D01*
G01X18742011Y1737723D02*
G01X18742011Y1617581D01*
G01X18742011Y1737723D02*
G01X18793573Y1737723D01*
G01X18810591Y1731881D01*
G01X18816433Y1726293D01*
G01X18822021Y1714863D01*
G01X18822021Y1697591D01*
G01X18816433Y1686161D01*
G01X18810591Y1680573D01*
G01X18793573Y1674731D01*
G01X18742011Y1674731D01*
G01X18938353Y1697591D02*
G01X18938353Y1617581D01*
G01X18938353Y1680573D02*
G01X18926923Y1692003D01*
G01X18915493Y1697591D01*
G01X18898475Y1697591D01*
G01X18887045Y1692003D01*
G01X18875615Y1680573D01*
G01X18869773Y1663301D01*
G01X18869773Y1651871D01*
G01X18875615Y1634853D01*
G01X18887045Y1623423D01*
G01X18898475Y1617581D01*
G01X18915493Y1617581D01*
G01X18926923Y1623423D01*
G01X18938353Y1634853D01*
G01X19054685Y1737723D02*
G01X19054685Y1617581D01*
G01X19054685Y1680573D02*
G01X19043255Y1692003D01*
G01X19031825Y1697591D01*
G01X19014807Y1697591D01*
G01X19003377Y1692003D01*
G01X18991947Y1680573D01*
G01X18986105Y1663301D01*
G01X18986105Y1651871D01*
G01X18991947Y1634853D01*
G01X19003377Y1623423D01*
G01X19014807Y1617581D01*
G01X19031825Y1617581D01*
G01X19043255Y1623423D01*
G01X19054685Y1634853D01*
G01X20451322Y1760583D02*
G01X20439892Y1749153D01*
G01X20428462Y1731881D01*
G01X20417032Y1709021D01*
G01X20411190Y1680573D01*
G01X20411190Y1657713D01*
G01X20417032Y1629011D01*
G01X20428462Y1606151D01*
G01X20439892Y1589133D01*
G01X20451322Y1577703D01*
G01X20499074Y1737723D02*
G01X20499074Y1617581D01*
G01X20499074Y1737723D02*
G01X20544794Y1617581D01*
G01X20590514Y1737723D02*
G01X20544794Y1617581D01*
G01X20590514Y1737723D02*
G01X20590514Y1617581D01*
G01X20638266Y1737723D02*
G01X20644108Y1731881D01*
G01X20649696Y1737723D01*
G01X20644108Y1743311D01*
G01X20638266Y1737723D01*
G01X20644108Y1697591D02*
G01X20644108Y1617581D01*
G01X20697448Y1697591D02*
G01X20760440Y1617581D01*
G01X20760440Y1697591D02*
G01X20697448Y1617581D01*
G01X20808192Y1663301D02*
G01X20876772Y1663301D01*
G01X20876772Y1674731D01*
G01X20871184Y1686161D01*
G01X20865342Y1692003D01*
G01X20853912Y1697591D01*
G01X20836894Y1697591D01*
G01X20825464Y1692003D01*
G01X20814034Y1680573D01*
G01X20808192Y1663301D01*
G01X20808192Y1651871D01*
G01X20814034Y1634853D01*
G01X20825464Y1623423D01*
G01X20836894Y1617581D01*
G01X20853912Y1617581D01*
G01X20865342Y1623423D01*
G01X20876772Y1634853D01*
G01X20993104Y1737723D02*
G01X20993104Y1617581D01*
G01X20993104Y1680573D02*
G01X20981674Y1692003D01*
G01X20970244Y1697591D01*
G01X20953226Y1697591D01*
G01X20941796Y1692003D01*
G01X20930366Y1680573D01*
G01X20924524Y1663301D01*
G01X20924524Y1651871D01*
G01X20930366Y1634853D01*
G01X20941796Y1623423D01*
G01X20953226Y1617581D01*
G01X20970244Y1617581D01*
G01X20981674Y1623423D01*
G01X20993104Y1634853D01*
G01X21040856Y1760583D02*
G01X21052286Y1749153D01*
G01X21063716Y1731881D01*
G01X21075146Y1709021D01*
G01X21080988Y1680573D01*
G01X21080988Y1657713D01*
G01X21075146Y1629011D01*
G01X21063716Y1606151D01*
G01X21052286Y1589133D01*
G01X21040856Y1577703D01*
G01X22370691Y1737723D02*
G01X22370691Y1617581D01*
G01X22330559Y1737723D02*
G01X22410569Y1737723D01*
G01X22487023Y1697591D02*
G01X22475593Y1692003D01*
G01X22464163Y1680573D01*
G01X22458321Y1663301D01*
G01X22458321Y1651871D01*
G01X22464163Y1634853D01*
G01X22475593Y1623423D01*
G01X22487023Y1617581D01*
G01X22504041Y1617581D01*
G01X22515471Y1623423D01*
G01X22526901Y1634853D01*
G01X22532743Y1651871D01*
G01X22532743Y1663301D01*
G01X22526901Y1680573D01*
G01X22515471Y1692003D01*
G01X22504041Y1697591D01*
G01X22487023Y1697591D01*
G01X22580495Y1697591D02*
G01X22580495Y1577703D01*
G01X22580495Y1680573D02*
G01X22591925Y1692003D01*
G01X22603355Y1697591D01*
G01X22620627Y1697591D01*
G01X22632057Y1692003D01*
G01X22643487Y1680573D01*
G01X22649075Y1663301D01*
G01X22649075Y1651871D01*
G01X22643487Y1634853D01*
G01X22632057Y1623423D01*
G01X22620627Y1617581D01*
G01X22603355Y1617581D01*
G01X22591925Y1623423D01*
G01X22580495Y1634853D01*
G01X22824843Y1737723D02*
G01X22824843Y1617581D01*
G01X22824843Y1617581D02*
G01X22893423Y1617581D01*
G01X23009755Y1697591D02*
G01X23009755Y1617581D01*
G01X23009755Y1680573D02*
G01X22998325Y1692003D01*
G01X22986895Y1697591D01*
G01X22969877Y1697591D01*
G01X22958447Y1692003D01*
G01X22947017Y1680573D01*
G01X22941175Y1663301D01*
G01X22941175Y1651871D01*
G01X22947017Y1634853D01*
G01X22958447Y1623423D01*
G01X22969877Y1617581D01*
G01X22986895Y1617581D01*
G01X22998325Y1623423D01*
G01X23009755Y1634853D01*
G01X23063349Y1697591D02*
G01X23097639Y1617581D01*
G01X23131929Y1697591D02*
G01X23097639Y1617581D01*
G01X23086209Y1594721D01*
G01X23074779Y1583291D01*
G01X23063349Y1577703D01*
G01X23057507Y1577703D01*
G01X23179681Y1663301D02*
G01X23248261Y1663301D01*
G01X23248261Y1674731D01*
G01X23242673Y1686161D01*
G01X23236831Y1692003D01*
G01X23225401Y1697591D01*
G01X23208383Y1697591D01*
G01X23196953Y1692003D01*
G01X23185523Y1680573D01*
G01X23179681Y1663301D01*
G01X23179681Y1651871D01*
G01X23185523Y1634853D01*
G01X23196953Y1623423D01*
G01X23208383Y1617581D01*
G01X23225401Y1617581D01*
G01X23236831Y1623423D01*
G01X23248261Y1634853D01*
G01X23296013Y1697591D02*
G01X23296013Y1617581D01*
G01X23296013Y1663301D02*
G01X23301855Y1680573D01*
G01X23313285Y1692003D01*
G01X23324715Y1697591D01*
G01X23341733Y1697591D01*
G01X23389485Y1669143D02*
G01X23492355Y1669143D01*
G01X23540107Y1737723D02*
G01X23540107Y1617581D01*
G01X23540107Y1737723D02*
G01X23591669Y1737723D01*
G01X23608687Y1731881D01*
G01X23614529Y1726293D01*
G01X23620117Y1714863D01*
G01X23620117Y1703433D01*
G01X23614529Y1692003D01*
G01X23608687Y1686161D01*
G01X23591669Y1680573D01*
G01X23540107Y1680573D02*
G01X23591669Y1680573D01*
G01X23608687Y1674731D01*
G01X23614529Y1669143D01*
G01X23620117Y1657713D01*
G01X23620117Y1640441D01*
G01X23614529Y1629011D01*
G01X23608687Y1623423D01*
G01X23591669Y1617581D01*
G01X23540107Y1617581D01*
G01X23696571Y1697591D02*
G01X23685141Y1692003D01*
G01X23673711Y1680573D01*
G01X23667869Y1663301D01*
G01X23667869Y1651871D01*
G01X23673711Y1634853D01*
G01X23685141Y1623423D01*
G01X23696571Y1617581D01*
G01X23713589Y1617581D01*
G01X23725019Y1623423D01*
G01X23736449Y1634853D01*
G01X23742291Y1651871D01*
G01X23742291Y1663301D01*
G01X23736449Y1680573D01*
G01X23725019Y1692003D01*
G01X23713589Y1697591D01*
G01X23696571Y1697591D01*
G01X23807315Y1737723D02*
G01X23807315Y1640441D01*
G01X23812903Y1623423D01*
G01X23824333Y1617581D01*
G01X23835763Y1617581D01*
G01X23790043Y1697591D02*
G01X23830175Y1697591D01*
G01X23900787Y1737723D02*
G01X23900787Y1640441D01*
G01X23906375Y1623423D01*
G01X23917805Y1617581D01*
G01X23929235Y1617581D01*
G01X23883515Y1697591D02*
G01X23923647Y1697591D01*
G01X24005689Y1697591D02*
G01X23994259Y1692003D01*
G01X23982829Y1680573D01*
G01X23976987Y1663301D01*
G01X23976987Y1651871D01*
G01X23982829Y1634853D01*
G01X23994259Y1623423D01*
G01X24005689Y1617581D01*
G01X24022707Y1617581D01*
G01X24034137Y1623423D01*
G01X24045567Y1634853D01*
G01X24051409Y1651871D01*
G01X24051409Y1663301D01*
G01X24045567Y1680573D01*
G01X24034137Y1692003D01*
G01X24022707Y1697591D01*
G01X24005689Y1697591D01*
G01X24099161Y1697591D02*
G01X24099161Y1617581D01*
G01X24099161Y1674731D02*
G01X24116433Y1692003D01*
G01X24127863Y1697591D01*
G01X24144881Y1697591D01*
G01X24156311Y1692003D01*
G01X24162153Y1674731D01*
G01X24162153Y1617581D01*
G01X24162153Y1674731D02*
G01X24179171Y1692003D01*
G01X24190601Y1697591D01*
G01X24207873Y1697591D01*
G01X24219303Y1692003D01*
G01X24224891Y1674731D01*
G01X24224891Y1617581D01*
G01X24400659Y1737723D02*
G01X24400659Y1617581D01*
G01X24400659Y1617581D02*
G01X24469239Y1617581D01*
G01X24585571Y1697591D02*
G01X24585571Y1617581D01*
G01X24585571Y1680573D02*
G01X24574141Y1692003D01*
G01X24562711Y1697591D01*
G01X24545693Y1697591D01*
G01X24534263Y1692003D01*
G01X24522833Y1680573D01*
G01X24516991Y1663301D01*
G01X24516991Y1651871D01*
G01X24522833Y1634853D01*
G01X24534263Y1623423D01*
G01X24545693Y1617581D01*
G01X24562711Y1617581D01*
G01X24574141Y1623423D01*
G01X24585571Y1634853D01*
G01X24639165Y1697591D02*
G01X24673455Y1617581D01*
G01X24707745Y1697591D02*
G01X24673455Y1617581D01*
G01X24662025Y1594721D01*
G01X24650595Y1583291D01*
G01X24639165Y1577703D01*
G01X24633323Y1577703D01*
G01X24755497Y1663301D02*
G01X24824077Y1663301D01*
G01X24824077Y1674731D01*
G01X24818489Y1686161D01*
G01X24812647Y1692003D01*
G01X24801217Y1697591D01*
G01X24784199Y1697591D01*
G01X24772769Y1692003D01*
G01X24761339Y1680573D01*
G01X24755497Y1663301D01*
G01X24755497Y1651871D01*
G01X24761339Y1634853D01*
G01X24772769Y1623423D01*
G01X24784199Y1617581D01*
G01X24801217Y1617581D01*
G01X24812647Y1623423D01*
G01X24824077Y1634853D01*
G01X24871829Y1697591D02*
G01X24871829Y1617581D01*
G01X24871829Y1663301D02*
G01X24877671Y1680573D01*
G01X24889101Y1692003D01*
G01X24900531Y1697591D01*
G01X24917549Y1697591D01*
G01X10621304Y1157151D02*
G01X10684296Y1157151D01*
G01X10650006Y1111431D01*
G01X10667024Y1111431D01*
G01X10678454Y1105589D01*
G01X10684296Y1100001D01*
G01X10689884Y1082729D01*
G01X10689884Y1071299D01*
G01X10684296Y1054281D01*
G01X10672866Y1042851D01*
G01X10655594Y1037009D01*
G01X10638576Y1037009D01*
G01X10621304Y1042851D01*
G01X10615716Y1048439D01*
G01X10609874Y1059869D01*
G01X12081187Y1157151D02*
G01X12024037Y1077141D01*
G01X12109889Y1077141D01*
G01X12081187Y1157151D02*
G01X12081187Y1037009D01*
G01X12191931Y1157151D02*
G01X12174913Y1151309D01*
G01X12163483Y1134291D01*
G01X12157641Y1105589D01*
G01X12157641Y1088571D01*
G01X12163483Y1059869D01*
G01X12174913Y1042851D01*
G01X12191931Y1037009D01*
G01X12203361Y1037009D01*
G01X12220633Y1042851D01*
G01X12232063Y1059869D01*
G01X12237651Y1088571D01*
G01X12237651Y1105589D01*
G01X12232063Y1134291D01*
G01X12220633Y1151309D01*
G01X12203361Y1157151D01*
G01X12191931Y1157151D01*
G01X12291245Y1065711D02*
G01X12285403Y1059869D01*
G01X12291245Y1054281D01*
G01X12296833Y1059869D01*
G01X12291245Y1065711D01*
G01X12350427Y1128449D02*
G01X12350427Y1134291D01*
G01X12356015Y1145721D01*
G01X12361857Y1151309D01*
G01X12373287Y1157151D01*
G01X12396147Y1157151D01*
G01X12407577Y1151309D01*
G01X12413165Y1145721D01*
G01X12419007Y1134291D01*
G01X12419007Y1122861D01*
G01X12413165Y1111431D01*
G01X12401735Y1094159D01*
G01X12344585Y1037009D01*
G01X12424595Y1037009D01*
G01X12472347Y1117019D02*
G01X12535339Y1037009D01*
G01X12535339Y1117019D02*
G01X12472347Y1037009D01*
G01X12640241Y1157151D02*
G01X12583091Y1077141D01*
G01X12668943Y1077141D01*
G01X12640241Y1157151D02*
G01X12640241Y1037009D01*
G01X12750985Y1157151D02*
G01X12733967Y1151309D01*
G01X12722537Y1134291D01*
G01X12716695Y1105589D01*
G01X12716695Y1088571D01*
G01X12722537Y1059869D01*
G01X12733967Y1042851D01*
G01X12750985Y1037009D01*
G01X12762415Y1037009D01*
G01X12779687Y1042851D01*
G01X12791117Y1059869D01*
G01X12796705Y1088571D01*
G01X12796705Y1105589D01*
G01X12791117Y1134291D01*
G01X12779687Y1151309D01*
G01X12762415Y1157151D01*
G01X12750985Y1157151D01*
G01X12850299Y1065711D02*
G01X12844457Y1059869D01*
G01X12850299Y1054281D01*
G01X12855887Y1059869D01*
G01X12850299Y1065711D01*
G01X12909481Y1128449D02*
G01X12909481Y1134291D01*
G01X12915069Y1145721D01*
G01X12920911Y1151309D01*
G01X12932341Y1157151D01*
G01X12955201Y1157151D01*
G01X12966631Y1151309D01*
G01X12972219Y1145721D01*
G01X12978061Y1134291D01*
G01X12978061Y1122861D01*
G01X12972219Y1111431D01*
G01X12960789Y1094159D01*
G01X12903639Y1037009D01*
G01X12983649Y1037009D01*
G01X13031401Y1117019D02*
G01X13031401Y1037009D01*
G01X13031401Y1094159D02*
G01X13048673Y1111431D01*
G01X13060103Y1117019D01*
G01X13077121Y1117019D01*
G01X13088551Y1111431D01*
G01X13094393Y1094159D01*
G01X13094393Y1037009D01*
G01X13094393Y1094159D02*
G01X13111411Y1111431D01*
G01X13122841Y1117019D01*
G01X13140113Y1117019D01*
G01X13151543Y1111431D01*
G01X13157131Y1094159D01*
G01X13157131Y1037009D01*
G01X13204883Y1157151D02*
G01X13210725Y1151309D01*
G01X13216313Y1157151D01*
G01X13210725Y1162739D01*
G01X13204883Y1157151D01*
G01X13210725Y1117019D02*
G01X13210725Y1037009D01*
G01X13264065Y1157151D02*
G01X13264065Y1037009D01*
G01X13351949Y1180011D02*
G01X13340519Y1168581D01*
G01X13329089Y1151309D01*
G01X13317659Y1128449D01*
G01X13311817Y1100001D01*
G01X13311817Y1077141D01*
G01X13317659Y1048439D01*
G01X13329089Y1025579D01*
G01X13340519Y1008561D01*
G01X13351949Y997131D01*
G01X13399701Y1134291D02*
G01X13411131Y1139879D01*
G01X13428403Y1157151D01*
G01X13428403Y1037009D01*
G01X13481997Y1065711D02*
G01X13476155Y1059869D01*
G01X13481997Y1054281D01*
G01X13487585Y1059869D01*
G01X13481997Y1065711D01*
G01X13569627Y1157151D02*
G01X13552609Y1151309D01*
G01X13541179Y1134291D01*
G01X13535337Y1105589D01*
G01X13535337Y1088571D01*
G01X13541179Y1059869D01*
G01X13552609Y1042851D01*
G01X13569627Y1037009D01*
G01X13581057Y1037009D01*
G01X13598329Y1042851D01*
G01X13609759Y1059869D01*
G01X13615347Y1088571D01*
G01X13615347Y1105589D01*
G01X13609759Y1134291D01*
G01X13598329Y1151309D01*
G01X13581057Y1157151D01*
G01X13569627Y1157151D01*
G01X13668941Y1128449D02*
G01X13668941Y1134291D01*
G01X13674529Y1145721D01*
G01X13680371Y1151309D01*
G01X13691801Y1157151D01*
G01X13714661Y1157151D01*
G01X13726091Y1151309D01*
G01X13731679Y1145721D01*
G01X13737521Y1134291D01*
G01X13737521Y1122861D01*
G01X13731679Y1111431D01*
G01X13720249Y1094159D01*
G01X13663099Y1037009D01*
G01X13743109Y1037009D01*
G01X13825151Y1157151D02*
G01X13808133Y1151309D01*
G01X13796703Y1134291D01*
G01X13790861Y1105589D01*
G01X13790861Y1088571D01*
G01X13796703Y1059869D01*
G01X13808133Y1042851D01*
G01X13825151Y1037009D01*
G01X13836581Y1037009D01*
G01X13853853Y1042851D01*
G01X13865283Y1059869D01*
G01X13870871Y1088571D01*
G01X13870871Y1105589D01*
G01X13865283Y1134291D01*
G01X13853853Y1151309D01*
G01X13836581Y1157151D01*
G01X13825151Y1157151D01*
G01X13918623Y1117019D02*
G01X13981615Y1037009D01*
G01X13981615Y1117019D02*
G01X13918623Y1037009D01*
G01X14029367Y1134291D02*
G01X14040797Y1139879D01*
G01X14058069Y1157151D01*
G01X14058069Y1037009D01*
G01X14111663Y1065711D02*
G01X14105821Y1059869D01*
G01X14111663Y1054281D01*
G01X14117251Y1059869D01*
G01X14111663Y1065711D01*
G01X14199293Y1157151D02*
G01X14182275Y1151309D01*
G01X14170845Y1134291D01*
G01X14165003Y1105589D01*
G01X14165003Y1088571D01*
G01X14170845Y1059869D01*
G01X14182275Y1042851D01*
G01X14199293Y1037009D01*
G01X14210723Y1037009D01*
G01X14227995Y1042851D01*
G01X14239425Y1059869D01*
G01X14245013Y1088571D01*
G01X14245013Y1105589D01*
G01X14239425Y1134291D01*
G01X14227995Y1151309D01*
G01X14210723Y1157151D01*
G01X14199293Y1157151D01*
G01X14298607Y1128449D02*
G01X14298607Y1134291D01*
G01X14304195Y1145721D01*
G01X14310037Y1151309D01*
G01X14321467Y1157151D01*
G01X14344327Y1157151D01*
G01X14355757Y1151309D01*
G01X14361345Y1145721D01*
G01X14367187Y1134291D01*
G01X14367187Y1122861D01*
G01X14361345Y1111431D01*
G01X14349915Y1094159D01*
G01X14292765Y1037009D01*
G01X14372775Y1037009D01*
G01X14454817Y1157151D02*
G01X14437799Y1151309D01*
G01X14426369Y1134291D01*
G01X14420527Y1105589D01*
G01X14420527Y1088571D01*
G01X14426369Y1059869D01*
G01X14437799Y1042851D01*
G01X14454817Y1037009D01*
G01X14466247Y1037009D01*
G01X14483519Y1042851D01*
G01X14494949Y1059869D01*
G01X14500537Y1088571D01*
G01X14500537Y1105589D01*
G01X14494949Y1134291D01*
G01X14483519Y1151309D01*
G01X14466247Y1157151D01*
G01X14454817Y1157151D01*
G01X14548289Y1117019D02*
G01X14548289Y1037009D01*
G01X14548289Y1094159D02*
G01X14565561Y1111431D01*
G01X14576991Y1117019D01*
G01X14594009Y1117019D01*
G01X14605439Y1111431D01*
G01X14611281Y1094159D01*
G01X14611281Y1037009D01*
G01X14611281Y1094159D02*
G01X14628299Y1111431D01*
G01X14639729Y1117019D01*
G01X14657001Y1117019D01*
G01X14668431Y1111431D01*
G01X14674019Y1094159D01*
G01X14674019Y1037009D01*
G01X14721771Y1117019D02*
G01X14721771Y1037009D01*
G01X14721771Y1094159D02*
G01X14739043Y1111431D01*
G01X14750473Y1117019D01*
G01X14767491Y1117019D01*
G01X14778921Y1111431D01*
G01X14784763Y1094159D01*
G01X14784763Y1037009D01*
G01X14784763Y1094159D02*
G01X14801781Y1111431D01*
G01X14813211Y1117019D01*
G01X14830483Y1117019D01*
G01X14841913Y1111431D01*
G01X14847501Y1094159D01*
G01X14847501Y1037009D01*
G01X14895253Y1180011D02*
G01X14906683Y1168581D01*
G01X14918113Y1151309D01*
G01X14929543Y1128449D01*
G01X14935385Y1100001D01*
G01X14935385Y1077141D01*
G01X14929543Y1048439D01*
G01X14918113Y1025579D01*
G01X14906683Y1008561D01*
G01X14895253Y997131D01*
G01X15849423Y1157151D02*
G01X15849423Y1037009D01*
G01X15849423Y1157151D02*
G01X15900985Y1157151D01*
G01X15918003Y1151309D01*
G01X15923845Y1145721D01*
G01X15929433Y1134291D01*
G01X15929433Y1117019D01*
G01X15923845Y1105589D01*
G01X15918003Y1100001D01*
G01X15900985Y1094159D01*
G01X15849423Y1094159D01*
G01X16017317Y1157151D02*
G01X16017317Y1037009D01*
G01X15977185Y1157151D02*
G01X16057195Y1157151D01*
G01X16104947Y1157151D02*
G01X16104947Y1037009D01*
G01X16184957Y1157151D02*
G01X16184957Y1037009D01*
G01X16104947Y1100001D02*
G01X16184957Y1100001D01*
G01X17310830Y1157151D02*
G01X17310830Y1037009D01*
G01X17310830Y1157151D02*
G01X17362392Y1157151D01*
G01X17379410Y1151309D01*
G01X17385252Y1145721D01*
G01X17390840Y1134291D01*
G01X17390840Y1122861D01*
G01X17385252Y1111431D01*
G01X17379410Y1105589D01*
G01X17362392Y1100001D01*
G01X17310830Y1100001D01*
G01X17350962Y1100001D02*
G01X17390840Y1037009D01*
G01X17467294Y1117019D02*
G01X17455864Y1111431D01*
G01X17444434Y1100001D01*
G01X17438592Y1082729D01*
G01X17438592Y1071299D01*
G01X17444434Y1054281D01*
G01X17455864Y1042851D01*
G01X17467294Y1037009D01*
G01X17484312Y1037009D01*
G01X17495742Y1042851D01*
G01X17507172Y1054281D01*
G01X17513014Y1071299D01*
G01X17513014Y1082729D01*
G01X17507172Y1100001D01*
G01X17495742Y1111431D01*
G01X17484312Y1117019D01*
G01X17467294Y1117019D01*
G01X17560766Y1117019D02*
G01X17560766Y1059869D01*
G01X17566608Y1042851D01*
G01X17578038Y1037009D01*
G01X17595056Y1037009D01*
G01X17606486Y1042851D01*
G01X17623758Y1059869D01*
G01X17623758Y1117019D02*
G01X17623758Y1037009D01*
G01X17671510Y1117019D02*
G01X17671510Y1037009D01*
G01X17671510Y1094159D02*
G01X17688782Y1111431D01*
G01X17700212Y1117019D01*
G01X17717230Y1117019D01*
G01X17728660Y1111431D01*
G01X17734502Y1094159D01*
G01X17734502Y1037009D01*
G01X17850834Y1157151D02*
G01X17850834Y1037009D01*
G01X17850834Y1100001D02*
G01X17839404Y1111431D01*
G01X17827974Y1117019D01*
G01X17810956Y1117019D01*
G01X17799526Y1111431D01*
G01X17788096Y1100001D01*
G01X17782254Y1082729D01*
G01X17782254Y1071299D01*
G01X17788096Y1054281D01*
G01X17799526Y1042851D01*
G01X17810956Y1037009D01*
G01X17827974Y1037009D01*
G01X17839404Y1042851D01*
G01X17850834Y1054281D01*
G01X18742011Y1157151D02*
G01X18742011Y1037009D01*
G01X18742011Y1157151D02*
G01X18793573Y1157151D01*
G01X18810591Y1151309D01*
G01X18816433Y1145721D01*
G01X18822021Y1134291D01*
G01X18822021Y1117019D01*
G01X18816433Y1105589D01*
G01X18810591Y1100001D01*
G01X18793573Y1094159D01*
G01X18742011Y1094159D01*
G01X18938353Y1117019D02*
G01X18938353Y1037009D01*
G01X18938353Y1100001D02*
G01X18926923Y1111431D01*
G01X18915493Y1117019D01*
G01X18898475Y1117019D01*
G01X18887045Y1111431D01*
G01X18875615Y1100001D01*
G01X18869773Y1082729D01*
G01X18869773Y1071299D01*
G01X18875615Y1054281D01*
G01X18887045Y1042851D01*
G01X18898475Y1037009D01*
G01X18915493Y1037009D01*
G01X18926923Y1042851D01*
G01X18938353Y1054281D01*
G01X19054685Y1157151D02*
G01X19054685Y1037009D01*
G01X19054685Y1100001D02*
G01X19043255Y1111431D01*
G01X19031825Y1117019D01*
G01X19014807Y1117019D01*
G01X19003377Y1111431D01*
G01X18991947Y1100001D01*
G01X18986105Y1082729D01*
G01X18986105Y1071299D01*
G01X18991947Y1054281D01*
G01X19003377Y1042851D01*
G01X19014807Y1037009D01*
G01X19031825Y1037009D01*
G01X19043255Y1042851D01*
G01X19054685Y1054281D01*
G01X20451322Y1180011D02*
G01X20439892Y1168581D01*
G01X20428462Y1151309D01*
G01X20417032Y1128449D01*
G01X20411190Y1100001D01*
G01X20411190Y1077141D01*
G01X20417032Y1048439D01*
G01X20428462Y1025579D01*
G01X20439892Y1008561D01*
G01X20451322Y997131D01*
G01X20499074Y1157151D02*
G01X20499074Y1037009D01*
G01X20499074Y1157151D02*
G01X20544794Y1037009D01*
G01X20590514Y1157151D02*
G01X20544794Y1037009D01*
G01X20590514Y1157151D02*
G01X20590514Y1037009D01*
G01X20638266Y1157151D02*
G01X20644108Y1151309D01*
G01X20649696Y1157151D01*
G01X20644108Y1162739D01*
G01X20638266Y1157151D01*
G01X20644108Y1117019D02*
G01X20644108Y1037009D01*
G01X20697448Y1117019D02*
G01X20760440Y1037009D01*
G01X20760440Y1117019D02*
G01X20697448Y1037009D01*
G01X20808192Y1082729D02*
G01X20876772Y1082729D01*
G01X20876772Y1094159D01*
G01X20871184Y1105589D01*
G01X20865342Y1111431D01*
G01X20853912Y1117019D01*
G01X20836894Y1117019D01*
G01X20825464Y1111431D01*
G01X20814034Y1100001D01*
G01X20808192Y1082729D01*
G01X20808192Y1071299D01*
G01X20814034Y1054281D01*
G01X20825464Y1042851D01*
G01X20836894Y1037009D01*
G01X20853912Y1037009D01*
G01X20865342Y1042851D01*
G01X20876772Y1054281D01*
G01X20993104Y1157151D02*
G01X20993104Y1037009D01*
G01X20993104Y1100001D02*
G01X20981674Y1111431D01*
G01X20970244Y1117019D01*
G01X20953226Y1117019D01*
G01X20941796Y1111431D01*
G01X20930366Y1100001D01*
G01X20924524Y1082729D01*
G01X20924524Y1071299D01*
G01X20930366Y1054281D01*
G01X20941796Y1042851D01*
G01X20953226Y1037009D01*
G01X20970244Y1037009D01*
G01X20981674Y1042851D01*
G01X20993104Y1054281D01*
G01X21040856Y1180011D02*
G01X21052286Y1168581D01*
G01X21063716Y1151309D01*
G01X21075146Y1128449D01*
G01X21080988Y1100001D01*
G01X21080988Y1077141D01*
G01X21075146Y1048439D01*
G01X21063716Y1025579D01*
G01X21052286Y1008561D01*
G01X21040856Y997131D01*
G01X22370691Y1157151D02*
G01X22370691Y1037009D01*
G01X22330559Y1157151D02*
G01X22410569Y1157151D01*
G01X22487023Y1117019D02*
G01X22475593Y1111431D01*
G01X22464163Y1100001D01*
G01X22458321Y1082729D01*
G01X22458321Y1071299D01*
G01X22464163Y1054281D01*
G01X22475593Y1042851D01*
G01X22487023Y1037009D01*
G01X22504041Y1037009D01*
G01X22515471Y1042851D01*
G01X22526901Y1054281D01*
G01X22532743Y1071299D01*
G01X22532743Y1082729D01*
G01X22526901Y1100001D01*
G01X22515471Y1111431D01*
G01X22504041Y1117019D01*
G01X22487023Y1117019D01*
G01X22580495Y1117019D02*
G01X22580495Y997131D01*
G01X22580495Y1100001D02*
G01X22591925Y1111431D01*
G01X22603355Y1117019D01*
G01X22620627Y1117019D01*
G01X22632057Y1111431D01*
G01X22643487Y1100001D01*
G01X22649075Y1082729D01*
G01X22649075Y1071299D01*
G01X22643487Y1054281D01*
G01X22632057Y1042851D01*
G01X22620627Y1037009D01*
G01X22603355Y1037009D01*
G01X22591925Y1042851D01*
G01X22580495Y1054281D01*
G01X22824843Y1157151D02*
G01X22824843Y1037009D01*
G01X22824843Y1037009D02*
G01X22893423Y1037009D01*
G01X23009755Y1117019D02*
G01X23009755Y1037009D01*
G01X23009755Y1100001D02*
G01X22998325Y1111431D01*
G01X22986895Y1117019D01*
G01X22969877Y1117019D01*
G01X22958447Y1111431D01*
G01X22947017Y1100001D01*
G01X22941175Y1082729D01*
G01X22941175Y1071299D01*
G01X22947017Y1054281D01*
G01X22958447Y1042851D01*
G01X22969877Y1037009D01*
G01X22986895Y1037009D01*
G01X22998325Y1042851D01*
G01X23009755Y1054281D01*
G01X23063349Y1117019D02*
G01X23097639Y1037009D01*
G01X23131929Y1117019D02*
G01X23097639Y1037009D01*
G01X23086209Y1014149D01*
G01X23074779Y1002719D01*
G01X23063349Y997131D01*
G01X23057507Y997131D01*
G01X23179681Y1082729D02*
G01X23248261Y1082729D01*
G01X23248261Y1094159D01*
G01X23242673Y1105589D01*
G01X23236831Y1111431D01*
G01X23225401Y1117019D01*
G01X23208383Y1117019D01*
G01X23196953Y1111431D01*
G01X23185523Y1100001D01*
G01X23179681Y1082729D01*
G01X23179681Y1071299D01*
G01X23185523Y1054281D01*
G01X23196953Y1042851D01*
G01X23208383Y1037009D01*
G01X23225401Y1037009D01*
G01X23236831Y1042851D01*
G01X23248261Y1054281D01*
G01X23296013Y1117019D02*
G01X23296013Y1037009D01*
G01X23296013Y1082729D02*
G01X23301855Y1100001D01*
G01X23313285Y1111431D01*
G01X23324715Y1117019D01*
G01X23341733Y1117019D01*
G01X23389485Y1088571D02*
G01X23492355Y1088571D01*
G01X23540107Y1157151D02*
G01X23540107Y1037009D01*
G01X23540107Y1157151D02*
G01X23591669Y1157151D01*
G01X23608687Y1151309D01*
G01X23614529Y1145721D01*
G01X23620117Y1134291D01*
G01X23620117Y1122861D01*
G01X23614529Y1111431D01*
G01X23608687Y1105589D01*
G01X23591669Y1100001D01*
G01X23540107Y1100001D02*
G01X23591669Y1100001D01*
G01X23608687Y1094159D01*
G01X23614529Y1088571D01*
G01X23620117Y1077141D01*
G01X23620117Y1059869D01*
G01X23614529Y1048439D01*
G01X23608687Y1042851D01*
G01X23591669Y1037009D01*
G01X23540107Y1037009D01*
G01X23696571Y1117019D02*
G01X23685141Y1111431D01*
G01X23673711Y1100001D01*
G01X23667869Y1082729D01*
G01X23667869Y1071299D01*
G01X23673711Y1054281D01*
G01X23685141Y1042851D01*
G01X23696571Y1037009D01*
G01X23713589Y1037009D01*
G01X23725019Y1042851D01*
G01X23736449Y1054281D01*
G01X23742291Y1071299D01*
G01X23742291Y1082729D01*
G01X23736449Y1100001D01*
G01X23725019Y1111431D01*
G01X23713589Y1117019D01*
G01X23696571Y1117019D01*
G01X23807315Y1157151D02*
G01X23807315Y1059869D01*
G01X23812903Y1042851D01*
G01X23824333Y1037009D01*
G01X23835763Y1037009D01*
G01X23790043Y1117019D02*
G01X23830175Y1117019D01*
G01X23900787Y1157151D02*
G01X23900787Y1059869D01*
G01X23906375Y1042851D01*
G01X23917805Y1037009D01*
G01X23929235Y1037009D01*
G01X23883515Y1117019D02*
G01X23923647Y1117019D01*
G01X24005689Y1117019D02*
G01X23994259Y1111431D01*
G01X23982829Y1100001D01*
G01X23976987Y1082729D01*
G01X23976987Y1071299D01*
G01X23982829Y1054281D01*
G01X23994259Y1042851D01*
G01X24005689Y1037009D01*
G01X24022707Y1037009D01*
G01X24034137Y1042851D01*
G01X24045567Y1054281D01*
G01X24051409Y1071299D01*
G01X24051409Y1082729D01*
G01X24045567Y1100001D01*
G01X24034137Y1111431D01*
G01X24022707Y1117019D01*
G01X24005689Y1117019D01*
G01X24099161Y1117019D02*
G01X24099161Y1037009D01*
G01X24099161Y1094159D02*
G01X24116433Y1111431D01*
G01X24127863Y1117019D01*
G01X24144881Y1117019D01*
G01X24156311Y1111431D01*
G01X24162153Y1094159D01*
G01X24162153Y1037009D01*
G01X24162153Y1094159D02*
G01X24179171Y1111431D01*
G01X24190601Y1117019D01*
G01X24207873Y1117019D01*
G01X24219303Y1111431D01*
G01X24224891Y1094159D01*
G01X24224891Y1037009D01*
G01X24400659Y1157151D02*
G01X24400659Y1037009D01*
G01X24400659Y1037009D02*
G01X24469239Y1037009D01*
G01X24585571Y1117019D02*
G01X24585571Y1037009D01*
G01X24585571Y1100001D02*
G01X24574141Y1111431D01*
G01X24562711Y1117019D01*
G01X24545693Y1117019D01*
G01X24534263Y1111431D01*
G01X24522833Y1100001D01*
G01X24516991Y1082729D01*
G01X24516991Y1071299D01*
G01X24522833Y1054281D01*
G01X24534263Y1042851D01*
G01X24545693Y1037009D01*
G01X24562711Y1037009D01*
G01X24574141Y1042851D01*
G01X24585571Y1054281D01*
G01X24639165Y1117019D02*
G01X24673455Y1037009D01*
G01X24707745Y1117019D02*
G01X24673455Y1037009D01*
G01X24662025Y1014149D01*
G01X24650595Y1002719D01*
G01X24639165Y997131D01*
G01X24633323Y997131D01*
G01X24755497Y1082729D02*
G01X24824077Y1082729D01*
G01X24824077Y1094159D01*
G01X24818489Y1105589D01*
G01X24812647Y1111431D01*
G01X24801217Y1117019D01*
G01X24784199Y1117019D01*
G01X24772769Y1111431D01*
G01X24761339Y1100001D01*
G01X24755497Y1082729D01*
G01X24755497Y1071299D01*
G01X24761339Y1054281D01*
G01X24772769Y1042851D01*
G01X24784199Y1037009D01*
G01X24801217Y1037009D01*
G01X24812647Y1042851D01*
G01X24824077Y1054281D01*
G01X24871829Y1117019D02*
G01X24871829Y1037009D01*
G01X24871829Y1082729D02*
G01X24877671Y1100001D01*
G01X24889101Y1111431D01*
G01X24900531Y1117019D01*
G01X24917549Y1117019D01*
G01X10667024Y576580D02*
G01X10609874Y496570D01*
G01X10695726Y496570D01*
G01X10667024Y576580D02*
G01X10667024Y456438D01*
G01X12029879Y547878D02*
G01X12029879Y553720D01*
G01X12035467Y565150D01*
G01X12041309Y570738D01*
G01X12052739Y576580D01*
G01X12075599Y576580D01*
G01X12087029Y570738D01*
G01X12092617Y565150D01*
G01X12098459Y553720D01*
G01X12098459Y542290D01*
G01X12092617Y530860D01*
G01X12081187Y513588D01*
G01X12024037Y456438D01*
G01X12104047Y456438D01*
G01X12163229Y576580D02*
G01X12226221Y576580D01*
G01X12191931Y530860D01*
G01X12208949Y530860D01*
G01X12220379Y525018D01*
G01X12226221Y519430D01*
G01X12231809Y502158D01*
G01X12231809Y490728D01*
G01X12226221Y473710D01*
G01X12214791Y462280D01*
G01X12197519Y456438D01*
G01X12180501Y456438D01*
G01X12163229Y462280D01*
G01X12157641Y467868D01*
G01X12151799Y479298D01*
G01X12285403Y485140D02*
G01X12279561Y479298D01*
G01X12285403Y473710D01*
G01X12290991Y479298D01*
G01X12285403Y485140D01*
G01X12407323Y559308D02*
G01X12401735Y570738D01*
G01X12384463Y576580D01*
G01X12373033Y576580D01*
G01X12356015Y570738D01*
G01X12344585Y553720D01*
G01X12338743Y525018D01*
G01X12338743Y496570D01*
G01X12344585Y473710D01*
G01X12356015Y462280D01*
G01X12373033Y456438D01*
G01X12378875Y456438D01*
G01X12395893Y462280D01*
G01X12407323Y473710D01*
G01X12413165Y490728D01*
G01X12413165Y496570D01*
G01X12407323Y513588D01*
G01X12395893Y525018D01*
G01X12378875Y530860D01*
G01X12373033Y530860D01*
G01X12356015Y525018D01*
G01X12344585Y513588D01*
G01X12338743Y496570D01*
G01X12460917Y536448D02*
G01X12523909Y456438D01*
G01X12523909Y536448D02*
G01X12460917Y456438D01*
G01X12651671Y576580D02*
G01X12594521Y456438D01*
G01X12571661Y576580D02*
G01X12651671Y576580D01*
G01X12733713Y576580D02*
G01X12716695Y570738D01*
G01X12705265Y553720D01*
G01X12699423Y525018D01*
G01X12699423Y508000D01*
G01X12705265Y479298D01*
G01X12716695Y462280D01*
G01X12733713Y456438D01*
G01X12745143Y456438D01*
G01X12762415Y462280D01*
G01X12773845Y479298D01*
G01X12779433Y508000D01*
G01X12779433Y525018D01*
G01X12773845Y553720D01*
G01X12762415Y570738D01*
G01X12745143Y576580D01*
G01X12733713Y576580D01*
G01X12833027Y485140D02*
G01X12827185Y479298D01*
G01X12833027Y473710D01*
G01X12838615Y479298D01*
G01X12833027Y485140D01*
G01X12960789Y536448D02*
G01X12954947Y519430D01*
G01X12943517Y508000D01*
G01X12926499Y502158D01*
G01X12920657Y502158D01*
G01X12903639Y508000D01*
G01X12892209Y519430D01*
G01X12886367Y536448D01*
G01X12886367Y542290D01*
G01X12892209Y559308D01*
G01X12903639Y570738D01*
G01X12920657Y576580D01*
G01X12926499Y576580D01*
G01X12943517Y570738D01*
G01X12954947Y559308D01*
G01X12960789Y536448D01*
G01X12960789Y508000D01*
G01X12954947Y479298D01*
G01X12943517Y462280D01*
G01X12926499Y456438D01*
G01X12915069Y456438D01*
G01X12897797Y462280D01*
G01X12892209Y473710D01*
G01X13008541Y536448D02*
G01X13008541Y456438D01*
G01X13008541Y513588D02*
G01X13025813Y530860D01*
G01X13037243Y536448D01*
G01X13054261Y536448D01*
G01X13065691Y530860D01*
G01X13071533Y513588D01*
G01X13071533Y456438D01*
G01X13071533Y513588D02*
G01X13088551Y530860D01*
G01X13099981Y536448D01*
G01X13117253Y536448D01*
G01X13128683Y530860D01*
G01X13134271Y513588D01*
G01X13134271Y456438D01*
G01X13182023Y576580D02*
G01X13187865Y570738D01*
G01X13193453Y576580D01*
G01X13187865Y582168D01*
G01X13182023Y576580D01*
G01X13187865Y536448D02*
G01X13187865Y456438D01*
G01X13241205Y576580D02*
G01X13241205Y456438D01*
G01X13329089Y599440D02*
G01X13317659Y588010D01*
G01X13306229Y570738D01*
G01X13294799Y547878D01*
G01X13288957Y519430D01*
G01X13288957Y496570D01*
G01X13294799Y467868D01*
G01X13306229Y445008D01*
G01X13317659Y427990D01*
G01X13329089Y416560D01*
G01X13411131Y576580D02*
G01X13394113Y570738D01*
G01X13382683Y553720D01*
G01X13376841Y525018D01*
G01X13376841Y508000D01*
G01X13382683Y479298D01*
G01X13394113Y462280D01*
G01X13411131Y456438D01*
G01X13422561Y456438D01*
G01X13439833Y462280D01*
G01X13451263Y479298D01*
G01X13456851Y508000D01*
G01X13456851Y525018D01*
G01X13451263Y553720D01*
G01X13439833Y570738D01*
G01X13422561Y576580D01*
G01X13411131Y576580D01*
G01X13510445Y485140D02*
G01X13504603Y479298D01*
G01X13510445Y473710D01*
G01X13516033Y479298D01*
G01X13510445Y485140D01*
G01X13632365Y559308D02*
G01X13626777Y570738D01*
G01X13609505Y576580D01*
G01X13598075Y576580D01*
G01X13581057Y570738D01*
G01X13569627Y553720D01*
G01X13563785Y525018D01*
G01X13563785Y496570D01*
G01X13569627Y473710D01*
G01X13581057Y462280D01*
G01X13598075Y456438D01*
G01X13603917Y456438D01*
G01X13620935Y462280D01*
G01X13632365Y473710D01*
G01X13638207Y490728D01*
G01X13638207Y496570D01*
G01X13632365Y513588D01*
G01X13620935Y525018D01*
G01X13603917Y530860D01*
G01X13598075Y530860D01*
G01X13581057Y525018D01*
G01X13569627Y513588D01*
G01X13563785Y496570D01*
G01X13720249Y576580D02*
G01X13703231Y570738D01*
G01X13691801Y553720D01*
G01X13685959Y525018D01*
G01X13685959Y508000D01*
G01X13691801Y479298D01*
G01X13703231Y462280D01*
G01X13720249Y456438D01*
G01X13731679Y456438D01*
G01X13748951Y462280D01*
G01X13760381Y479298D01*
G01X13765969Y508000D01*
G01X13765969Y525018D01*
G01X13760381Y553720D01*
G01X13748951Y570738D01*
G01X13731679Y576580D01*
G01X13720249Y576580D01*
G01X13848011Y576580D02*
G01X13830993Y570738D01*
G01X13819563Y553720D01*
G01X13813721Y525018D01*
G01X13813721Y508000D01*
G01X13819563Y479298D01*
G01X13830993Y462280D01*
G01X13848011Y456438D01*
G01X13859441Y456438D01*
G01X13876713Y462280D01*
G01X13888143Y479298D01*
G01X13893731Y508000D01*
G01X13893731Y525018D01*
G01X13888143Y553720D01*
G01X13876713Y570738D01*
G01X13859441Y576580D01*
G01X13848011Y576580D01*
G01X13941483Y536448D02*
G01X14004475Y456438D01*
G01X14004475Y536448D02*
G01X13941483Y456438D01*
G01X14052227Y553720D02*
G01X14063657Y559308D01*
G01X14080929Y576580D01*
G01X14080929Y456438D01*
G01X14134523Y485140D02*
G01X14128681Y479298D01*
G01X14134523Y473710D01*
G01X14140111Y479298D01*
G01X14134523Y485140D01*
G01X14216565Y576580D02*
G01X14199293Y570738D01*
G01X14193705Y559308D01*
G01X14193705Y547878D01*
G01X14199293Y536448D01*
G01X14210723Y530860D01*
G01X14233583Y525018D01*
G01X14250855Y519430D01*
G01X14262285Y508000D01*
G01X14267873Y496570D01*
G01X14267873Y479298D01*
G01X14262285Y467868D01*
G01X14256443Y462280D01*
G01X14239425Y456438D01*
G01X14216565Y456438D01*
G01X14199293Y462280D01*
G01X14193705Y467868D01*
G01X14187863Y479298D01*
G01X14187863Y496570D01*
G01X14193705Y508000D01*
G01X14205135Y519430D01*
G01X14222153Y525018D01*
G01X14245013Y530860D01*
G01X14256443Y536448D01*
G01X14262285Y547878D01*
G01X14262285Y559308D01*
G01X14256443Y570738D01*
G01X14239425Y576580D01*
G01X14216565Y576580D01*
G01X14349915Y576580D02*
G01X14332897Y570738D01*
G01X14321467Y553720D01*
G01X14315625Y525018D01*
G01X14315625Y508000D01*
G01X14321467Y479298D01*
G01X14332897Y462280D01*
G01X14349915Y456438D01*
G01X14361345Y456438D01*
G01X14378617Y462280D01*
G01X14390047Y479298D01*
G01X14395635Y508000D01*
G01X14395635Y525018D01*
G01X14390047Y553720D01*
G01X14378617Y570738D01*
G01X14361345Y576580D01*
G01X14349915Y576580D01*
G01X14477677Y576580D02*
G01X14460659Y570738D01*
G01X14449229Y553720D01*
G01X14443387Y525018D01*
G01X14443387Y508000D01*
G01X14449229Y479298D01*
G01X14460659Y462280D01*
G01X14477677Y456438D01*
G01X14489107Y456438D01*
G01X14506379Y462280D01*
G01X14517809Y479298D01*
G01X14523397Y508000D01*
G01X14523397Y525018D01*
G01X14517809Y553720D01*
G01X14506379Y570738D01*
G01X14489107Y576580D01*
G01X14477677Y576580D01*
G01X14571149Y536448D02*
G01X14571149Y456438D01*
G01X14571149Y513588D02*
G01X14588421Y530860D01*
G01X14599851Y536448D01*
G01X14616869Y536448D01*
G01X14628299Y530860D01*
G01X14634141Y513588D01*
G01X14634141Y456438D01*
G01X14634141Y513588D02*
G01X14651159Y530860D01*
G01X14662589Y536448D01*
G01X14679861Y536448D01*
G01X14691291Y530860D01*
G01X14696879Y513588D01*
G01X14696879Y456438D01*
G01X14744631Y536448D02*
G01X14744631Y456438D01*
G01X14744631Y513588D02*
G01X14761903Y530860D01*
G01X14773333Y536448D01*
G01X14790351Y536448D01*
G01X14801781Y530860D01*
G01X14807623Y513588D01*
G01X14807623Y456438D01*
G01X14807623Y513588D02*
G01X14824641Y530860D01*
G01X14836071Y536448D01*
G01X14853343Y536448D01*
G01X14864773Y530860D01*
G01X14870361Y513588D01*
G01X14870361Y456438D01*
G01X14918113Y599440D02*
G01X14929543Y588010D01*
G01X14940973Y570738D01*
G01X14952403Y547878D01*
G01X14958245Y519430D01*
G01X14958245Y496570D01*
G01X14952403Y467868D01*
G01X14940973Y445008D01*
G01X14929543Y427990D01*
G01X14918113Y416560D01*
G01X15849423Y576580D02*
G01X15849423Y456438D01*
G01X15849423Y576580D02*
G01X15900985Y576580D01*
G01X15918003Y570738D01*
G01X15923845Y565150D01*
G01X15929433Y553720D01*
G01X15929433Y536448D01*
G01X15923845Y525018D01*
G01X15918003Y519430D01*
G01X15900985Y513588D01*
G01X15849423Y513588D01*
G01X16017317Y576580D02*
G01X16017317Y456438D01*
G01X15977185Y576580D02*
G01X16057195Y576580D01*
G01X16104947Y576580D02*
G01X16104947Y456438D01*
G01X16184957Y576580D02*
G01X16184957Y456438D01*
G01X16104947Y519430D02*
G01X16184957Y519430D01*
G01X17390840Y559308D02*
G01X17379410Y570738D01*
G01X17362392Y576580D01*
G01X17339532Y576580D01*
G01X17322260Y570738D01*
G01X17310830Y559308D01*
G01X17310830Y547878D01*
G01X17316672Y536448D01*
G01X17322260Y530860D01*
G01X17333690Y525018D01*
G01X17367980Y513588D01*
G01X17379410Y508000D01*
G01X17385252Y502158D01*
G01X17390840Y490728D01*
G01X17390840Y473710D01*
G01X17379410Y462280D01*
G01X17362392Y456438D01*
G01X17339532Y456438D01*
G01X17322260Y462280D01*
G01X17310830Y473710D01*
G01X17438592Y576580D02*
G01X17438592Y456438D01*
G01X17515046Y536448D02*
G01X17503616Y530860D01*
G01X17492186Y519430D01*
G01X17486344Y502158D01*
G01X17486344Y490728D01*
G01X17492186Y473710D01*
G01X17503616Y462280D01*
G01X17515046Y456438D01*
G01X17532064Y456438D01*
G01X17543494Y462280D01*
G01X17554924Y473710D01*
G01X17560766Y490728D01*
G01X17560766Y502158D01*
G01X17554924Y519430D01*
G01X17543494Y530860D01*
G01X17532064Y536448D01*
G01X17515046Y536448D01*
G01X17625790Y576580D02*
G01X17625790Y479298D01*
G01X17631378Y462280D01*
G01X17642808Y456438D01*
G01X17654238Y456438D01*
G01X17608518Y536448D02*
G01X17648650Y536448D01*
G01X18742011Y576580D02*
G01X18742011Y456438D01*
G01X18742011Y576580D02*
G01X18793573Y576580D01*
G01X18810591Y570738D01*
G01X18816433Y565150D01*
G01X18822021Y553720D01*
G01X18822021Y536448D01*
G01X18816433Y525018D01*
G01X18810591Y519430D01*
G01X18793573Y513588D01*
G01X18742011Y513588D01*
G01X18938353Y536448D02*
G01X18938353Y456438D01*
G01X18938353Y519430D02*
G01X18926923Y530860D01*
G01X18915493Y536448D01*
G01X18898475Y536448D01*
G01X18887045Y530860D01*
G01X18875615Y519430D01*
G01X18869773Y502158D01*
G01X18869773Y490728D01*
G01X18875615Y473710D01*
G01X18887045Y462280D01*
G01X18898475Y456438D01*
G01X18915493Y456438D01*
G01X18926923Y462280D01*
G01X18938353Y473710D01*
G01X19054685Y576580D02*
G01X19054685Y456438D01*
G01X19054685Y519430D02*
G01X19043255Y530860D01*
G01X19031825Y536448D01*
G01X19014807Y536448D01*
G01X19003377Y530860D01*
G01X18991947Y519430D01*
G01X18986105Y502158D01*
G01X18986105Y490728D01*
G01X18991947Y473710D01*
G01X19003377Y462280D01*
G01X19014807Y456438D01*
G01X19031825Y456438D01*
G01X19043255Y462280D01*
G01X19054685Y473710D01*
G01X20445480Y576580D02*
G01X20434050Y570738D01*
G01X20422620Y559308D01*
G01X20417032Y547878D01*
G01X20411190Y530860D01*
G01X20411190Y502158D01*
G01X20417032Y485140D01*
G01X20422620Y473710D01*
G01X20434050Y462280D01*
G01X20445480Y456438D01*
G01X20468340Y456438D01*
G01X20479770Y462280D01*
G01X20491200Y473710D01*
G01X20497042Y485140D01*
G01X20502630Y502158D01*
G01X20502630Y530860D01*
G01X20497042Y547878D01*
G01X20491200Y559308D01*
G01X20479770Y570738D01*
G01X20468340Y576580D01*
G01X20445480Y576580D01*
G01X20550382Y536448D02*
G01X20584672Y456438D01*
G01X20618962Y536448D02*
G01X20584672Y456438D01*
G01X20735294Y536448D02*
G01X20735294Y456438D01*
G01X20735294Y519430D02*
G01X20723864Y530860D01*
G01X20712434Y536448D01*
G01X20695416Y536448D01*
G01X20683986Y530860D01*
G01X20672556Y519430D01*
G01X20666714Y502158D01*
G01X20666714Y490728D01*
G01X20672556Y473710D01*
G01X20683986Y462280D01*
G01X20695416Y456438D01*
G01X20712434Y456438D01*
G01X20723864Y462280D01*
G01X20735294Y473710D01*
G01X20783046Y576580D02*
G01X20783046Y456438D01*
G01X22370691Y576580D02*
G01X22370691Y456438D01*
G01X22330559Y576580D02*
G01X22410569Y576580D01*
G01X22487023Y536448D02*
G01X22475593Y530860D01*
G01X22464163Y519430D01*
G01X22458321Y502158D01*
G01X22458321Y490728D01*
G01X22464163Y473710D01*
G01X22475593Y462280D01*
G01X22487023Y456438D01*
G01X22504041Y456438D01*
G01X22515471Y462280D01*
G01X22526901Y473710D01*
G01X22532743Y490728D01*
G01X22532743Y502158D01*
G01X22526901Y519430D01*
G01X22515471Y530860D01*
G01X22504041Y536448D01*
G01X22487023Y536448D01*
G01X22580495Y536448D02*
G01X22580495Y416560D01*
G01X22580495Y519430D02*
G01X22591925Y530860D01*
G01X22603355Y536448D01*
G01X22620627Y536448D01*
G01X22632057Y530860D01*
G01X22643487Y519430D01*
G01X22649075Y502158D01*
G01X22649075Y490728D01*
G01X22643487Y473710D01*
G01X22632057Y462280D01*
G01X22620627Y456438D01*
G01X22603355Y456438D01*
G01X22591925Y462280D01*
G01X22580495Y473710D01*
G01X22824843Y576580D02*
G01X22824843Y456438D01*
G01X22824843Y456438D02*
G01X22893423Y456438D01*
G01X23009755Y536448D02*
G01X23009755Y456438D01*
G01X23009755Y519430D02*
G01X22998325Y530860D01*
G01X22986895Y536448D01*
G01X22969877Y536448D01*
G01X22958447Y530860D01*
G01X22947017Y519430D01*
G01X22941175Y502158D01*
G01X22941175Y490728D01*
G01X22947017Y473710D01*
G01X22958447Y462280D01*
G01X22969877Y456438D01*
G01X22986895Y456438D01*
G01X22998325Y462280D01*
G01X23009755Y473710D01*
G01X23063349Y536448D02*
G01X23097639Y456438D01*
G01X23131929Y536448D02*
G01X23097639Y456438D01*
G01X23086209Y433578D01*
G01X23074779Y422148D01*
G01X23063349Y416560D01*
G01X23057507Y416560D01*
G01X23179681Y502158D02*
G01X23248261Y502158D01*
G01X23248261Y513588D01*
G01X23242673Y525018D01*
G01X23236831Y530860D01*
G01X23225401Y536448D01*
G01X23208383Y536448D01*
G01X23196953Y530860D01*
G01X23185523Y519430D01*
G01X23179681Y502158D01*
G01X23179681Y490728D01*
G01X23185523Y473710D01*
G01X23196953Y462280D01*
G01X23208383Y456438D01*
G01X23225401Y456438D01*
G01X23236831Y462280D01*
G01X23248261Y473710D01*
G01X23296013Y536448D02*
G01X23296013Y456438D01*
G01X23296013Y502158D02*
G01X23301855Y519430D01*
G01X23313285Y530860D01*
G01X23324715Y536448D01*
G01X23341733Y536448D01*
G01X23389485Y508000D02*
G01X23492355Y508000D01*
G01X23540107Y576580D02*
G01X23540107Y456438D01*
G01X23540107Y576580D02*
G01X23591669Y576580D01*
G01X23608687Y570738D01*
G01X23614529Y565150D01*
G01X23620117Y553720D01*
G01X23620117Y542290D01*
G01X23614529Y530860D01*
G01X23608687Y525018D01*
G01X23591669Y519430D01*
G01X23540107Y519430D02*
G01X23591669Y519430D01*
G01X23608687Y513588D01*
G01X23614529Y508000D01*
G01X23620117Y496570D01*
G01X23620117Y479298D01*
G01X23614529Y467868D01*
G01X23608687Y462280D01*
G01X23591669Y456438D01*
G01X23540107Y456438D01*
G01X23696571Y536448D02*
G01X23685141Y530860D01*
G01X23673711Y519430D01*
G01X23667869Y502158D01*
G01X23667869Y490728D01*
G01X23673711Y473710D01*
G01X23685141Y462280D01*
G01X23696571Y456438D01*
G01X23713589Y456438D01*
G01X23725019Y462280D01*
G01X23736449Y473710D01*
G01X23742291Y490728D01*
G01X23742291Y502158D01*
G01X23736449Y519430D01*
G01X23725019Y530860D01*
G01X23713589Y536448D01*
G01X23696571Y536448D01*
G01X23807315Y576580D02*
G01X23807315Y479298D01*
G01X23812903Y462280D01*
G01X23824333Y456438D01*
G01X23835763Y456438D01*
G01X23790043Y536448D02*
G01X23830175Y536448D01*
G01X23900787Y576580D02*
G01X23900787Y479298D01*
G01X23906375Y462280D01*
G01X23917805Y456438D01*
G01X23929235Y456438D01*
G01X23883515Y536448D02*
G01X23923647Y536448D01*
G01X24005689Y536448D02*
G01X23994259Y530860D01*
G01X23982829Y519430D01*
G01X23976987Y502158D01*
G01X23976987Y490728D01*
G01X23982829Y473710D01*
G01X23994259Y462280D01*
G01X24005689Y456438D01*
G01X24022707Y456438D01*
G01X24034137Y462280D01*
G01X24045567Y473710D01*
G01X24051409Y490728D01*
G01X24051409Y502158D01*
G01X24045567Y519430D01*
G01X24034137Y530860D01*
G01X24022707Y536448D01*
G01X24005689Y536448D01*
G01X24099161Y536448D02*
G01X24099161Y456438D01*
G01X24099161Y513588D02*
G01X24116433Y530860D01*
G01X24127863Y536448D01*
G01X24144881Y536448D01*
G01X24156311Y530860D01*
G01X24162153Y513588D01*
G01X24162153Y456438D01*
G01X24162153Y513588D02*
G01X24179171Y530860D01*
G01X24190601Y536448D01*
G01X24207873Y536448D01*
G01X24219303Y530860D01*
G01X24224891Y513588D01*
G01X24224891Y456438D01*
G01X24400659Y576580D02*
G01X24400659Y456438D01*
G01X24400659Y456438D02*
G01X24469239Y456438D01*
G01X24585571Y536448D02*
G01X24585571Y456438D01*
G01X24585571Y519430D02*
G01X24574141Y530860D01*
G01X24562711Y536448D01*
G01X24545693Y536448D01*
G01X24534263Y530860D01*
G01X24522833Y519430D01*
G01X24516991Y502158D01*
G01X24516991Y490728D01*
G01X24522833Y473710D01*
G01X24534263Y462280D01*
G01X24545693Y456438D01*
G01X24562711Y456438D01*
G01X24574141Y462280D01*
G01X24585571Y473710D01*
G01X24639165Y536448D02*
G01X24673455Y456438D01*
G01X24707745Y536448D02*
G01X24673455Y456438D01*
G01X24662025Y433578D01*
G01X24650595Y422148D01*
G01X24639165Y416560D01*
G01X24633323Y416560D01*
G01X24755497Y502158D02*
G01X24824077Y502158D01*
G01X24824077Y513588D01*
G01X24818489Y525018D01*
G01X24812647Y530860D01*
G01X24801217Y536448D01*
G01X24784199Y536448D01*
G01X24772769Y530860D01*
G01X24761339Y519430D01*
G01X24755497Y502158D01*
G01X24755497Y490728D01*
G01X24761339Y473710D01*
G01X24772769Y462280D01*
G01X24784199Y456438D01*
G01X24801217Y456438D01*
G01X24812647Y462280D01*
G01X24824077Y473710D01*
G01X24871829Y536448D02*
G01X24871829Y456438D01*
G01X24871829Y502158D02*
G01X24877671Y519430D01*
G01X24889101Y530860D01*
G01X24900531Y536448D01*
G01X24917549Y536448D01*
G01X10667024Y-3991D02*
G01X10609874Y-84001D01*
G01X10695726Y-84001D01*
G01X10667024Y-3991D02*
G01X10667024Y-124133D01*
G01X12029879Y-32693D02*
G01X12029879Y-26851D01*
G01X12035467Y-15421D01*
G01X12041309Y-9833D01*
G01X12052739Y-3991D01*
G01X12075599Y-3991D01*
G01X12087029Y-9833D01*
G01X12092617Y-15421D01*
G01X12098459Y-26851D01*
G01X12098459Y-38281D01*
G01X12092617Y-49711D01*
G01X12081187Y-66983D01*
G01X12024037Y-124133D01*
G01X12104047Y-124133D01*
G01X12163229Y-3991D02*
G01X12226221Y-3991D01*
G01X12191931Y-49711D01*
G01X12208949Y-49711D01*
G01X12220379Y-55553D01*
G01X12226221Y-61141D01*
G01X12231809Y-78413D01*
G01X12231809Y-89843D01*
G01X12226221Y-106861D01*
G01X12214791Y-118291D01*
G01X12197519Y-124133D01*
G01X12180501Y-124133D01*
G01X12163229Y-118291D01*
G01X12157641Y-112703D01*
G01X12151799Y-101273D01*
G01X12285403Y-95431D02*
G01X12279561Y-101273D01*
G01X12285403Y-106861D01*
G01X12290991Y-101273D01*
G01X12285403Y-95431D01*
G01X12407323Y-21263D02*
G01X12401735Y-9833D01*
G01X12384463Y-3991D01*
G01X12373033Y-3991D01*
G01X12356015Y-9833D01*
G01X12344585Y-26851D01*
G01X12338743Y-55553D01*
G01X12338743Y-84001D01*
G01X12344585Y-106861D01*
G01X12356015Y-118291D01*
G01X12373033Y-124133D01*
G01X12378875Y-124133D01*
G01X12395893Y-118291D01*
G01X12407323Y-106861D01*
G01X12413165Y-89843D01*
G01X12413165Y-84001D01*
G01X12407323Y-66983D01*
G01X12395893Y-55553D01*
G01X12378875Y-49711D01*
G01X12373033Y-49711D01*
G01X12356015Y-55553D01*
G01X12344585Y-66983D01*
G01X12338743Y-84001D01*
G01X12460917Y-44123D02*
G01X12523909Y-124133D01*
G01X12523909Y-44123D02*
G01X12460917Y-124133D01*
G01X12640241Y-3991D02*
G01X12583091Y-3991D01*
G01X12577503Y-55553D01*
G01X12583091Y-49711D01*
G01X12600363Y-44123D01*
G01X12617381Y-44123D01*
G01X12634653Y-49711D01*
G01X12646083Y-61141D01*
G01X12651671Y-78413D01*
G01X12651671Y-89843D01*
G01X12646083Y-106861D01*
G01X12634653Y-118291D01*
G01X12617381Y-124133D01*
G01X12600363Y-124133D01*
G01X12583091Y-118291D01*
G01X12577503Y-112703D01*
G01X12571661Y-101273D01*
G01X12768003Y-3991D02*
G01X12710853Y-3991D01*
G01X12705265Y-55553D01*
G01X12710853Y-49711D01*
G01X12728125Y-44123D01*
G01X12745143Y-44123D01*
G01X12762415Y-49711D01*
G01X12773845Y-61141D01*
G01X12779433Y-78413D01*
G01X12779433Y-89843D01*
G01X12773845Y-106861D01*
G01X12762415Y-118291D01*
G01X12745143Y-124133D01*
G01X12728125Y-124133D01*
G01X12710853Y-118291D01*
G01X12705265Y-112703D01*
G01X12699423Y-101273D01*
G01X12833027Y-95431D02*
G01X12827185Y-101273D01*
G01X12833027Y-106861D01*
G01X12838615Y-101273D01*
G01X12833027Y-95431D01*
G01X12886367Y-26851D02*
G01X12897797Y-21263D01*
G01X12915069Y-3991D01*
G01X12915069Y-124133D01*
G01X12962821Y-44123D02*
G01X12962821Y-124133D01*
G01X12962821Y-66983D02*
G01X12980093Y-49711D01*
G01X12991523Y-44123D01*
G01X13008541Y-44123D01*
G01X13019971Y-49711D01*
G01X13025813Y-66983D01*
G01X13025813Y-124133D01*
G01X13025813Y-66983D02*
G01X13042831Y-49711D01*
G01X13054261Y-44123D01*
G01X13071533Y-44123D01*
G01X13082963Y-49711D01*
G01X13088551Y-66983D01*
G01X13088551Y-124133D01*
G01X13136303Y-3991D02*
G01X13142145Y-9833D01*
G01X13147733Y-3991D01*
G01X13142145Y1597D01*
G01X13136303Y-3991D01*
G01X13142145Y-44123D02*
G01X13142145Y-124133D01*
G01X13195485Y-3991D02*
G01X13195485Y-124133D01*
G01X13283369Y18869D02*
G01X13271939Y7439D01*
G01X13260509Y-9833D01*
G01X13249079Y-32693D01*
G01X13243237Y-61141D01*
G01X13243237Y-84001D01*
G01X13249079Y-112703D01*
G01X13260509Y-135563D01*
G01X13271939Y-152581D01*
G01X13283369Y-164011D01*
G01X13365411Y-3991D02*
G01X13348393Y-9833D01*
G01X13336963Y-26851D01*
G01X13331121Y-55553D01*
G01X13331121Y-72571D01*
G01X13336963Y-101273D01*
G01X13348393Y-118291D01*
G01X13365411Y-124133D01*
G01X13376841Y-124133D01*
G01X13394113Y-118291D01*
G01X13405543Y-101273D01*
G01X13411131Y-72571D01*
G01X13411131Y-55553D01*
G01X13405543Y-26851D01*
G01X13394113Y-9833D01*
G01X13376841Y-3991D01*
G01X13365411Y-3991D01*
G01X13464725Y-95431D02*
G01X13458883Y-101273D01*
G01X13464725Y-106861D01*
G01X13470313Y-101273D01*
G01X13464725Y-95431D01*
G01X13586645Y-21263D02*
G01X13581057Y-9833D01*
G01X13563785Y-3991D01*
G01X13552355Y-3991D01*
G01X13535337Y-9833D01*
G01X13523907Y-26851D01*
G01X13518065Y-55553D01*
G01X13518065Y-84001D01*
G01X13523907Y-106861D01*
G01X13535337Y-118291D01*
G01X13552355Y-124133D01*
G01X13558197Y-124133D01*
G01X13575215Y-118291D01*
G01X13586645Y-106861D01*
G01X13592487Y-89843D01*
G01X13592487Y-84001D01*
G01X13586645Y-66983D01*
G01X13575215Y-55553D01*
G01X13558197Y-49711D01*
G01X13552355Y-49711D01*
G01X13535337Y-55553D01*
G01X13523907Y-66983D01*
G01X13518065Y-84001D01*
G01X13674529Y-3991D02*
G01X13657511Y-9833D01*
G01X13646081Y-26851D01*
G01X13640239Y-55553D01*
G01X13640239Y-72571D01*
G01X13646081Y-101273D01*
G01X13657511Y-118291D01*
G01X13674529Y-124133D01*
G01X13685959Y-124133D01*
G01X13703231Y-118291D01*
G01X13714661Y-101273D01*
G01X13720249Y-72571D01*
G01X13720249Y-55553D01*
G01X13714661Y-26851D01*
G01X13703231Y-9833D01*
G01X13685959Y-3991D01*
G01X13674529Y-3991D01*
G01X13802291Y-3991D02*
G01X13785273Y-9833D01*
G01X13773843Y-26851D01*
G01X13768001Y-55553D01*
G01X13768001Y-72571D01*
G01X13773843Y-101273D01*
G01X13785273Y-118291D01*
G01X13802291Y-124133D01*
G01X13813721Y-124133D01*
G01X13830993Y-118291D01*
G01X13842423Y-101273D01*
G01X13848011Y-72571D01*
G01X13848011Y-55553D01*
G01X13842423Y-26851D01*
G01X13830993Y-9833D01*
G01X13813721Y-3991D01*
G01X13802291Y-3991D01*
G01X13895763Y-44123D02*
G01X13958755Y-124133D01*
G01X13958755Y-44123D02*
G01X13895763Y-124133D01*
G01X14006507Y-26851D02*
G01X14017937Y-21263D01*
G01X14035209Y-3991D01*
G01X14035209Y-124133D01*
G01X14088803Y-95431D02*
G01X14082961Y-101273D01*
G01X14088803Y-106861D01*
G01X14094391Y-101273D01*
G01X14088803Y-95431D01*
G01X14199293Y-3991D02*
G01X14142143Y-84001D01*
G01X14227995Y-84001D01*
G01X14199293Y-3991D02*
G01X14199293Y-124133D01*
G01X14310037Y-3991D02*
G01X14293019Y-9833D01*
G01X14281589Y-26851D01*
G01X14275747Y-55553D01*
G01X14275747Y-72571D01*
G01X14281589Y-101273D01*
G01X14293019Y-118291D01*
G01X14310037Y-124133D01*
G01X14321467Y-124133D01*
G01X14338739Y-118291D01*
G01X14350169Y-101273D01*
G01X14355757Y-72571D01*
G01X14355757Y-55553D01*
G01X14350169Y-26851D01*
G01X14338739Y-9833D01*
G01X14321467Y-3991D01*
G01X14310037Y-3991D01*
G01X14437799Y-3991D02*
G01X14420781Y-9833D01*
G01X14409351Y-26851D01*
G01X14403509Y-55553D01*
G01X14403509Y-72571D01*
G01X14409351Y-101273D01*
G01X14420781Y-118291D01*
G01X14437799Y-124133D01*
G01X14449229Y-124133D01*
G01X14466501Y-118291D01*
G01X14477931Y-101273D01*
G01X14483519Y-72571D01*
G01X14483519Y-55553D01*
G01X14477931Y-26851D01*
G01X14466501Y-9833D01*
G01X14449229Y-3991D01*
G01X14437799Y-3991D01*
G01X14531271Y-44123D02*
G01X14531271Y-124133D01*
G01X14531271Y-66983D02*
G01X14548543Y-49711D01*
G01X14559973Y-44123D01*
G01X14576991Y-44123D01*
G01X14588421Y-49711D01*
G01X14594263Y-66983D01*
G01X14594263Y-124133D01*
G01X14594263Y-66983D02*
G01X14611281Y-49711D01*
G01X14622711Y-44123D01*
G01X14639983Y-44123D01*
G01X14651413Y-49711D01*
G01X14657001Y-66983D01*
G01X14657001Y-124133D01*
G01X14704753Y-44123D02*
G01X14704753Y-124133D01*
G01X14704753Y-66983D02*
G01X14722025Y-49711D01*
G01X14733455Y-44123D01*
G01X14750473Y-44123D01*
G01X14761903Y-49711D01*
G01X14767745Y-66983D01*
G01X14767745Y-124133D01*
G01X14767745Y-66983D02*
G01X14784763Y-49711D01*
G01X14796193Y-44123D01*
G01X14813465Y-44123D01*
G01X14824895Y-49711D01*
G01X14830483Y-66983D01*
G01X14830483Y-124133D01*
G01X14878235Y18869D02*
G01X14889665Y7439D01*
G01X14901095Y-9833D01*
G01X14912525Y-32693D01*
G01X14918367Y-61141D01*
G01X14918367Y-84001D01*
G01X14912525Y-112703D01*
G01X14901095Y-135563D01*
G01X14889665Y-152581D01*
G01X14878235Y-164011D01*
G01X15849423Y-3991D02*
G01X15849423Y-124133D01*
G01X15849423Y-3991D02*
G01X15900985Y-3991D01*
G01X15918003Y-9833D01*
G01X15923845Y-15421D01*
G01X15929433Y-26851D01*
G01X15929433Y-44123D01*
G01X15923845Y-55553D01*
G01X15918003Y-61141D01*
G01X15900985Y-66983D01*
G01X15849423Y-66983D01*
G01X16017317Y-3991D02*
G01X16017317Y-124133D01*
G01X15977185Y-3991D02*
G01X16057195Y-3991D01*
G01X16104947Y-3991D02*
G01X16104947Y-124133D01*
G01X16184957Y-3991D02*
G01X16184957Y-124133D01*
G01X16104947Y-61141D02*
G01X16184957Y-61141D01*
G01X17390840Y-21263D02*
G01X17379410Y-9833D01*
G01X17362392Y-3991D01*
G01X17339532Y-3991D01*
G01X17322260Y-9833D01*
G01X17310830Y-21263D01*
G01X17310830Y-32693D01*
G01X17316672Y-44123D01*
G01X17322260Y-49711D01*
G01X17333690Y-55553D01*
G01X17367980Y-66983D01*
G01X17379410Y-72571D01*
G01X17385252Y-78413D01*
G01X17390840Y-89843D01*
G01X17390840Y-106861D01*
G01X17379410Y-118291D01*
G01X17362392Y-124133D01*
G01X17339532Y-124133D01*
G01X17322260Y-118291D01*
G01X17310830Y-106861D01*
G01X17438592Y-3991D02*
G01X17438592Y-124133D01*
G01X17515046Y-44123D02*
G01X17503616Y-49711D01*
G01X17492186Y-61141D01*
G01X17486344Y-78413D01*
G01X17486344Y-89843D01*
G01X17492186Y-106861D01*
G01X17503616Y-118291D01*
G01X17515046Y-124133D01*
G01X17532064Y-124133D01*
G01X17543494Y-118291D01*
G01X17554924Y-106861D01*
G01X17560766Y-89843D01*
G01X17560766Y-78413D01*
G01X17554924Y-61141D01*
G01X17543494Y-49711D01*
G01X17532064Y-44123D01*
G01X17515046Y-44123D01*
G01X17625790Y-3991D02*
G01X17625790Y-101273D01*
G01X17631378Y-118291D01*
G01X17642808Y-124133D01*
G01X17654238Y-124133D01*
G01X17608518Y-44123D02*
G01X17648650Y-44123D01*
G01X18742011Y-3991D02*
G01X18742011Y-124133D01*
G01X18742011Y-3991D02*
G01X18793573Y-3991D01*
G01X18810591Y-9833D01*
G01X18816433Y-15421D01*
G01X18822021Y-26851D01*
G01X18822021Y-44123D01*
G01X18816433Y-55553D01*
G01X18810591Y-61141D01*
G01X18793573Y-66983D01*
G01X18742011Y-66983D01*
G01X18938353Y-44123D02*
G01X18938353Y-124133D01*
G01X18938353Y-61141D02*
G01X18926923Y-49711D01*
G01X18915493Y-44123D01*
G01X18898475Y-44123D01*
G01X18887045Y-49711D01*
G01X18875615Y-61141D01*
G01X18869773Y-78413D01*
G01X18869773Y-89843D01*
G01X18875615Y-106861D01*
G01X18887045Y-118291D01*
G01X18898475Y-124133D01*
G01X18915493Y-124133D01*
G01X18926923Y-118291D01*
G01X18938353Y-106861D01*
G01X19054685Y-3991D02*
G01X19054685Y-124133D01*
G01X19054685Y-61141D02*
G01X19043255Y-49711D01*
G01X19031825Y-44123D01*
G01X19014807Y-44123D01*
G01X19003377Y-49711D01*
G01X18991947Y-61141D01*
G01X18986105Y-78413D01*
G01X18986105Y-89843D01*
G01X18991947Y-106861D01*
G01X19003377Y-118291D01*
G01X19014807Y-124133D01*
G01X19031825Y-124133D01*
G01X19043255Y-118291D01*
G01X19054685Y-106861D01*
G01X20445480Y-3991D02*
G01X20434050Y-9833D01*
G01X20422620Y-21263D01*
G01X20417032Y-32693D01*
G01X20411190Y-49711D01*
G01X20411190Y-78413D01*
G01X20417032Y-95431D01*
G01X20422620Y-106861D01*
G01X20434050Y-118291D01*
G01X20445480Y-124133D01*
G01X20468340Y-124133D01*
G01X20479770Y-118291D01*
G01X20491200Y-106861D01*
G01X20497042Y-95431D01*
G01X20502630Y-78413D01*
G01X20502630Y-49711D01*
G01X20497042Y-32693D01*
G01X20491200Y-21263D01*
G01X20479770Y-9833D01*
G01X20468340Y-3991D01*
G01X20445480Y-3991D01*
G01X20550382Y-44123D02*
G01X20584672Y-124133D01*
G01X20618962Y-44123D02*
G01X20584672Y-124133D01*
G01X20735294Y-44123D02*
G01X20735294Y-124133D01*
G01X20735294Y-61141D02*
G01X20723864Y-49711D01*
G01X20712434Y-44123D01*
G01X20695416Y-44123D01*
G01X20683986Y-49711D01*
G01X20672556Y-61141D01*
G01X20666714Y-78413D01*
G01X20666714Y-89843D01*
G01X20672556Y-106861D01*
G01X20683986Y-118291D01*
G01X20695416Y-124133D01*
G01X20712434Y-124133D01*
G01X20723864Y-118291D01*
G01X20735294Y-106861D01*
G01X20783046Y-3991D02*
G01X20783046Y-124133D01*
G01X22370691Y-3991D02*
G01X22370691Y-124133D01*
G01X22330559Y-3991D02*
G01X22410569Y-3991D01*
G01X22487023Y-44123D02*
G01X22475593Y-49711D01*
G01X22464163Y-61141D01*
G01X22458321Y-78413D01*
G01X22458321Y-89843D01*
G01X22464163Y-106861D01*
G01X22475593Y-118291D01*
G01X22487023Y-124133D01*
G01X22504041Y-124133D01*
G01X22515471Y-118291D01*
G01X22526901Y-106861D01*
G01X22532743Y-89843D01*
G01X22532743Y-78413D01*
G01X22526901Y-61141D01*
G01X22515471Y-49711D01*
G01X22504041Y-44123D01*
G01X22487023Y-44123D01*
G01X22580495Y-44123D02*
G01X22580495Y-164011D01*
G01X22580495Y-61141D02*
G01X22591925Y-49711D01*
G01X22603355Y-44123D01*
G01X22620627Y-44123D01*
G01X22632057Y-49711D01*
G01X22643487Y-61141D01*
G01X22649075Y-78413D01*
G01X22649075Y-89843D01*
G01X22643487Y-106861D01*
G01X22632057Y-118291D01*
G01X22620627Y-124133D01*
G01X22603355Y-124133D01*
G01X22591925Y-118291D01*
G01X22580495Y-106861D01*
G01X22824843Y-3991D02*
G01X22824843Y-124133D01*
G01X22824843Y-124133D02*
G01X22893423Y-124133D01*
G01X23009755Y-44123D02*
G01X23009755Y-124133D01*
G01X23009755Y-61141D02*
G01X22998325Y-49711D01*
G01X22986895Y-44123D01*
G01X22969877Y-44123D01*
G01X22958447Y-49711D01*
G01X22947017Y-61141D01*
G01X22941175Y-78413D01*
G01X22941175Y-89843D01*
G01X22947017Y-106861D01*
G01X22958447Y-118291D01*
G01X22969877Y-124133D01*
G01X22986895Y-124133D01*
G01X22998325Y-118291D01*
G01X23009755Y-106861D01*
G01X23063349Y-44123D02*
G01X23097639Y-124133D01*
G01X23131929Y-44123D02*
G01X23097639Y-124133D01*
G01X23086209Y-146993D01*
G01X23074779Y-158423D01*
G01X23063349Y-164011D01*
G01X23057507Y-164011D01*
G01X23179681Y-78413D02*
G01X23248261Y-78413D01*
G01X23248261Y-66983D01*
G01X23242673Y-55553D01*
G01X23236831Y-49711D01*
G01X23225401Y-44123D01*
G01X23208383Y-44123D01*
G01X23196953Y-49711D01*
G01X23185523Y-61141D01*
G01X23179681Y-78413D01*
G01X23179681Y-89843D01*
G01X23185523Y-106861D01*
G01X23196953Y-118291D01*
G01X23208383Y-124133D01*
G01X23225401Y-124133D01*
G01X23236831Y-118291D01*
G01X23248261Y-106861D01*
G01X23296013Y-44123D02*
G01X23296013Y-124133D01*
G01X23296013Y-78413D02*
G01X23301855Y-61141D01*
G01X23313285Y-49711D01*
G01X23324715Y-44123D01*
G01X23341733Y-44123D01*
G01X23389485Y-72571D02*
G01X23492355Y-72571D01*
G01X23540107Y-3991D02*
G01X23540107Y-124133D01*
G01X23540107Y-3991D02*
G01X23591669Y-3991D01*
G01X23608687Y-9833D01*
G01X23614529Y-15421D01*
G01X23620117Y-26851D01*
G01X23620117Y-38281D01*
G01X23614529Y-49711D01*
G01X23608687Y-55553D01*
G01X23591669Y-61141D01*
G01X23540107Y-61141D02*
G01X23591669Y-61141D01*
G01X23608687Y-66983D01*
G01X23614529Y-72571D01*
G01X23620117Y-84001D01*
G01X23620117Y-101273D01*
G01X23614529Y-112703D01*
G01X23608687Y-118291D01*
G01X23591669Y-124133D01*
G01X23540107Y-124133D01*
G01X23696571Y-44123D02*
G01X23685141Y-49711D01*
G01X23673711Y-61141D01*
G01X23667869Y-78413D01*
G01X23667869Y-89843D01*
G01X23673711Y-106861D01*
G01X23685141Y-118291D01*
G01X23696571Y-124133D01*
G01X23713589Y-124133D01*
G01X23725019Y-118291D01*
G01X23736449Y-106861D01*
G01X23742291Y-89843D01*
G01X23742291Y-78413D01*
G01X23736449Y-61141D01*
G01X23725019Y-49711D01*
G01X23713589Y-44123D01*
G01X23696571Y-44123D01*
G01X23807315Y-3991D02*
G01X23807315Y-101273D01*
G01X23812903Y-118291D01*
G01X23824333Y-124133D01*
G01X23835763Y-124133D01*
G01X23790043Y-44123D02*
G01X23830175Y-44123D01*
G01X23900787Y-3991D02*
G01X23900787Y-101273D01*
G01X23906375Y-118291D01*
G01X23917805Y-124133D01*
G01X23929235Y-124133D01*
G01X23883515Y-44123D02*
G01X23923647Y-44123D01*
G01X24005689Y-44123D02*
G01X23994259Y-49711D01*
G01X23982829Y-61141D01*
G01X23976987Y-78413D01*
G01X23976987Y-89843D01*
G01X23982829Y-106861D01*
G01X23994259Y-118291D01*
G01X24005689Y-124133D01*
G01X24022707Y-124133D01*
G01X24034137Y-118291D01*
G01X24045567Y-106861D01*
G01X24051409Y-89843D01*
G01X24051409Y-78413D01*
G01X24045567Y-61141D01*
G01X24034137Y-49711D01*
G01X24022707Y-44123D01*
G01X24005689Y-44123D01*
G01X24099161Y-44123D02*
G01X24099161Y-124133D01*
G01X24099161Y-66983D02*
G01X24116433Y-49711D01*
G01X24127863Y-44123D01*
G01X24144881Y-44123D01*
G01X24156311Y-49711D01*
G01X24162153Y-66983D01*
G01X24162153Y-124133D01*
G01X24162153Y-66983D02*
G01X24179171Y-49711D01*
G01X24190601Y-44123D01*
G01X24207873Y-44123D01*
G01X24219303Y-49711D01*
G01X24224891Y-66983D01*
G01X24224891Y-124133D01*
G01X24400659Y-3991D02*
G01X24400659Y-124133D01*
G01X24400659Y-124133D02*
G01X24469239Y-124133D01*
G01X24585571Y-44123D02*
G01X24585571Y-124133D01*
G01X24585571Y-61141D02*
G01X24574141Y-49711D01*
G01X24562711Y-44123D01*
G01X24545693Y-44123D01*
G01X24534263Y-49711D01*
G01X24522833Y-61141D01*
G01X24516991Y-78413D01*
G01X24516991Y-89843D01*
G01X24522833Y-106861D01*
G01X24534263Y-118291D01*
G01X24545693Y-124133D01*
G01X24562711Y-124133D01*
G01X24574141Y-118291D01*
G01X24585571Y-106861D01*
G01X24639165Y-44123D02*
G01X24673455Y-124133D01*
G01X24707745Y-44123D02*
G01X24673455Y-124133D01*
G01X24662025Y-146993D01*
G01X24650595Y-158423D01*
G01X24639165Y-164011D01*
G01X24633323Y-164011D01*
G01X24755497Y-78413D02*
G01X24824077Y-78413D01*
G01X24824077Y-66983D01*
G01X24818489Y-55553D01*
G01X24812647Y-49711D01*
G01X24801217Y-44123D01*
G01X24784199Y-44123D01*
G01X24772769Y-49711D01*
G01X24761339Y-61141D01*
G01X24755497Y-78413D01*
G01X24755497Y-89843D01*
G01X24761339Y-106861D01*
G01X24772769Y-118291D01*
G01X24784199Y-124133D01*
G01X24801217Y-124133D01*
G01X24812647Y-118291D01*
G01X24824077Y-106861D01*
G01X24871829Y-44123D02*
G01X24871829Y-124133D01*
G01X24871829Y-78413D02*
G01X24877671Y-61141D01*
G01X24889101Y-49711D01*
G01X24900531Y-44123D01*
G01X24917549Y-44123D01*
G01X10667024Y-584563D02*
G01X10609874Y-664573D01*
G01X10695726Y-664573D01*
G01X10667024Y-584563D02*
G01X10667024Y-704705D01*
G01X10772180Y-584563D02*
G01X10754908Y-590405D01*
G01X10749320Y-601835D01*
G01X10749320Y-613265D01*
G01X10754908Y-624695D01*
G01X10766338Y-630283D01*
G01X10789198Y-636125D01*
G01X10806470Y-641713D01*
G01X10817900Y-653143D01*
G01X10823488Y-664573D01*
G01X10823488Y-681845D01*
G01X10817900Y-693275D01*
G01X10812058Y-698863D01*
G01X10795040Y-704705D01*
G01X10772180Y-704705D01*
G01X10754908Y-698863D01*
G01X10749320Y-693275D01*
G01X10743478Y-681845D01*
G01X10743478Y-664573D01*
G01X10749320Y-653143D01*
G01X10760750Y-641713D01*
G01X10777768Y-636125D01*
G01X10800628Y-630283D01*
G01X10812058Y-624695D01*
G01X10817900Y-613265D01*
G01X10817900Y-601835D01*
G01X10812058Y-590405D01*
G01X10795040Y-584563D01*
G01X10772180Y-584563D01*
G01X12081187Y-584563D02*
G01X12024037Y-664573D01*
G01X12109889Y-664573D01*
G01X12081187Y-584563D02*
G01X12081187Y-704705D01*
G01X12169071Y-584563D02*
G01X12232063Y-584563D01*
G01X12197773Y-630283D01*
G01X12214791Y-630283D01*
G01X12226221Y-636125D01*
G01X12232063Y-641713D01*
G01X12237651Y-658985D01*
G01X12237651Y-670415D01*
G01X12232063Y-687433D01*
G01X12220633Y-698863D01*
G01X12203361Y-704705D01*
G01X12186343Y-704705D01*
G01X12169071Y-698863D01*
G01X12163483Y-693275D01*
G01X12157641Y-681845D01*
G01X12291245Y-676003D02*
G01X12285403Y-681845D01*
G01X12291245Y-687433D01*
G01X12296833Y-681845D01*
G01X12291245Y-676003D01*
G01X12356015Y-584563D02*
G01X12419007Y-584563D01*
G01X12384717Y-630283D01*
G01X12401735Y-630283D01*
G01X12413165Y-636125D01*
G01X12419007Y-641713D01*
G01X12424595Y-658985D01*
G01X12424595Y-670415D01*
G01X12419007Y-687433D01*
G01X12407577Y-698863D01*
G01X12390305Y-704705D01*
G01X12373287Y-704705D01*
G01X12356015Y-698863D01*
G01X12350427Y-693275D01*
G01X12344585Y-681845D01*
G01X12472347Y-624695D02*
G01X12535339Y-704705D01*
G01X12535339Y-624695D02*
G01X12472347Y-704705D01*
G01X12640241Y-584563D02*
G01X12583091Y-664573D01*
G01X12668943Y-664573D01*
G01X12640241Y-584563D02*
G01X12640241Y-704705D01*
G01X12728125Y-584563D02*
G01X12791117Y-584563D01*
G01X12756827Y-630283D01*
G01X12773845Y-630283D01*
G01X12785275Y-636125D01*
G01X12791117Y-641713D01*
G01X12796705Y-658985D01*
G01X12796705Y-670415D01*
G01X12791117Y-687433D01*
G01X12779687Y-698863D01*
G01X12762415Y-704705D01*
G01X12745397Y-704705D01*
G01X12728125Y-698863D01*
G01X12722537Y-693275D01*
G01X12716695Y-681845D01*
G01X12850299Y-676003D02*
G01X12844457Y-681845D01*
G01X12850299Y-687433D01*
G01X12855887Y-681845D01*
G01X12850299Y-676003D01*
G01X12915069Y-584563D02*
G01X12978061Y-584563D01*
G01X12943771Y-630283D01*
G01X12960789Y-630283D01*
G01X12972219Y-636125D01*
G01X12978061Y-641713D01*
G01X12983649Y-658985D01*
G01X12983649Y-670415D01*
G01X12978061Y-687433D01*
G01X12966631Y-698863D01*
G01X12949359Y-704705D01*
G01X12932341Y-704705D01*
G01X12915069Y-698863D01*
G01X12909481Y-693275D01*
G01X12903639Y-681845D01*
G01X13031401Y-624695D02*
G01X13031401Y-704705D01*
G01X13031401Y-647555D02*
G01X13048673Y-630283D01*
G01X13060103Y-624695D01*
G01X13077121Y-624695D01*
G01X13088551Y-630283D01*
G01X13094393Y-647555D01*
G01X13094393Y-704705D01*
G01X13094393Y-647555D02*
G01X13111411Y-630283D01*
G01X13122841Y-624695D01*
G01X13140113Y-624695D01*
G01X13151543Y-630283D01*
G01X13157131Y-647555D01*
G01X13157131Y-704705D01*
G01X13204883Y-584563D02*
G01X13210725Y-590405D01*
G01X13216313Y-584563D01*
G01X13210725Y-578975D01*
G01X13204883Y-584563D01*
G01X13210725Y-624695D02*
G01X13210725Y-704705D01*
G01X13264065Y-584563D02*
G01X13264065Y-704705D01*
G01X13351949Y-561703D02*
G01X13340519Y-573133D01*
G01X13329089Y-590405D01*
G01X13317659Y-613265D01*
G01X13311817Y-641713D01*
G01X13311817Y-664573D01*
G01X13317659Y-693275D01*
G01X13329089Y-716135D01*
G01X13340519Y-733153D01*
G01X13351949Y-744583D01*
G01X13399701Y-607423D02*
G01X13411131Y-601835D01*
G01X13428403Y-584563D01*
G01X13428403Y-704705D01*
G01X13481997Y-676003D02*
G01X13476155Y-681845D01*
G01X13481997Y-687433D01*
G01X13487585Y-681845D01*
G01X13481997Y-676003D01*
G01X13535337Y-607423D02*
G01X13546767Y-601835D01*
G01X13564039Y-584563D01*
G01X13564039Y-704705D01*
G01X13646081Y-584563D02*
G01X13629063Y-590405D01*
G01X13617633Y-607423D01*
G01X13611791Y-636125D01*
G01X13611791Y-653143D01*
G01X13617633Y-681845D01*
G01X13629063Y-698863D01*
G01X13646081Y-704705D01*
G01X13657511Y-704705D01*
G01X13674783Y-698863D01*
G01X13686213Y-681845D01*
G01X13691801Y-653143D01*
G01X13691801Y-636125D01*
G01X13686213Y-607423D01*
G01X13674783Y-590405D01*
G01X13657511Y-584563D01*
G01X13646081Y-584563D01*
G01X13773843Y-584563D02*
G01X13756825Y-590405D01*
G01X13745395Y-607423D01*
G01X13739553Y-636125D01*
G01X13739553Y-653143D01*
G01X13745395Y-681845D01*
G01X13756825Y-698863D01*
G01X13773843Y-704705D01*
G01X13785273Y-704705D01*
G01X13802545Y-698863D01*
G01X13813975Y-681845D01*
G01X13819563Y-653143D01*
G01X13819563Y-636125D01*
G01X13813975Y-607423D01*
G01X13802545Y-590405D01*
G01X13785273Y-584563D01*
G01X13773843Y-584563D01*
G01X13867315Y-624695D02*
G01X13930307Y-704705D01*
G01X13930307Y-624695D02*
G01X13867315Y-704705D01*
G01X13978059Y-607423D02*
G01X13989489Y-601835D01*
G01X14006761Y-584563D01*
G01X14006761Y-704705D01*
G01X14060355Y-676003D02*
G01X14054513Y-681845D01*
G01X14060355Y-687433D01*
G01X14065943Y-681845D01*
G01X14060355Y-676003D01*
G01X14113695Y-607423D02*
G01X14125125Y-601835D01*
G01X14142397Y-584563D01*
G01X14142397Y-704705D01*
G01X14224439Y-584563D02*
G01X14207421Y-590405D01*
G01X14195991Y-607423D01*
G01X14190149Y-636125D01*
G01X14190149Y-653143D01*
G01X14195991Y-681845D01*
G01X14207421Y-698863D01*
G01X14224439Y-704705D01*
G01X14235869Y-704705D01*
G01X14253141Y-698863D01*
G01X14264571Y-681845D01*
G01X14270159Y-653143D01*
G01X14270159Y-636125D01*
G01X14264571Y-607423D01*
G01X14253141Y-590405D01*
G01X14235869Y-584563D01*
G01X14224439Y-584563D01*
G01X14352201Y-584563D02*
G01X14335183Y-590405D01*
G01X14323753Y-607423D01*
G01X14317911Y-636125D01*
G01X14317911Y-653143D01*
G01X14323753Y-681845D01*
G01X14335183Y-698863D01*
G01X14352201Y-704705D01*
G01X14363631Y-704705D01*
G01X14380903Y-698863D01*
G01X14392333Y-681845D01*
G01X14397921Y-653143D01*
G01X14397921Y-636125D01*
G01X14392333Y-607423D01*
G01X14380903Y-590405D01*
G01X14363631Y-584563D01*
G01X14352201Y-584563D01*
G01X14445673Y-624695D02*
G01X14445673Y-704705D01*
G01X14445673Y-647555D02*
G01X14462945Y-630283D01*
G01X14474375Y-624695D01*
G01X14491393Y-624695D01*
G01X14502823Y-630283D01*
G01X14508665Y-647555D01*
G01X14508665Y-704705D01*
G01X14508665Y-647555D02*
G01X14525683Y-630283D01*
G01X14537113Y-624695D01*
G01X14554385Y-624695D01*
G01X14565815Y-630283D01*
G01X14571403Y-647555D01*
G01X14571403Y-704705D01*
G01X14619155Y-624695D02*
G01X14619155Y-704705D01*
G01X14619155Y-647555D02*
G01X14636427Y-630283D01*
G01X14647857Y-624695D01*
G01X14664875Y-624695D01*
G01X14676305Y-630283D01*
G01X14682147Y-647555D01*
G01X14682147Y-704705D01*
G01X14682147Y-647555D02*
G01X14699165Y-630283D01*
G01X14710595Y-624695D01*
G01X14727867Y-624695D01*
G01X14739297Y-630283D01*
G01X14744885Y-647555D01*
G01X14744885Y-704705D01*
G01X14792637Y-561703D02*
G01X14804067Y-573133D01*
G01X14815497Y-590405D01*
G01X14826927Y-613265D01*
G01X14832769Y-641713D01*
G01X14832769Y-664573D01*
G01X14826927Y-693275D01*
G01X14815497Y-716135D01*
G01X14804067Y-733153D01*
G01X14792637Y-744583D01*
G01X15849423Y-584563D02*
G01X15849423Y-704705D01*
G01X15849423Y-584563D02*
G01X15900985Y-584563D01*
G01X15918003Y-590405D01*
G01X15923845Y-595993D01*
G01X15929433Y-607423D01*
G01X15929433Y-624695D01*
G01X15923845Y-636125D01*
G01X15918003Y-641713D01*
G01X15900985Y-647555D01*
G01X15849423Y-647555D01*
G01X16017317Y-584563D02*
G01X16017317Y-704705D01*
G01X15977185Y-584563D02*
G01X16057195Y-584563D01*
G01X16104947Y-584563D02*
G01X16104947Y-704705D01*
G01X16184957Y-584563D02*
G01X16184957Y-704705D01*
G01X16104947Y-641713D02*
G01X16184957Y-641713D01*
G01X17310830Y-584563D02*
G01X17310830Y-704705D01*
G01X17310830Y-584563D02*
G01X17362392Y-584563D01*
G01X17379410Y-590405D01*
G01X17385252Y-595993D01*
G01X17390840Y-607423D01*
G01X17390840Y-618853D01*
G01X17385252Y-630283D01*
G01X17379410Y-636125D01*
G01X17362392Y-641713D01*
G01X17310830Y-641713D01*
G01X17350962Y-641713D02*
G01X17390840Y-704705D01*
G01X17467294Y-624695D02*
G01X17455864Y-630283D01*
G01X17444434Y-641713D01*
G01X17438592Y-658985D01*
G01X17438592Y-670415D01*
G01X17444434Y-687433D01*
G01X17455864Y-698863D01*
G01X17467294Y-704705D01*
G01X17484312Y-704705D01*
G01X17495742Y-698863D01*
G01X17507172Y-687433D01*
G01X17513014Y-670415D01*
G01X17513014Y-658985D01*
G01X17507172Y-641713D01*
G01X17495742Y-630283D01*
G01X17484312Y-624695D01*
G01X17467294Y-624695D01*
G01X17560766Y-624695D02*
G01X17560766Y-681845D01*
G01X17566608Y-698863D01*
G01X17578038Y-704705D01*
G01X17595056Y-704705D01*
G01X17606486Y-698863D01*
G01X17623758Y-681845D01*
G01X17623758Y-624695D02*
G01X17623758Y-704705D01*
G01X17671510Y-624695D02*
G01X17671510Y-704705D01*
G01X17671510Y-647555D02*
G01X17688782Y-630283D01*
G01X17700212Y-624695D01*
G01X17717230Y-624695D01*
G01X17728660Y-630283D01*
G01X17734502Y-647555D01*
G01X17734502Y-704705D01*
G01X17850834Y-584563D02*
G01X17850834Y-704705D01*
G01X17850834Y-641713D02*
G01X17839404Y-630283D01*
G01X17827974Y-624695D01*
G01X17810956Y-624695D01*
G01X17799526Y-630283D01*
G01X17788096Y-641713D01*
G01X17782254Y-658985D01*
G01X17782254Y-670415D01*
G01X17788096Y-687433D01*
G01X17799526Y-698863D01*
G01X17810956Y-704705D01*
G01X17827974Y-704705D01*
G01X17839404Y-698863D01*
G01X17850834Y-687433D01*
G01X18742011Y-584563D02*
G01X18742011Y-704705D01*
G01X18742011Y-584563D02*
G01X18793573Y-584563D01*
G01X18810591Y-590405D01*
G01X18816433Y-595993D01*
G01X18822021Y-607423D01*
G01X18822021Y-624695D01*
G01X18816433Y-636125D01*
G01X18810591Y-641713D01*
G01X18793573Y-647555D01*
G01X18742011Y-647555D01*
G01X18938353Y-624695D02*
G01X18938353Y-704705D01*
G01X18938353Y-641713D02*
G01X18926923Y-630283D01*
G01X18915493Y-624695D01*
G01X18898475Y-624695D01*
G01X18887045Y-630283D01*
G01X18875615Y-641713D01*
G01X18869773Y-658985D01*
G01X18869773Y-670415D01*
G01X18875615Y-687433D01*
G01X18887045Y-698863D01*
G01X18898475Y-704705D01*
G01X18915493Y-704705D01*
G01X18926923Y-698863D01*
G01X18938353Y-687433D01*
G01X19054685Y-584563D02*
G01X19054685Y-704705D01*
G01X19054685Y-641713D02*
G01X19043255Y-630283D01*
G01X19031825Y-624695D01*
G01X19014807Y-624695D01*
G01X19003377Y-630283D01*
G01X18991947Y-641713D01*
G01X18986105Y-658985D01*
G01X18986105Y-670415D01*
G01X18991947Y-687433D01*
G01X19003377Y-698863D01*
G01X19014807Y-704705D01*
G01X19031825Y-704705D01*
G01X19043255Y-698863D01*
G01X19054685Y-687433D01*
G01X20451322Y-561703D02*
G01X20439892Y-573133D01*
G01X20428462Y-590405D01*
G01X20417032Y-613265D01*
G01X20411190Y-641713D01*
G01X20411190Y-664573D01*
G01X20417032Y-693275D01*
G01X20428462Y-716135D01*
G01X20439892Y-733153D01*
G01X20451322Y-744583D01*
G01X20499074Y-584563D02*
G01X20499074Y-704705D01*
G01X20499074Y-584563D02*
G01X20544794Y-704705D01*
G01X20590514Y-584563D02*
G01X20544794Y-704705D01*
G01X20590514Y-584563D02*
G01X20590514Y-704705D01*
G01X20638266Y-584563D02*
G01X20644108Y-590405D01*
G01X20649696Y-584563D01*
G01X20644108Y-578975D01*
G01X20638266Y-584563D01*
G01X20644108Y-624695D02*
G01X20644108Y-704705D01*
G01X20697448Y-624695D02*
G01X20760440Y-704705D01*
G01X20760440Y-624695D02*
G01X20697448Y-704705D01*
G01X20808192Y-658985D02*
G01X20876772Y-658985D01*
G01X20876772Y-647555D01*
G01X20871184Y-636125D01*
G01X20865342Y-630283D01*
G01X20853912Y-624695D01*
G01X20836894Y-624695D01*
G01X20825464Y-630283D01*
G01X20814034Y-641713D01*
G01X20808192Y-658985D01*
G01X20808192Y-670415D01*
G01X20814034Y-687433D01*
G01X20825464Y-698863D01*
G01X20836894Y-704705D01*
G01X20853912Y-704705D01*
G01X20865342Y-698863D01*
G01X20876772Y-687433D01*
G01X20993104Y-584563D02*
G01X20993104Y-704705D01*
G01X20993104Y-641713D02*
G01X20981674Y-630283D01*
G01X20970244Y-624695D01*
G01X20953226Y-624695D01*
G01X20941796Y-630283D01*
G01X20930366Y-641713D01*
G01X20924524Y-658985D01*
G01X20924524Y-670415D01*
G01X20930366Y-687433D01*
G01X20941796Y-698863D01*
G01X20953226Y-704705D01*
G01X20970244Y-704705D01*
G01X20981674Y-698863D01*
G01X20993104Y-687433D01*
G01X21040856Y-561703D02*
G01X21052286Y-573133D01*
G01X21063716Y-590405D01*
G01X21075146Y-613265D01*
G01X21080988Y-641713D01*
G01X21080988Y-664573D01*
G01X21075146Y-693275D01*
G01X21063716Y-716135D01*
G01X21052286Y-733153D01*
G01X21040856Y-744583D01*
G01X22370691Y-584563D02*
G01X22370691Y-704705D01*
G01X22330559Y-584563D02*
G01X22410569Y-584563D01*
G01X22487023Y-624695D02*
G01X22475593Y-630283D01*
G01X22464163Y-641713D01*
G01X22458321Y-658985D01*
G01X22458321Y-670415D01*
G01X22464163Y-687433D01*
G01X22475593Y-698863D01*
G01X22487023Y-704705D01*
G01X22504041Y-704705D01*
G01X22515471Y-698863D01*
G01X22526901Y-687433D01*
G01X22532743Y-670415D01*
G01X22532743Y-658985D01*
G01X22526901Y-641713D01*
G01X22515471Y-630283D01*
G01X22504041Y-624695D01*
G01X22487023Y-624695D01*
G01X22580495Y-624695D02*
G01X22580495Y-744583D01*
G01X22580495Y-641713D02*
G01X22591925Y-630283D01*
G01X22603355Y-624695D01*
G01X22620627Y-624695D01*
G01X22632057Y-630283D01*
G01X22643487Y-641713D01*
G01X22649075Y-658985D01*
G01X22649075Y-670415D01*
G01X22643487Y-687433D01*
G01X22632057Y-698863D01*
G01X22620627Y-704705D01*
G01X22603355Y-704705D01*
G01X22591925Y-698863D01*
G01X22580495Y-687433D01*
G01X22824843Y-584563D02*
G01X22824843Y-704705D01*
G01X22824843Y-704705D02*
G01X22893423Y-704705D01*
G01X23009755Y-624695D02*
G01X23009755Y-704705D01*
G01X23009755Y-641713D02*
G01X22998325Y-630283D01*
G01X22986895Y-624695D01*
G01X22969877Y-624695D01*
G01X22958447Y-630283D01*
G01X22947017Y-641713D01*
G01X22941175Y-658985D01*
G01X22941175Y-670415D01*
G01X22947017Y-687433D01*
G01X22958447Y-698863D01*
G01X22969877Y-704705D01*
G01X22986895Y-704705D01*
G01X22998325Y-698863D01*
G01X23009755Y-687433D01*
G01X23063349Y-624695D02*
G01X23097639Y-704705D01*
G01X23131929Y-624695D02*
G01X23097639Y-704705D01*
G01X23086209Y-727565D01*
G01X23074779Y-738995D01*
G01X23063349Y-744583D01*
G01X23057507Y-744583D01*
G01X23179681Y-658985D02*
G01X23248261Y-658985D01*
G01X23248261Y-647555D01*
G01X23242673Y-636125D01*
G01X23236831Y-630283D01*
G01X23225401Y-624695D01*
G01X23208383Y-624695D01*
G01X23196953Y-630283D01*
G01X23185523Y-641713D01*
G01X23179681Y-658985D01*
G01X23179681Y-670415D01*
G01X23185523Y-687433D01*
G01X23196953Y-698863D01*
G01X23208383Y-704705D01*
G01X23225401Y-704705D01*
G01X23236831Y-698863D01*
G01X23248261Y-687433D01*
G01X23296013Y-624695D02*
G01X23296013Y-704705D01*
G01X23296013Y-658985D02*
G01X23301855Y-641713D01*
G01X23313285Y-630283D01*
G01X23324715Y-624695D01*
G01X23341733Y-624695D01*
G01X23389485Y-653143D02*
G01X23492355Y-653143D01*
G01X23540107Y-584563D02*
G01X23540107Y-704705D01*
G01X23540107Y-584563D02*
G01X23591669Y-584563D01*
G01X23608687Y-590405D01*
G01X23614529Y-595993D01*
G01X23620117Y-607423D01*
G01X23620117Y-618853D01*
G01X23614529Y-630283D01*
G01X23608687Y-636125D01*
G01X23591669Y-641713D01*
G01X23540107Y-641713D02*
G01X23591669Y-641713D01*
G01X23608687Y-647555D01*
G01X23614529Y-653143D01*
G01X23620117Y-664573D01*
G01X23620117Y-681845D01*
G01X23614529Y-693275D01*
G01X23608687Y-698863D01*
G01X23591669Y-704705D01*
G01X23540107Y-704705D01*
G01X23696571Y-624695D02*
G01X23685141Y-630283D01*
G01X23673711Y-641713D01*
G01X23667869Y-658985D01*
G01X23667869Y-670415D01*
G01X23673711Y-687433D01*
G01X23685141Y-698863D01*
G01X23696571Y-704705D01*
G01X23713589Y-704705D01*
G01X23725019Y-698863D01*
G01X23736449Y-687433D01*
G01X23742291Y-670415D01*
G01X23742291Y-658985D01*
G01X23736449Y-641713D01*
G01X23725019Y-630283D01*
G01X23713589Y-624695D01*
G01X23696571Y-624695D01*
G01X23807315Y-584563D02*
G01X23807315Y-681845D01*
G01X23812903Y-698863D01*
G01X23824333Y-704705D01*
G01X23835763Y-704705D01*
G01X23790043Y-624695D02*
G01X23830175Y-624695D01*
G01X23900787Y-584563D02*
G01X23900787Y-681845D01*
G01X23906375Y-698863D01*
G01X23917805Y-704705D01*
G01X23929235Y-704705D01*
G01X23883515Y-624695D02*
G01X23923647Y-624695D01*
G01X24005689Y-624695D02*
G01X23994259Y-630283D01*
G01X23982829Y-641713D01*
G01X23976987Y-658985D01*
G01X23976987Y-670415D01*
G01X23982829Y-687433D01*
G01X23994259Y-698863D01*
G01X24005689Y-704705D01*
G01X24022707Y-704705D01*
G01X24034137Y-698863D01*
G01X24045567Y-687433D01*
G01X24051409Y-670415D01*
G01X24051409Y-658985D01*
G01X24045567Y-641713D01*
G01X24034137Y-630283D01*
G01X24022707Y-624695D01*
G01X24005689Y-624695D01*
G01X24099161Y-624695D02*
G01X24099161Y-704705D01*
G01X24099161Y-647555D02*
G01X24116433Y-630283D01*
G01X24127863Y-624695D01*
G01X24144881Y-624695D01*
G01X24156311Y-630283D01*
G01X24162153Y-647555D01*
G01X24162153Y-704705D01*
G01X24162153Y-647555D02*
G01X24179171Y-630283D01*
G01X24190601Y-624695D01*
G01X24207873Y-624695D01*
G01X24219303Y-630283D01*
G01X24224891Y-647555D01*
G01X24224891Y-704705D01*
G01X24400659Y-584563D02*
G01X24400659Y-704705D01*
G01X24400659Y-704705D02*
G01X24469239Y-704705D01*
G01X24585571Y-624695D02*
G01X24585571Y-704705D01*
G01X24585571Y-641713D02*
G01X24574141Y-630283D01*
G01X24562711Y-624695D01*
G01X24545693Y-624695D01*
G01X24534263Y-630283D01*
G01X24522833Y-641713D01*
G01X24516991Y-658985D01*
G01X24516991Y-670415D01*
G01X24522833Y-687433D01*
G01X24534263Y-698863D01*
G01X24545693Y-704705D01*
G01X24562711Y-704705D01*
G01X24574141Y-698863D01*
G01X24585571Y-687433D01*
G01X24639165Y-624695D02*
G01X24673455Y-704705D01*
G01X24707745Y-624695D02*
G01X24673455Y-704705D01*
G01X24662025Y-727565D01*
G01X24650595Y-738995D01*
G01X24639165Y-744583D01*
G01X24633323Y-744583D01*
G01X24755497Y-658985D02*
G01X24824077Y-658985D01*
G01X24824077Y-647555D01*
G01X24818489Y-636125D01*
G01X24812647Y-630283D01*
G01X24801217Y-624695D01*
G01X24784199Y-624695D01*
G01X24772769Y-630283D01*
G01X24761339Y-641713D01*
G01X24755497Y-658985D01*
G01X24755497Y-670415D01*
G01X24761339Y-687433D01*
G01X24772769Y-698863D01*
G01X24784199Y-704705D01*
G01X24801217Y-704705D01*
G01X24812647Y-698863D01*
G01X24824077Y-687433D01*
G01X24871829Y-624695D02*
G01X24871829Y-704705D01*
G01X24871829Y-658985D02*
G01X24877671Y-641713D01*
G01X24889101Y-630283D01*
G01X24900531Y-624695D01*
G01X24917549Y-624695D01*
G01X10609874Y-1187994D02*
G01X10621304Y-1182406D01*
G01X10638576Y-1165134D01*
G01X10638576Y-1285276D01*
G01X10754908Y-1182406D02*
G01X10749320Y-1170976D01*
G01X10732048Y-1165134D01*
G01X10720618Y-1165134D01*
G01X10703600Y-1170976D01*
G01X10692170Y-1187994D01*
G01X10686328Y-1216696D01*
G01X10686328Y-1245144D01*
G01X10692170Y-1268004D01*
G01X10703600Y-1279434D01*
G01X10720618Y-1285276D01*
G01X10726460Y-1285276D01*
G01X10743478Y-1279434D01*
G01X10754908Y-1268004D01*
G01X10760750Y-1250986D01*
G01X10760750Y-1245144D01*
G01X10754908Y-1228126D01*
G01X10743478Y-1216696D01*
G01X10726460Y-1210854D01*
G01X10720618Y-1210854D01*
G01X10703600Y-1216696D01*
G01X10692170Y-1228126D01*
G01X10686328Y-1245144D01*
G01X10814344Y-1193836D02*
G01X10814344Y-1187994D01*
G01X10819932Y-1176564D01*
G01X10825774Y-1170976D01*
G01X10837204Y-1165134D01*
G01X10860064Y-1165134D01*
G01X10871494Y-1170976D01*
G01X10877082Y-1176564D01*
G01X10882924Y-1187994D01*
G01X10882924Y-1199424D01*
G01X10877082Y-1210854D01*
G01X10865652Y-1228126D01*
G01X10808502Y-1285276D01*
G01X10888512Y-1285276D01*
G01X12024037Y-1187994D02*
G01X12035467Y-1182406D01*
G01X12052739Y-1165134D01*
G01X12052739Y-1285276D01*
G01X12106333Y-1193836D02*
G01X12106333Y-1187994D01*
G01X12111921Y-1176564D01*
G01X12117763Y-1170976D01*
G01X12129193Y-1165134D01*
G01X12152053Y-1165134D01*
G01X12163483Y-1170976D01*
G01X12169071Y-1176564D01*
G01X12174913Y-1187994D01*
G01X12174913Y-1199424D01*
G01X12169071Y-1210854D01*
G01X12157641Y-1228126D01*
G01X12100491Y-1285276D01*
G01X12180501Y-1285276D01*
G01X12234095Y-1256574D02*
G01X12228253Y-1262416D01*
G01X12234095Y-1268004D01*
G01X12239683Y-1262416D01*
G01X12234095Y-1256574D01*
G01X12321725Y-1165134D02*
G01X12304707Y-1170976D01*
G01X12293277Y-1187994D01*
G01X12287435Y-1216696D01*
G01X12287435Y-1233714D01*
G01X12293277Y-1262416D01*
G01X12304707Y-1279434D01*
G01X12321725Y-1285276D01*
G01X12333155Y-1285276D01*
G01X12350427Y-1279434D01*
G01X12361857Y-1262416D01*
G01X12367445Y-1233714D01*
G01X12367445Y-1216696D01*
G01X12361857Y-1187994D01*
G01X12350427Y-1170976D01*
G01X12333155Y-1165134D01*
G01X12321725Y-1165134D01*
G01X12415197Y-1205266D02*
G01X12415197Y-1285276D01*
G01X12415197Y-1228126D02*
G01X12432469Y-1210854D01*
G01X12443899Y-1205266D01*
G01X12460917Y-1205266D01*
G01X12472347Y-1210854D01*
G01X12478189Y-1228126D01*
G01X12478189Y-1285276D01*
G01X12478189Y-1228126D02*
G01X12495207Y-1210854D01*
G01X12506637Y-1205266D01*
G01X12523909Y-1205266D01*
G01X12535339Y-1210854D01*
G01X12540927Y-1228126D01*
G01X12540927Y-1285276D01*
G01X12588679Y-1165134D02*
G01X12594521Y-1170976D01*
G01X12600109Y-1165134D01*
G01X12594521Y-1159546D01*
G01X12588679Y-1165134D01*
G01X12594521Y-1205266D02*
G01X12594521Y-1285276D01*
G01X12647861Y-1165134D02*
G01X12647861Y-1285276D01*
G01X12735745Y-1142274D02*
G01X12724315Y-1153704D01*
G01X12712885Y-1170976D01*
G01X12701455Y-1193836D01*
G01X12695613Y-1222284D01*
G01X12695613Y-1245144D01*
G01X12701455Y-1273846D01*
G01X12712885Y-1296706D01*
G01X12724315Y-1313724D01*
G01X12735745Y-1325154D01*
G01X12817787Y-1165134D02*
G01X12800769Y-1170976D01*
G01X12789339Y-1187994D01*
G01X12783497Y-1216696D01*
G01X12783497Y-1233714D01*
G01X12789339Y-1262416D01*
G01X12800769Y-1279434D01*
G01X12817787Y-1285276D01*
G01X12829217Y-1285276D01*
G01X12846489Y-1279434D01*
G01X12857919Y-1262416D01*
G01X12863507Y-1233714D01*
G01X12863507Y-1216696D01*
G01X12857919Y-1187994D01*
G01X12846489Y-1170976D01*
G01X12829217Y-1165134D01*
G01X12817787Y-1165134D01*
G01X12917101Y-1256574D02*
G01X12911259Y-1262416D01*
G01X12917101Y-1268004D01*
G01X12922689Y-1262416D01*
G01X12917101Y-1256574D01*
G01X12981871Y-1165134D02*
G01X13044863Y-1165134D01*
G01X13010573Y-1210854D01*
G01X13027591Y-1210854D01*
G01X13039021Y-1216696D01*
G01X13044863Y-1222284D01*
G01X13050451Y-1239556D01*
G01X13050451Y-1250986D01*
G01X13044863Y-1268004D01*
G01X13033433Y-1279434D01*
G01X13016161Y-1285276D01*
G01X12999143Y-1285276D01*
G01X12981871Y-1279434D01*
G01X12976283Y-1273846D01*
G01X12970441Y-1262416D01*
G01X13132493Y-1165134D02*
G01X13115475Y-1170976D01*
G01X13104045Y-1187994D01*
G01X13098203Y-1216696D01*
G01X13098203Y-1233714D01*
G01X13104045Y-1262416D01*
G01X13115475Y-1279434D01*
G01X13132493Y-1285276D01*
G01X13143923Y-1285276D01*
G01X13161195Y-1279434D01*
G01X13172625Y-1262416D01*
G01X13178213Y-1233714D01*
G01X13178213Y-1216696D01*
G01X13172625Y-1187994D01*
G01X13161195Y-1170976D01*
G01X13143923Y-1165134D01*
G01X13132493Y-1165134D01*
G01X13294545Y-1165134D02*
G01X13237395Y-1165134D01*
G01X13231807Y-1216696D01*
G01X13237395Y-1210854D01*
G01X13254667Y-1205266D01*
G01X13271685Y-1205266D01*
G01X13288957Y-1210854D01*
G01X13300387Y-1222284D01*
G01X13305975Y-1239556D01*
G01X13305975Y-1250986D01*
G01X13300387Y-1268004D01*
G01X13288957Y-1279434D01*
G01X13271685Y-1285276D01*
G01X13254667Y-1285276D01*
G01X13237395Y-1279434D01*
G01X13231807Y-1273846D01*
G01X13225965Y-1262416D01*
G01X13353727Y-1205266D02*
G01X13353727Y-1285276D01*
G01X13353727Y-1228126D02*
G01X13370999Y-1210854D01*
G01X13382429Y-1205266D01*
G01X13399447Y-1205266D01*
G01X13410877Y-1210854D01*
G01X13416719Y-1228126D01*
G01X13416719Y-1285276D01*
G01X13416719Y-1228126D02*
G01X13433737Y-1210854D01*
G01X13445167Y-1205266D01*
G01X13462439Y-1205266D01*
G01X13473869Y-1210854D01*
G01X13479457Y-1228126D01*
G01X13479457Y-1285276D01*
G01X13527209Y-1205266D02*
G01X13527209Y-1285276D01*
G01X13527209Y-1228126D02*
G01X13544481Y-1210854D01*
G01X13555911Y-1205266D01*
G01X13572929Y-1205266D01*
G01X13584359Y-1210854D01*
G01X13590201Y-1228126D01*
G01X13590201Y-1285276D01*
G01X13590201Y-1228126D02*
G01X13607219Y-1210854D01*
G01X13618649Y-1205266D01*
G01X13635921Y-1205266D01*
G01X13647351Y-1210854D01*
G01X13652939Y-1228126D01*
G01X13652939Y-1285276D01*
G01X13700691Y-1142274D02*
G01X13712121Y-1153704D01*
G01X13723551Y-1170976D01*
G01X13734981Y-1193836D01*
G01X13740823Y-1222284D01*
G01X13740823Y-1245144D01*
G01X13734981Y-1273846D01*
G01X13723551Y-1296706D01*
G01X13712121Y-1313724D01*
G01X13700691Y-1325154D01*
G01X15849423Y-1165134D02*
G01X15849423Y-1285276D01*
G01X15849423Y-1165134D02*
G01X15900985Y-1165134D01*
G01X15918003Y-1170976D01*
G01X15923845Y-1176564D01*
G01X15929433Y-1187994D01*
G01X15929433Y-1205266D01*
G01X15923845Y-1216696D01*
G01X15918003Y-1222284D01*
G01X15900985Y-1228126D01*
G01X15849423Y-1228126D01*
G01X16017317Y-1165134D02*
G01X16017317Y-1285276D01*
G01X15977185Y-1165134D02*
G01X16057195Y-1165134D01*
G01X16104947Y-1165134D02*
G01X16104947Y-1285276D01*
G01X16184957Y-1165134D02*
G01X16184957Y-1285276D01*
G01X16104947Y-1222284D02*
G01X16184957Y-1222284D01*
G01X17310830Y-1165134D02*
G01X17310830Y-1285276D01*
G01X17310830Y-1165134D02*
G01X17362392Y-1165134D01*
G01X17379410Y-1170976D01*
G01X17385252Y-1176564D01*
G01X17390840Y-1187994D01*
G01X17390840Y-1199424D01*
G01X17385252Y-1210854D01*
G01X17379410Y-1216696D01*
G01X17362392Y-1222284D01*
G01X17310830Y-1222284D01*
G01X17350962Y-1222284D02*
G01X17390840Y-1285276D01*
G01X17467294Y-1205266D02*
G01X17455864Y-1210854D01*
G01X17444434Y-1222284D01*
G01X17438592Y-1239556D01*
G01X17438592Y-1250986D01*
G01X17444434Y-1268004D01*
G01X17455864Y-1279434D01*
G01X17467294Y-1285276D01*
G01X17484312Y-1285276D01*
G01X17495742Y-1279434D01*
G01X17507172Y-1268004D01*
G01X17513014Y-1250986D01*
G01X17513014Y-1239556D01*
G01X17507172Y-1222284D01*
G01X17495742Y-1210854D01*
G01X17484312Y-1205266D01*
G01X17467294Y-1205266D01*
G01X17560766Y-1205266D02*
G01X17560766Y-1262416D01*
G01X17566608Y-1279434D01*
G01X17578038Y-1285276D01*
G01X17595056Y-1285276D01*
G01X17606486Y-1279434D01*
G01X17623758Y-1262416D01*
G01X17623758Y-1205266D02*
G01X17623758Y-1285276D01*
G01X17671510Y-1205266D02*
G01X17671510Y-1285276D01*
G01X17671510Y-1228126D02*
G01X17688782Y-1210854D01*
G01X17700212Y-1205266D01*
G01X17717230Y-1205266D01*
G01X17728660Y-1210854D01*
G01X17734502Y-1228126D01*
G01X17734502Y-1285276D01*
G01X17850834Y-1165134D02*
G01X17850834Y-1285276D01*
G01X17850834Y-1222284D02*
G01X17839404Y-1210854D01*
G01X17827974Y-1205266D01*
G01X17810956Y-1205266D01*
G01X17799526Y-1210854D01*
G01X17788096Y-1222284D01*
G01X17782254Y-1239556D01*
G01X17782254Y-1250986D01*
G01X17788096Y-1268004D01*
G01X17799526Y-1279434D01*
G01X17810956Y-1285276D01*
G01X17827974Y-1285276D01*
G01X17839404Y-1279434D01*
G01X17850834Y-1268004D01*
G01X18742011Y-1165134D02*
G01X18787731Y-1285276D01*
G01X18833451Y-1165134D02*
G01X18787731Y-1285276D01*
G01X18881203Y-1165134D02*
G01X18887045Y-1170976D01*
G01X18892633Y-1165134D01*
G01X18887045Y-1159546D01*
G01X18881203Y-1165134D01*
G01X18887045Y-1205266D02*
G01X18887045Y-1285276D01*
G01X19008965Y-1205266D02*
G01X19008965Y-1285276D01*
G01X19008965Y-1222284D02*
G01X18997535Y-1210854D01*
G01X18986105Y-1205266D01*
G01X18969087Y-1205266D01*
G01X18957657Y-1210854D01*
G01X18946227Y-1222284D01*
G01X18940385Y-1239556D01*
G01X18940385Y-1250986D01*
G01X18946227Y-1268004D01*
G01X18957657Y-1279434D01*
G01X18969087Y-1285276D01*
G01X18986105Y-1285276D01*
G01X18997535Y-1279434D01*
G01X19008965Y-1268004D01*
G01X22370691Y-1165134D02*
G01X22370691Y-1285276D01*
G01X22330559Y-1165134D02*
G01X22410569Y-1165134D01*
G01X22487023Y-1205266D02*
G01X22475593Y-1210854D01*
G01X22464163Y-1222284D01*
G01X22458321Y-1239556D01*
G01X22458321Y-1250986D01*
G01X22464163Y-1268004D01*
G01X22475593Y-1279434D01*
G01X22487023Y-1285276D01*
G01X22504041Y-1285276D01*
G01X22515471Y-1279434D01*
G01X22526901Y-1268004D01*
G01X22532743Y-1250986D01*
G01X22532743Y-1239556D01*
G01X22526901Y-1222284D01*
G01X22515471Y-1210854D01*
G01X22504041Y-1205266D01*
G01X22487023Y-1205266D01*
G01X22580495Y-1205266D02*
G01X22580495Y-1325154D01*
G01X22580495Y-1222284D02*
G01X22591925Y-1210854D01*
G01X22603355Y-1205266D01*
G01X22620627Y-1205266D01*
G01X22632057Y-1210854D01*
G01X22643487Y-1222284D01*
G01X22649075Y-1239556D01*
G01X22649075Y-1250986D01*
G01X22643487Y-1268004D01*
G01X22632057Y-1279434D01*
G01X22620627Y-1285276D01*
G01X22603355Y-1285276D01*
G01X22591925Y-1279434D01*
G01X22580495Y-1268004D01*
G01X22824843Y-1165134D02*
G01X22824843Y-1285276D01*
G01X22824843Y-1285276D02*
G01X22893423Y-1285276D01*
G01X23009755Y-1205266D02*
G01X23009755Y-1285276D01*
G01X23009755Y-1222284D02*
G01X22998325Y-1210854D01*
G01X22986895Y-1205266D01*
G01X22969877Y-1205266D01*
G01X22958447Y-1210854D01*
G01X22947017Y-1222284D01*
G01X22941175Y-1239556D01*
G01X22941175Y-1250986D01*
G01X22947017Y-1268004D01*
G01X22958447Y-1279434D01*
G01X22969877Y-1285276D01*
G01X22986895Y-1285276D01*
G01X22998325Y-1279434D01*
G01X23009755Y-1268004D01*
G01X23063349Y-1205266D02*
G01X23097639Y-1285276D01*
G01X23131929Y-1205266D02*
G01X23097639Y-1285276D01*
G01X23086209Y-1308136D01*
G01X23074779Y-1319566D01*
G01X23063349Y-1325154D01*
G01X23057507Y-1325154D01*
G01X23179681Y-1239556D02*
G01X23248261Y-1239556D01*
G01X23248261Y-1228126D01*
G01X23242673Y-1216696D01*
G01X23236831Y-1210854D01*
G01X23225401Y-1205266D01*
G01X23208383Y-1205266D01*
G01X23196953Y-1210854D01*
G01X23185523Y-1222284D01*
G01X23179681Y-1239556D01*
G01X23179681Y-1250986D01*
G01X23185523Y-1268004D01*
G01X23196953Y-1279434D01*
G01X23208383Y-1285276D01*
G01X23225401Y-1285276D01*
G01X23236831Y-1279434D01*
G01X23248261Y-1268004D01*
G01X23296013Y-1205266D02*
G01X23296013Y-1285276D01*
G01X23296013Y-1239556D02*
G01X23301855Y-1222284D01*
G01X23313285Y-1210854D01*
G01X23324715Y-1205266D01*
G01X23341733Y-1205266D01*
G01X23389485Y-1233714D02*
G01X23492355Y-1233714D01*
G01X23540107Y-1165134D02*
G01X23540107Y-1285276D01*
G01X23540107Y-1165134D02*
G01X23591669Y-1165134D01*
G01X23608687Y-1170976D01*
G01X23614529Y-1176564D01*
G01X23620117Y-1187994D01*
G01X23620117Y-1199424D01*
G01X23614529Y-1210854D01*
G01X23608687Y-1216696D01*
G01X23591669Y-1222284D01*
G01X23540107Y-1222284D02*
G01X23591669Y-1222284D01*
G01X23608687Y-1228126D01*
G01X23614529Y-1233714D01*
G01X23620117Y-1245144D01*
G01X23620117Y-1262416D01*
G01X23614529Y-1273846D01*
G01X23608687Y-1279434D01*
G01X23591669Y-1285276D01*
G01X23540107Y-1285276D01*
G01X23696571Y-1205266D02*
G01X23685141Y-1210854D01*
G01X23673711Y-1222284D01*
G01X23667869Y-1239556D01*
G01X23667869Y-1250986D01*
G01X23673711Y-1268004D01*
G01X23685141Y-1279434D01*
G01X23696571Y-1285276D01*
G01X23713589Y-1285276D01*
G01X23725019Y-1279434D01*
G01X23736449Y-1268004D01*
G01X23742291Y-1250986D01*
G01X23742291Y-1239556D01*
G01X23736449Y-1222284D01*
G01X23725019Y-1210854D01*
G01X23713589Y-1205266D01*
G01X23696571Y-1205266D01*
G01X23807315Y-1165134D02*
G01X23807315Y-1262416D01*
G01X23812903Y-1279434D01*
G01X23824333Y-1285276D01*
G01X23835763Y-1285276D01*
G01X23790043Y-1205266D02*
G01X23830175Y-1205266D01*
G01X23900787Y-1165134D02*
G01X23900787Y-1262416D01*
G01X23906375Y-1279434D01*
G01X23917805Y-1285276D01*
G01X23929235Y-1285276D01*
G01X23883515Y-1205266D02*
G01X23923647Y-1205266D01*
G01X24005689Y-1205266D02*
G01X23994259Y-1210854D01*
G01X23982829Y-1222284D01*
G01X23976987Y-1239556D01*
G01X23976987Y-1250986D01*
G01X23982829Y-1268004D01*
G01X23994259Y-1279434D01*
G01X24005689Y-1285276D01*
G01X24022707Y-1285276D01*
G01X24034137Y-1279434D01*
G01X24045567Y-1268004D01*
G01X24051409Y-1250986D01*
G01X24051409Y-1239556D01*
G01X24045567Y-1222284D01*
G01X24034137Y-1210854D01*
G01X24022707Y-1205266D01*
G01X24005689Y-1205266D01*
G01X24099161Y-1205266D02*
G01X24099161Y-1285276D01*
G01X24099161Y-1228126D02*
G01X24116433Y-1210854D01*
G01X24127863Y-1205266D01*
G01X24144881Y-1205266D01*
G01X24156311Y-1210854D01*
G01X24162153Y-1228126D01*
G01X24162153Y-1285276D01*
G01X24162153Y-1228126D02*
G01X24179171Y-1210854D01*
G01X24190601Y-1205266D01*
G01X24207873Y-1205266D01*
G01X24219303Y-1210854D01*
G01X24224891Y-1228126D01*
G01X24224891Y-1285276D01*
G01X24400659Y-1165134D02*
G01X24400659Y-1285276D01*
G01X24400659Y-1285276D02*
G01X24469239Y-1285276D01*
G01X24585571Y-1205266D02*
G01X24585571Y-1285276D01*
G01X24585571Y-1222284D02*
G01X24574141Y-1210854D01*
G01X24562711Y-1205266D01*
G01X24545693Y-1205266D01*
G01X24534263Y-1210854D01*
G01X24522833Y-1222284D01*
G01X24516991Y-1239556D01*
G01X24516991Y-1250986D01*
G01X24522833Y-1268004D01*
G01X24534263Y-1279434D01*
G01X24545693Y-1285276D01*
G01X24562711Y-1285276D01*
G01X24574141Y-1279434D01*
G01X24585571Y-1268004D01*
G01X24639165Y-1205266D02*
G01X24673455Y-1285276D01*
G01X24707745Y-1205266D02*
G01X24673455Y-1285276D01*
G01X24662025Y-1308136D01*
G01X24650595Y-1319566D01*
G01X24639165Y-1325154D01*
G01X24633323Y-1325154D01*
G01X24755497Y-1239556D02*
G01X24824077Y-1239556D01*
G01X24824077Y-1228126D01*
G01X24818489Y-1216696D01*
G01X24812647Y-1210854D01*
G01X24801217Y-1205266D01*
G01X24784199Y-1205266D01*
G01X24772769Y-1210854D01*
G01X24761339Y-1222284D01*
G01X24755497Y-1239556D01*
G01X24755497Y-1250986D01*
G01X24761339Y-1268004D01*
G01X24772769Y-1279434D01*
G01X24784199Y-1285276D01*
G01X24801217Y-1285276D01*
G01X24812647Y-1279434D01*
G01X24824077Y-1268004D01*
G01X24871829Y-1205266D02*
G01X24871829Y-1285276D01*
G01X24871829Y-1239556D02*
G01X24877671Y-1222284D01*
G01X24889101Y-1210854D01*
G01X24900531Y-1205266D01*
G01X24917549Y-1205266D01*

G04 Image Start*
G36*
G01X9445263Y-184604D02*
G01X9339649Y-173123D01*
G01X9296774Y-270329D01*
G01X9253899Y-173123D01*
G01X9148286Y-184604D01*
G01X9211049Y-98879D01*
G01X9171327Y-44624D01*
G01X9202820Y-44624D01*
G01X9242520Y-98879D01*
G01X9202820Y-153133D01*
G01X9269647Y-145869D01*
G01X9269647Y-145869D01*
G01X9296774Y-207362D01*
G01X9323901Y-145869D01*
G01X9390729Y-153133D01*
G01X9351029Y-98879D01*
G01X9390703Y-44650D01*
G01X9323876Y-51914D01*
G01X9296774Y9605D01*
G01X9269647Y-51889D01*
G01X9202820Y-44624D01*
G01X9171327Y-44624D01*
G01X9148286Y-13154D01*
G01X9253924Y-24634D01*
G01X9296774Y72571D01*
G01X9339649Y-24634D01*
G01X9445263Y-13154D01*
G01X9382499Y-98879D01*
G01X9445263Y-184604D01*
G37*
G36*
G01X9316269Y929701D02*
G01X9308529Y929113D01*
G01X9300686Y928914D01*
G01X9292843Y929113D01*
G01X9285102Y929701D01*
G01X9277475Y930670D01*
G01X9269970Y932010D01*
G01X9255364Y935765D01*
G01X9241362Y940890D01*
G01X9228040Y947307D01*
G01X9215474Y954940D01*
G01X9203742Y963713D01*
G01X9192920Y973548D01*
G01X9183084Y984371D01*
G01X9174311Y996103D01*
G01X9166678Y1008668D01*
G01X9160261Y1021990D01*
G01X9155137Y1035992D01*
G01X9151382Y1050598D01*
G01X9150042Y1058104D01*
G01X9149072Y1065731D01*
G01X9148484Y1073471D01*
G01X9148286Y1081314D01*
G01X9173686Y1081314D01*
G01X9174343Y1068348D01*
G01X9176270Y1055752D01*
G01X9179405Y1043590D01*
G01X9183682Y1031928D01*
G01X9189037Y1020828D01*
G01X9195405Y1010357D01*
G01X9202723Y1000577D01*
G01X9210925Y991554D01*
G01X9219949Y983351D01*
G01X9229728Y976034D01*
G01X9240200Y969665D01*
G01X9251299Y964310D01*
G01X9262962Y960034D01*
G01X9275123Y956899D01*
G01X9275123Y956899D01*
G01X9287719Y954971D01*
G01X9300686Y954314D01*
G01X9313652Y954971D01*
G01X9326248Y956899D01*
G01X9338410Y960034D01*
G01X9350072Y964310D01*
G01X9361172Y969665D01*
G01X9371643Y976034D01*
G01X9381423Y983351D01*
G01X9390446Y991554D01*
G01X9398649Y1000577D01*
G01X9405966Y1010357D01*
G01X9412335Y1020828D01*
G01X9417690Y1031928D01*
G01X9421966Y1043590D01*
G01X9425101Y1055752D01*
G01X9427029Y1068348D01*
G01X9427686Y1081314D01*
G01X9427029Y1094281D01*
G01X9425101Y1106877D01*
G01X9421966Y1119038D01*
G01X9417690Y1130701D01*
G01X9412335Y1141800D01*
G01X9405966Y1152272D01*
G01X9398649Y1162051D01*
G01X9390446Y1171075D01*
G01X9381423Y1179277D01*
G01X9371643Y1186595D01*
G01X9361172Y1192963D01*
G01X9350072Y1198318D01*
G01X9338410Y1202595D01*
G01X9326248Y1205729D01*
G01X9313652Y1207657D01*
G01X9300686Y1208314D01*
G01X9287719Y1207657D01*
G01X9275123Y1205729D01*
G01X9262962Y1202595D01*
G01X9251299Y1198318D01*
G01X9240200Y1192963D01*
G01X9229728Y1186595D01*
G01X9219949Y1179277D01*
G01X9210925Y1171075D01*
G01X9202723Y1162051D01*
G01X9195405Y1152272D01*
G01X9189037Y1141800D01*
G01X9183682Y1130701D01*
G01X9179405Y1119038D01*
G01X9176270Y1106877D01*
G01X9174343Y1094281D01*
G01X9173686Y1081314D01*
G01X9148286Y1081314D01*
G01X9148484Y1089157D01*
G01X9149072Y1096898D01*
G01X9150042Y1104525D01*
G01X9151382Y1112030D01*
G01X9155137Y1126636D01*
G01X9160261Y1140638D01*
G01X9166678Y1153960D01*
G01X9174311Y1166526D01*
G01X9183084Y1178258D01*
G01X9192920Y1189080D01*
G01X9203742Y1198916D01*
G01X9215474Y1207689D01*
G01X9228040Y1215322D01*
G01X9241362Y1221739D01*
G01X9255364Y1226863D01*
G01X9269970Y1230618D01*
G01X9277475Y1231958D01*
G01X9285102Y1232928D01*
G01X9292843Y1233516D01*
G01X9300686Y1233714D01*
G01X9308529Y1233516D01*
G01X9316269Y1232928D01*
G01X9323896Y1231958D01*
G01X9331402Y1230618D01*
G01X9346008Y1226863D01*
G01X9360010Y1221739D01*
G01X9373332Y1215322D01*
G01X9385897Y1207689D01*
G01X9397629Y1198916D01*
G01X9408452Y1189080D01*
G01X9418287Y1178258D01*
G01X9427060Y1166526D01*
G01X9434693Y1153960D01*
G01X9441110Y1140638D01*
G01X9446235Y1126636D01*
G01X9449990Y1112030D01*
G01X9451330Y1104525D01*
G01X9452299Y1096898D01*
G01X9452887Y1089157D01*
G01X9453086Y1081314D01*
G01X9452887Y1073471D01*
G01X9452299Y1065731D01*
G01X9451330Y1058104D01*
G01X9449990Y1050598D01*
G01X9446235Y1035992D01*
G01X9441110Y1021990D01*
G01X9434693Y1008668D01*
G01X9427060Y996103D01*
G01X9418287Y984371D01*
G01X9408452Y973548D01*
G01X9397629Y963713D01*
G01X9385897Y954940D01*
G01X9373332Y947307D01*
G01X9360010Y940890D01*
G01X9346008Y935765D01*
G01X9331402Y932010D01*
G01X9323896Y930670D01*
G01X9316269Y929701D01*
G37*
G36*
G01X9453086Y-1310237D02*
G01X9369977Y-1310237D01*
G01X9369977Y-1393371D01*
G01X9231420Y-1393371D01*
G01X9231420Y-1310263D01*
G01X9148286Y-1310263D01*
G01X9148286Y-1197106D01*
G01X9173686Y-1197106D01*
G01X9173686Y-1284837D01*
G01X9256820Y-1284837D01*
G01X9256820Y-1367971D01*
G01X9256820Y-1367971D01*
G01X9344552Y-1367971D01*
G01X9344552Y-1284863D01*
G01X9427686Y-1284863D01*
G01X9427686Y-1197106D01*
G01X9344552Y-1197106D01*
G01X9344552Y-1113971D01*
G01X9256820Y-1113971D01*
G01X9256820Y-1197106D01*
G01X9173686Y-1197106D01*
G01X9148286Y-1197106D01*
G01X9148286Y-1171706D01*
G01X9231420Y-1171706D01*
G01X9231420Y-1088571D01*
G01X9369952Y-1088571D01*
G01X9369952Y-1171706D01*
G01X9453086Y-1171706D01*
G01X9453086Y-1310237D01*
G37*
G36*
G01X9453086Y-508000D02*
G01X9383058Y-660400D01*
G01X9453086Y-812800D01*
G01X9300686Y-742772D01*
G01X9148286Y-812800D01*
G01X9172048Y-761086D01*
G01X9200000Y-761086D01*
G01X9290069Y-719684D01*
G01X9300686Y-714807D01*
G01X9311303Y-719684D01*
G01X9401371Y-761086D01*
G01X9359969Y-671017D01*
G01X9355093Y-660400D01*
G01X9359969Y-649783D01*
G01X9401371Y-559714D01*
G01X9311303Y-601116D01*
G01X9300686Y-605993D01*
G01X9290069Y-601116D01*
G01X9200000Y-559714D01*
G01X9241402Y-649783D01*
G01X9246279Y-660400D01*
G01X9246279Y-660400D01*
G01X9241402Y-671017D01*
G01X9200000Y-761086D01*
G01X9172048Y-761086D01*
G01X9218314Y-660400D01*
G01X9148286Y-508000D01*
G01X9300686Y-578028D01*
G01X9453086Y-508000D01*
G37*
G36*
G01X9148286Y653143D02*
G01X9453086Y653143D01*
G01X9300686Y389186D01*
G01X9162951Y627743D01*
G01X9192279Y627743D01*
G01X9300686Y439986D01*
G01X9409093Y627743D01*
G01X9409093Y627743D01*
G01X9192279Y627743D01*
G01X9162951Y627743D01*
G01X9148286Y653143D01*
G37*
G36*
G01X9148286Y1814286D02*
G01X9427686Y1814286D01*
G01X9427686Y1534886D01*
G01X9148286Y1534886D01*
G01X9148286Y1788886D01*
G01X9173686Y1788886D01*
G01X9173686Y1560286D01*
G01X9402286Y1560286D01*
G01X9402286Y1788886D01*
G01X9402286Y1788886D01*
G01X9173686Y1788886D01*
G01X9148286Y1788886D01*
G01X9148286Y1814286D01*
G37*

G04 PolygonModel Start*
G54D17*
G01X8858000Y-1524000D02*
G01X25508281Y-1524000D01*
G01X8858000Y-943429D02*
G01X25508281Y-943429D01*
G01X8858000Y-362857D02*
G01X25508281Y-362857D01*
G01X8858000Y217714D02*
G01X25508281Y217714D01*
G01X8858000Y798286D02*
G01X25508281Y798286D01*
G01X8858000Y1378857D02*
G01X25508281Y1378857D01*
G01X8858000Y1959429D02*
G01X25508281Y1959429D01*
G01X8858000Y2540000D02*
G01X25508281Y2540000D01*
G01X8858000Y2540000D02*
G01X8858000Y-1498600D01*
G01X10309429Y2540000D02*
G01X10309429Y-1498600D01*
G01X11723592Y2540000D02*
G01X11723592Y-1498600D01*
G01X15548977Y2540000D02*
G01X15548977Y-1498600D01*
G01X17010384Y2540000D02*
G01X17010384Y-1498600D01*
G01X18441565Y2540000D02*
G01X18441565Y-1498600D01*
G01X20110744Y2540000D02*
G01X20110744Y-1498600D01*
G01X22030113Y2540000D02*
G01X22030113Y-1498600D01*
G01X25508281Y2540000D02*
G01X25508281Y-1498600D01*

M02*

